<svg width="232" height="232" viewBox="0 0 232 232" fill="none" xmlns="http://www.w3.org/2000/svg">
<g id="Being Happy 1 1">
<g id="character">
<path id="Vector" d="M105.235 212.326C105.235 212.326 106.21 196.411 104.632 191.864C103.843 189.59 100.131 187.363 100.131 187.363L100.177 201.19C100.131 201.144 103.75 215.528 105.235 212.326Z" fill="#000005"/>
<path id="Vector_2" d="M106.256 212.79C106.442 209.914 106.534 207.037 106.534 204.16C106.534 201.84 106.534 199.566 106.395 197.246C106.302 195.576 106.21 193.674 105.56 192.096C105.003 190.797 103.89 189.73 102.776 188.848C102.08 188.245 101.338 187.734 100.549 187.224C100.41 187.131 99.1104 186.389 99.1104 186.899V199.659C99.064 200.03 99.064 200.402 99.1104 200.773C99.2496 201.422 99.3888 202.026 99.6208 202.675C100.224 205.042 101.013 207.408 101.894 209.682C102.266 210.61 102.73 211.677 103.472 212.419C104.075 213.022 105.699 214.09 106.256 212.883C106.488 212.419 104.4 211.352 104.214 211.77C104.168 211.909 104.075 212.002 104.029 212.094C103.982 212.141 104.029 212.094 103.982 212.141C103.936 212.187 103.89 212.094 103.936 212.141C104.029 212.187 104.122 212.187 104.261 212.187C104.539 212.28 104.864 212.466 105.096 212.651C105.003 212.558 105.189 212.744 105.189 212.744L105.142 212.698C105.096 212.698 105.096 212.651 105.189 212.744L105.096 212.651C105.05 212.605 105.003 212.512 104.957 212.419C104.446 211.584 104.029 210.702 103.75 209.821C102.915 207.686 102.312 205.459 101.662 203.232C101.477 202.722 101.338 202.165 101.245 201.654C101.198 201.283 101.198 200.958 101.245 200.587V193.534V187.827L99.8064 187.502C100.317 187.827 100.827 188.198 101.338 188.57C102.266 189.219 103.054 190.101 103.611 191.122C104.307 192.606 104.354 194.555 104.493 196.133C104.725 200.355 104.725 204.578 104.493 208.8C104.446 209.821 104.4 210.888 104.354 211.909C104.168 212.373 106.256 213.254 106.256 212.79Z" fill="#000005"/>
<path id="Vector_3" d="M72.9871 147.181C60.7839 164.674 94.7023 193.07 96.6511 197.107C98.5999 201.144 102.358 208.522 102.405 207.13C102.451 205.738 102.405 193.21 101.059 189.822C99.7135 186.435 89.7839 161.797 89.7839 161.797L72.9871 147.181Z" fill="white"/>
<path id="Vector_4" d="M72.0127 146.624C70.4815 148.805 69.5071 151.357 69.2751 154.048C69.0431 156.693 69.3679 159.384 70.1103 161.936C71.7807 167.736 75.0751 172.979 78.6015 177.758C82.0815 182.352 85.7935 186.714 89.7375 190.89C91.0831 192.374 92.5215 193.813 93.8671 195.298C94.0991 195.576 94.3775 195.854 94.6095 196.133C94.7023 196.226 94.7951 196.365 94.8879 196.458L94.9343 196.55L95.0271 196.643C95.3983 197.154 95.7231 197.71 95.9551 198.267C96.7439 199.938 97.5791 201.562 98.4143 203.186C99.0639 204.531 99.8063 205.784 100.642 207.037C100.874 207.454 101.198 207.779 101.569 208.011C102.312 208.429 103.379 208.197 103.518 207.269C103.565 206.526 103.565 205.738 103.518 204.949C103.472 201.794 103.379 198.685 103.147 195.53C102.962 193.302 102.776 191.075 101.941 188.987C100.131 184.486 98.3215 179.986 96.5119 175.485C94.7487 171.123 92.9855 166.715 91.2223 162.354C91.1295 162.075 90.9903 161.75 90.8511 161.472C90.6191 161.101 90.2943 160.776 89.9695 160.544L85.3295 156.554L74.4719 147.134L73.7759 146.531C73.3119 146.114 72.6623 146.067 72.1519 146.392C71.7807 146.624 71.6415 147.134 71.8735 147.506C71.9199 147.552 71.9663 147.645 72.0127 147.691L77.7199 152.656L86.7679 160.498L88.8559 162.307L88.6239 161.936L91.2223 168.432C92.9391 172.654 94.6095 176.923 96.3263 181.146C97.4863 184.069 98.6927 186.992 99.8527 189.915C100.549 191.771 100.688 193.952 100.827 195.901C101.013 198.36 101.106 200.866 101.152 203.325C101.152 204.206 101.152 205.134 101.152 206.016C101.152 206.294 101.152 206.526 101.152 206.805C101.152 206.898 101.152 206.944 101.152 207.037C101.152 207.083 101.198 206.851 101.198 206.851L101.894 206.619C102.126 206.341 102.544 206.294 102.822 206.48C102.915 206.526 103.101 206.666 102.915 206.526C102.869 206.526 102.73 206.341 102.869 206.48C103.008 206.619 102.822 206.387 102.776 206.387C102.683 206.248 102.544 206.062 102.451 205.923C102.173 205.459 101.894 204.995 101.616 204.531C100.92 203.325 100.27 202.118 99.6671 200.866C99.0639 199.613 98.4143 198.36 97.8111 197.107C97.6255 196.736 97.4399 196.365 97.2079 196.04C96.5119 195.112 95.7231 194.23 94.9343 193.395C92.4287 190.658 89.8303 187.966 87.3711 185.182C84.2623 181.702 81.3391 178.037 78.6943 174.186C76.0959 170.381 73.7759 166.298 72.4767 161.89C71.3167 158.038 71.0383 153.955 72.5695 150.243C72.9407 149.362 73.4047 148.526 73.9615 147.691C74.7039 146.578 72.7087 145.65 72.0127 146.624Z" fill="#000005"/>
<path id="Vector_5" d="M95.8624 109.875C95.8624 109.875 67.8832 140.963 67.4192 153.862C66.9552 166.762 74.9824 181.424 84.3088 186.296C93.6352 191.168 108.762 184.069 103.843 168.525C98.9248 152.981 94.9808 149.872 94.9808 149.872C94.9808 149.872 106.07 111.221 104.771 111.221C103.472 111.221 95.8624 109.875 95.8624 109.875Z" fill="white"/>
<path id="Vector_6" d="M94.8879 109.272C93.5887 110.71 92.3823 112.149 91.1295 113.587C88.2063 117.067 85.3295 120.594 82.5455 124.166C79.2511 128.482 76.0496 132.89 73.1263 137.483C70.7136 141.334 68.3007 145.418 67.0479 149.826C66.4447 151.96 66.2591 154.187 66.4447 156.414C66.6767 160.126 67.4655 163.792 68.7647 167.272C71.1311 173.861 75.1679 180.264 80.7823 184.579C83.0096 186.296 85.5151 187.734 88.2991 188.291C90.6655 188.755 93.1247 188.709 95.4447 188.059C100.178 186.806 104.122 183.234 105.282 178.408C105.931 175.438 105.792 172.33 104.864 169.406C103.797 165.694 102.451 162.075 100.874 158.595C99.9455 156.507 98.8783 154.466 97.6719 152.563C97.1151 151.682 96.5119 150.893 95.7695 150.15C95.6303 150.011 95.4911 149.872 95.3519 149.733L95.8623 150.568C96.3727 148.758 96.8831 146.949 97.3935 145.139C98.5535 141.056 99.6671 136.973 100.781 132.843C101.941 128.528 103.101 124.213 104.168 119.851C104.586 118.227 104.957 116.603 105.282 114.933C105.514 114.005 105.653 113.077 105.699 112.149C105.653 111.638 105.328 111.128 104.864 110.896C104.122 110.432 103.147 110.478 102.358 110.386C100.131 110.107 97.9039 109.69 95.6767 109.318L95.2127 109.226C94.7951 109.133 94.6095 109.365 94.8879 109.736C95.2127 110.2 95.7231 110.525 96.2799 110.618C97.9967 110.896 99.7135 111.221 101.477 111.499C102.544 111.685 103.658 111.824 104.725 111.963C104.864 111.963 105.003 112.01 105.189 112.01C105.235 112.01 105.282 112.01 105.374 112.01C105.142 112.056 104.725 111.731 104.493 111.592C104.214 111.453 103.936 111.221 103.75 110.942C103.797 110.989 103.75 110.803 103.75 110.896C103.75 110.942 103.75 110.989 103.75 111.035C103.704 111.87 103.565 112.752 103.379 113.587C103.054 115.118 102.73 116.65 102.358 118.181C101.338 122.357 100.224 126.533 99.1104 130.709C97.9967 134.792 96.8831 138.875 95.7231 142.912C95.3055 144.35 94.9343 145.742 94.5167 147.181C94.3311 147.877 94.0527 148.526 93.9135 149.222L93.8671 149.315C93.7743 149.64 94.1455 149.965 94.3311 150.15L94.3775 150.197C94.1455 149.965 94.1919 150.058 94.3775 150.197C94.5631 150.336 94.5631 150.429 94.6559 150.522C94.7487 150.614 94.5167 150.336 94.6095 150.475L94.7023 150.614L94.9343 150.893C95.8623 152.099 96.6975 153.445 97.3935 154.79C98.7855 157.435 99.9919 160.219 101.013 163.003C102.266 166.39 103.611 169.87 103.658 173.536C103.797 178.547 101.059 183.234 96.6047 185.507C94.5631 186.574 92.2895 187.131 90.0159 187.131C88.9023 187.131 87.7887 187.038 86.6751 186.76C85.6543 186.528 84.6799 186.11 83.7519 185.6C81.2463 184.208 79.0191 182.074 77.1631 179.8C72.6623 174.139 69.7391 167.458 68.6255 160.312C68.2543 157.714 67.9759 154.976 68.5327 152.378C69.3679 148.248 71.5951 144.35 73.7295 140.778C76.4207 136.277 79.3903 131.962 82.5919 127.786C85.4223 124.027 88.3919 120.315 91.4079 116.696C93.0783 114.701 94.7487 112.706 96.4655 110.803L96.6975 110.525C97.2079 110.107 95.3519 108.762 94.8879 109.272Z" fill="#000005"/>
<path id="Vector_7" d="M165.277 148.805C165.277 148.805 149.501 146.531 144.814 147.738C142.494 148.341 139.942 151.867 139.942 151.867L153.723 152.981C153.723 152.934 168.386 150.522 165.277 148.805Z" fill="#000005"/>
<path id="Vector_8" d="M164.488 148.155C161.658 147.738 158.827 147.413 155.95 147.181C153.677 146.949 151.403 146.81 149.13 146.763C147.413 146.717 145.603 146.67 143.933 147.134C142.634 147.459 141.52 148.434 140.592 149.408C139.989 150.011 139.432 150.661 138.922 151.357C138.597 151.774 140.453 152.517 140.731 152.563L153.398 153.584C153.816 153.63 154.234 153.677 154.651 153.63C155.208 153.584 155.811 153.445 156.368 153.306C158.781 152.888 161.147 152.331 163.514 151.635C164.442 151.357 165.555 151.032 166.344 150.429C167.226 149.686 166.066 148.944 165.416 148.573C165.23 148.48 164.395 148.016 164.256 148.294C164.117 148.573 164.998 149.083 165.091 149.13C164.952 149.037 164.813 148.944 164.72 148.851C164.72 148.851 164.627 148.758 164.674 148.758C164.72 148.758 164.72 148.851 164.674 148.944C164.534 149.13 164.349 149.315 164.163 149.408C163.328 149.872 162.446 150.197 161.518 150.429C159.245 151.078 156.971 151.589 154.651 152.006C154.048 152.099 153.491 152.192 152.888 152.331C152.702 152.378 153.074 152.378 152.795 152.331C152.517 152.285 152.285 152.285 152.006 152.285L144.954 151.728L139.154 151.264L140.963 152.47C142.03 150.986 143.469 149.408 145.139 148.619C146.67 147.923 148.619 148.062 150.243 148.062C154.512 148.155 158.734 148.526 162.957 149.083C163.978 149.222 165.045 149.315 166.066 149.501C166.576 149.594 166.019 148.99 165.926 148.898C165.555 148.48 165.045 148.248 164.488 148.155Z" fill="#000005"/>
<path id="Vector_9" d="M99.3887 118.366C99.3887 118.366 85.8863 165.834 97.7183 175.624C114.19 189.219 145.232 157.714 149.408 156.136C153.584 154.558 161.286 151.357 159.894 151.218C158.502 151.078 146.021 150.058 142.541 151.125C139.061 152.192 113.68 160.034 113.68 160.034C113.68 160.034 117.717 123.331 117.206 122.264C116.696 121.197 99.3887 118.366 99.3887 118.366Z" fill="white"/>
<path id="Vector_10" d="M98.5071 117.856C97.6255 121.011 96.8367 124.166 96.1407 127.368C94.5631 134.142 93.3567 141.056 92.5679 147.97C92.1503 151.635 91.9183 155.347 91.9647 159.013C91.9183 162.261 92.2895 165.462 92.9855 168.618C93.6351 171.216 94.7023 173.814 96.6047 175.763C98.7391 177.99 101.848 179.382 104.864 179.846C111.87 180.96 118.97 177.99 125.002 174.696C131.358 171.216 137.158 166.901 142.819 162.446C144.675 160.962 146.531 159.477 148.434 158.038L148.387 158.085L148.526 157.992L148.712 157.853L149.176 157.574C149.408 157.435 149.594 157.296 149.826 157.203C151.728 156.368 153.723 155.718 155.626 154.883C157.157 154.234 158.874 153.63 160.266 152.656C160.915 152.331 161.147 151.496 160.822 150.846C160.776 150.754 160.73 150.661 160.683 150.614C160.312 150.104 159.848 150.104 159.291 150.058C155.765 149.733 152.238 149.547 148.712 149.501C146.949 149.454 145.139 149.547 143.376 149.733C142.448 149.918 141.566 150.15 140.685 150.429C137.947 151.264 135.163 152.146 132.426 152.981L114.376 158.595L113.216 158.966L114.608 160.498C114.886 157.992 115.165 155.486 115.397 152.981C115.954 147.83 116.464 142.68 116.974 137.483C117.392 133.168 117.856 128.853 118.088 124.538C118.134 123.517 118.366 122.125 117.578 121.382C117.067 120.965 116.418 120.686 115.768 120.547C114.794 120.269 113.773 120.037 112.798 119.805C108.437 118.83 104.075 118.042 99.6671 117.299L99.3887 117.253C98.0895 117.021 98.4143 119.248 99.4815 119.434C103.286 120.083 107.045 120.733 110.803 121.522C111.963 121.754 113.123 122.032 114.283 122.31C114.747 122.403 115.211 122.542 115.629 122.682L116.139 122.821L116.418 122.914C116.603 122.96 116.557 122.96 116.464 122.914L116.789 123.053C116.835 123.053 116.882 123.099 116.928 123.146C116.974 123.192 116.696 122.96 116.789 123.053C116.882 123.146 116.882 123.146 116.742 123.006C116.603 122.821 116.464 122.635 116.418 122.403V122.45C116.371 122.218 116.418 122.125 116.418 122.357C116.418 122.774 116.418 123.192 116.418 123.61C116.371 124.306 116.325 125.002 116.278 125.698C116.278 125.79 116.278 125.93 116.232 126.022C116.232 125.79 116.232 126.069 116.232 126.115C116.232 126.347 116.186 126.579 116.186 126.811L116.046 128.342C115.861 130.662 115.629 133.029 115.397 135.349C114.886 140.453 114.376 145.603 113.819 150.707C113.494 153.63 113.17 156.554 112.891 159.477V159.616C112.798 160.405 113.402 161.426 114.283 161.147L130.57 156.09C133.91 155.069 137.298 154.002 140.638 152.981L142.17 152.517L142.726 152.331L142.958 152.285L143.051 152.238C143.283 152.192 142.958 152.238 143.144 152.238C144.907 151.821 146.81 151.821 148.619 151.821C151.078 151.821 153.538 151.914 156.043 152.053L157.621 152.146L158.317 152.192L158.781 152.238L159.709 152.331C159.802 152.331 159.894 152.378 159.987 152.378C160.034 152.378 160.034 152.378 160.08 152.378H160.126C159.894 152.331 159.709 152.192 159.57 151.96L159.291 151.403C159.338 151.542 159.291 150.522 159.43 150.568C159.384 150.614 159.338 150.661 159.291 150.661C159.198 150.707 159.106 150.754 159.013 150.846C158.549 151.125 158.085 151.357 157.574 151.589C156.229 152.238 154.837 152.795 153.445 153.398C152.053 154.002 150.614 154.558 149.176 155.069C148.805 155.208 148.48 155.394 148.155 155.626C145.371 157.435 142.866 159.709 140.267 161.704C136.37 164.813 132.286 167.736 128.064 170.381C123.61 173.118 118.877 175.624 113.819 177.016C111.592 177.619 109.318 177.944 107.045 177.898C104.91 177.851 102.822 177.387 100.92 176.459C99.9455 175.995 99.0639 175.392 98.2287 174.742C98.0895 174.603 97.9503 174.51 97.8111 174.371C97.7647 174.325 97.6719 174.232 97.6255 174.186C97.4399 174 97.6719 174.278 97.5791 174.139C97.3007 173.814 97.0687 173.536 96.8367 173.211C96.7903 173.118 96.7439 173.026 96.6511 172.933C96.5583 172.84 96.4655 172.654 96.5583 172.794C96.6511 172.933 96.4655 172.654 96.4655 172.608C96.4655 172.562 96.3727 172.376 96.2799 172.283C96.0943 171.912 95.9087 171.494 95.7231 171.123C95.6303 170.938 95.5839 170.706 95.4911 170.52C95.3983 170.195 95.5375 170.566 95.4447 170.381C95.3519 170.195 95.3519 170.149 95.3055 170.01C95.1663 169.546 95.0271 169.082 94.9343 168.664C94.4239 166.622 94.1455 164.534 94.0527 162.4C93.9135 159.941 93.9135 157.482 94.0527 155.022C94.3311 149.826 94.9807 144.675 95.8623 139.571C96.6047 135.117 97.5327 130.709 98.5999 126.301C99.1567 123.934 99.7599 121.568 100.41 119.248C100.456 119.155 100.456 119.016 100.502 118.923C100.595 117.763 98.9247 116.51 98.5071 117.856Z" fill="#000005"/>
<path id="Vector_11" d="M96.0015 107.138C96.0015 107.138 82.4527 165.323 95.1199 180.218C107.787 195.112 134.374 179.754 135.256 170.752C136.137 161.75 132.843 149.547 118.505 152.702C118.505 152.702 130.755 117.067 120.361 103.518C109.968 89.9696 96.0015 107.138 96.0015 107.138Z" fill="white"/>
<path id="Vector_12" d="M94.888 106.766C94.4704 108.483 94.1456 110.2 93.7744 111.917C92.8928 116.232 92.104 120.594 91.408 124.955C90.48 130.662 89.7376 136.37 89.2272 142.123C88.6704 148.016 88.4384 153.955 88.6704 159.894C88.856 164.859 89.3664 170.01 91.0832 174.696C91.7328 176.552 92.7072 178.315 93.9136 179.893C96.0016 182.445 98.7392 184.347 101.848 185.507C107.834 187.827 114.515 187.131 120.454 184.95C125.605 183.048 130.848 179.986 134.235 175.578C134.885 174.742 135.442 173.861 135.859 172.933C136.23 172.005 136.416 171.03 136.416 170.056C136.602 167.318 136.37 164.581 135.674 161.936C135.024 159.291 133.632 156.925 131.683 155.022C129.363 152.888 126.162 151.821 123.053 151.635C121.243 151.589 119.387 151.728 117.624 152.146L119.573 153.074C120.547 150.197 121.382 147.227 122.125 144.258C123.795 137.994 124.909 131.544 125.419 125.094C125.698 121.754 125.651 118.366 125.326 115.072C125.048 112.056 124.259 109.133 123.006 106.395C121.475 103.194 118.877 100.595 115.675 99.0176C112.706 97.6256 109.318 97.4864 106.21 98.5072C101.848 99.9456 98.0432 103.101 95.0736 106.534C95.0272 106.627 94.9808 106.72 94.888 106.766C94.7024 107.091 96.6512 108.112 97.1152 107.602C99.5744 104.632 102.59 102.219 105.978 100.456C107.23 99.8064 108.576 99.3424 109.922 99.1104C110.618 98.9712 111.314 98.9248 112.01 98.9248C112.659 98.9248 113.262 99.0176 113.866 99.2032C114.422 99.3424 114.979 99.5744 115.49 99.8528C116.232 100.27 116.928 100.827 117.531 101.384C118.691 102.498 119.712 103.797 120.501 105.189C123.424 110.571 123.656 117.16 123.285 123.146C122.867 129.549 121.846 135.859 120.269 142.077C119.712 144.35 119.109 146.578 118.459 148.805C118.134 149.918 117.717 151.032 117.438 152.146C117.438 152.192 117.392 152.238 117.392 152.285C117.299 152.563 117.902 152.842 118.042 152.934C118.413 153.166 118.877 153.259 119.341 153.213C121.058 152.795 122.867 152.656 124.677 152.749C125.326 152.795 125.976 152.934 126.626 153.074C127.09 153.213 127.554 153.398 128.018 153.63C130.198 154.744 131.73 156.878 132.704 159.106C133.725 161.565 134.235 164.21 134.282 166.854C134.328 168.989 134.282 171.123 133.214 173.026C132.054 175.021 130.477 176.738 128.667 178.13C126.44 179.939 124.027 181.424 121.475 182.63C116.278 185.09 109.922 186.667 104.261 185.368C102.962 185.09 101.755 184.626 100.595 184.022C99.296 183.326 98.0896 182.398 97.0224 181.331C95.584 179.893 94.4704 178.176 93.6816 176.274C91.872 171.958 91.2224 167.133 90.944 162.493C90.6192 156.786 90.712 151.078 91.2224 145.418C91.64 139.71 92.336 134.05 93.1712 128.389C93.8672 123.795 94.656 119.248 95.5376 114.747C96.0016 112.427 96.4656 110.107 96.976 107.787L97.0224 107.462C97.208 106.952 95.0272 106.256 94.888 106.766Z" fill="#000005"/>
<path id="Vector_13" d="M71.3168 39.9968C71.3168 39.9968 66.3056 25.4736 69.136 23.3856C70.296 22.5504 72.8016 29.6032 72.8016 29.6032C72.8016 29.6032 70.4352 20.9264 71.92 19.8592C73.4048 18.792 75.6784 27.7472 75.6784 27.7472C75.6784 27.7472 75.0288 19.1632 76.56 19.256C78.0912 19.3488 80.04 29.3712 80.04 29.3712C80.04 29.3712 82.4064 25.3344 84.4016 25.3808C88.4848 25.4736 82.6384 36.888 82.6384 36.888C82.6384 36.888 86.3968 56.0976 88.4848 61.6192C90.5728 67.1408 107.277 75.1216 107.277 75.1216C107.277 75.1216 101.987 92.8464 96.6976 92.8464C91.408 92.8464 71.8736 75.2608 71.3168 39.9968Z" fill="white"/>
<path id="Vector_14" d="M72.1519 40.5536C71.1311 37.6768 70.3423 34.7072 69.7391 31.6912C69.3679 29.8352 68.9967 27.84 69.2287 25.9376C69.2751 25.3344 69.5071 24.7312 69.8783 24.2672C69.9247 24.2208 70.0639 24.1744 70.0639 24.128C70.0639 24.0816 70.1567 24.2208 70.1103 24.128C70.0639 24.0352 69.7855 23.896 69.6927 23.8496C69.5999 23.8032 69.4143 23.5712 69.5071 23.7104C69.5999 23.8496 69.4607 23.6176 69.4607 23.6176C69.4607 23.6176 69.5999 23.7568 69.5535 23.7104C69.6927 23.896 69.7855 24.0816 69.9247 24.2672C70.7599 25.752 71.4559 27.3296 71.9663 28.9536C72.1983 29.4176 72.5695 29.8352 73.0335 30.1136C73.2191 30.2528 73.7295 30.5776 73.6367 30.1136C73.7295 30.392 73.6367 30.0672 73.5903 29.9744C73.5439 29.7888 73.4975 29.5568 73.4511 29.3712C73.2655 28.6752 73.1263 28.0256 72.9871 27.3296C72.6159 25.7056 72.3839 24.0816 72.3375 22.4112C72.2911 21.8544 72.3839 21.2976 72.6159 20.7872C72.7087 20.648 72.8479 20.6016 72.9871 20.5088C73.1263 20.416 73.0799 20.5552 72.9407 20.4624C72.8015 20.3696 72.6623 20.2768 72.5231 20.1376C72.4767 20.0912 72.1519 19.8128 72.3375 19.952C72.5231 20.0912 72.2447 19.8128 72.3839 19.9984L72.4767 20.1376C72.5695 20.2768 72.6159 20.3696 72.6623 20.5088C72.8479 20.8336 72.9871 21.1584 73.1263 21.5296C73.4511 22.272 73.6831 23.0144 73.9615 23.8032C74.2863 24.8704 74.6111 25.8912 74.8895 26.9584C75.0751 27.4224 75.3535 27.7936 75.7711 28.072C75.8639 28.1184 76.6527 28.6752 76.6063 28.3504C76.5135 27.3296 76.5135 26.2624 76.4671 25.2416C76.4671 23.7568 76.3743 22.04 76.8383 20.648C76.8847 20.4624 76.9775 20.2768 77.1167 20.0912C77.1631 20.0448 77.2095 19.9984 77.2559 19.952C77.3487 19.8592 77.4879 20.0448 77.2559 19.8592C76.9775 19.6736 76.6991 19.4416 76.4671 19.1632C76.5135 19.256 76.5599 19.3488 76.6527 19.4416C76.7455 19.5808 76.9311 19.9984 77.0239 20.2768C77.6271 21.8544 78.1375 23.4784 78.4623 25.1488C78.7407 26.2624 78.9727 27.376 79.2047 28.4896C79.2511 28.768 80.6895 30.392 80.9215 29.9744C81.4319 29.0928 82.0815 28.2576 82.7311 27.5152C83.1951 26.9584 83.7983 26.4944 84.4943 26.1232C84.7263 26.0304 85.0047 25.984 85.2831 25.984H85.4687C85.5151 25.984 85.5615 26.0304 85.6079 26.0304C85.5615 25.9376 85.6543 26.0304 85.6079 26.0304C85.4687 25.8448 85.1439 25.7056 85.0047 25.52C84.9583 25.4272 84.9119 25.3808 84.8191 25.288C84.8191 25.2416 84.9119 25.3808 84.8191 25.288C84.8191 25.3344 84.8655 25.3808 84.8655 25.3808C84.9119 25.5664 84.9583 25.7056 84.9583 25.8912C85.0047 26.3552 85.0047 26.8656 84.9119 27.3296C84.7263 28.536 84.4015 29.696 83.9375 30.856C83.5199 31.9696 83.1023 33.0368 82.5919 34.104C82.2671 34.6608 82.0351 35.2176 81.8031 35.7744C81.7567 36.0528 81.8031 36.3312 81.8959 36.5632C82.0351 37.352 82.2207 38.1408 82.3599 38.976C83.5199 44.6832 84.7263 50.3904 86.2111 56.0048C86.7679 58.0928 87.1855 60.4592 88.4383 62.2224C90.1087 64.5888 92.5215 66.4912 94.8879 68.1616C98.8783 70.9456 103.101 73.3584 107.462 75.4464L107.694 75.5392L106.395 74.008C105.189 78.0912 103.611 82.0352 101.662 85.7936C101.059 87 100.317 88.16 99.4815 89.2272C98.8783 90.1088 98.0431 90.8048 97.1151 91.3616C96.5583 91.64 95.9087 91.7328 95.2591 91.64H95.2127L95.0271 91.5936C94.8879 91.5472 94.7487 91.5008 94.6559 91.5008L94.2847 91.3616L94.0991 91.2688L94.0063 91.2224C93.7279 91.0832 93.4031 90.944 93.1247 90.7584L92.8927 90.6192C92.8463 90.5728 92.6143 90.4336 92.7535 90.5264C92.8927 90.6192 92.6143 90.4336 92.6143 90.4336C92.6143 90.4336 92.4287 90.3408 92.3359 90.248C92.1503 90.1552 92.0111 90.016 91.8255 89.9232L91.5935 89.7376L91.5007 89.6448C91.3151 89.5056 91.6863 89.784 91.5007 89.6448C91.1295 89.3664 90.7583 89.088 90.4335 88.7632L90.1551 88.5312C90.4335 88.7632 90.1087 88.4848 90.0623 88.4384L89.4591 87.8816L88.9023 87.3248L88.6703 87.0928C88.9023 87.3248 88.5775 87 88.4847 86.9072C88.0671 86.4896 87.6959 86.072 87.2783 85.608C86.8143 85.0976 86.6287 84.912 86.1647 84.3088C82.3599 79.5296 79.3439 74.1472 77.1631 68.44C74.1935 60.5984 72.4767 52.3392 72.1055 43.9408C72.0591 42.7344 72.0127 41.528 71.9663 40.368C71.9663 39.9504 71.3631 39.4864 71.0847 39.2544C70.9919 39.1616 70.2495 38.6048 70.2495 38.976C70.3423 47.8848 71.8271 56.7008 74.7039 65.1456C76.8383 71.456 79.9935 77.3488 83.9839 82.6848C86.7215 86.2576 89.9695 89.784 93.8671 92.104C94.8415 92.7072 96.0479 93.3104 97.2079 93.3568C99.2959 93.4496 100.92 91.176 101.941 89.6448C103.518 87.1392 104.864 84.448 105.885 81.664C106.627 79.7616 107.323 77.8592 107.926 75.9568C107.973 75.864 107.973 75.7712 108.019 75.6784C108.158 75.168 107.091 74.3328 106.72 74.1472C102.961 72.384 99.2959 70.296 95.8159 68.0224C94.6095 67.2336 93.4031 66.352 92.2431 65.424C91.6399 64.96 91.4079 64.728 90.8511 64.2176L90.7119 64.0784L90.6655 64.032L90.3871 63.7536C90.3407 63.7072 90.0623 63.3824 90.2015 63.568C90.1087 63.4288 90.0159 63.336 89.9231 63.1968C89.6911 62.872 89.4591 62.5008 89.2735 62.1296C89.0879 61.712 88.9487 61.248 88.8095 60.8304C88.4383 59.6704 88.1135 58.5104 87.7887 57.3504C86.3039 51.6896 85.0975 45.936 83.9375 40.1824C83.7983 39.3936 83.6127 38.6512 83.4735 37.8624C83.4271 37.7232 83.3807 37.5376 83.3807 37.3984C83.3807 37.3056 83.3343 37.352 83.3343 37.4448C83.3343 37.3984 83.3807 37.352 83.3807 37.3056C84.3087 35.5888 85.0511 33.7792 85.6543 31.9232C86.2575 30.0672 87.2319 27.5152 85.8399 25.7984C85.0511 24.7776 83.8447 23.9424 82.5455 24.5456C81.2463 25.1488 80.2719 26.448 79.4831 27.5616C79.2975 27.84 79.1119 28.1184 78.9727 28.3504L80.6895 29.8352C80.1327 26.9584 79.4831 23.9424 78.3695 21.2048C78.0911 20.4624 77.6735 19.8128 77.1631 19.2096C76.7919 18.8384 75.8639 17.8176 75.2607 18.2816C74.8431 18.6064 74.7503 19.3488 74.6575 19.8128C74.5183 20.6944 74.4719 21.576 74.4719 22.4576C74.4255 23.896 74.4719 25.3344 74.6111 26.7728L76.3279 28.1648C76.0495 27.0976 75.7247 26.0304 75.3999 24.9632C74.8895 23.3392 74.3327 21.6224 73.3119 20.2768C72.8943 19.72 72.0591 18.6992 71.2703 18.6992C70.7599 18.6992 70.5743 19.1632 70.4815 19.5808C70.0639 21.2048 70.5279 23.1072 70.8527 24.6848C71.1311 26.0768 71.4095 27.4224 71.7807 28.768L73.4511 29.928C72.8943 28.3504 72.2447 26.7728 71.4559 25.288C70.9455 24.3136 68.7183 20.88 67.6511 22.9216C66.8159 24.4528 67.2335 26.68 67.4655 28.304C67.8367 30.624 68.3935 32.8976 69.0431 35.1712C69.4143 36.5168 69.8319 37.8624 70.2959 39.208C70.5279 39.672 70.8991 40.0896 71.3631 40.368C71.7343 40.6928 72.2911 41.0176 72.1519 40.5536Z" fill="#000005"/>
<path id="Vector_15" d="M78.7407 28.1648L78.5087 28.2576L78.3695 28.304C78.4623 28.2576 78.4623 28.2576 78.3695 28.304C78.1375 28.3968 77.9519 28.4432 77.7199 28.536C77.3951 28.6752 77.0703 28.8608 76.7455 29.0464C76.2351 29.3712 75.7711 29.8352 75.3999 30.3456C75.1215 30.7168 74.9359 31.1344 74.7967 31.5984C74.7039 31.8304 74.6575 32.1088 74.5647 32.3408C74.5183 32.5728 74.5647 32.8048 74.7503 33.0368C74.9359 33.2688 75.1679 33.5008 75.3999 33.64C75.6319 33.7792 75.9103 33.8256 76.1423 33.7792C76.3279 33.7328 76.5135 33.5936 76.5599 33.3616C76.7455 32.944 76.7919 32.5264 76.9775 32.1088L76.8847 32.2944C77.1167 31.8304 77.4415 31.3664 77.8127 31.0416L77.6735 31.1808C78.0447 30.856 78.4159 30.5776 78.8335 30.392C78.9263 30.3456 79.0191 30.2992 79.1583 30.2528C79.3903 30.16 78.9727 30.2992 79.2047 30.2064L79.3903 30.1136C79.6687 30.0208 79.9471 29.928 80.2255 29.7888C80.4111 29.696 80.5039 29.464 80.4575 29.232C80.4111 28.9536 80.2719 28.7216 80.0863 28.536C79.8543 28.1648 79.2511 27.9792 78.7407 28.1648Z" fill="#000005"/>
<path id="Vector_16" d="M89.4591 113.819C89.4591 113.819 98.5071 69.1824 110.896 71.456C123.285 73.7296 125.28 114.098 125.28 114.098C125.28 114.098 105.003 120.037 89.4591 113.819Z" fill="#000005"/>
<path id="Vector_17" d="M90.6191 113.912C90.8975 112.566 91.1759 111.221 91.5007 109.922C92.2431 106.674 93.0783 103.518 94.0063 100.41C95.1663 96.4192 96.4655 92.4288 97.9503 88.5312C99.2959 84.8192 101.059 81.2464 103.147 77.9056L103.286 77.6736L103.379 77.5344L103.75 77.024C103.982 76.6992 104.261 76.3744 104.493 76.0496C104.957 75.4464 105.467 74.8896 105.978 74.3792C106.117 74.24 106.256 74.1472 106.395 74.008L106.581 73.8688C106.674 73.776 106.488 73.9616 106.674 73.8224C106.859 73.6832 107.184 73.4048 107.462 73.2656C107.741 73.1264 107.973 72.9408 108.251 72.8016L108.437 72.7088C108.576 72.6624 108.715 72.616 108.854 72.5696L109.226 72.4768C108.994 72.5232 109.411 72.4304 109.226 72.4768L109.458 72.4304C109.597 72.4304 109.736 72.384 109.875 72.384H110.107C110.107 72.384 109.829 72.384 110.061 72.384C110.2 72.384 110.339 72.384 110.478 72.4304C110.618 72.4768 111.035 72.5232 110.664 72.4304C110.989 72.5232 111.267 72.616 111.592 72.7088L111.778 72.8016C111.592 72.7088 111.963 72.8944 111.778 72.8016C111.917 72.8944 112.056 72.9408 112.195 73.0336C112.334 73.1264 112.474 73.2192 112.613 73.312L112.798 73.4512L112.938 73.544C113.077 73.6368 112.798 73.4048 112.891 73.4976C113.448 73.9152 113.958 74.4256 114.422 74.936L114.608 75.168C114.654 75.2144 114.794 75.4464 114.701 75.2608C114.84 75.4 114.933 75.5856 115.072 75.7248C115.304 76.0496 115.536 76.3744 115.768 76.7456C116.232 77.488 116.65 78.2304 117.021 79.0192C117.856 80.736 118.552 82.4528 119.109 84.2624C120.408 88.2992 121.382 92.4288 122.078 96.6048C122.728 100.317 123.238 104.075 123.61 107.834C123.749 109.179 123.842 110.478 123.981 111.824L124.027 112.195V112.381C124.027 112.427 124.027 112.566 124.027 112.381L124.074 112.984L124.12 113.866V114.144L124.77 113.402C124.074 113.587 123.378 113.773 122.682 113.912L122.171 114.005C122.125 114.005 122.357 113.958 122.125 114.005L121.754 114.098C121.336 114.19 120.872 114.283 120.454 114.376C119.387 114.608 118.366 114.794 117.299 114.933C111.685 115.861 105.931 116.093 100.27 115.582C96.6975 115.258 93.1711 114.422 89.7839 113.123C89.2271 112.891 88.6239 113.123 88.2991 113.634C88.0207 114.19 88.5311 114.654 88.9951 114.84C95.1199 117.253 101.802 117.902 108.344 117.717C113.262 117.531 118.181 116.928 123.006 115.814C123.934 115.629 124.816 115.397 125.744 115.118C126.022 115.026 126.394 114.747 126.394 114.376C126.301 112.798 126.208 111.267 126.069 109.736C125.744 106.163 125.326 102.637 124.816 99.1104C124.213 94.8416 123.285 90.5728 122.125 86.3968C121.058 82.6848 119.758 78.88 117.578 75.632C115.907 73.1264 113.402 70.76 110.2 70.6208C107.184 70.528 104.678 72.4304 102.822 74.6576C100.41 77.5808 98.6463 81.0608 97.1151 84.4944C95.3983 88.4848 93.9135 92.5216 92.6607 96.6512C91.5471 100.27 90.5263 103.936 89.5983 107.648C89.1343 109.597 88.6703 111.592 88.2527 113.541L88.2063 113.819C88.0671 114.886 90.3871 115.118 90.6191 113.912Z" fill="#000005"/>
<path id="Vector_18" d="M120.037 57.4432C121.057 58.3712 122.217 59.16 123.424 59.7632C125.326 60.6912 128.064 61.1552 129.502 59.2064C130.152 58.1856 130.43 56.9328 130.291 55.7264C130.245 54.7984 129.827 53.9168 129.085 53.36C127.646 52.2464 125.233 52.6176 124.073 53.9632C122.635 55.68 124.352 57.7216 125.651 58.8352C127.693 60.5056 130.245 61.4336 132.889 61.5728C134.606 61.6192 137.808 61.2944 137.993 59.0208C138.179 56.9792 136.23 55.68 134.374 55.5408C132.518 55.4016 130.198 56.0976 129.131 57.7216C127.925 59.6704 129.781 61.3408 131.405 62.176C132.193 62.5936 133.075 62.9648 133.91 63.2432C134.467 63.3824 135.07 63.2896 135.534 62.9184C135.766 62.7792 135.859 62.5008 135.72 62.2688C135.627 62.1296 135.488 62.0368 135.349 62.0368C134.096 61.6656 132.936 61.0624 131.869 60.2736C131.312 59.856 130.987 59.2528 130.987 58.6032C131.033 58.1392 131.265 57.768 131.637 57.4896L131.822 57.3504C132.054 57.2112 131.637 57.4432 131.869 57.304C131.961 57.2112 132.101 57.1648 132.24 57.1184C132.472 56.9792 132.008 57.2112 132.286 57.072L132.518 56.9792C132.611 56.9328 132.704 56.9328 132.75 56.8864C132.425 56.9792 132.797 56.8864 132.843 56.8864L133.075 56.84C132.75 56.8864 133.029 56.84 133.121 56.84H133.4C133.678 56.84 133.168 56.7936 133.446 56.84C133.725 56.84 134.003 56.8864 134.235 57.0256C134.467 57.1184 134.096 56.9328 134.328 57.072L134.56 57.1648C134.653 57.2112 134.792 57.304 134.885 57.3968C135.117 57.6288 135.302 57.9072 135.441 58.232C135.72 58.7424 135.72 59.3456 135.441 59.856C135.302 60.0416 135.581 59.7168 135.395 59.9024C135.349 59.9488 135.302 59.9952 135.209 60.0416C135.395 59.9024 135.209 60.0416 135.163 60.0416C134.885 60.1344 135.395 59.9488 135.117 60.0416L134.885 60.1344C135.163 60.0416 134.885 60.1344 134.838 60.1344L134.56 60.1808C134.281 60.2272 134.699 60.1808 134.467 60.1808C133.585 60.2272 132.657 60.1808 131.822 59.9488C130.801 59.7168 129.827 59.2992 128.899 58.7888C127.646 58.0464 125.558 56.5152 125.79 54.9376C125.79 54.7056 125.883 54.52 126.022 54.3344C126.022 54.288 126.069 54.2416 126.115 54.2416C126.254 54.056 125.976 54.3808 126.161 54.2416C126.208 54.1952 126.254 54.1488 126.301 54.1024C126.069 54.288 126.301 54.1024 126.347 54.056C126.115 54.1024 126.579 53.9632 126.347 54.056C126.44 54.056 126.672 54.0096 126.301 54.056C126.347 54.056 126.44 54.0096 126.486 54.0096C126.718 53.9632 126.208 54.056 126.44 54.0096C126.672 53.9632 126.254 53.9632 126.579 54.0096C126.625 54.0096 126.857 54.056 126.579 54.0096L126.857 54.1024C127.089 54.1952 126.718 54.0096 126.904 54.1488C126.95 54.1952 127.043 54.2416 127.089 54.2416C127.182 54.288 127.275 54.3808 127.321 54.4272C127.507 54.6592 127.693 54.8912 127.785 55.1696C128.064 56.0512 128.11 57.0256 127.832 57.9072C127.739 58.3248 127.553 58.696 127.275 59.0208C127.229 59.0672 127.136 59.16 127.089 59.2064C127.321 59.0208 126.811 59.4384 127.136 59.16C126.765 59.2528 127.089 59.2064 127.136 59.16C126.95 59.16 126.997 59.2064 127.136 59.16H126.904C127.182 59.16 126.811 59.16 126.765 59.16C126.718 59.16 126.44 59.1136 126.672 59.16C126.533 59.1136 126.44 59.1136 126.301 59.0672C125.929 58.9744 125.558 58.7888 125.233 58.6496C124.491 58.2784 123.749 57.8144 123.053 57.304C122.821 57.1184 122.589 56.9328 122.357 56.7936C122.264 56.7472 121.939 56.4224 122.217 56.6544C121.8 56.3296 121.197 56.2832 120.733 56.5152C120.454 56.608 119.665 57.072 120.037 57.4432Z" fill="#000005"/>
<path id="Vector_19" d="M124.306 65.6096C127.739 52.0608 119.48 47.1888 113.355 45.936C107.23 44.6832 102.869 46.5392 101.384 48.952C100.27 50.7616 103.472 62.64 103.472 62.64L112.891 73.4976C112.891 73.4976 121.707 75.9568 124.306 65.6096Z" fill="white"/>
<path id="Vector_20" d="M125.419 65.7024C126.44 61.6192 126.765 57.1184 124.909 53.2208C123.517 50.4368 121.243 48.256 118.459 46.9104C114.979 45.1936 111.035 44.5904 107.184 45.1472C105.142 45.472 103.101 46.1216 101.477 47.4672C100.92 47.8848 100.502 48.4416 100.178 49.0448C100.038 49.4624 99.9455 49.9264 99.9919 50.3904C100.038 51.8288 100.178 53.2208 100.456 54.6128C100.734 56.2368 101.106 57.8144 101.43 59.392C101.662 60.4128 101.941 61.48 102.173 62.5008C102.266 62.872 102.498 63.2432 102.822 63.4752L108.112 69.5536L110.757 72.616C111.174 73.08 111.685 73.9152 112.334 74.1008C113.912 74.472 115.536 74.5184 117.114 74.1936C120.269 73.6368 122.914 71.5952 124.306 68.7184C124.816 67.744 125.187 66.7232 125.419 65.7024C125.651 64.7744 123.378 64.8208 123.146 65.5632C122.45 68.3008 121.104 71.0384 118.459 72.4304C118.598 72.3376 118.274 72.5232 118.227 72.5232C118.134 72.5696 117.995 72.616 117.856 72.6624L117.485 72.8016L117.392 72.848C117.531 72.8016 117.438 72.848 117.346 72.848C117.114 72.8944 116.928 72.9408 116.696 72.9872L116.371 73.0336C116.696 72.9872 116.278 73.0336 116.186 73.0336L115.582 73.08H115.304C115.397 73.08 115.443 73.08 115.211 73.08C114.84 73.08 114.515 73.0336 114.19 73.0336C114.005 73.0336 114.051 72.9872 114.237 73.0336L114.005 72.9872L113.68 72.9408C113.587 72.9408 113.494 72.8944 113.402 72.8944L113.958 73.2192L107.184 65.424L105.421 63.3824C105.189 63.0576 104.91 62.7328 104.586 62.4544C104.493 62.408 104.632 62.6864 104.632 62.5472C104.632 62.408 104.586 62.408 104.586 62.3616C104.539 62.1296 104.446 61.8512 104.4 61.6192C104.168 60.7376 103.936 59.8096 103.75 58.8816C103.194 56.5616 102.73 54.2416 102.451 51.8752C102.312 51.0864 102.312 50.2512 102.405 49.4624C102.59 48.6272 103.426 48.024 104.075 47.56C106.72 45.8432 110.246 45.9824 113.17 46.632C115.072 47.0496 116.882 47.792 118.506 48.8592C120.408 50.112 121.893 51.8752 122.821 53.9632C124.027 56.7008 124.166 59.8096 123.749 62.7328C123.61 63.7072 123.424 64.6352 123.192 65.5632C122.96 66.4912 125.234 66.4448 125.419 65.7024Z" fill="#000005"/>
<path id="Vector_21" d="M96.7904 67.6976C93.5888 62.8256 101.43 51.3184 101.43 51.3184C103.704 51.3184 107.787 49.9264 107.787 49.9264C105.374 56.4688 112.938 59.8096 112.938 59.8096C115.211 56.4688 119.248 58.5568 118.32 62.0832C117.392 65.6096 113.912 65.3776 113.912 65.3776C113.912 65.3776 114.051 74.5184 113.448 75.864C113.448 75.864 106.906 78.8336 104.214 73.0336C104.261 72.9872 98.9712 70.992 96.7904 67.6976Z" fill="white"/>
<path id="Vector_22" d="M97.6719 67.5584C97.4399 67.1872 97.2543 66.7232 97.1615 66.3056C97.0687 65.7024 97.0223 65.0528 97.0687 64.4032C97.2079 63.0112 97.5327 61.6656 98.0431 60.3664C98.9247 57.9536 100.085 55.6336 101.43 53.4528C101.709 52.9888 102.034 52.4784 102.358 52.0144L101.987 52.2C104.214 52.1536 106.488 51.4576 108.53 50.7152L106.813 49.2768C105.978 51.5504 106.256 54.1024 107.648 56.144C108.715 57.7216 110.154 59.0208 111.824 59.9952C112.242 60.2272 112.613 60.4592 113.03 60.6448C113.309 60.784 113.634 60.7376 113.866 60.5056C114.562 59.5312 115.722 58.6496 116.835 59.16C116.603 59.0672 117.16 59.3456 116.882 59.2064L117.067 59.3456C116.974 59.2528 116.974 59.2528 117.067 59.3456C117.206 59.4848 117.299 59.624 117.346 59.7632C117.531 60.3664 117.531 61.016 117.346 61.6192C117.021 62.7792 116.186 63.7072 115.072 64.1248C114.747 64.264 114.376 64.3104 114.005 64.3568H113.634C113.958 64.3568 113.773 64.3568 113.68 64.3568C113.309 64.3104 112.938 64.496 112.984 64.9136C113.03 66.4912 112.984 68.0224 112.984 69.6C112.984 70.76 112.938 71.92 112.845 73.08C112.845 73.8224 112.752 74.5184 112.52 75.2144L112.798 74.936C112.288 75.168 111.778 75.3536 111.221 75.4464C110.107 75.7248 108.947 75.7248 107.787 75.4C107.184 75.2144 106.627 74.8896 106.21 74.4256C106.256 74.472 106.024 74.1936 105.978 74.1472C105.885 74.008 105.746 73.8688 105.699 73.7296C105.328 73.1728 105.142 72.5232 104.586 72.1984C104.307 72.0592 103.982 71.92 103.704 71.8272C103.658 71.8272 103.24 71.6416 103.518 71.7344L103.147 71.5488C102.822 71.3632 102.498 71.224 102.173 71.0384C100.41 70.2032 98.7391 69.136 97.6719 67.5584C97.3935 67.0944 96.8831 66.6304 96.3263 66.7232C95.7695 66.816 95.7231 67.3728 96.0015 67.744C97.9039 70.6208 101.198 72.5696 104.354 73.8224L103.472 73.08C104.446 75.2608 106.395 76.8384 108.762 77.3488C110.293 77.6272 111.917 77.488 113.402 76.9776C113.726 76.9312 114.005 76.792 114.283 76.6528C114.701 76.3744 114.747 75.632 114.794 75.168C114.979 73.312 115.072 71.456 115.072 69.6C115.072 68.3008 115.072 66.9552 115.072 65.656L114.376 66.2128C116.139 66.352 117.856 65.5168 118.83 64.0784C119.619 62.872 119.851 61.3408 119.387 59.9488C118.83 58.5568 117.67 57.536 116.186 57.2112C114.608 56.8864 113.123 57.7216 112.195 59.0208L113.03 58.8816C113.541 59.1136 113.077 58.8816 112.938 58.8352C112.659 58.696 112.427 58.5568 112.195 58.4176C112.01 58.3248 111.824 58.1856 111.685 58.0928C111.963 58.2784 111.453 57.9072 111.36 57.8608C111.174 57.7216 110.942 57.536 110.757 57.3504L110.478 57.072L110.339 56.9328C110.432 57.0256 110.432 57.0256 110.386 56.9792C109.643 56.2368 109.086 55.3552 108.762 54.3808C108.39 53.0816 108.483 51.6896 108.947 50.4832C109.272 49.648 107.926 48.8128 107.23 49.0448C105.56 49.648 103.89 50.0656 102.173 50.2976C101.616 50.3904 100.966 50.2512 100.595 50.7616C100.363 51.1328 100.131 51.504 99.8991 51.8752C97.9967 54.984 96.2335 58.3712 95.4911 61.944C95.0735 63.8928 95.0271 66.0736 96.1407 67.8368C96.4191 68.2544 96.9759 68.7648 97.5327 68.672C98.0895 68.5792 97.9039 67.976 97.6719 67.5584Z" fill="#000005"/>
<path id="Vector_23" d="M108.483 64.5888C108.53 64.8672 108.53 65.1456 108.483 65.424V65.3312C108.483 65.8416 108.298 66.352 108.066 66.816L108.158 66.6768C108.112 66.7232 108.112 66.7696 108.066 66.816C108.019 66.8624 107.88 66.9552 108.019 66.8624C108.066 66.816 108.158 66.7696 108.019 66.8624C107.88 66.9552 108.251 66.7232 108.158 66.7696C108.066 66.816 108.344 66.6768 108.344 66.6768C108.158 66.7696 108.669 66.5376 108.53 66.584C108.39 66.6304 108.901 66.4912 108.715 66.5376C108.622 66.5376 109.086 66.4912 108.901 66.4912C108.715 66.4912 109.179 66.4912 109.04 66.4912C108.994 66.4912 108.994 66.4912 108.947 66.4912C108.854 66.4912 108.808 66.4448 108.715 66.4448L108.854 66.4912C108.669 66.4448 108.483 66.352 108.298 66.2592C108.112 66.2128 107.926 66.2128 107.741 66.2592C107.462 66.3056 107.138 66.3984 106.906 66.5376C106.674 66.6304 106.488 66.7696 106.302 66.9088C106.256 67.0016 106.117 67.1408 106.256 67.1872C106.813 67.4656 107.416 67.5584 108.066 67.4656C108.669 67.3728 109.226 67.1408 109.736 66.816C109.922 66.6768 110.107 66.5376 110.246 66.3056C110.618 65.7024 110.803 65.0064 110.757 64.3104C110.757 64.1248 110.757 63.9856 110.757 63.8C110.757 63.6144 110.386 63.7072 110.339 63.7072C109.782 63.7536 109.272 63.9392 108.808 64.264C108.715 64.3568 108.53 64.4496 108.576 64.5888H108.483Z" fill="#000005"/>
<path id="Vector_24" d="M102.451 58.6032C101.013 59.3456 99.4815 59.856 97.8575 60.1808C92.4751 61.248 91.9183 63.1504 93.6351 64.1712C95.3519 65.192 102.637 64.1248 102.637 64.1248" fill="white"/>
<path id="Vector_25" d="M101.755 57.8608C101.662 57.9072 101.523 58 101.384 58.0464C101.152 58.1392 101.57 57.9536 101.384 58.0464L101.152 58.1392C100.92 58.232 100.688 58.3248 100.502 58.4176C99.2495 58.8352 97.9967 59.2064 96.6975 59.4384C95.5375 59.6704 94.4239 60.088 93.3567 60.6448C92.7071 60.9696 92.1503 61.5264 91.7791 62.176C91.1295 63.568 92.2895 64.8672 93.5887 65.2384C95.2591 65.7024 97.1615 65.5632 98.8783 65.4704C100.178 65.3776 101.43 65.2384 102.683 65.0528C103.24 64.96 103.797 64.5888 103.75 63.9856C103.658 63.3824 103.101 63.0112 102.498 63.104C101.57 63.2432 100.642 63.336 99.7135 63.4288C98.8783 63.5216 98.0431 63.568 97.2079 63.568H96.6047H96.1871C95.8159 63.568 95.4447 63.5216 95.0735 63.4752L94.6095 63.4288H94.5167C94.7023 63.4752 94.4703 63.4288 94.4239 63.3824L94.2383 63.336C94.0527 63.2896 94.1919 63.2896 94.2847 63.3824C94.1919 63.2896 94.0991 63.2432 93.9599 63.1968C93.7743 63.104 94.0527 63.336 93.9599 63.1968C93.9135 63.1504 93.9135 63.104 93.8671 63.104C93.8207 63.0576 93.8207 63.0112 93.7743 63.0112C93.8671 63.0576 93.8671 63.1968 93.8207 63.0576C93.8207 63.0112 93.7743 62.9648 93.7743 62.9184C93.7279 62.872 93.9135 63.1504 93.8207 63.0112C93.8207 62.9648 93.8207 62.9184 93.8207 62.872C93.8207 62.8256 93.8207 63.0112 93.8207 63.0112V62.9184L93.8671 62.7792C93.8671 62.872 93.7743 62.9648 93.8671 62.8256C93.9135 62.7792 93.9135 62.7328 93.9599 62.6864C93.8671 62.8256 93.9135 62.8256 93.9599 62.6864L94.1455 62.5008C94.2383 62.408 94.2847 62.408 94.1455 62.5008C94.2847 62.408 94.4703 62.3152 94.6095 62.2224L94.8415 62.0832L95.0271 61.9904L95.2591 61.8976L95.6303 61.7584C96.1871 61.5728 96.7439 61.3872 97.3007 61.248C99.2495 60.784 101.245 60.3664 103.008 59.392C103.472 59.16 103.611 58.5568 103.333 58.1392C103.333 58.0928 103.286 58.0928 103.286 58.0464C102.915 57.5824 102.219 57.4896 101.755 57.8608Z" fill="#000005"/>
<path id="Vector_26" d="M105.746 59.2528C105.792 59.2064 105.792 59.16 105.838 59.1136L105.792 59.16C105.885 59.0672 106.024 58.9744 106.163 58.928H106.07C106.21 58.8816 106.302 58.8816 106.442 58.8816H106.349C106.395 58.8816 106.488 58.928 106.534 58.928H106.581C106.581 58.928 106.488 58.8816 106.534 58.928C106.581 58.9744 106.581 58.9744 106.627 58.9744C106.674 58.9744 106.534 58.8816 106.581 58.928L106.627 58.9744C106.627 58.9744 106.627 59.0208 106.674 59.0208C106.72 59.0208 106.581 58.8816 106.627 58.928L106.674 58.9744C106.72 59.0208 106.581 58.8352 106.627 58.8816C106.674 59.0208 106.766 59.16 106.906 59.2528C106.998 59.3456 107.091 59.392 107.184 59.392C107.416 59.3456 107.37 59.0208 107.323 58.8352C107.138 58.3248 106.72 57.9536 106.163 57.8144C105.931 57.768 105.746 57.8144 105.514 57.9072C105.328 58 105.189 58.1392 105.05 58.2784C105.003 58.3712 105.003 58.5104 105.003 58.6032C105.05 58.7424 105.096 58.8816 105.189 59.0208C105.328 59.2064 105.606 59.4384 105.746 59.2528Z" fill="#000005"/>
<path id="Vector_27" d="M102.265 57.304C102.358 57.0256 102.265 56.7472 102.08 56.5152C101.941 56.376 101.801 56.2832 101.662 56.2368C101.43 56.144 101.198 56.144 100.92 56.144C100.781 56.144 100.641 56.1904 100.502 56.2832C100.456 56.3296 100.317 56.4224 100.363 56.5152C100.409 56.608 100.456 56.7008 100.549 56.7008C100.688 56.7472 100.827 56.7472 100.966 56.7472H101.059H101.013H100.873L100.966 56.7936L100.827 56.7472C100.873 56.7472 100.92 56.7936 100.966 56.7936L100.873 56.7472C100.92 56.7936 100.966 56.84 101.013 56.84L100.966 56.7472C101.013 56.7936 101.059 56.8864 101.105 56.9792L101.059 56.8864C101.105 56.9792 101.105 57.1184 101.105 57.2112C101.105 57.2576 101.105 57.304 101.105 57.3504C101.105 57.3968 101.152 57.4432 101.198 57.4432C101.291 57.536 101.43 57.536 101.569 57.536C101.709 57.536 101.894 57.4896 101.987 57.4432L102.08 57.3968C102.219 57.4432 102.265 57.3968 102.265 57.304Z" fill="#000005"/>
<path id="Vector_28" d="M160.034 49.9728C160.034 49.9728 168.803 37.352 166.622 34.568C165.741 33.408 161.426 39.5328 161.426 39.5328C161.426 39.5328 166.066 31.8304 164.906 30.392C163.746 28.9536 159.198 36.9344 159.198 36.9344C159.198 36.9344 162.122 28.8608 160.637 28.4896C159.152 28.1184 154.512 37.3056 154.512 37.3056C154.512 37.3056 153.306 32.7584 151.357 32.248C147.366 31.2272 149.918 43.8016 149.918 43.8016C149.918 43.8016 141.102 61.248 137.576 66.0272C134.05 70.8064 115.861 73.9152 115.861 73.9152C115.861 73.9152 116.139 92.3824 121.243 93.8208C126.301 95.352 149.918 83.7984 160.034 49.9728Z" fill="white"/>
<path id="Vector_29" d="M160.869 50.7616C162.864 47.9312 164.581 45.008 166.112 41.8992C166.901 40.2288 167.922 38.2336 167.829 36.3776C167.736 35.3568 167.179 34.4288 166.251 33.872C165.462 33.3152 164.859 33.7792 164.21 34.336C162.818 35.6816 161.565 37.1664 160.498 38.744L162.214 40.3216C162.818 39.3472 163.374 38.3264 163.885 37.3056C164.674 35.7744 165.509 34.104 165.834 32.3872C166.019 31.7376 165.834 31.0416 165.416 30.5312C164.952 29.9744 164.117 29.0928 163.328 29.464C162.771 29.7888 162.307 30.2064 161.936 30.6704C161.379 31.32 160.869 32.016 160.358 32.712C159.616 33.8256 158.92 34.9392 158.224 36.0992L159.894 37.6768C160.312 36.5632 160.683 35.4032 161.008 34.2432C161.286 33.3616 161.472 32.48 161.658 31.552C161.843 30.9024 161.843 30.2064 161.75 29.5568C161.611 29.0928 161.286 28.6288 160.915 28.304C160.637 28.0256 160.173 27.608 159.709 27.608C159.245 27.608 158.781 28.072 158.502 28.4432C157.342 29.8352 156.322 31.32 155.486 32.944C154.837 34.104 154.187 35.264 153.584 36.4704L155.301 37.9552C155.022 36.9808 154.698 36.0064 154.234 35.0784C153.538 33.64 152.331 31.9232 150.707 31.4592C148.526 30.8096 148.248 33.7792 148.202 35.2176C148.155 37.5376 148.387 39.8576 148.805 42.0848C148.851 42.3632 148.898 42.6416 148.944 42.92C148.944 42.9664 148.99 43.0128 148.99 43.0592C148.99 43.1056 149.037 42.92 148.99 43.0128C148.805 43.4768 148.573 43.9408 148.294 44.4048C145.696 49.5088 143.005 54.6128 140.174 59.5776C139.478 60.784 138.782 61.9904 138.04 63.1968C137.53 64.0784 136.973 64.9136 136.277 65.656C134.56 67.4656 131.915 68.44 129.642 69.3216C125.002 70.9456 120.176 72.1984 115.304 73.0336L115.026 73.08C114.979 73.08 114.933 73.1264 114.933 73.1728C114.933 73.1728 114.933 73.1728 114.933 73.2192C114.979 77.5808 115.443 81.896 116.371 86.1648C116.974 88.7632 117.81 91.5008 119.805 93.4032C120.501 94.0992 121.382 94.6096 122.357 94.7952C122.867 94.8416 123.378 94.8416 123.888 94.7488C125.466 94.5168 126.997 94.0064 128.435 93.3568C130.477 92.4288 132.426 91.3152 134.282 90.0624C139.432 86.4432 144.026 82.0816 147.784 77.024C152.981 70.1568 157.018 62.4544 159.755 54.288C160.173 53.128 160.544 51.968 160.869 50.7616C160.962 50.3904 160.451 49.9728 160.219 49.7408C160.173 49.6944 159.245 48.952 159.152 49.184C156.693 57.5824 152.981 65.5168 148.062 72.7552C144.443 78.0912 139.989 82.8704 134.885 86.8608C131.637 89.3664 127.925 91.7328 123.934 92.8464C123.331 93.032 122.682 93.1712 122.032 93.2176C121.754 93.264 121.522 93.264 121.243 93.264H120.918C120.826 93.264 120.594 93.2176 120.733 93.2176C120.594 93.1712 120.454 93.1248 120.315 93.0784C120.269 93.0784 120.222 93.032 120.176 92.9856C120.408 93.1248 120.222 93.032 120.222 92.9856C120.13 92.8 120.362 93.1248 120.222 92.9856C120.083 92.8464 120.408 93.1712 120.269 93.032C120.13 92.8928 120.083 92.8464 120.315 93.0784C120.222 92.9856 120.083 92.8464 120.269 93.032C120.13 92.8464 119.99 92.7072 119.898 92.5216C119.294 91.4544 118.83 90.3408 118.552 89.1808C117.81 86.4432 117.346 83.6128 117.114 80.7824C116.928 78.88 116.789 76.9776 116.742 75.0752C116.742 74.9824 116.742 74.8896 116.742 74.7968L116.65 74.8896C120.686 74.1936 124.63 73.2656 128.528 72.0592C131.173 71.224 133.864 70.296 136.277 68.8576C137.158 68.3472 137.947 67.6976 138.55 66.8624C139.2 65.9808 139.757 65.0992 140.314 64.1712C143.422 59.1136 146.16 53.824 148.851 48.5808L150.197 45.936C150.429 45.5648 150.614 45.1936 150.8 44.776C150.8 44.4048 150.754 44.0336 150.661 43.6624C150.475 42.6416 150.336 41.6672 150.243 40.6464C150.104 39.44 150.058 38.1872 150.058 36.9808C150.011 35.96 150.197 34.9856 150.568 34.0576C150.707 33.7328 150.939 33.4544 151.264 33.2688C151.357 33.2224 152.285 33.176 152.238 33.2688L152.053 33.0832C151.914 32.9904 152.192 33.2224 152.053 33.0832L152.192 33.2688C152.378 33.5472 152.517 33.7792 152.656 34.0576C152.934 34.6608 153.213 35.264 153.398 35.9136C153.491 36.0992 153.538 36.3312 153.584 36.5632C153.584 36.6096 153.677 36.9808 153.63 36.7488C153.77 37.1664 154.048 37.5376 154.419 37.7696C154.512 37.8624 155.254 38.4656 155.347 38.2336C156.507 35.8208 157.853 33.5008 159.384 31.32C159.755 30.7632 160.173 30.2528 160.637 29.8352C160.776 29.696 160.962 29.5568 161.147 29.5104C161.194 29.5104 161.286 29.5104 161.333 29.5104H161.286C160.73 29.3712 160.266 28.9536 160.126 28.3968C160.08 28.304 160.08 28.2576 160.08 28.3504C160.08 28.3968 160.08 28.4432 160.08 28.3504C160.266 29.7888 159.848 31.2272 159.43 32.6192C159.106 33.8256 158.688 35.032 158.27 36.2384C158.085 36.7488 159.802 38.0944 159.941 37.816C160.405 37.0272 160.869 36.2384 161.379 35.4496C162.168 34.1504 163.096 32.8976 164.163 31.784C164.349 31.5984 164.581 31.4128 164.813 31.2736C164.952 31.2272 165.138 31.1344 165.277 31.1344C165.138 31.1808 164.117 30.1136 164.21 30.2528C163.792 29.696 164.117 30.0208 164.117 30.1136C164.117 30.0672 164.163 30.2992 164.163 30.3456C164.163 30.624 164.163 30.9024 164.07 31.1808C163.746 32.7584 162.957 34.2896 162.214 35.728C161.658 36.7952 161.101 37.816 160.498 38.8368C160.219 39.3008 161.982 40.6928 162.168 40.4144C163.003 39.208 163.931 38.0016 164.952 36.888C165.416 36.3776 166.112 35.5424 166.808 35.3104C166.901 35.3104 167.04 35.2176 166.994 35.264L166.437 34.7536C165.926 34.1968 165.741 34.0576 165.88 34.2896C165.88 34.2896 165.834 34.1504 165.88 34.2432C165.926 34.336 165.926 34.3824 165.973 34.4288C166.066 34.7072 166.112 34.9856 166.112 35.264C166.066 37.12 165.138 38.9296 164.349 40.5536C163.374 42.456 162.354 44.3584 161.194 46.168C160.544 47.1888 159.894 48.2096 159.198 49.2304C158.874 49.6016 160.683 51.0864 160.869 50.7616Z" fill="#000005"/>
<path id="Vector_30" d="M154.651 37.7696C154.883 37.9552 155.162 38.1408 155.44 38.3728L155.626 38.512C155.672 38.5584 155.858 38.6512 155.718 38.5584C155.579 38.4656 155.765 38.6048 155.811 38.6512L155.95 38.8368C155.997 38.8832 156.043 38.976 156.136 39.0224C156.322 39.2544 155.997 38.8368 156.182 39.0688C156.275 39.208 156.368 39.3008 156.414 39.44C156.461 39.4864 156.507 39.5792 156.507 39.6256C156.414 39.44 156.507 39.5328 156.507 39.6256C156.554 39.7184 156.6 39.8576 156.646 39.9968C156.693 40.0896 156.693 40.1824 156.739 40.3216C156.646 40.136 156.693 40.2288 156.739 40.3216C156.739 40.368 156.739 40.4144 156.739 40.4608C156.786 40.6464 156.786 40.832 156.786 40.9712C156.786 41.2032 156.786 41.4816 156.786 41.7136C156.925 42.2704 157.342 42.7344 157.899 42.8736C158.317 42.9664 158.92 42.8736 158.827 42.2704C158.781 41.992 158.827 41.7136 158.827 41.4352C158.827 40.9248 158.688 40.4144 158.549 39.9504C158.27 39.2544 157.853 38.5584 157.296 38.0016C156.739 37.4448 156.136 36.9808 155.486 36.5168C155.162 36.2384 154.373 36.0064 154.094 36.424C153.816 36.8416 154.28 37.4912 154.651 37.7696Z" fill="#000005"/>
<path id="Vector_31" d="M102.822 85.7008C102.59 85.5616 102.776 85.6544 102.822 85.7008C102.73 85.6544 102.683 85.608 102.637 85.5616C102.59 85.5152 102.451 85.3296 102.544 85.4688C102.637 85.608 102.498 85.4224 102.498 85.4224C102.498 85.4224 102.405 85.2832 102.358 85.2368C102.405 85.3296 102.498 85.4224 102.405 85.2832C102.358 85.2368 102.358 85.144 102.312 85.144C102.405 85.2832 102.405 85.3296 102.358 85.2368L102.312 85.144C102.266 85.0976 102.266 85.0048 102.219 84.9584C102.266 85.0512 102.266 85.144 102.219 85.0048L102.173 84.8192C102.08 84.5872 102.219 85.0048 102.173 84.7728C102.126 84.6336 102.126 84.4944 102.08 84.3552C102.08 84.3088 102.08 84.216 102.034 84.1696C102.034 84.3088 102.034 84.1232 102.034 84.0768C102.034 84.0304 102.034 83.9376 102.08 83.8912C102.126 83.8448 102.126 83.8448 102.173 83.8448C102.173 83.8448 102.358 83.8448 102.266 83.8448L102.312 83.8912C102.126 83.7984 102.034 83.6592 101.941 83.4736C101.755 83.1952 101.709 83.1488 101.802 83.288L101.755 83.1488C101.802 83.288 101.848 83.4736 101.894 83.6128L101.941 83.7056C101.894 83.6128 101.894 83.6128 101.941 83.7056C101.987 83.7984 101.987 83.8448 101.987 83.8912C102.034 84.0304 102.034 84.216 102.08 84.3552C102.126 84.4944 102.126 84.68 102.173 84.8192L102.219 85.0976C102.219 85.144 102.219 85.1904 102.219 85.2368L103.658 86.4896C103.658 86.6752 103.658 86.3968 103.658 86.3504C103.658 86.304 103.658 86.1648 103.658 86.072C103.658 85.9328 103.704 85.84 103.704 85.7008C103.797 85.376 103.936 85.0512 104.122 84.7728C104.307 84.4944 104.539 84.2624 104.771 84.1232C104.91 84.0304 105.05 83.9376 105.189 83.8912C105.235 83.8448 105.374 83.8448 105.421 83.7984C105.096 83.52 104.818 83.1952 104.678 82.7776C104.632 82.6384 104.632 82.592 104.632 82.6848C104.632 82.7776 104.632 82.7312 104.632 82.6384C104.632 82.6848 104.632 82.7312 104.632 82.7312C104.632 82.824 104.632 82.9168 104.586 83.0096C104.539 83.1024 104.539 83.3344 104.539 83.4736C104.446 83.8448 104.354 84.216 104.214 84.5408C103.936 85.2368 103.565 85.84 103.054 86.3968C102.544 86.9536 103.936 88.7168 104.261 88.3456C105.282 87.232 105.931 85.7936 106.024 84.2624C106.07 83.752 105.931 83.2416 105.653 82.7776C105.374 82.2672 104.864 81.5248 104.214 81.7104C103.565 81.9424 103.008 82.4064 102.683 83.0096C102.266 83.7056 102.08 84.5408 102.219 85.3296C102.312 85.84 102.59 86.304 103.008 86.6288C103.194 86.768 103.704 87.0464 103.658 86.5824C103.611 85.5616 103.379 84.5872 103.054 83.6128C102.822 82.8704 102.358 82.2672 101.755 81.8496C101.384 81.664 100.874 81.664 100.688 82.0816C100.595 82.4992 100.595 82.9632 100.734 83.4272C101.059 84.9584 101.894 86.3504 103.101 87.3248C103.194 87.4176 103.426 87.5104 103.565 87.464C103.704 87.4176 103.658 87.1392 103.658 87C103.565 86.536 103.286 86.0256 102.822 85.7008Z" fill="white"/>
<path id="Vector_32" d="M99.1104 110.061C98.6464 109.272 98.2752 108.483 97.9504 107.648C97.8112 107.323 97.7184 106.906 97.5792 106.534C97.5328 106.349 97.44 106.117 97.3936 105.931C97.3936 105.838 97.3472 105.792 97.3472 105.699C97.3936 105.885 97.3472 105.653 97.3472 105.606C97.3472 105.56 97.3936 105.374 97.3472 105.514C97.3472 105.467 97.3936 105.328 97.3936 105.421C97.3936 105.514 97.3936 105.467 97.44 105.421C97.44 105.467 97.3936 105.467 97.3472 105.467C97.208 105.467 97.0224 105.467 96.8832 105.374C96.8368 105.374 96.5584 105.05 96.6976 105.235C96.5584 105.05 96.6976 105.235 96.6976 105.282C96.7904 105.514 96.6512 105.096 96.6976 105.328C96.744 105.421 96.744 105.56 96.7904 105.699C97.0224 106.534 97.1616 107.416 97.2544 108.298L99.2496 108.808C99.1104 108.437 99.064 108.066 99.1104 107.648C99.1568 107.277 99.2496 106.859 99.4352 106.534C99.4816 106.395 99.5744 106.256 99.6672 106.117C99.8064 105.931 99.9456 105.792 100.085 105.653C100.224 105.514 100.363 105.374 100.549 105.282C100.549 105.282 100.781 105.189 100.734 105.235C100.41 105.235 100.085 105.05 99.8992 104.725C99.8528 104.586 99.8528 104.586 99.8992 104.725C100.085 105.606 99.992 106.534 99.5744 107.37C99.1104 108.298 98.5536 109.133 97.8112 109.875C97.0688 110.664 98.7856 112.242 99.528 111.406C100.92 109.922 102.173 107.973 101.987 105.885C101.987 105.235 101.802 104.632 101.43 104.122C100.966 103.426 100.085 103.147 99.296 103.426C98.4608 103.843 97.8112 104.586 97.44 105.467C96.976 106.442 96.9296 107.555 97.2544 108.576C97.3936 109.086 97.8112 109.504 98.368 109.643C98.7392 109.736 99.3424 109.597 99.296 109.086C99.2032 107.88 98.9712 106.674 98.6464 105.467C98.4608 104.818 98.0432 104.214 97.44 103.843C96.8832 103.426 96.1408 103.472 95.6304 103.936C94.888 104.725 95.4912 106.163 95.816 106.998C96.1872 108.158 96.6976 109.272 97.3008 110.293C97.5328 110.85 98.0896 111.174 98.6928 111.128C99.064 111.035 99.296 110.664 99.2496 110.293C99.2032 110.246 99.1568 110.154 99.1104 110.061Z" fill="white"/>
<path id="Vector_33" d="M118.506 107.694C117.995 107.462 117.531 107.138 117.16 106.674C116.789 106.21 116.51 105.746 116.278 105.235C116.093 104.771 115.814 104.122 116.139 103.658C116.186 103.611 116.232 103.565 116.232 103.518L116.278 103.472L114.886 103.982C114.933 103.982 115.026 103.982 115.072 104.029C115.304 104.075 115.536 104.214 115.722 104.4C116.186 104.91 116.278 105.699 116.325 106.349C116.325 106.488 118.32 105.885 118.506 105.653C119.062 104.818 119.758 104.075 120.547 103.426L118.506 104.075C118.784 105.56 118.227 107.045 117.114 108.019C117.021 108.112 117.253 108.112 117.253 108.112C117.485 108.066 117.717 108.019 117.949 107.926C118.413 107.834 118.877 107.602 119.248 107.37C120.408 106.349 120.965 104.818 120.686 103.333C120.64 103.101 118.784 103.843 118.645 103.982C117.763 104.632 117.021 105.421 116.418 106.349L118.598 105.606C118.552 104.91 118.459 104.122 117.949 103.611C117.253 102.915 116.278 103.194 115.49 103.518C115.026 103.704 114.283 103.89 114.051 104.4C113.912 104.678 113.866 105.003 113.958 105.282C114.144 105.931 114.422 106.581 114.84 107.091C115.211 107.741 115.814 108.251 116.51 108.53C116.696 108.53 116.882 108.483 117.021 108.437C117.299 108.344 117.578 108.251 117.856 108.158C118.088 108.066 118.274 107.973 118.506 107.88C118.506 107.787 118.598 107.741 118.506 107.694Z" fill="white"/>
<path id="Vector_34" d="M111.406 93.8672C111.174 93.7744 111.546 94.0064 111.406 93.8672C111.221 93.7744 111.36 93.8672 111.546 94.0064C111.453 93.9136 111.499 93.96 111.638 94.1456L111.592 94.0992C111.546 94.0528 111.592 94.0528 111.685 94.2384C111.592 94.0064 111.731 94.424 111.685 94.2384C111.685 94.192 111.638 94.192 111.638 94.1456C111.638 94.0528 111.638 94.0992 111.638 94.192C111.638 94.1456 111.638 94.0992 111.638 94.0528C111.638 94.0064 111.638 94.0064 111.638 93.96C111.638 93.8672 111.638 93.9136 111.638 94.0064C111.638 93.96 111.638 93.9136 111.685 93.8672C111.731 93.8208 111.731 93.728 111.778 93.6816C111.685 93.8208 111.824 93.6816 111.824 93.6352L111.917 93.5424L112.01 93.496C111.917 93.5424 111.917 93.5424 112.01 93.496C112.056 93.496 112.288 93.3568 112.381 93.4032H112.566C112.659 93.4032 112.659 93.4032 112.566 93.4032C112.474 93.4032 112.613 93.4032 112.659 93.4496C112.706 93.496 112.706 93.4496 112.566 93.4032L112.659 93.4496C112.474 93.3568 112.474 93.3104 112.52 93.3568L112.566 93.4032C112.381 93.264 112.381 93.2176 112.427 93.3104C112.288 93.1248 112.242 93.0784 112.334 93.1712C112.427 93.264 112.381 93.2176 112.242 93.032C112.242 93.0784 112.288 93.0784 112.288 93.1248C112.242 93.0784 112.195 92.8928 112.242 93.0784C112.242 92.9392 112.288 93.264 112.242 93.0784C112.242 93.1248 112.242 93.1712 112.242 93.264V93.3104C112.242 93.4032 112.242 93.3568 112.242 93.264C112.242 93.3104 112.195 93.4032 112.195 93.4496C112.195 93.496 112.149 93.5424 112.149 93.5888C112.149 93.6352 112.102 93.6352 112.102 93.6816C112.102 93.728 112.056 93.728 112.149 93.6352C112.195 93.6352 111.963 93.8672 111.963 93.8672L111.917 93.9136C112.01 93.8672 112.01 93.8672 111.963 93.9136L111.778 93.96L113.355 95.12C113.309 94.9344 113.402 95.3056 113.355 95.0736C113.355 95.0272 113.355 95.0272 113.355 95.12L113.402 95.0272C113.402 94.9808 113.448 94.9344 113.448 94.8416C113.402 94.9808 113.494 94.7952 113.494 94.7952C113.541 94.7488 113.587 94.656 113.68 94.6096C113.68 94.6096 113.866 94.4704 113.773 94.5632C113.912 94.4704 114.005 94.424 114.144 94.3776C114.283 94.3312 114.422 94.2848 114.608 94.2384L114.701 94.192C114.747 94.192 114.747 94.192 114.701 94.192C113.866 93.1248 113.494 92.8464 113.68 93.3568V93.4032C113.68 93.264 113.634 93.264 113.68 93.3568C113.68 93.4032 113.68 93.4496 113.68 93.496C113.68 93.5424 113.68 93.5888 113.68 93.6816C113.68 93.7744 113.68 93.7744 113.68 93.8672C113.68 93.96 113.634 94.0992 113.68 94.0064C113.726 93.9136 113.68 94.0992 113.634 94.1456L113.587 94.3312C113.541 94.4704 113.494 94.5632 113.448 94.7024C113.402 94.8416 113.355 94.9344 113.262 95.0736C113.17 95.2128 113.355 94.9808 113.216 95.12L113.077 95.3056C112.938 95.4912 112.752 95.6768 112.566 95.8624C112.52 95.9088 112.474 95.9552 112.381 96.0016C112.288 96.048 112.195 96.0944 112.334 96.048C112.195 96.1408 112.102 96.1872 111.963 96.2336C111.499 96.4192 111.778 97.0688 111.963 97.3472C112.149 97.5792 112.381 97.8112 112.659 97.904C112.845 98.0432 113.077 98.0432 113.309 97.9968C114.376 97.5328 115.118 96.6048 115.35 95.4448C115.536 94.7024 115.443 93.9136 115.026 93.264C114.654 92.6608 113.958 92.336 113.309 92.4288C113.03 92.4752 112.752 92.568 112.474 92.7072C112.102 92.8464 111.824 93.1248 111.638 93.4496C111.406 93.8208 111.36 94.2848 111.499 94.7024C111.638 95.0736 111.87 95.3984 112.195 95.584C112.427 95.816 112.752 95.9088 113.077 95.816C113.634 95.6304 114.005 95.1664 114.051 94.6096C114.144 93.1248 113.03 91.7792 111.546 91.6864C111.267 91.6864 111.035 91.6864 110.757 91.7328C110.107 91.9648 109.69 92.568 109.69 93.2176C109.736 94.2848 110.386 95.2128 111.36 95.6304C111.546 95.7232 111.778 95.7696 112.01 95.7232C112.195 95.6304 112.288 95.4448 112.288 95.2592C112.288 94.5632 111.917 94.0992 111.406 93.8672Z" fill="white"/>
<path id="Vector_35" d="M113.401 81.432L113.262 81.4784C113.355 81.4784 113.401 81.4784 113.309 81.4784C113.216 81.4784 113.216 81.4784 113.401 81.432L113.216 81.4784C113.401 81.5248 113.401 81.5248 113.309 81.4784C113.216 81.432 113.216 81.432 113.401 81.5248L113.262 81.4784C113.169 81.432 113.169 81.432 113.355 81.5248L113.309 81.4784C113.216 81.3856 113.216 81.432 113.355 81.5248C113.262 81.4784 113.216 81.3856 113.169 81.2928C113.262 81.3856 113.262 81.3856 113.169 81.3392L113.077 81.2C113.03 81.1072 112.984 81.0144 112.937 80.968L112.798 80.736C112.798 80.6896 112.659 80.4576 112.752 80.6432C112.659 80.504 112.613 80.3648 112.613 80.2256C112.613 80.3184 112.613 80.3184 112.613 80.272C112.613 80.2256 112.613 80.1792 112.613 80.1792C112.566 80.272 112.613 80.04 112.613 80.1792C112.659 80.0864 112.659 80.1328 112.566 80.2256C112.613 80.1792 112.613 80.1792 112.52 80.2256C112.241 80.272 111.963 80.1792 111.731 79.9936C111.824 80.04 111.824 80.04 111.685 79.9472L111.777 80.04C111.824 80.1328 111.824 80.0864 111.731 79.9936L111.824 80.1328C111.917 80.272 112.009 80.4112 112.102 80.5504C112.149 80.6432 112.195 80.736 112.241 80.8288C112.288 80.9216 112.288 80.9216 112.288 80.968C112.334 81.1536 112.427 81.2928 112.473 81.432C112.52 81.5712 112.566 81.8032 112.659 81.9888C112.705 82.0816 112.705 82.1744 112.705 82.2672C112.705 82.2672 112.752 82.4992 112.705 82.36C112.752 82.7312 112.798 83.1488 112.752 83.52C112.705 84.0304 113.355 84.4944 113.819 84.5872C114.19 84.68 114.886 84.7728 114.933 84.216C114.979 83.3808 114.886 82.5456 114.608 81.7568C114.329 80.8752 113.912 80.0864 113.309 79.4368C112.798 78.88 112.102 78.6016 111.406 78.6016C110.896 78.6016 110.478 78.9728 110.432 79.4832C110.432 79.9008 110.525 80.3184 110.757 80.6432C110.942 81.0608 111.174 81.432 111.499 81.8032C112.241 82.7312 113.633 83.3808 114.84 82.9632C115.35 82.7776 115.211 82.2208 114.886 81.9424C114.515 81.5248 113.912 81.3392 113.355 81.432H113.401Z" fill="white"/>
<path id="Vector_36" d="M96.5584 96.28C96.6048 96.1408 96.6976 95.9552 96.7904 95.816L96.8368 95.7232C96.6976 95.9552 96.744 95.8624 96.7904 95.7696C96.8368 95.6768 96.8832 95.6304 96.976 95.584L97.0688 95.4912C97.1616 95.3984 96.976 95.584 96.976 95.584C97.0688 95.5376 97.1152 95.4912 97.1616 95.3984C97.2544 95.3056 97.5328 95.2128 97.1616 95.3984L97.3936 95.2592L96.0016 95.0736C96.0944 95.2592 96.1872 95.4448 96.2336 95.6304L96.1872 95.4448C96.28 95.7232 96.28 96.0016 96.28 96.2336V96.048C96.28 96.1872 96.2336 96.28 96.2336 96.4192C96.2336 96.4656 96.1872 96.512 96.1872 96.5584C96.1408 96.744 96.28 96.3728 96.1872 96.512C96.0944 96.6512 96.048 96.6976 96.0016 96.8368C96.0944 96.6048 96.0944 96.6976 96.048 96.7904C96.0016 96.8368 95.9552 96.8832 95.9552 96.9296C95.8624 97.0224 95.7232 97.0688 96.0016 96.8832C95.9552 96.9296 95.9088 96.9296 95.9088 96.976L95.7696 97.0688C95.584 97.208 96.048 96.8832 95.816 97.0224L95.6768 97.1152C95.4912 97.208 95.9552 97.0224 95.7696 97.0688L95.6304 97.1152C95.352 97.208 95.8624 97.0688 95.6768 97.1152C95.352 97.1616 95.0736 97.2544 94.8416 97.44C94.6096 97.5792 94.4704 97.8112 94.3776 98.0896C94.3312 98.3216 94.3776 98.5536 94.5632 98.6928C94.7488 98.832 95.0272 98.9248 95.2592 98.8784C96.4656 98.6928 97.4864 97.9968 98.0896 96.976C98.6 96.048 98.6 94.9808 98.0896 94.0528C97.8112 93.5888 97.1152 93.6816 96.6976 93.8672C95.7696 94.3312 95.0272 95.0736 94.6096 96.048C94.5168 96.2336 94.4704 96.512 94.5632 96.6976C94.7024 96.8832 94.888 97.0224 95.12 97.0688C95.3984 97.1152 95.6768 97.0224 95.9552 96.8832C96.1872 96.744 96.4192 96.5584 96.5584 96.28Z" fill="white"/>
</g>
<g id="love">
<path id="Vector_37" d="M59.0672 87.3712C59.9024 87 60.784 86.7216 61.6656 86.5824C61.712 86.5824 62.0368 86.5824 61.944 86.536C61.8512 86.4896 62.1296 86.768 62.176 86.8144C62.4544 87.1392 62.6864 87.5104 62.872 87.8816C63.6144 89.2736 64.032 91.3616 63.2432 92.8464C63.1504 93.032 63.0112 93.1712 62.872 93.3104C62.7792 93.4032 62.5937 93.4496 62.4545 93.496H62.408C62.408 93.496 62.5008 93.5424 62.5472 93.5424C62.872 93.4496 62.5472 93.6816 62.5936 93.5888C62.64 93.496 62.5472 93.4496 62.5472 93.4032C62.5008 92.8 62.872 92.2432 63.4288 92.0112C64.8208 91.4544 65.9344 92.8928 66.352 94.0064C67.0944 96.048 66.3984 98.2752 65.8416 100.27C65.5632 101.291 67.7904 101.894 68.0688 100.874C68.8112 98.3216 69.5073 95.3984 68.1153 92.9392C66.9089 90.8048 63.7536 89.3664 61.48 90.8512C60.5984 91.408 59.9953 92.6144 60.3665 93.6352C60.8769 94.9344 62.5008 95.352 63.7536 94.9808C66.4448 94.1456 66.0736 90.3408 65.2848 88.2992C64.7744 86.9536 63.8 85.4224 62.3152 85.0512C60.8304 84.68 59.0208 85.2832 57.6752 85.8864C56.3296 86.4896 58.0928 87.7424 59.0672 87.3712Z" fill="#518C3C"/>
<path id="Vector_38" d="M51.0401 55.216C51.0865 55.216 51.3649 55.2624 51.0401 55.216L50.9473 55.1696C50.8545 55.1696 50.9009 55.1696 51.0401 55.216C51.0401 55.216 50.9009 55.1696 50.8545 55.1232C50.6689 55.0304 50.9937 55.2624 50.9009 55.1696C50.8545 55.1232 50.5761 54.9376 50.6225 54.8912C50.7153 54.984 50.7617 55.0304 50.7153 54.984L50.6225 54.8912C50.5761 54.8448 50.5297 54.752 50.4833 54.7056C50.4369 54.6592 50.3441 54.4736 50.4369 54.6128C50.5297 54.752 50.3905 54.52 50.3905 54.4736C50.3441 54.3344 50.2977 54.1952 50.2513 54.056C50.2513 54.0096 50.1585 53.7776 50.2513 54.0096C50.2513 53.9168 50.2049 53.8704 50.2049 53.7776C50.1585 53.6384 50.1585 53.4992 50.1585 53.36C50.1585 53.3136 50.1585 53.2208 50.1585 53.1744C50.1585 53.128 50.1585 52.896 50.1585 53.128C50.1585 53.0352 50.1585 52.9424 50.1585 52.8496C50.1585 52.8032 50.2513 52.6176 50.2049 52.7104C50.1585 52.8032 50.2049 52.7568 50.2513 52.664C50.2513 52.7104 50.2049 52.7568 50.1585 52.7568C50.1121 52.8032 50.1121 52.8032 50.2049 52.7568L49.8801 52.8032C49.6945 52.7568 49.6945 52.7568 49.7873 52.8032L49.6481 52.7568C49.5089 52.6176 49.8337 52.8496 49.6481 52.7568C49.6945 52.8032 49.8337 52.9888 49.6945 52.8032L49.8337 52.9888L49.9265 53.128L50.0193 53.2672L50.6689 54.4272C50.9009 54.9376 51.4113 55.2624 51.9681 55.216C52.4321 55.216 52.9425 54.8448 52.8033 54.288C52.7569 54.056 52.7105 53.8704 52.7105 53.6384C52.7105 53.592 52.7105 53.4992 52.7105 53.4528C52.7105 53.5456 52.7105 53.5456 52.7105 53.4528C52.7105 53.36 52.7105 53.2672 52.7569 53.1744C52.8033 52.9424 52.8497 52.7568 52.8961 52.5712C52.9425 52.4784 52.9425 52.4784 52.8961 52.5712C52.8961 52.5248 52.9425 52.4784 52.9425 52.432C52.9425 52.3856 53.0353 52.2464 53.0817 52.1536C53.1745 51.968 53.3137 51.7824 53.4065 51.5968C53.3137 51.736 53.4993 51.504 53.4993 51.504C53.5921 51.4112 53.6849 51.3184 53.7777 51.2256L53.8705 51.1792C53.7777 51.2256 53.7777 51.2256 53.9169 51.1792L54.1025 51.0864C54.0097 51.1328 54.0097 51.1328 54.0561 51.0864C54.1025 51.04 54.1025 51.0864 54.0097 51.0864C53.9169 51.0864 53.8241 51.04 53.7777 50.9936C53.6385 50.9008 53.6385 50.9008 53.7313 50.9936C53.6385 50.9008 53.6385 50.9008 53.6849 50.9472C53.7313 50.9936 53.7313 50.9936 53.6849 50.9008C53.7313 50.9472 53.7313 50.9936 53.7777 51.0864C53.8705 51.272 53.7777 50.9936 53.8241 51.1792C53.8241 51.2256 53.8241 51.5504 53.8241 51.3648C53.8241 51.4576 53.8241 51.5504 53.7777 51.6432C53.7777 51.6896 53.6849 52.0144 53.7313 51.8288C53.6849 51.9216 53.6385 52.0144 53.6385 52.1072C53.5457 52.2928 53.4065 52.5248 53.3137 52.7104C53.2673 52.8032 53.2209 52.896 53.1281 52.9424C53.0353 52.9888 53.0353 53.0352 53.0817 52.9888L52.9425 53.128C52.8033 53.3136 52.6177 53.4992 52.4785 53.6384L51.3185 54.8448C50.9937 55.2624 51.0401 55.8656 51.4113 56.1904L51.4577 56.2368C51.8289 56.5616 52.6177 56.7936 53.0353 56.376C53.7777 55.6336 54.5201 54.8448 55.1697 54.0096C55.7729 53.2672 56.0977 52.2928 56.0049 51.3184C55.8193 50.0192 54.6593 48.9056 53.3137 49.1376C52.2929 49.3232 51.5505 50.2048 51.0865 51.04C50.6225 51.968 50.4369 53.0816 50.6689 54.1024L52.8033 54.0096C52.2465 52.9888 51.7825 51.6896 50.7153 51.0864C50.0657 50.6688 49.2769 50.6688 48.6273 51.1328C48.2097 51.5504 47.9777 52.2 48.0705 52.8032C48.0705 53.7312 48.3489 54.6592 48.8593 55.4944C49.4625 56.4224 50.3905 57.0256 51.5041 57.1648C51.9681 57.2112 52.4321 56.8864 52.4785 56.4224C52.4785 56.376 52.4785 56.2832 52.4785 56.2368C52.1537 55.7264 51.6433 55.2624 51.0401 55.216Z" fill="#518C3C"/>
<path id="Vector_39" d="M153.955 108.947C153.074 104.632 155.208 100.224 158.549 97.5328C159.384 96.8832 160.219 96.28 161.147 95.7696C162.029 95.2592 162.957 94.8416 163.931 94.5632C165.045 94.3312 165.973 94.9808 166.715 95.7696C167.458 96.6048 168.107 97.5328 168.618 98.5072C169.546 100.131 170.659 102.173 170.52 104.122C170.52 104.493 170.427 104.864 170.242 105.189C170.242 105.189 170.01 105.467 170.056 105.467C170.102 105.467 170.427 105.282 170.427 105.282C170.427 105.282 170.334 105.282 170.242 105.235C169.36 105.05 168.757 104.261 168.386 103.472C167.55 101.662 167.968 99.4352 168.757 97.7184C169.592 95.9088 170.938 94.3312 172.654 93.3104C174.789 92.0112 177.155 92.4752 179.011 94.0992C180.914 95.7696 181.795 98.3216 182.538 100.688L182.584 100.456C182.352 100.827 182.584 100.734 183.419 100.131H183.28C183.141 100.085 183.002 100.038 182.816 99.9456C182.538 99.7136 182.306 99.4352 182.12 99.1104C181.749 98.4144 181.47 97.6256 181.285 96.8368C180.821 95.2128 180.728 93.5424 181.053 91.872C181.517 89.3664 183.234 86.6752 185.971 86.3968C186.528 86.3504 187.038 86.072 187.456 85.7008C187.734 85.376 187.688 85.144 187.224 85.1904C183.883 85.608 181.006 87.6496 179.568 90.6656C178.872 92.2896 178.594 94.0992 178.826 95.8624C178.918 96.744 179.104 97.672 179.382 98.5072C179.568 99.296 179.939 100.085 180.496 100.734C181.006 101.291 181.749 101.477 182.491 101.291C183.141 101.152 184.394 100.642 184.626 99.8992C184.718 99.5744 184.44 99.1104 184.347 98.7856C184.208 98.3216 184.069 97.904 183.883 97.4864C183.558 96.6512 183.187 95.8624 182.723 95.0736C181.888 93.6352 180.589 92.5216 179.058 91.8256C177.387 91.2224 175.578 91.2688 173.954 91.9184C170.613 93.1248 167.968 95.6768 166.576 98.9248C165.973 100.363 165.787 101.941 166.019 103.472C166.251 104.771 167.133 106.256 168.525 106.534C170.102 106.72 171.68 105.931 172.422 104.493C172.979 103.286 172.701 101.848 172.283 100.642C171.634 98.9248 170.798 97.3008 169.685 95.816C168.71 94.4704 167.55 93.1712 165.741 93.3104C163.931 93.4496 162.029 94.4704 160.451 95.3056C158.874 96.1408 157.435 97.208 156.09 98.4144C153.584 100.781 151.821 103.982 151.728 107.462C151.728 108.298 151.774 109.133 151.96 109.922C152.006 110.386 154.141 109.597 153.955 108.947Z" fill="#518C3C"/>
<path id="Vector_40" d="M186.574 55.8656C185.368 53.9168 184.672 51.6432 184.579 49.3232C184.579 48.8592 184.626 48.4416 184.672 47.9776C184.672 47.7456 184.718 47.8848 184.718 47.8384C184.672 47.6064 184.208 48.1632 184.115 48.024C184.162 48.0704 184.301 48.1632 184.347 48.1632C184.44 48.256 184.533 48.3488 184.579 48.4416C185.229 49.3232 185.461 50.6224 185.461 51.6896C185.461 52.7568 187.41 52.2 187.642 51.4576C187.966 50.3904 188.384 48.7664 189.405 48.2096C189.219 48.3024 189.544 48.1632 189.59 48.1632C189.358 48.256 189.822 48.1168 189.73 48.1168C189.915 48.1168 190.101 48.1168 190.286 48.1632C190.704 48.256 191.029 48.6272 191.122 49.0448C191.261 49.6944 190.89 50.3904 190.518 50.9472C190.054 51.6432 189.498 52.2464 188.987 52.896L185.646 57.1648C185.414 57.3968 185.461 57.8144 185.693 58C185.786 58.0928 185.878 58.1392 186.018 58.1392C186.574 58.232 187.178 58 187.549 57.536L190.797 53.4064C191.725 52.2 192.978 50.9472 193.349 49.416C193.674 48.1632 192.885 46.864 191.632 46.5856C190.333 46.2608 188.987 46.4928 187.92 47.328C186.574 48.3024 185.971 49.88 185.507 51.4112L187.688 51.1792C187.642 49.7872 187.317 47.9776 186.296 46.9568C185.09 45.7504 183.002 46.3536 182.445 47.9312C182.259 48.5808 182.213 49.2768 182.306 49.9728C182.352 50.7616 182.445 51.504 182.63 52.2464C182.955 53.7776 183.558 55.216 184.347 56.5616C184.672 56.9792 185.229 57.1184 185.693 56.84C186.11 56.84 186.853 56.2832 186.574 55.8656Z" fill="#518C3C"/>
<path id="Vector_41" d="M176.134 166.298C175.949 166.205 175.763 166.066 175.578 165.926C175.578 165.926 175.346 165.694 175.438 165.787L175.299 165.648C175.346 165.741 175.346 165.694 175.253 165.602C175.067 165.416 175.346 165.741 175.16 165.509C174.974 165.277 175.253 165.694 175.114 165.416C175.067 165.323 175.067 165.277 175.114 165.37C175.114 165.323 175.067 165.277 175.067 165.23C175.021 165.138 175.021 165.091 174.974 164.998C174.742 164.302 174.742 163.374 175.346 162.864C175.578 162.632 175.902 162.586 176.134 162.771C175.995 162.678 176.227 162.864 176.227 162.91C176.227 162.957 176.459 163.189 176.32 163.05C176.413 163.189 176.506 163.328 176.598 163.467C176.598 163.514 176.784 163.792 176.691 163.606C177.202 164.488 177.619 165.416 177.851 166.39C177.99 166.854 178.269 167.272 178.594 167.597C178.686 167.69 179.104 168.107 179.197 167.829C179.614 166.901 179.429 165.88 179.754 164.952C179.893 164.581 180.171 164.256 180.496 164.07C180.635 164.024 180.821 163.978 180.96 163.978C181.053 163.978 181.146 163.978 181.192 164.024C181.238 164.024 181.238 164.07 181.285 164.07C180.774 162.91 180.496 162.539 180.589 163.05C180.403 163.978 179.986 164.859 179.336 165.555C178.733 166.298 178.037 166.947 177.248 167.458C176.83 167.736 178.083 169.685 178.547 169.406C179.568 168.757 180.403 167.922 181.053 166.947C181.424 166.437 181.702 165.88 181.888 165.323C182.12 164.581 181.934 163.746 181.424 163.142C181.053 162.632 180.542 162.029 179.893 161.982C179.382 161.936 178.918 162.168 178.64 162.586C177.944 163.606 178.269 164.952 177.805 166.019L179.15 167.458C178.826 166.251 178.362 165.138 177.712 164.024C177.341 163.421 176.97 162.818 176.552 162.214C176.181 161.658 175.717 161.194 175.206 160.822C174.325 160.358 173.629 161.054 173.443 161.843C173.165 162.91 173.629 164.07 174.093 165.045C174.742 166.298 175.717 167.365 176.923 168.107C177.387 168.339 177.155 167.69 177.109 167.504C176.923 167.04 176.552 166.622 176.134 166.298Z" fill="#518C3C"/>
<path id="Vector_42" d="M159.755 193.442C158.456 193.627 157.157 193.627 155.858 193.488C154.93 193.395 153.677 193.21 152.935 192.606C152.749 192.467 152.935 192.56 152.935 192.653C152.888 192.467 152.842 192.282 152.842 192.05C152.888 191.586 153.166 191.168 153.584 190.982C154.373 190.611 155.44 190.936 156.136 191.307C156.275 191.354 156.6 191.539 156.647 191.261C156.739 190.611 156.693 189.962 156.461 189.358C156.275 188.894 156.182 188.384 156.136 187.92C156.136 187.502 156.322 187.131 156.6 186.899C156.739 186.806 156.925 186.714 157.11 186.76C157.203 186.76 157.435 186.946 157.296 186.76C157.435 186.899 157.528 187.085 157.621 187.27C157.76 187.502 157.853 187.734 157.992 187.966C158.27 188.477 158.502 189.034 158.688 189.59C159.152 190.797 159.43 192.003 159.616 193.256C159.709 193.813 160.034 194.277 160.451 194.602C160.637 194.741 161.286 195.066 161.194 194.555C160.962 192.978 160.544 191.446 159.987 189.962C159.43 188.523 158.735 186.899 157.621 185.786C157.157 185.322 156.461 184.765 155.719 184.858C155.208 184.95 154.744 185.322 154.605 185.832C154.419 186.389 154.419 186.992 154.605 187.549C154.791 188.245 155.162 188.987 155.023 189.73L155.533 189.683C154.512 189.173 153.027 188.616 151.914 189.266C150.568 190.054 151.079 191.91 151.821 192.931C152.749 194.277 154.187 194.926 155.765 195.251C157.435 195.576 159.106 195.622 160.776 195.39C161.426 195.298 160.266 193.395 159.57 193.488L159.755 193.442Z" fill="#518C3C"/>
<path id="Vector_43" d="M43.7088 164.627C42.7808 163.746 42.0384 162.678 41.528 161.472C41.064 160.358 40.6464 158.966 40.832 157.76C40.8784 157.203 41.2032 156.739 41.7136 156.507C41.8064 156.507 41.8992 156.461 41.992 156.461C42.2704 156.322 41.1104 156.275 41.2496 156.368C41.4352 156.507 41.6208 156.6 41.8064 156.786C42.688 157.714 42.688 159.152 42.688 160.358C42.688 160.683 44.9152 161.054 44.9616 160.776C45.24 159.477 45.8896 158.317 46.8176 157.342C47.0496 157.11 47.2816 156.878 47.56 156.646C47.6992 156.554 47.8848 156.461 48.0704 156.368C48.5808 156.182 48.2096 156.136 46.9568 156.136C47.0032 156.182 47.0496 156.275 47.096 156.322C47.3744 156.878 47.4208 157.574 47.2352 158.178C46.4928 160.915 43.3376 161.704 41.8992 163.978C41.8064 164.117 42.92 164.349 43.0128 164.395C43.2448 164.442 44.0336 164.627 44.1728 164.395C45.5184 162.307 48.256 161.518 49.2768 159.198C49.7408 158.224 49.8336 156.646 48.6272 156.136C47.792 155.765 46.9104 155.672 46.0288 155.858C45.472 156.043 45.008 156.368 44.6368 156.832C43.6624 157.806 42.9664 159.059 42.688 160.405L44.9616 160.822C44.9616 159.662 44.9152 158.363 44.2192 157.389C43.5232 156.414 41.9456 156.09 40.832 156.043C39.7184 155.997 38.6976 156.322 38.5584 157.574C38.512 158.781 38.744 159.987 39.208 161.101C39.7184 162.354 40.5072 163.514 41.4816 164.488C41.8064 164.766 42.456 164.813 42.8736 164.859C43.0128 164.72 43.8944 164.766 43.7088 164.627Z" fill="#518C3C"/>
</g>
</g>
</svg>
