<svg width="20" height="18" viewBox="0 0 20 18" fill="none" xmlns="http://www.w3.org/2000/svg">
<path id="Vector" d="M1.795 17.8889C1.28352 17.8889 0.856481 17.7176 0.513889 17.375C0.171296 17.0324 0 16.6054 0 16.0939V5.23944C0 4.72796 0.171296 4.30093 0.513889 3.95833C0.856481 3.61574 1.28352 3.44444 1.795 3.44444H6.66667V1.90583C6.66667 1.39454 6.83796 0.967592 7.18056 0.625C7.52315 0.282407 7.95019 0.111111 8.46167 0.111111H11.5383C12.0498 0.111111 12.4769 0.282407 12.8194 0.625C13.162 0.967592 13.3333 1.39454 13.3333 1.90583V3.44444H18.205C18.7165 3.44444 19.1435 3.61574 19.4861 3.95833C19.8287 4.30093 20 4.72796 20 5.23944V16.0939C20 16.6054 19.8287 17.0324 19.4861 17.375C19.1435 17.7176 18.7165 17.8889 18.205 17.8889H1.795ZM1.795 16.7778H18.205C18.3761 16.7778 18.5329 16.7066 18.6753 16.5642C18.8177 16.4218 18.8889 16.265 18.8889 16.0939V5.23944C18.8889 5.06833 18.8177 4.91157 18.6753 4.76917C18.5329 4.62676 18.3761 4.55556 18.205 4.55556H1.795C1.62389 4.55556 1.46713 4.62676 1.32472 4.76917C1.18231 4.91157 1.11111 5.06833 1.11111 5.23944V16.0939C1.11111 16.265 1.18231 16.4218 1.32472 16.5642C1.46713 16.7066 1.62389 16.7778 1.795 16.7778ZM7.77778 3.44444H12.2222V1.90583C12.2222 1.73491 12.151 1.57824 12.0086 1.43583C11.8662 1.29343 11.7094 1.22222 11.5383 1.22222H8.46167C8.29056 1.22222 8.1338 1.29343 7.99139 1.43583C7.84898 1.57824 7.77778 1.73491 7.77778 1.90583V3.44444Z" fill="white"/>
</svg>
