<svg width="232" height="232" viewBox="0 0 232 232" fill="none" xmlns="http://www.w3.org/2000/svg">
<g id="Coding 4 1">
<g id="screen-1">
<path id="Vector" d="M61.48 30.5312H86.1648C87.5568 30.5312 88.6704 31.6448 88.6704 33.0368V47.4208C88.6704 48.8128 87.5568 49.9264 86.1648 49.9264H61.48C60.088 49.9264 58.9744 48.8128 58.9744 47.4208V33.0368C58.9744 31.6448 60.088 30.5312 61.48 30.5312Z" fill="#518C3C"/>
<path id="Vector_2" d="M86.1648 50.1584H61.48C59.9952 50.1584 58.7424 48.952 58.7424 47.4208V33.0368C58.7424 31.552 59.9488 30.2992 61.48 30.2992H86.1648C87.6496 30.2992 88.9024 31.5056 88.9024 33.0368V47.4208C88.9024 48.952 87.696 50.1584 86.1648 50.1584ZM61.48 30.7632C60.2272 30.7632 59.2064 31.784 59.2064 33.0368V47.4208C59.2064 48.6736 60.2272 49.6944 61.48 49.6944H86.1648C87.4176 49.6944 88.4384 48.6736 88.4384 47.4208V33.0368C88.4384 31.784 87.4176 30.7632 86.1648 30.7632H61.48Z" fill="#518C3C"/>
<path id="Vector_3" d="M65.3312 36.8416C64.3104 37.816 63.2896 38.7904 62.3152 39.8112C61.9904 40.0896 61.944 40.6 62.2688 40.9248C62.3152 40.9712 62.408 41.0176 62.4544 41.064L67.1872 43.9872C67.6976 44.312 68.3936 44.2192 68.8112 43.8016C69.136 43.5232 69.1824 43.0128 68.8576 42.688C68.8112 42.6416 68.7184 42.5952 68.672 42.5488L63.9392 39.6256L64.0784 40.9248C65.0528 39.904 66.0736 38.9296 67.0944 37.9552C67.4192 37.6768 67.4656 37.12 67.1408 36.7952C67.0944 36.7488 67.048 36.7024 66.9552 36.656C66.4448 36.3312 65.7488 36.424 65.3312 36.8416Z" fill="white"/>
<path id="Vector_4" d="M74.472 34.9392C73.8224 38.512 72.9872 42.0384 71.9664 45.5184C71.688 46.4 74.008 46.4464 74.24 45.6576C75.3072 42.0848 76.1424 38.4192 76.792 34.7536C76.8848 34.2896 75.864 34.1968 75.5856 34.1968C75.1216 34.2896 74.5648 34.4752 74.472 34.9392Z" fill="white"/>
<path id="Vector_5" d="M80.0864 37.9088C80.736 38.3264 81.3856 38.7904 81.9888 39.2544C82.2672 39.4864 82.592 39.7184 82.8704 39.904L83.3344 40.2752L83.4272 40.368C83.4736 40.4144 83.4736 40.4144 83.3808 40.3216C83.4736 40.4608 83.3808 40.3216 83.3344 40.2288C83.288 40.136 83.288 39.9968 83.3344 39.904C83.3808 39.6256 83.3808 39.5328 83.288 39.672C83.3344 39.6256 83.2416 39.672 83.2416 39.7184C83.056 39.8112 82.9168 39.9504 82.7312 40.0896L81.7104 40.8784L79.7152 42.3632C79.2512 42.688 79.3904 43.384 79.6688 43.7552C79.9472 44.1264 80.504 44.6368 80.968 44.312L83.3808 42.5024C83.752 42.224 84.1232 41.9456 84.4944 41.6672C85.0048 41.296 85.1904 40.6928 85.0048 40.136C84.68 39.1152 83.7056 38.4656 82.8704 37.8624C82.128 37.3056 81.3856 36.7488 80.5968 36.2384C80.1792 35.96 79.6224 35.9136 79.4368 36.4704C79.3904 36.9808 79.6224 37.584 80.0864 37.9088Z" fill="white"/>
</g>
<g id="screen-2">
<path id="Vector_6" d="M121.614 27.9328H191.493C194.138 27.9328 196.272 30.0672 196.272 32.712V82.9168C196.272 85.5616 194.138 87.696 191.493 87.696H121.614C118.97 87.696 116.835 85.5616 116.835 82.9168V32.712C116.882 30.0672 119.016 27.9328 121.614 27.9328Z" fill="white"/>
<path id="Vector_7" d="M191.075 86.6288H121.336C120.454 86.6752 119.526 86.3968 118.784 85.9328C117.995 85.4224 117.531 84.4944 117.578 83.5664C117.531 80.5504 117.578 77.5344 117.578 74.5184V35.1712C117.578 34.2432 117.485 33.176 117.717 32.2944C118.274 30.3456 120.037 29 122.078 28.9536H190.982C192.189 28.9536 193.395 28.9536 194.462 29.7424C195.622 30.5776 195.576 31.784 195.576 33.0368V81.7568C195.576 82.2208 195.53 82.7312 195.437 83.1952C194.926 85.1904 193.117 86.5824 191.075 86.6288C190.379 86.6288 191.261 88.7168 191.957 88.6704C194.091 88.6704 195.994 87.3248 196.69 85.3296C196.922 84.68 197.014 84.0304 196.968 83.3344V33.5008C196.968 31.7376 196.272 30.0672 195.112 28.768C194.091 27.608 192.606 26.912 191.029 26.8656H121.568C121.336 26.8656 121.15 26.8656 120.965 26.8656C118.877 26.9584 117.067 28.3504 116.418 30.3456C116.186 31.4128 116.093 32.48 116.186 33.5472V79.3904C116.186 80.272 116.186 81.1536 116.186 82.0352C116.232 85.2832 118.691 88.624 122.125 88.624C124.398 88.6704 126.718 88.624 128.992 88.624H191.957C192.606 88.7168 191.771 86.6288 191.075 86.6288Z" fill="#518C3C"/>
<path id="Vector_8" d="M187.549 32.8976C187.549 32.8976 189.544 33.3616 188.894 35.2176C188.245 37.0736 185.971 36.2848 186.018 34.5216C186.064 32.7584 187.549 32.8976 187.549 32.8976Z" fill="#518C3C"/>
<path id="Vector_9" d="M186.574 33.5008C186.946 33.5936 187.27 33.7792 187.549 34.0576C187.966 34.4752 188.106 35.1248 187.92 35.728V35.6816C187.874 35.8672 187.781 36.0992 187.642 36.2384L187.549 36.3312L187.502 36.3776L187.456 36.424C187.456 36.424 187.595 36.3312 187.549 36.3776C187.688 36.2848 187.827 36.192 188.013 36.0992C188.198 36.0064 188.291 35.96 188.43 35.8672C188.477 35.8208 188.57 35.8208 188.616 35.7744L188.662 35.728C188.57 35.7744 188.848 35.6816 188.755 35.6816H188.709H188.616C188.477 35.6816 188.291 35.6816 188.152 35.6352H188.198C187.781 35.496 187.456 35.2176 187.224 34.8464C186.992 34.3824 186.946 33.8256 187.131 33.3152V33.3616C187.178 33.176 187.27 33.0368 187.363 32.8976C187.363 32.8976 187.502 32.7584 187.41 32.8048C187.317 32.8512 187.456 32.7584 187.456 32.7584C187.456 32.7584 187.317 32.8976 187.363 32.8048C187.41 32.712 187.131 32.944 187.224 32.8976C186.992 33.0368 186.806 33.176 186.574 33.2688C186.714 33.2224 186.296 33.408 186.389 33.3616C186.482 33.3152 186.157 33.4544 186.25 33.408C186.342 33.3616 186.389 33.3616 186.157 33.4544C186.203 33.4544 186.25 33.4544 186.25 33.408C186.25 33.408 186.389 33.3616 186.296 33.408H186.389C186.435 33.408 186.482 33.408 186.528 33.408C186.714 33.408 186.899 33.3152 187.038 33.2224C187.317 33.0832 187.595 32.9904 187.827 32.8048C188.013 32.712 188.245 32.5728 188.384 32.4336C188.43 32.3872 188.57 32.2944 188.43 32.2944C188.245 32.2944 188.059 32.2944 187.874 32.3872C187.549 32.48 187.224 32.6192 186.899 32.7584C186.389 32.9904 185.878 33.2688 185.461 33.64C184.765 34.336 184.672 35.4032 185.229 36.192C185.461 36.5168 185.832 36.7024 186.203 36.7952C186.435 36.8416 186.667 36.8416 186.853 36.7488C187.41 36.6096 187.966 36.3312 188.43 36.0528C188.848 35.8672 189.173 35.5888 189.451 35.2176C189.59 34.9856 189.73 34.7536 189.776 34.5216C189.915 34.104 189.869 33.64 189.683 33.2224C189.358 32.7584 188.894 32.3872 188.338 32.248C188.152 32.248 187.966 32.3408 187.827 32.4336C187.549 32.5728 187.27 32.6656 187.038 32.8512C186.853 32.944 186.621 33.0832 186.482 33.2224C186.574 33.3616 186.435 33.4544 186.574 33.5008Z" fill="#518C3C"/>
<path id="Vector_10" d="M140.685 54.3808H130.152V56.4224H140.685V54.3808Z" fill="#518C3C"/>
<path id="Vector_11" d="M149.918 54.2416H145.51V56.2832H149.918V54.2416Z" fill="#000005"/>
<path id="Vector_12" d="M154.817 54.2424L154.786 56.2838L166.199 56.4591L166.23 54.4177L154.817 54.2424Z" fill="#518C3C"/>
<path id="Vector_13" d="M133.725 60.6912H130.059V62.7328H133.725V60.6912Z" fill="#000005"/>
<path id="Vector_14" d="M136.591 60.479L136.565 62.5204L150.623 62.6971L150.649 60.6557L136.591 60.479Z" fill="#518C3C"/>
<path id="Vector_15" d="M164.813 68.3008H160.08V70.3424H164.813V68.3008Z" fill="#000005"/>
<path id="Vector_16" d="M184.626 67.9296H168.989V69.9712H184.626V67.9296Z" fill="#518C3C"/>
<path id="Vector_17" d="M171.448 73.9152H160.405V75.9568H171.448V73.9152Z" fill="#000005"/>
<path id="Vector_18" d="M163.189 78.4624H160.405V80.504H163.189V78.4624Z" fill="#518C3C"/>
<path id="Vector_19" d="M134.003 40.1824C132.704 41.528 131.312 42.7344 129.734 43.8016C129.549 43.9408 129.642 44.312 129.688 44.4512C129.781 44.8224 129.966 45.1936 130.198 45.472C131.312 46.9104 132.518 48.256 133.864 49.4624C133.957 49.5552 134.142 49.6944 134.282 49.648C134.421 49.6016 134.374 49.3232 134.374 49.2304C134.282 48.6736 134.05 48.1632 133.632 47.7456C132.379 46.632 131.266 45.4256 130.291 44.1264L130.755 45.8432C132.286 44.8224 133.725 43.616 135.024 42.2704C135.488 41.7136 134.235 39.904 134.003 40.1824Z" fill="#000005"/>
<path id="Vector_20" d="M141.752 39.8112C140.36 42.7344 139.107 45.6576 137.994 48.6736C137.622 49.648 139.896 50.0192 140.221 49.184C141.381 46.168 142.634 43.1984 143.979 40.3216C144.397 39.3472 142.123 38.976 141.752 39.8112Z" fill="#000005"/>
<path id="Vector_21" d="M148.387 41.7136C148.526 41.8064 148.666 41.8992 148.758 42.0384C148.666 41.9456 148.758 42.0848 148.805 42.0848L148.99 42.2704C149.222 42.5024 149.501 42.7808 149.733 43.0592L149.826 43.1984L149.918 43.3376C150.011 43.4768 150.104 43.616 150.197 43.7552C150.29 43.848 150.336 43.9872 150.429 44.1264C150.429 44.08 150.429 44.0336 150.382 43.9872C150.382 43.9872 150.429 43.9872 150.336 44.08C150.058 44.3584 149.779 44.5904 149.547 44.9152L148.758 45.7504L147.088 47.56C146.717 47.9312 146.995 48.5808 147.32 48.9056C147.645 49.2304 148.294 49.648 148.666 49.2304L150.661 47.096L151.635 46.0288C151.96 45.7504 152.238 45.3328 152.331 44.9152C152.424 43.9408 151.542 42.9664 150.986 42.2704C150.429 41.5744 149.733 40.9248 149.037 40.3216C148.712 40.0432 148.016 39.8576 147.784 40.368C147.552 40.8784 148.016 41.3888 148.387 41.7136Z" fill="#000005"/>
</g>
<g id="screen-3">
<path id="Vector_22" d="M148.294 111.406H182.723C184.115 111.406 185.229 112.52 185.229 113.912V135.766C185.229 137.158 184.115 138.272 182.723 138.272H148.294C146.902 138.272 145.789 137.158 145.789 135.766V113.912C145.789 112.52 146.902 111.406 148.294 111.406Z" fill="#000005"/>
<path id="Vector_23" d="M182.723 138.504H148.294C146.81 138.504 145.557 137.298 145.557 135.766V113.912C145.557 112.427 146.763 111.174 148.294 111.174H182.723C184.208 111.174 185.461 112.381 185.461 113.912V135.813C185.414 137.298 184.208 138.504 182.723 138.504ZM148.294 111.638C147.042 111.638 146.021 112.659 146.021 113.912V135.766C146.021 137.019 147.042 138.04 148.294 138.04H182.723C183.976 138.04 184.997 137.019 184.997 135.766V113.912C184.997 112.659 183.976 111.638 182.723 111.638H148.294Z" fill="#000005"/>
<path id="Vector_24" d="M159.616 116.742C157.992 116.046 156.09 116.557 155.022 117.949C153.909 119.48 154.326 121.382 154.373 123.099C154.466 123.981 154.326 124.816 153.955 125.651C153.862 125.837 153.77 126.022 153.63 126.162C153.584 126.208 153.491 126.254 153.491 126.301C153.398 126.533 154.048 126.486 154.048 126.208C154.048 125.93 153.955 125.976 153.77 126.069C153.584 126.162 153.63 126.022 153.723 126.115C153.816 126.208 153.862 126.208 153.909 126.301C155.254 127.6 154.002 129.781 153.862 131.312C153.77 132.147 153.955 132.982 154.466 133.632C155.115 134.421 156.136 134.653 157.157 134.792C157.621 134.838 158.363 134.885 158.734 134.421C159.106 133.957 158.642 133.678 158.27 133.632C157.342 133.493 156.554 133.307 156.322 132.286C156.09 131.266 156.368 130.384 156.6 129.456C156.832 128.528 157.018 127.461 156.646 126.486C156.275 125.605 155.44 124.955 154.512 124.862C153.63 124.723 152.006 125.002 151.821 126.069C151.635 127.275 153.306 127.554 154.141 127.414C156.414 127.043 156.878 124.63 156.786 122.682C156.739 121.475 156.461 120.176 156.832 119.016C156.971 118.552 157.25 118.134 157.574 117.856C157.853 117.624 157.853 117.578 158.085 117.67C158.642 117.902 159.245 117.856 159.709 117.531C160.126 117.299 160.08 116.928 159.616 116.742Z" fill="white"/>
<path id="Vector_25" d="M164.024 134.699L165.045 133.725C165.138 133.632 165.23 133.539 165.277 133.4C165.323 133.307 165.37 133.168 165.37 133.075C165.37 132.982 165.323 132.843 165.277 132.797C165.23 132.704 165.138 132.611 165.045 132.565L164.813 132.472C164.627 132.426 164.442 132.426 164.256 132.472C163.978 132.518 163.699 132.658 163.467 132.89L162.446 133.91C162.354 134.003 162.261 134.096 162.214 134.235C162.168 134.328 162.122 134.467 162.122 134.56C162.122 134.653 162.168 134.792 162.214 134.838C162.261 134.931 162.354 135.024 162.446 135.07L162.678 135.163C162.864 135.21 163.05 135.21 163.235 135.163C163.514 135.07 163.792 134.931 164.024 134.699Z" fill="white"/>
<path id="Vector_26" d="M168.386 135.395L168.664 135.117C168.71 135.07 168.757 134.978 168.757 134.931C168.803 134.838 168.803 134.746 168.757 134.653C168.71 134.514 168.664 134.421 168.618 134.282C168.571 134.142 168.478 134.003 168.386 133.91L168.2 133.678C168.061 133.539 167.922 133.446 167.782 133.354L167.597 133.261C167.504 133.214 167.365 133.261 167.272 133.307L166.994 133.586C166.947 133.632 166.901 133.725 166.901 133.818C166.854 133.91 166.854 134.003 166.901 134.096C166.947 134.235 166.994 134.328 167.04 134.467C167.086 134.606 167.179 134.746 167.272 134.838L167.458 135.07C167.597 135.21 167.736 135.302 167.875 135.395L168.061 135.488C168.154 135.442 168.293 135.442 168.386 135.395Z" fill="white"/>
<path id="Vector_27" d="M173.629 117.114C173.722 117.067 173.814 117.021 173.907 116.974L174.093 116.928L172.84 116.882C173.026 116.974 173.258 117.067 173.397 117.16C173.814 117.438 174.139 117.81 174.371 118.227C174.882 119.202 174.835 120.362 174.742 121.475C174.65 123.053 174.278 126.069 176.32 126.672C176.923 126.811 177.573 126.904 178.222 126.858C178.686 126.904 179.104 126.765 179.429 126.486C180.31 125.466 178.13 125.187 177.619 125.187C176.691 125.141 175.763 125.094 175.114 125.883C174.418 126.718 174.464 127.786 174.65 128.806C174.835 129.827 175.299 130.941 175.067 132.054C174.835 133.354 173.814 133.771 172.608 133.957C172.144 134.003 172.933 134.142 173.026 134.142C173.536 134.235 174.093 134.235 174.603 134.189C175.624 134.05 176.691 133.818 177.155 132.843C177.619 131.869 177.387 130.662 177.109 129.642C176.83 128.528 176.506 127.275 177.202 126.254C177.341 126.022 177.526 125.837 177.712 125.698C177.805 125.605 177.944 125.558 178.083 125.512L178.222 125.466L176.784 125.373C176.877 125.512 177.062 125.512 177.155 125.698C177.248 125.79 177.248 125.93 177.248 126.069C177.202 126.394 176.923 126.626 176.598 126.672L178.176 126.718C178.362 126.718 178.083 126.579 178.037 126.579C177.898 126.486 177.758 126.347 177.666 126.208C177.48 125.976 177.294 125.698 177.202 125.419C176.97 124.862 176.877 124.213 176.877 123.61C176.83 122.264 177.155 120.872 176.923 119.526C176.784 118.459 176.088 117.485 175.067 117.067C174.464 116.882 173.814 116.789 173.165 116.789C172.562 116.696 171.912 116.789 171.355 117.021C171.216 117.067 172.098 117.206 172.144 117.206C172.608 117.206 173.258 117.299 173.629 117.114Z" fill="white"/>
<path id="Vector_28" d="M179.754 168.339C184.022 169.917 188.802 169.87 193.024 168.107C197.2 166.344 200.726 163.328 203.139 159.477C205.691 155.533 207.269 150.986 208.29 146.438C209.31 141.891 209.774 136.416 206.805 132.333C205.506 130.616 203.742 129.317 201.747 128.621C199.798 127.925 197.339 127.739 195.437 128.714C193.952 129.456 192.374 131.358 193.163 133.122C194.045 135.07 196.922 135.349 198.685 134.653C200.773 133.818 201.422 131.498 201.701 129.456C202.026 126.858 202.211 124.213 202.165 121.614C202.072 116.742 201.144 111.824 198.546 107.602C196.272 103.936 192.838 100.92 188.616 99.76C184.626 98.6464 180.032 98.9712 176.552 101.338C175.763 101.894 175.021 102.544 174.418 103.286C174 103.797 176.134 104.446 176.552 103.936C178.872 101.291 182.306 99.8992 185.832 100.224C189.405 100.502 192.514 102.683 194.787 105.374C197.386 108.53 198.87 112.474 199.474 116.51C199.798 118.877 199.938 121.29 199.845 123.656C199.845 125.93 199.613 128.157 199.195 130.384C199.01 131.358 198.592 132.24 197.942 133.029C197.525 133.493 196.69 134.05 196.04 133.957C196.086 133.957 196.179 134.003 196.04 133.957C195.947 133.91 195.808 133.818 195.762 133.725C195.483 133.446 195.344 133.075 195.298 132.658C195.298 131.869 195.576 131.08 196.179 130.477C198.731 127.6 202.582 129.642 204.531 132.101C207.315 135.581 207.083 140.499 206.341 144.675C205.598 148.805 204.253 152.842 202.35 156.554C200.494 160.126 197.803 163.467 194.416 165.602C191.261 167.597 187.41 168.85 183.651 168.339C182.816 168.246 181.981 168.014 181.146 167.69C180.728 167.504 179.986 167.318 179.568 167.597C179.15 167.875 179.475 168.2 179.754 168.339Z" fill="#518C3C"/>
</g>
<g id="character">
<path id="Vector_29" d="M24.0816 181.934C24.0816 181.934 43.2912 123.749 70.7136 116.371C98.136 108.994 139.757 183.79 139.757 183.79L24.0816 181.934Z" fill="#000005"/>
<path id="Vector_30" d="M25.1024 182.445C25.1488 182.259 25.2416 182.074 25.288 181.888L25.3344 181.749C25.2416 181.981 25.3344 181.749 25.3344 181.702C25.3808 181.563 25.4272 181.47 25.4736 181.331C25.5664 181.006 25.7056 180.728 25.7984 180.403C26.4944 178.501 27.1904 176.645 27.9328 174.742C30.3456 168.618 32.9904 162.632 35.9136 156.739C39.44 149.454 43.616 142.541 48.3488 135.952C52.7568 129.966 57.8608 124.166 64.264 120.269C66.8624 118.691 69.832 117.299 72.8016 116.789C75.2144 116.418 77.6736 116.557 80.04 117.253L80.3648 117.346L80.8288 117.485C81.1536 117.578 81.4784 117.717 81.8032 117.81C82.4528 118.042 83.056 118.274 83.7056 118.552L84.0304 118.691L84.5408 118.923L85.5152 119.434C86.2112 119.805 86.8608 120.176 87.5104 120.547L87.928 120.779C87.696 120.64 88.16 120.918 88.2528 120.965C88.5776 121.197 88.9024 121.382 89.2736 121.614C89.9696 122.078 90.6192 122.542 91.2688 123.006C91.9184 123.47 92.568 123.981 93.2176 124.445L93.728 124.862L93.8208 124.955L94.0528 125.141L95.12 126.022C100.781 130.802 105.653 136.091 110.386 141.798C115.118 147.506 119.666 153.584 123.888 159.662C127.368 164.72 130.709 169.824 133.91 175.067C135.581 177.758 137.205 180.45 138.736 183.234L138.968 183.605L139.2 182.955L136.091 182.909L127.693 182.77L115.258 182.584L100.085 182.352L83.4736 182.074L66.6768 181.795L50.9936 181.563L37.7696 181.331L28.2576 181.192C26.7728 181.192 25.2416 181.099 23.7568 181.099H23.5712C23.0144 181.099 23.2928 181.702 23.4784 181.934C23.8032 182.352 24.3136 182.63 24.8704 182.677L27.9792 182.723L36.3776 182.862L48.8128 183.048L63.9856 183.28L80.5968 183.558L97.3936 183.837L113.077 184.069L126.301 184.301L135.813 184.44C137.298 184.44 138.829 184.533 140.314 184.486H140.499C140.917 184.486 140.87 184.069 140.731 183.837C139.618 181.842 138.458 179.893 137.298 177.99C134.374 173.165 131.358 168.386 128.25 163.699C124.12 157.528 119.758 151.45 115.165 145.603C110.432 139.525 105.282 133.818 99.6672 128.482C94.7952 123.934 89.4128 119.666 83.288 117.021C80.8288 115.907 78.184 115.211 75.4928 114.979C72.7552 114.794 70.0176 115.258 67.4656 116.325C60.6448 118.97 55.0768 124.213 50.3904 129.688C45.1472 135.906 40.7856 142.866 36.888 150.011C33.4544 156.368 30.3456 162.957 27.608 169.638C26.0768 173.304 24.6384 177.016 23.3856 180.774C23.3392 180.96 23.2464 181.099 23.2 181.285C22.8752 182.074 24.824 183.28 25.1024 182.445Z" fill="#000005"/>
<path id="Vector_31" d="M174.046 204.067H44.3584L58.6032 180.682L163.421 180.31L174.046 204.067Z" fill="#518C3C"/>
<path id="Vector_32" d="M174.371 203.278H49.9728C48.3024 203.278 46.5856 203.186 44.9152 203.278H44.6832L45.4256 204.114L50.2512 196.179L57.8608 183.651L59.624 180.728L58.232 181.47H61.016H68.672L79.9008 181.424L93.6816 181.378L108.762 181.331L123.981 181.285L138.179 181.238L150.15 181.192L158.781 181.146C160.126 181.146 161.518 181.238 162.864 181.146C162.91 181.146 162.957 181.146 163.05 181.146L162.307 180.728L165.88 188.755L171.587 201.562L172.886 204.485C173.304 205.413 175.485 204.624 175.067 203.742L171.494 195.715L165.787 182.909L164.488 179.986C164.349 179.707 164.07 179.522 163.746 179.568H159.338L147.691 179.614L131.173 179.661L112.195 179.707L93.0784 179.754L76.2352 179.8L64.0784 179.846C62.3616 179.846 60.6448 179.8 58.928 179.846C58.2784 179.846 57.6288 180.218 57.3504 180.821L56.3296 182.538L52.2464 189.266L43.8016 203.186L43.2912 204.067C43.0128 204.531 43.616 204.902 44.0336 204.902H168.432C170.102 204.902 171.773 204.902 173.49 204.902H173.722C174.232 204.902 174.928 204.67 175.114 204.16C175.299 203.65 174.835 203.278 174.371 203.278Z" fill="#518C3C"/>
<path id="Vector_33" d="M56.1904 197.664H58.9744H66.584L77.8592 197.618L91.5472 197.571L106.581 197.525L121.8 197.478L135.952 197.432L147.923 197.386H156.507H160.59H160.776C161.054 197.386 162.354 197.432 162.493 197.107C162.632 196.782 161.658 196.736 161.518 196.736H158.734H151.125L139.85 196.782L126.162 196.829L111.082 196.875L95.8624 196.922L81.664 196.968L69.6928 197.014H61.1088H57.0256H56.84C56.5152 197.014 55.2624 196.968 55.1232 197.293C54.984 197.618 56.0512 197.664 56.1904 197.664Z" fill="white"/>
<path id="Vector_34" d="M61.6192 192.838H64.3105L71.5952 192.792L82.36 192.746L95.4912 192.699L109.782 192.653L124.306 192.606L137.854 192.514L149.315 192.467L157.528 192.421H160.08C160.544 192.467 160.962 192.467 161.426 192.421C161.472 192.421 161.518 192.421 161.611 192.421C161.426 192.003 161.24 191.539 161.008 191.122C160.869 190.89 160.451 190.008 160.173 190.008H157.482L150.197 190.054L139.432 190.101L126.301 190.147L112.01 190.24L97.4864 190.333L83.9376 190.379L72.5232 190.426L64.3105 190.472H61.712C61.248 190.426 60.8305 190.426 60.3665 190.472C60.3201 190.472 60.2736 190.472 60.1808 190.472C60.3664 190.89 60.552 191.354 60.784 191.771C60.8768 191.91 61.2944 192.838 61.6192 192.838Z" fill="white"/>
<path id="Vector_35" d="M64.4496 186.389H155.115C156.322 186.389 157.621 186.528 158.827 186.389H158.966C159.43 186.389 158.92 185.461 158.827 185.322C158.642 184.997 158.085 184.069 157.621 184.069H66.9552C65.7488 184.069 64.4496 183.93 63.2432 184.069C63.1968 184.069 63.1504 184.069 63.104 184.069C62.64 184.069 63.1504 184.997 63.2432 185.136C63.4288 185.461 63.9856 186.389 64.4496 186.389Z" fill="white"/>
<path id="Vector_36" d="M78.416 181.053L71.8736 196.55L70.9456 198.685C70.5744 199.52 72.152 201.747 72.6624 200.541L79.2048 185.043L80.1328 182.909C80.504 182.074 78.9264 179.846 78.416 181.053Z" fill="white"/>
<path id="Vector_37" d="M94.9344 180.821L94.656 196.458L94.6096 198.638C94.6096 199.288 94.888 199.938 95.3056 200.448C95.4912 200.68 96.1872 201.19 96.1872 200.541L96.4656 184.904L96.512 182.723C96.512 182.074 96.2336 181.424 95.816 180.914C95.6304 180.728 94.9344 180.171 94.9344 180.821Z" fill="white"/>
<path id="Vector_38" d="M113.17 182.491L115.907 196.782L116.278 198.824C116.418 199.52 116.974 200.077 117.67 200.216C118.134 200.309 118.552 200.03 118.645 199.566C118.691 199.427 118.691 199.334 118.645 199.195L115.907 184.904L115.536 182.862C115.397 182.166 114.84 181.61 114.098 181.47C113.634 181.378 113.216 181.656 113.077 182.12C113.123 182.259 113.123 182.352 113.17 182.491Z" fill="white"/>
<path id="Vector_39" d="M145.325 182.77L156.275 197.989L157.853 200.17C158.085 200.494 158.688 201.098 159.106 200.634C159.523 200.17 159.106 199.242 158.827 198.87L147.877 183.651L146.299 181.47C146.067 181.146 145.464 180.542 145.046 181.006C144.629 181.47 145.046 182.352 145.325 182.77Z" fill="white"/>
<path id="Vector_40" d="M130.198 181.842L135.952 197.061L136.787 199.195C136.926 199.613 137.39 200.541 137.901 200.541C138.411 200.541 138.133 199.613 138.04 199.381L132.286 184.162L131.498 182.027C131.358 181.61 130.894 180.682 130.384 180.682C129.874 180.682 130.106 181.61 130.198 181.842Z" fill="white"/>
<path id="Vector_41" d="M148.944 191.818H157.203C157.621 191.771 157.946 191.4 157.899 190.982C157.899 190.89 157.899 190.843 157.853 190.75C157.714 190.194 157.203 189.73 156.646 189.683H148.434C148.016 189.73 147.691 190.101 147.691 190.518C147.691 190.611 147.691 190.658 147.738 190.75C147.877 191.354 148.341 191.771 148.944 191.818Z" fill="white"/>
<path id="Vector_42" d="M113.309 179.754C113.309 179.754 128.157 156.971 144.954 162.075C161.75 167.179 171.355 183.976 168.478 187.27C165.602 190.565 161.333 184.997 161.333 184.997C161.333 184.997 161.194 193.534 154.326 190.611C154.326 190.611 152.006 196.875 147.227 193.534C142.634 190.333 139.339 177.805 136.37 177.062C134.05 179.661 131.915 182.445 129.92 185.275C126.022 190.797 122.914 191.354 120.918 190.982C118.923 190.611 119.062 185.368 123.238 179.986" fill="white"/>
<path id="Vector_43" d="M114.19 180.496C116 177.758 118.088 175.206 120.408 172.886C124.491 168.618 129.642 164.581 135.534 163.05C138.643 162.214 141.891 162.261 144.954 163.235C148.666 164.395 152.192 166.205 155.347 168.478C158.178 170.52 160.73 172.886 162.91 175.624C163.838 176.784 164.72 177.99 165.509 179.243C165.694 179.522 165.88 179.8 166.019 180.125C166.066 180.171 166.066 180.264 166.112 180.31C166.019 180.125 166.112 180.264 166.112 180.31C166.205 180.45 166.298 180.635 166.344 180.774C166.622 181.331 166.854 181.842 167.086 182.398C167.272 182.909 167.458 183.373 167.597 183.883C167.55 183.651 167.597 183.883 167.597 183.976C167.597 184.069 167.643 184.208 167.643 184.301C167.69 184.533 167.736 184.718 167.736 184.95C167.736 185.043 167.736 185.136 167.736 185.182C167.736 185.414 167.736 185.322 167.736 185.229C167.736 185.414 167.736 185.6 167.69 185.786C167.69 185.878 167.643 185.925 167.643 186.018C167.643 185.971 167.736 185.786 167.643 186.018C167.55 186.25 167.411 186.482 167.597 186.203C167.318 186.574 166.947 186.899 166.53 187.038C166.437 187.085 166.344 187.085 166.205 187.085C166.158 187.085 165.787 187.085 165.973 187.085C165.648 187.038 165.37 186.992 165.091 186.853C164.534 186.621 163.978 186.25 163.514 185.878C163.282 185.693 163.05 185.507 162.864 185.275L162.586 184.997C162.539 184.95 162.214 184.579 162.446 184.858C162.307 184.672 162.122 184.486 161.982 184.301C161.472 183.651 160.08 183.558 160.08 184.672C160.08 184.904 160.034 185.182 160.034 185.414C160.034 185.646 159.987 185.925 159.894 186.203C159.894 186.342 159.848 186.482 159.802 186.621C159.755 186.76 159.848 186.435 159.802 186.574L159.755 186.667L159.709 186.946C159.616 187.27 159.477 187.595 159.338 187.92C159.245 188.106 159.198 188.245 159.106 188.384C159.198 188.198 159.106 188.384 159.059 188.43L158.874 188.709C158.781 188.848 158.688 188.987 158.549 189.08L158.688 189.312C158.595 189.405 158.827 189.173 158.688 189.312C158.595 189.405 158.549 189.451 158.456 189.498C158.317 189.59 158.178 189.683 158.038 189.776C157.899 189.869 158.178 189.73 157.946 189.822C157.853 189.869 157.76 189.915 157.667 189.915C157.296 190.008 156.878 190.054 156.507 190.054C155.904 190.008 155.301 189.822 154.698 189.59C154.234 189.312 153.63 189.498 153.352 189.962C153.352 190.008 153.306 190.008 153.306 190.054C153.259 190.147 153.259 190.24 153.213 190.333C153.166 190.426 153.12 190.518 153.074 190.611L152.981 190.797C152.888 190.982 152.981 190.797 152.981 190.843C152.795 191.168 152.61 191.446 152.378 191.725C152.238 191.91 152.146 192.05 152.006 192.189L151.821 192.421C151.96 192.282 151.728 192.514 151.682 192.56C151.542 192.699 151.357 192.792 151.218 192.931C151.125 192.978 151.032 193.07 150.939 193.117L150.754 193.21C150.382 193.395 150.011 193.442 149.594 193.395C148.666 193.256 147.784 192.792 147.088 192.142L146.81 191.864C146.763 191.818 146.578 191.632 146.717 191.771C146.531 191.586 146.346 191.354 146.206 191.168C145.882 190.75 145.557 190.286 145.278 189.869C144.675 188.894 144.072 187.92 143.562 186.899C142.448 184.765 141.474 182.584 140.36 180.45C139.478 178.826 138.411 176.552 136.462 176.042C136.091 175.949 135.72 176.088 135.488 176.366C134.606 177.294 133.818 178.315 133.029 179.336C132.101 180.496 131.219 181.656 130.384 182.816C129.363 184.208 128.435 185.6 127.322 186.899C126.533 187.781 125.651 188.57 124.63 189.219C124.306 189.451 123.934 189.59 123.563 189.73C123.424 189.776 123.238 189.822 123.099 189.869L122.821 189.915C122.542 189.962 122.821 189.915 122.635 189.962C122.31 190.008 121.986 190.008 121.661 190.008C121.568 190.008 121.197 189.962 121.475 190.008C121.336 190.008 121.15 189.962 121.011 189.915C121.011 189.915 121.243 190.054 121.058 189.915C121.336 190.101 121.058 189.915 121.011 189.776C121.197 190.054 120.965 189.59 120.918 189.498C121.011 189.776 120.918 189.451 120.918 189.405C120.918 189.266 120.872 189.126 120.872 188.987C120.872 188.477 120.872 188.013 120.965 187.502C121.104 186.806 121.29 186.11 121.522 185.461C122.171 183.79 123.099 182.166 124.213 180.774C125.002 179.754 123.331 178.176 122.45 179.29C120.547 181.749 118.83 184.858 118.691 188.013C118.598 189.08 118.83 190.147 119.387 191.075C119.944 191.91 120.826 192.142 121.754 192.189C123.702 192.328 125.558 191.4 127.09 190.194C129.781 188.013 131.544 184.95 133.632 182.259C134.792 180.728 135.998 179.197 137.298 177.805L136.323 178.13C136.555 178.176 136.277 178.083 136.277 178.13C136.323 178.13 136.37 178.176 136.416 178.222C136.277 178.083 136.602 178.362 136.416 178.222C136.462 178.269 136.555 178.362 136.648 178.408L136.834 178.547L136.926 178.64C137.019 178.733 136.787 178.454 136.88 178.594C136.973 178.733 137.158 178.918 137.251 179.058C137.53 179.429 137.762 179.8 137.994 180.171C138.133 180.403 138.226 180.589 138.365 180.821C138.504 181.053 138.272 180.682 138.365 180.867L138.458 181.006C138.55 181.146 138.597 181.285 138.69 181.424C139.85 183.651 140.87 185.925 142.03 188.106C143.144 190.194 144.35 192.374 146.206 193.952C148.062 195.53 150.614 196.272 152.749 194.787C154.002 193.859 154.93 192.56 155.486 191.122L154.094 191.586C156.322 192.514 158.781 192.746 160.544 190.89C161.704 189.683 162.168 187.966 162.4 186.389C162.446 186.018 162.493 185.646 162.493 185.275L160.544 185.6C161.982 187.456 164.349 189.637 166.854 189.405C168.2 189.266 169.36 188.43 169.87 187.178C170.149 186.342 170.149 185.414 169.963 184.533C169.546 181.981 168.246 179.614 166.854 177.48C164.952 174.557 162.632 171.912 160.034 169.592C156.971 166.854 153.538 164.581 149.826 162.818C146.299 161.194 142.587 159.987 138.643 160.219C131.869 160.637 125.79 164.581 120.918 169.082C117.717 172.005 114.886 175.253 112.474 178.826L112.381 179.011C112.056 179.522 112.149 180.218 112.613 180.589C113.077 180.96 113.866 181.006 114.19 180.496Z" fill="#000005"/>
<path id="Vector_44" d="M152.795 172.794C155.162 175.763 157.25 178.918 159.106 182.213C159.616 183.048 159.987 183.93 160.173 184.904C160.266 185.693 162.539 185.739 162.493 185.09C162.354 184.254 162.075 183.419 161.658 182.677C161.147 181.61 160.544 180.589 159.894 179.614C158.688 177.666 157.342 175.763 155.95 173.907C155.672 173.49 155.347 173.072 155.022 172.701C154.651 172.33 154.141 172.144 153.63 172.237C153.445 172.237 152.47 172.422 152.795 172.794Z" fill="#000005"/>
<path id="Vector_45" d="M144.536 174.835C147.413 177.99 149.779 181.61 151.589 185.507C152.331 187.131 152.888 188.802 153.166 190.565C153.306 191.4 155.579 191.307 155.486 190.611C154.558 184.997 151.171 179.846 147.598 175.485C147.274 175.067 146.902 174.65 146.578 174.278C146.114 173.768 143.84 174.046 144.536 174.835Z" fill="#000005"/>
<path id="Vector_46" d="M32.5728 183.094C33.5936 182.12 49.1376 161.426 68.1152 160.173C87.0928 158.92 99.296 180.867 96.3264 183.141C93.3568 185.414 85.84 176.413 83.6128 174.928C83.6128 174.928 89.552 191.029 82.4064 188.477C82.4064 188.477 80.2256 193.813 76.0032 189.962C76.0032 189.962 75.2608 193.488 71.224 191.632C66.6304 189.498 67.3264 184.486 63.9856 183.558" fill="white"/>
<path id="Vector_47" d="M33.5008 183.512C34.568 182.445 35.4496 181.192 36.4704 180.078C38.6048 177.666 40.8784 175.392 43.2912 173.211C49.5552 167.69 56.9792 162.771 65.3312 161.333C69.2752 160.637 73.3584 160.962 77.1168 162.307C80.5968 163.606 83.8448 165.555 86.6288 168.061C89.088 170.242 91.2224 172.701 92.9856 175.485C93.6816 176.552 94.2848 177.712 94.7952 178.918C94.888 179.15 94.7488 178.733 94.8416 179.011L94.888 179.197C94.9344 179.336 94.9808 179.475 95.0272 179.568C95.12 179.8 95.2128 180.078 95.2592 180.31C95.3984 180.728 95.4912 181.146 95.5376 181.563C95.5376 181.656 95.5376 181.749 95.584 181.842C95.6304 182.074 95.584 181.656 95.584 181.888C95.584 182.027 95.584 182.213 95.5376 182.352C95.5376 182.398 95.4912 182.491 95.4912 182.538C95.5376 182.259 95.5376 182.398 95.4912 182.491C95.4448 182.584 95.352 182.723 95.4448 182.538C95.6304 182.306 95.2592 182.77 95.4912 182.491C95.7232 182.213 95.2128 182.77 95.5376 182.491C95.4912 182.538 95.4448 182.538 95.3984 182.538C95.1664 182.63 95.6768 182.445 95.4448 182.538C95.2128 182.63 95.6304 182.584 95.3056 182.538C95.2592 182.538 95.2128 182.538 95.1664 182.538C94.9808 182.538 95.352 182.584 95.0736 182.538C94.8416 182.491 94.6096 182.445 94.3776 182.352C94.0064 182.213 93.6816 182.027 93.3568 181.842C90.5264 180.218 88.1136 177.48 85.6544 175.206C85.2832 174.835 84.8656 174.51 84.448 174.186C84.0304 173.907 83.52 173.861 83.1024 174.093C82.7776 174.232 82.3136 174.65 82.4528 175.067C83.056 176.691 83.5664 178.362 83.9376 180.032C84.3088 181.378 84.5408 182.77 84.68 184.162C84.7264 184.718 84.7728 185.322 84.7264 185.925C84.7264 186.203 84.68 186.482 84.6336 186.714C84.5872 186.806 84.5872 186.946 84.5408 187.038C84.5872 186.806 84.4944 187.178 84.448 187.27C84.4016 187.363 84.3552 187.502 84.2624 187.595C84.4016 187.317 84.216 187.642 84.1696 187.688C84.1232 187.734 84.0304 187.781 84.2624 187.642C84.216 187.688 84.1696 187.734 84.0768 187.781C83.9376 187.827 84.216 187.781 84.1696 187.734C84.1232 187.781 84.0304 187.781 83.9376 187.827L84.0768 187.781C83.7056 187.781 83.984 187.827 84.0768 187.781C83.9376 187.781 83.7984 187.781 83.7056 187.781C83.6128 187.781 83.984 187.827 83.752 187.781L83.4736 187.734L83.2416 187.688C83.1488 187.642 83.1488 187.642 83.2416 187.688L83.056 187.642C82.4992 187.456 81.5712 187.549 81.2928 188.198C81.2 188.43 81.0608 188.662 80.968 188.848C80.9216 188.894 80.736 189.219 80.8752 188.987C80.7824 189.08 80.736 189.219 80.6432 189.312C80.5504 189.405 80.4576 189.544 80.3648 189.637C80.272 189.73 80.04 189.962 80.1792 189.822C80.04 189.915 79.9472 190.008 79.808 190.101C79.7616 190.147 79.7152 190.147 79.6224 190.194C79.8544 190.054 79.576 190.194 79.5296 190.24L79.344 190.333C79.6224 190.24 79.2976 190.333 79.2512 190.333C79.2048 190.333 79.112 190.379 79.0656 190.379C79.2976 190.333 79.0656 190.379 79.0192 190.379C78.9728 190.379 78.7872 190.379 78.9264 190.379C78.8336 190.379 78.7408 190.333 78.648 190.333C78.5088 190.286 78.3232 190.24 78.184 190.147C77.6736 189.915 77.256 189.59 76.8384 189.219C76.2352 188.802 75.4 188.941 74.9824 189.544C74.8896 189.637 74.8432 189.776 74.7968 189.869C74.7968 189.915 74.7968 189.915 74.7504 189.962C74.704 190.054 74.8432 189.73 74.7504 189.915C74.704 189.962 74.704 190.054 74.6576 190.101C74.6112 190.147 74.5184 190.333 74.472 190.472C74.4256 190.611 74.4256 190.518 74.4256 190.518C74.3792 190.611 74.2864 190.704 74.24 190.75C74.1936 190.797 74.008 190.936 74.1936 190.843C74.1008 190.89 74.0544 190.982 73.9616 191.029C73.8688 191.075 74.008 191.029 74.008 190.982L73.8224 191.075C73.776 191.075 73.5904 191.168 73.8688 191.075C73.8224 191.075 73.7296 191.122 73.6832 191.122C73.4976 191.168 73.6368 191.122 73.6832 191.122H73.4976H73.2192C72.848 191.075 72.4768 190.982 72.152 190.843C70.8528 190.333 69.7856 189.405 69.0432 188.245C68.3936 187.224 67.9296 186.11 67.3264 185.043C66.7232 183.837 65.6096 182.955 64.3568 182.538C63.1968 182.213 62.0832 183.79 63.5216 184.254C63.4288 184.254 63.7072 184.347 63.8 184.347C63.8928 184.394 63.9856 184.44 64.032 184.486C64.2176 184.626 64.4032 184.765 64.5424 184.95C64.9136 185.414 65.2384 185.878 65.4704 186.435C66.12 187.642 66.6768 188.941 67.5584 190.008C69.4608 192.282 73.4512 194.23 75.9568 191.771C76.5136 191.261 76.8848 190.565 77.0704 189.822L75.0288 190.472C76.792 192.05 79.2048 192.746 81.2928 191.261C82.2208 190.565 82.9632 189.637 83.4272 188.57L81.664 189.173C83.1024 189.683 84.7728 189.776 85.9328 188.616C86.768 187.734 87 186.435 87 185.275C87 182.352 86.2112 179.475 85.376 176.691C85.144 175.995 84.912 175.299 84.68 174.603L82.6384 175.485C83.752 176.32 84.7728 177.294 85.7472 178.315C87.0928 179.661 88.5312 180.914 90.016 182.074C91.3152 183.048 92.8 184.115 94.424 184.301C95.6304 184.44 97.1152 184.069 97.6256 182.862C97.904 182.074 97.904 181.238 97.672 180.45C97.3936 179.29 96.976 178.222 96.4656 177.155C95.0272 174.325 93.1712 171.68 90.9904 169.36C85.5152 163.421 77.9056 159.198 69.6928 159.198C60.4128 159.198 51.6896 163.931 44.6368 169.592C39.9968 173.397 35.7744 177.619 31.9696 182.213C31.8768 182.352 31.7376 182.491 31.6448 182.584C31.3664 182.862 31.3664 183.326 31.6912 183.605C31.7376 183.651 31.8304 183.744 31.9232 183.744C32.4336 184.069 33.0832 183.93 33.5008 183.512Z" fill="#000005"/>
<path id="Vector_48" d="M74.3328 172.376C75.3536 173.861 76.2816 175.392 77.1168 177.016C78.5088 179.707 79.9008 182.723 79.9008 185.786C79.9008 187.131 82.2208 187.27 82.2208 185.971C82.1744 183.326 81.3392 180.774 80.272 178.362C79.3904 176.366 78.3232 174.464 77.1632 172.608C76.9312 172.237 76.6528 171.866 76.4208 171.494C76.096 170.984 75.4464 170.798 74.8432 171.03C74.4256 171.262 74.008 171.912 74.3328 172.376Z" fill="#000005"/>
<path id="Vector_49" d="M68.0688 173.582C68.9504 174.603 69.7856 175.67 70.528 176.784C72.1984 179.104 73.4976 181.702 74.3792 184.44C74.8896 186.018 75.0752 187.688 74.9824 189.312C74.936 190.008 76.8384 191.122 76.9312 190.472C77.2096 187.317 76.1424 184.208 74.7504 181.424C73.5904 179.104 72.152 176.877 70.528 174.835C70.2032 174.418 69.8784 174 69.5072 173.629C69.136 173.258 68.672 172.747 68.1616 172.794C67.6512 172.84 67.8832 173.304 68.0688 173.582Z" fill="#000005"/>
<path id="Vector_50" d="M128.203 172.005L122.96 178.779L122.218 179.754C121.893 180.171 122.635 180.589 122.96 180.635C123.47 180.821 124.027 180.682 124.445 180.31L129.688 173.536L130.43 172.562C130.755 172.144 130.013 171.726 129.688 171.68C129.178 171.494 128.621 171.634 128.203 172.005Z" fill="#000005"/>
<path id="Vector_51" d="M51.6896 135.117C51.6896 135.117 109.411 131.034 119.248 115.722C119.248 115.722 96.512 78.4624 88.7168 71.9664C80.9216 65.4704 56.2832 75.864 48.5344 86.536C40.7856 97.208 51.6896 135.117 51.6896 135.117Z" fill="white"/>
<path id="Vector_52" d="M51.6432 136.138C53.592 135.998 55.5872 135.813 57.536 135.627C62.3616 135.163 67.1408 134.56 71.9664 133.818C78.0448 132.936 84.1232 131.822 90.1088 130.43C96.0016 129.038 101.894 127.461 107.462 125.094C111.685 123.285 116.232 121.011 119.202 117.392C119.526 116.974 119.851 116.557 120.13 116.093C120.315 115.768 120.362 115.397 120.176 115.072C118.97 113.123 117.763 111.174 116.557 109.226C113.726 104.771 110.896 100.317 108.019 95.8624C104.771 90.8976 101.43 85.9792 97.9504 81.1536C96.512 79.1584 95.0272 77.1632 93.4496 75.3072C92.336 73.8688 91.0832 72.5232 89.7376 71.3168C87.9744 69.7856 85.7008 69.136 83.4272 68.9504C80.4576 68.7648 77.4416 69.0896 74.5648 69.8784C67.6976 71.5952 61.248 74.6112 55.4944 78.6944C52.896 80.4576 50.5296 82.592 48.488 85.0048C47.0496 86.768 46.0752 88.8096 45.5648 91.0368C44.2656 96.4192 44.6368 102.173 45.1936 107.648C45.8432 113.448 46.7712 119.202 48.0704 124.862C48.8128 128.25 49.648 131.637 50.576 134.978C50.6224 135.163 50.6688 135.302 50.7152 135.442C51.0864 136.694 53.1744 135.766 52.8496 134.606C52.2 132.286 51.5968 129.966 51.04 127.6C49.7872 122.357 48.72 117.021 47.9776 111.685C47.1888 106.117 46.5856 100.363 47.1424 94.7024C47.2816 92.5216 47.792 90.3408 48.6272 88.2992C48.6272 88.2528 48.72 88.1136 48.6272 88.2992L48.72 88.16L48.8592 87.8816C48.952 87.6496 49.0912 87.464 49.2304 87.232C49.5088 86.8144 49.8336 86.3968 50.1584 85.9792C51.0864 84.8656 52.1072 83.7984 53.1744 82.824C58.0464 78.4624 64.264 75.168 70.4816 72.9872C73.4048 71.92 76.4672 71.224 79.576 70.8992C81.9424 70.6672 84.4016 70.76 86.5824 71.7344C86.768 71.8272 87.0464 71.9664 87.0928 71.9664C87.3248 72.1056 87.5568 72.2448 87.7424 72.4304C88.0208 72.6624 88.2992 72.8944 88.5776 73.1264C88.856 73.4048 89.1344 73.6832 89.4128 73.9616L89.5984 74.1472L89.6912 74.24L90.1552 74.7504C91.5936 76.3744 92.9392 78.0912 94.2848 79.8544C97.7184 84.4016 100.92 89.088 104.075 93.8208C107.138 98.4608 110.154 103.101 113.123 107.787C114.794 110.478 116.464 113.17 118.134 115.861L118.366 116.232L118.413 115.258C118.32 115.443 118.181 115.629 118.042 115.768C117.995 115.861 117.902 115.954 117.81 116.046C117.995 115.814 117.763 116.093 117.717 116.139C117.392 116.51 117.067 116.882 116.742 117.206C116.418 117.531 116 117.902 115.629 118.181C115.49 118.274 115.861 117.995 115.629 118.181L115.49 118.274L115.211 118.506L114.562 119.016C113.634 119.712 112.613 120.315 111.592 120.872C111.314 121.011 111.082 121.15 110.803 121.29L110.432 121.475H110.386L110.107 121.614C109.55 121.893 108.947 122.171 108.39 122.45C103.147 124.816 97.3936 126.533 91.9184 127.832C85.9328 129.27 79.8544 130.43 73.776 131.358C68.8112 132.101 63.8464 132.75 58.8816 133.261C56.5616 133.493 54.1952 133.632 51.8288 133.91H51.736C50.4832 134.189 50.1584 136.23 51.6432 136.138Z" fill="#000005"/>
<path id="Vector_53" d="M101.384 111.778L103.658 123.795C103.843 124.723 105.467 124.909 105.235 123.842L103.008 111.824C102.822 110.942 101.198 110.71 101.384 111.778Z" fill="#000005"/>
<path id="Vector_54" d="M56.7472 107.23C56.7472 107.23 52.5248 100.595 50.0656 103.379C47.6064 106.163 55.5408 118.784 59.4384 114.469C63.336 110.154 56.7472 107.23 56.7472 107.23Z" fill="white"/>
<path id="Vector_55" d="M57.6288 106.813C57.072 105.978 56.4688 105.189 55.8192 104.446C54.7984 103.286 53.4992 102.034 51.8752 101.709C50.4368 101.384 48.9984 102.266 48.6736 103.704C48.3488 104.91 48.6736 106.302 49.0912 107.462C50.112 110.525 52.0144 113.216 54.5664 115.165C55.5872 115.954 56.9328 116.557 58.2784 116.371C59.9024 116.139 61.1088 114.608 61.5728 113.123C62.5472 110.014 59.5312 107.37 56.9792 106.21C56.5616 106.024 56.0048 106.21 55.8192 106.627C55.7728 106.674 55.7728 106.72 55.7728 106.813C55.7264 107.416 56.0512 107.973 56.608 108.205L56.7472 108.251C57.0256 108.39 56.5616 108.158 56.7008 108.205L56.9328 108.344C57.3504 108.576 57.768 108.854 58.1392 109.179L58.2784 109.272C58.1392 109.179 58.5104 109.458 58.2784 109.272C58.4176 109.365 58.5104 109.458 58.6032 109.55C58.696 109.643 58.8352 109.782 58.928 109.922L59.0672 110.061C59.2528 110.293 58.928 109.875 59.1136 110.107C59.2064 110.246 59.2528 110.339 59.3456 110.478C59.392 110.618 59.4384 110.618 59.4384 110.71C59.3456 110.525 59.4384 110.664 59.4384 110.71C59.5776 110.942 59.624 111.221 59.624 111.499C59.624 111.731 59.5776 111.963 59.5312 112.149C59.392 112.52 59.2064 112.891 58.9744 113.216C58.7888 113.494 58.5568 113.726 58.3248 113.912C58.1392 114.098 58.3712 113.912 58.1856 114.005C58.0928 114.051 57.9536 114.098 57.8144 114.19C57.768 114.237 57.6288 114.237 57.8608 114.19L57.7216 114.237L57.3504 114.283C57.304 114.283 57.1648 114.283 57.3968 114.283H57.2576L56.8864 114.237C56.7472 114.19 57.1184 114.33 56.8864 114.237L56.7472 114.19C56.608 114.144 56.5152 114.098 56.376 114.051C56.2368 114.005 56.0512 113.866 56.2832 114.005C56.144 113.912 56.0048 113.866 55.8656 113.773C55.6336 113.634 55.4016 113.448 55.216 113.309C54.984 113.123 55.1696 113.262 55.216 113.309C55.1696 113.262 55.1232 113.216 55.0768 113.17C54.9376 113.03 54.7984 112.938 54.6592 112.798C54.4272 112.566 54.2416 112.334 54.0096 112.102L53.6848 111.731C53.6384 111.685 53.3136 111.267 53.4528 111.453C53.0352 110.896 52.664 110.339 52.2928 109.736C52.1072 109.458 51.968 109.179 51.8288 108.901C51.736 108.762 51.6896 108.576 51.5968 108.437C51.504 108.251 51.5968 108.39 51.5968 108.437L51.4576 108.158C51.2256 107.602 50.9936 106.998 50.8544 106.442C50.8544 106.395 50.7616 106.024 50.7616 106.163C50.7616 106.302 50.7152 105.978 50.7152 105.885C50.6688 105.653 50.6688 105.374 50.6688 105.142C50.6688 104.957 50.6688 105.142 50.6688 105.189V105.003C50.6688 104.91 50.7152 104.818 50.7152 104.725C50.7616 104.539 50.7616 104.539 50.7152 104.632C50.7616 104.539 50.808 104.446 50.8544 104.354C50.9472 104.122 50.7152 104.446 50.9008 104.307C51.0864 104.168 51.0864 104.122 51.2256 104.029C51.0864 104.122 51.3648 103.982 51.4112 103.936C51.5504 103.89 51.1792 103.982 51.4576 103.936C51.5504 103.936 51.5968 103.89 51.6896 103.89C51.736 103.89 51.8752 103.89 51.6896 103.89L51.9216 103.936C52.0144 103.982 52.1072 103.982 52.2 104.029L52.3856 104.122C52.6176 104.214 52.2464 104.029 52.4784 104.168C52.6176 104.261 52.7568 104.354 52.896 104.446C53.0352 104.539 53.1744 104.632 53.3136 104.771C53.128 104.632 53.3136 104.771 53.36 104.818C53.4064 104.864 53.4992 104.957 53.592 105.05C53.8704 105.282 54.1024 105.56 54.3808 105.838C54.6592 106.117 54.8448 106.395 55.0768 106.674L55.1696 106.813C55.3552 107.045 55.0304 106.627 55.1696 106.859L55.4016 107.184C55.5872 107.416 55.7264 107.648 55.8656 107.88C56.144 108.39 56.7472 108.622 57.3504 108.437C57.8144 108.205 58 107.602 57.768 107.138C57.7216 106.906 57.6752 106.859 57.6288 106.813Z" fill="#000005"/>
<path id="Vector_56" d="M97.7648 97.44C97.7648 97.44 99.6208 89.784 102.822 91.64C106.024 93.496 102.637 107.973 97.5792 105.142C92.5216 102.312 97.7648 97.44 97.7648 97.44Z" fill="white"/>
<path id="Vector_57" d="M98.832 97.8112C98.8784 97.6256 98.9248 97.44 99.0176 97.208L99.1104 96.9296C99.064 97.1616 99.1104 96.8832 99.1568 96.7904C99.2496 96.512 99.3424 96.2336 99.4352 95.9552C99.8064 94.8416 100.363 93.8208 101.152 92.9392C101.245 92.8464 101.338 92.7536 101.43 92.6608C101.57 92.568 101.245 92.7536 101.477 92.6144L101.616 92.5216C101.709 92.4752 101.802 92.4288 101.894 92.3824C101.709 92.4288 102.034 92.3824 102.126 92.336C101.848 92.336 102.451 92.4288 102.173 92.336C102.266 92.336 102.544 92.4752 102.358 92.3824C102.405 92.4288 102.73 92.6144 102.498 92.4752C102.266 92.336 102.544 92.568 102.59 92.6144C102.498 92.5216 102.498 92.4288 102.59 92.6608C102.683 92.8928 102.73 92.8928 102.637 92.7072C102.73 92.9392 102.822 93.1712 102.869 93.4032C102.869 93.4496 102.915 93.5888 102.869 93.3568C102.869 93.4032 102.869 93.4496 102.915 93.5424C102.962 93.6816 102.962 93.7744 102.962 93.9136C103.008 94.192 103.008 94.4704 103.054 94.7488C103.054 95.3056 103.054 95.8624 103.008 96.4192C102.915 97.0688 102.822 97.7648 102.683 98.4144C102.405 99.6672 101.987 100.874 101.384 101.987C101.245 102.266 101.106 102.498 100.92 102.776C100.781 102.962 100.688 103.147 100.502 103.333C100.317 103.518 100.178 103.704 99.992 103.89C99.8992 103.982 99.8064 104.029 99.76 104.075C99.5744 104.261 99.8528 104.029 99.76 104.075L99.5744 104.214C99.4816 104.261 99.3888 104.307 99.296 104.354C99.2032 104.4 99.0176 104.446 99.2032 104.4C99.1104 104.446 99.0176 104.446 98.8784 104.446L98.6928 104.493C98.5072 104.493 98.832 104.493 98.6928 104.493L98.368 104.4C98.1824 104.4 98.368 104.4 98.4144 104.4C98.368 104.4 98.2752 104.354 98.2288 104.354C98.1824 104.354 97.8112 104.168 98.0896 104.307C97.8576 104.214 97.672 104.075 97.44 103.936C96.2336 103.054 96.28 101.802 96.976 100.41C97.3936 99.6208 97.9504 98.8784 98.6 98.2752C99.4816 97.44 97.8576 95.7696 96.976 96.6512C95.0272 98.5072 93.4496 101.57 95.0736 104.122C96.0016 105.56 97.8576 106.813 99.6208 106.581C100.827 106.395 101.802 105.56 102.498 104.586C104.261 102.173 105.096 98.9712 105.189 96.0016C105.235 94.656 105.142 93.264 104.446 92.0576C103.75 90.7584 102.266 90.1088 100.874 90.48C99.296 90.944 98.4144 92.6608 97.8112 94.0528C97.3936 95.0272 97.0224 96.0944 96.7904 97.1152C96.4656 98.2288 98.5072 99.1568 98.832 97.8112Z" fill="#000005"/>
<path id="Vector_58" d="M72.3376 120.826L71.2704 131.776C71.2704 131.776 81.3392 141.288 90.2944 128.992L87.9744 120.547L72.3376 120.826Z" fill="white"/>
<path id="Vector_59" d="M71.4096 120.362L70.6672 128.296C70.5744 129.27 70.3888 130.291 70.3888 131.312C70.3888 132.194 71.4096 132.843 72.0592 133.307C74.5648 135.117 77.5808 136.416 80.736 136.277C82.8704 136.184 84.9584 135.488 86.7216 134.282C87.8816 133.493 88.9024 132.565 89.8304 131.498C90.0624 131.266 90.2944 130.987 90.48 130.709C90.8048 130.43 91.0368 130.059 91.2224 129.688C91.2688 129.502 91.2688 129.27 91.176 129.085C90.48 126.301 89.6448 123.563 88.9024 120.826C88.7632 120.269 88.16 119.573 87.5568 119.573L73.8688 119.851L71.92 119.898C70.76 119.898 71.92 121.846 72.8016 121.8L86.4432 121.522L88.392 121.475L87.0464 120.222L89.3664 128.667L89.4592 128.11C87.0928 131.358 83.752 134.235 79.5296 134.282C78.1376 134.282 76.7456 134.003 75.4464 133.493C75.2144 133.4 75.0752 133.354 74.7968 133.214C74.5184 133.075 74.24 132.936 73.9616 132.797C73.6832 132.658 73.4976 132.518 73.2656 132.379L73.08 132.24C73.2192 132.333 72.8944 132.101 72.848 132.054C72.5232 131.822 72.1984 131.59 71.8736 131.312L71.6416 131.08C71.456 130.894 71.8736 131.312 71.7808 131.173L72.1984 132.147L73.1264 122.589L73.2656 121.197C73.3584 120.501 71.5024 119.155 71.4096 120.362Z" fill="#000005"/>
<path id="Vector_60" d="M55.5872 104.307C55.5872 104.307 59.8096 126.254 77.1168 127.878C98.6 129.874 103.147 105.142 97.9504 88.624C97.9504 88.624 81.7568 89.0416 76.56 80.1792C76.5136 80.1792 64.96 103.611 55.5872 104.307Z" fill="white"/>
<path id="Vector_61" d="M54.9376 103.75C55.5872 106.906 56.6544 110.014 58.0928 112.891C60.7376 118.459 64.6816 123.795 70.2496 126.718C76.1888 129.781 84.1232 129.92 89.9232 126.44C95.3056 123.238 98.368 117.299 99.6672 111.314C101.059 104.678 100.92 97.8112 99.2496 91.2688C99.064 90.48 98.832 89.6912 98.5536 88.9024C98.4608 88.5776 97.9504 87.5568 97.44 87.5568C95.584 87.5568 93.728 87.464 91.872 87.1856C88.2064 86.7216 84.4944 85.7936 81.2928 83.9376C80.3648 83.4272 79.5296 82.7776 78.7408 82.0816C78.0448 81.432 77.4416 80.6896 76.9312 79.9008C76.8384 79.7616 76.1424 78.7408 75.9104 79.2048C74.5648 81.896 73.08 84.5408 71.5024 87.0928C68.672 91.6864 65.5168 96.3728 61.4336 99.9456C59.6704 101.477 57.536 103.008 55.1696 103.24C54.5664 103.286 55.5408 105.328 56.144 105.282C58.2784 105.096 60.1808 103.936 61.8048 102.637C63.8928 100.92 65.7488 98.9712 67.3728 96.8368C70.528 92.8 73.312 88.4848 75.7248 83.984C76.2352 83.0096 76.792 82.0352 77.256 81.0608L76.2352 80.3648C80.272 87.1392 88.9488 89.1808 96.3264 89.552C97.0688 89.5984 97.7648 89.5984 98.5072 89.5984L97.3936 88.2528C99.296 94.3776 99.76 100.874 98.7856 107.23C97.8576 113.123 95.4912 119.202 90.712 123.006C85.608 127.09 78.2304 127.925 72.152 125.79C69.2752 124.816 66.6768 123.192 64.5424 121.058C63.5216 120.037 62.64 118.97 61.8048 117.81L61.5264 117.392C61.3872 117.206 61.6656 117.624 61.48 117.346C61.4336 117.299 61.3872 117.206 61.3408 117.16C61.1552 116.835 60.9232 116.51 60.7376 116.232C60.552 115.954 60.4128 115.675 60.2272 115.397L59.9952 115.026C59.8096 114.747 60.0416 115.165 59.9488 114.979L59.8096 114.701C59.4848 114.144 59.2064 113.541 58.928 112.938C58.7888 112.659 58.696 112.381 58.5568 112.102C58.5104 111.963 58.464 111.824 58.3712 111.685C58.3248 111.638 58.3248 111.592 58.2784 111.499C58.3712 111.685 58.2784 111.453 58.232 111.406C57.8144 110.432 57.4432 109.411 57.1184 108.39C56.9792 107.973 56.84 107.555 56.7472 107.138C56.7008 107.045 56.6544 106.859 56.7472 107.091C56.7472 106.998 56.7008 106.906 56.6544 106.813L56.608 106.256C56.5152 105.838 56.4224 105.421 56.2832 105.003C56.2832 104.957 56.2832 104.91 56.2368 104.818C56.0976 104.261 55.8192 103.797 55.4016 103.426C55.0768 103.194 54.8448 103.286 54.9376 103.75Z" fill="#000005"/>
<path id="Vector_62" d="M67.4656 108.808C67.512 109.411 67.6512 109.968 67.8832 110.478C68.3008 111.499 69.1824 112.242 70.2496 112.474C71.224 112.566 72.152 112.381 72.9872 111.963C73.312 111.824 73.6832 111.406 73.4976 111.035C73.312 110.664 72.7552 110.757 72.4768 110.896C72.4304 110.942 72.384 110.942 72.2912 110.989C72.2912 110.989 72.4768 110.942 72.3376 110.989L72.0592 111.082L71.8736 111.128L71.7345 111.174C71.5953 111.221 71.9201 111.128 71.7345 111.174C71.5489 111.221 71.456 111.221 71.3168 111.221H71.224C71.1312 111.221 71.4097 111.221 71.2705 111.221H71.0848C71.0384 111.221 70.9456 111.174 70.8992 111.174C70.8528 111.174 71.0384 111.221 70.9456 111.174L70.8528 111.128C70.76 111.082 70.6208 111.035 70.528 110.989L70.4816 110.942C70.3424 110.896 70.4816 110.989 70.528 110.942C70.5744 110.896 70.4352 110.896 70.4352 110.85C70.3424 110.803 70.2496 110.71 70.1568 110.618C70.064 110.525 70.0176 110.478 69.9248 110.386C69.832 110.293 69.9712 110.432 69.9712 110.432L69.9248 110.386L69.832 110.246C69.7392 110.061 69.6 109.875 69.5536 109.69C69.4608 109.504 69.4144 109.318 69.368 109.133C69.3216 108.947 69.368 109.179 69.368 109.133L69.3216 109.04C69.2752 108.947 69.2752 108.854 69.2752 108.808C69.2288 108.622 69.2289 108.483 69.1825 108.298C69.1361 107.88 68.6256 107.834 68.3008 107.926C67.976 108.019 67.3728 108.39 67.4656 108.808Z" fill="#000005"/>
<path id="Vector_63" d="M76.4208 76.9312C75.2144 80.2256 73.7296 83.3808 71.9664 86.3968C68.7184 92.1504 64.6352 97.8112 59.1136 101.523C55.9584 103.704 52.2464 104.957 48.3952 105.05C48.024 105.05 47.6992 105.374 47.6992 105.746C47.6992 105.792 47.6992 105.792 47.6992 105.838C47.792 106.302 48.3024 106.442 48.72 106.442C56.0512 106.349 62.3152 101.941 66.9552 96.5584C70.9456 91.9648 74.1008 86.5824 76.6064 81.0144C77.1168 79.8544 77.6272 78.648 78.0448 77.488C78.3696 76.56 76.6992 76.096 76.4208 76.9312Z" fill="#000005"/>
<path id="Vector_64" d="M52.0608 100.734C58.464 96.976 65.424 92.6144 69.136 85.9328C70.1104 84.216 70.76 82.4064 71.0848 80.4576C71.1312 80.1792 69.4144 79.9008 69.368 80.1792C68.1616 87.3248 62.2688 92.5216 56.608 96.4192C54.6128 97.8112 52.5248 99.1104 50.3904 100.317C50.1584 100.456 50.9008 100.642 50.9472 100.642C51.3184 100.781 51.6896 100.781 52.0608 100.734Z" fill="#000005"/>
<path id="Vector_65" d="M48.8128 98.0896C54.4272 92.6608 60.552 86.7216 62.5008 78.88C62.5008 78.8336 60.8304 78.5088 60.784 78.7408C58.7888 86.5824 52.664 92.5216 47.0496 97.9504C47.0496 97.9504 47.8384 98.136 47.8848 98.136C48.1632 98.136 48.6736 98.2288 48.8128 98.0896Z" fill="#000005"/>
<path id="Vector_66" d="M81.2465 79.9936C85.4225 82.6384 90.2945 84.1232 95.2593 84.216C95.5841 84.216 96.1409 84.1696 96.1873 83.752C96.2337 83.3344 95.6769 83.1488 95.3521 83.1488C90.8049 83.056 86.3505 81.7568 82.5457 79.344C82.1745 79.112 81.7105 79.0656 81.3393 79.2512C81.1073 79.344 81.0145 79.5296 81.0609 79.7616C81.0609 79.8544 81.1537 79.9472 81.2465 79.9936Z" fill="#000005"/>
<path id="Vector_67" d="M56.7473 119.573L59.0208 131.59C59.16 131.915 59.3456 132.24 59.624 132.472C59.6704 132.518 60.1808 132.982 60.1808 132.797L57.9073 120.779C57.7681 120.454 57.5824 120.13 57.304 119.898C57.2576 119.851 56.7009 119.434 56.7473 119.573Z" fill="#000005"/>
<path id="Vector_68" d="M89.2272 91.5936C89.2272 91.5936 89.8304 92.7536 88.6704 93.2176C87.5104 93.6816 86.9536 92.2896 87.7888 91.5472C88.1136 91.176 88.7168 91.1296 89.088 91.4544C89.1344 91.5008 89.1808 91.5472 89.2272 91.5936Z" fill="#000005"/>
<path id="Vector_69" d="M80.7361 94.7952C80.7361 94.7952 81.3393 95.9552 80.1793 96.4192C79.0193 96.8832 78.4624 95.4912 79.2976 94.7488C79.6224 94.3776 80.2256 94.3312 80.5968 94.656C80.6432 94.7024 80.6897 94.7488 80.7361 94.7952Z" fill="#000005"/>
<path id="Vector_70" d="M81.9888 93.728C83.1024 96.1408 82.7312 98.9712 81.0608 101.013C80.6432 101.477 80.1792 101.894 79.6688 102.266C79.2512 102.498 78.8336 102.59 78.3696 102.637C77.0704 102.73 75.7248 102.498 74.6112 101.848C72.2912 100.549 70.8528 98.0432 71.0384 95.3984C71.1312 94.0992 71.5488 92.8464 72.3376 91.7792C72.9408 90.944 73.776 90.0624 74.8432 89.8768C77.7664 89.4592 80.6896 90.9904 81.9888 93.728C82.128 94.0064 84.216 93.032 84.1232 92.8464C82.7312 90.0624 79.7152 88.4848 76.6528 88.9488C73.4512 89.4592 70.2032 91.3616 69.1824 94.5632C68.2544 97.5792 69.5072 100.874 72.1984 102.544C75.1216 104.307 78.6944 103.518 81.432 101.755C84.448 99.8528 85.608 96.048 84.1232 92.8C84.0304 92.568 81.896 93.496 81.9888 93.728Z" fill="#518C3C"/>
<path id="Vector_71" d="M97.672 88.16C98.6464 90.3872 98.1824 93.032 96.4656 94.7488C94.7024 96.5584 92.0112 97.0688 89.6912 96.0944C87.464 95.0736 86.1648 92.7536 86.4896 90.3408C86.8144 87.8352 88.6704 85.7936 91.0832 85.1904C93.728 84.448 96.4656 85.7008 97.672 88.16C97.904 88.7168 98.5072 88.9952 99.064 88.856C99.6208 88.6704 99.6672 87.9744 99.4352 87.5104C97.9968 84.4944 94.8416 82.6384 91.4544 82.8704C88.2064 83.1488 85.4688 85.4688 84.6336 88.624C83.8448 91.9648 85.1904 95.3984 88.0208 97.3472C90.7584 99.2496 94.3776 99.2032 97.1152 97.3008C100.178 95.0736 101.013 90.8976 99.4352 87.5568C99.2032 87 98.6 86.7216 98.0432 86.8608C97.4864 87.0464 97.44 87.696 97.672 88.16Z" fill="#518C3C"/>
<path id="Vector_72" d="M87.232 107.184C87.232 107.184 98.136 102.544 99.1104 95.4448C100.085 88.3456 91.9648 90.0624 86.768 98.6" fill="white"/>
<path id="Vector_73" d="M87.8817 107.926C89.1809 107.323 90.4801 106.674 91.6865 105.885C94.0993 104.493 96.2801 102.683 98.0433 100.502C99.6673 98.4144 100.92 95.3984 100.038 92.7072C99.2033 90.2016 96.3265 89.784 94.1457 90.48C90.5265 91.5936 87.6497 94.888 85.7473 98.0432C85.1441 99.0176 87.2785 99.8992 87.7889 99.0176C89.4129 96.4192 91.5473 93.7744 94.3777 92.4288C94.6561 92.2896 94.8881 92.1968 95.1665 92.104L95.5377 92.0112C95.5841 92.0112 95.9089 91.9184 95.7697 91.9648C96.0017 91.9184 96.2337 91.872 96.4657 91.872C96.6049 91.872 96.4193 91.872 96.4193 91.872H96.6049L96.9297 91.9184C96.6049 91.872 96.9297 91.9184 97.0225 91.9648L97.1153 92.0112C97.2545 92.0576 96.9297 91.9184 97.0689 92.0112C97.2081 92.104 97.2545 92.104 97.3009 92.1504C97.0689 92.0112 97.3009 92.1504 97.3473 92.1968C97.3937 92.2432 97.3473 92.1968 97.3009 92.1504C97.3473 92.1968 97.3937 92.2432 97.3937 92.2432C97.4401 92.2896 97.5793 92.4752 97.5329 92.3824C97.4865 92.2896 97.6257 92.5216 97.6257 92.568C97.6721 92.6608 97.7185 92.8 97.7649 92.8928C98.5073 94.9808 97.3009 97.7184 95.9553 99.4352C94.3777 101.384 92.4289 103.054 90.2945 104.354C89.3665 104.91 88.4385 105.467 87.4641 105.931L87.3713 105.978L87.1393 106.07L86.7681 106.256L86.4433 106.395C85.2369 107.045 86.9073 108.39 87.8817 107.926Z" fill="#000005"/>
</g>
</g>
</svg>
