<svg width="76" height="70" viewBox="0 0 76 70" fill="none" xmlns="http://www.w3.org/2000/svg">
<g id="Group 627079">
<g id="Group 627080">
<path id="Vector" d="M32.8 47.8295C32.8 47.8295 26.2 40.9295 35.1 25.0295C44 9.12952 66 -4.77047 71.1 2.62953C76.2 10.0295 61.8 35.2295 49.4 43.6295C37 52.0295 35.4 49.9295 32.8 47.8295Z" fill="#518C3C"/>
<path id="Vector_2" d="M29.1999 61.3293C29.1999 61.3293 17.8999 67.3293 6.29994 54.2293C-5.30006 41.1293 3.59992 38.2294 12.5999 38.1294C21.5999 38.0294 35.5999 54.8293 29.1999 61.3293Z" fill="#518C3C"/>
<path id="Vector_3" d="M58.0001 11.9295C55.8001 12.9295 53.8001 14.2295 52.0001 15.8295C48.7001 18.4295 45.7001 21.3295 43.0001 24.5295C35.0001 33.7295 30.2001 45.3295 29.4001 57.5295C29.1001 61.4295 29.3001 65.3295 30.1001 69.1295C30.2001 69.4295 34.9001 68.1295 34.8001 67.4295C34.2001 64.5295 34.0001 61.5295 34.1001 58.5295C34.1001 52.0295 35.4001 45.6295 37.7001 39.6295C41.4001 30.5295 47.3001 22.3295 54.8001 15.9295C56.0001 14.8295 57.3001 13.8295 58.6001 12.9295C59.0001 12.6295 59.5001 12.3295 59.9001 12.0295C60.3001 11.7295 59.8001 12.0295 60.1001 11.9295C60.7001 11.7295 59.4001 12.2295 59.5001 12.1295C59.6001 12.0295 61.3001 11.4295 61.0001 11.1295C60.7001 10.8295 58.3001 11.9295 58.0001 11.9295Z" fill="#000005"/>
<path id="Vector_4" d="M8.00006 42.0293C8.20006 42.1293 8.30006 42.2293 8.50006 42.3293C8.90006 42.5293 7.90007 41.9293 8.60007 42.3293C8.90007 42.5293 9.20006 42.6293 9.40006 42.8293C11.0001 43.8293 12.5001 44.8293 14.0001 45.9293C18.3001 49.0293 22.1001 52.8293 25.2001 57.1293C27.2001 59.9293 28.7001 63.1293 29.5001 66.5293C29.9001 67.6293 30.8001 68.4293 31.9001 68.6293C32.3001 68.7293 34.4001 69.1293 34.1001 68.0293C31.3001 56.5293 21.9001 47.6293 12.1001 41.5293C11.1001 40.9293 10.1001 40.3292 9.00006 39.7292C8.30006 39.4292 6.70007 38.8292 6.20007 39.7292C5.70007 40.6292 7.40006 41.6293 8.00006 42.0293Z" fill="#000005"/>
<path id="Vector_5" d="M46.8001 61.5293C46.8001 61.5293 58.1001 67.5293 69.7001 54.4293C81.3001 41.3293 72.4001 38.4293 63.4001 38.3293C54.4001 38.2293 40.3001 55.0293 46.8001 61.5293Z" fill="#518C3C"/>
<path id="Vector_6" d="M65.8999 39.0293C63.4999 40.3293 61.1999 41.8293 58.9999 43.4293C54.2999 46.8293 50.1999 51.0293 46.8999 55.7293C44.8999 58.7293 43.3999 62.0293 42.4999 65.5293C42.2999 66.3293 43.4999 67.7293 43.9999 68.2293C44.1999 68.4293 45.3999 69.9293 45.5999 69.2293C48.1999 58.4293 57.2999 50.0293 66.3999 44.4293C67.1999 43.9293 67.9999 43.4293 68.7999 43.0293C69.3999 42.8293 66.8999 38.6293 65.8999 39.0293Z" fill="#000005"/>
</g>
</g>
</svg>
