<svg width="84" height="104" viewBox="0 0 84 104" fill="none" xmlns="http://www.w3.org/2000/svg">
<g id="Group 627079">
<g id="plant">
<path id="Vector" d="M47.4003 77.6776C47.4003 77.6776 41.1351 93.1498 41.1351 96.6364C41.1351 100.123 45.7114 102.248 50.8325 102.248C55.9535 102.248 62.7089 99.7962 62.7089 95.9282C62.7089 92.0602 55.7356 77.7866 55.7356 77.7866L47.4003 77.6776Z" fill="#000005"/>
<path id="Vector_2" d="M46.1472 77.2418C44.8397 80.456 43.5867 83.7248 42.4426 87.048C41.6799 89.2817 40.8627 91.5154 40.3179 93.8035C40.1 94.6207 39.9366 95.4379 39.8276 96.3095C39.7731 97.6715 40.2634 98.979 41.1351 100.014C43.3143 102.629 47.2913 103.446 50.5055 103.501C53.8833 103.61 57.2065 102.847 60.2029 101.267C62.491 100.014 64.3978 97.9984 64.0164 95.22C63.6351 93.1497 63.0358 91.134 62.1641 89.2272C60.6387 85.2502 58.9498 81.3822 57.0431 77.6231L56.9341 77.4052C56.7162 76.9694 56.2804 76.697 55.79 76.697L47.4547 76.588C46.8009 76.588 46.0927 76.9149 46.0927 77.6231C46.1472 78.3313 46.692 78.8761 47.4002 78.9306L55.7356 79.0396L54.5915 78.2769C56.008 81.2188 57.3699 84.2151 58.623 87.2115C59.5491 89.3362 60.3118 91.4609 60.9656 93.6945C61.0745 94.0759 61.1835 94.4572 61.238 94.8386C61.2925 95.002 61.2924 95.2199 61.3469 95.3834C61.3469 95.111 61.4014 95.6558 61.3469 95.3834C61.3469 95.4923 61.3469 95.6013 61.3469 95.6558C61.3469 96.5274 60.9656 97.3991 60.3118 97.9439C58.2961 99.8507 55.1908 100.668 52.5213 100.94C49.6884 101.267 46.2017 100.995 43.8591 99.2514C43.0419 98.7066 42.5516 97.7805 42.4971 96.7998C42.4971 96.5275 42.5516 96.2551 42.5516 95.9827C42.5516 95.9282 42.5516 95.8192 42.606 95.7103C42.5516 96.0371 42.606 95.7103 42.606 95.6558C42.6605 95.4379 42.715 95.22 42.7695 94.9476C43.2598 92.8773 43.968 90.8616 44.6763 88.8459C45.9293 85.2502 47.2913 81.6546 48.7077 78.1134C49.307 76.697 46.7465 75.8253 46.1472 77.2418Z" fill="#000005"/>
<path id="Vector_3" d="M46.0927 77.7865C46.6375 79.0396 47.6181 80.0747 48.8167 80.6739C51.3227 81.709 54.2101 81.1098 56.1169 79.203C56.4983 78.7672 56.8251 78.3313 57.0431 77.7865C57.2065 77.4052 56.6072 77.2417 56.3893 77.2417C53.8833 76.9693 51.3772 76.8604 48.9256 76.9149C48.1629 76.9693 47.1278 76.9693 46.4741 77.3507C46.3106 77.4597 46.0382 77.6231 46.0927 77.7865C46.0927 78.0045 46.3651 78.0589 46.5285 78.1134C47.1823 78.2769 47.8361 78.2224 48.4353 77.8955C48.5988 77.7865 48.1629 78.0044 48.3264 77.95C48.2719 77.95 47.945 78.0589 48.1629 78.0045C48.3808 77.95 47.8361 78.0589 48.054 78.0045H48.3808H48.5443C48.7622 78.0045 48.1629 78.0045 48.4898 78.0045C49.1436 78.0045 49.7973 78.0045 50.5055 78.0045C51.2138 78.0045 51.9765 78.0589 52.6847 78.1134H53.175C53.0661 78.1134 53.4474 78.1134 53.175 78.1134H53.4474L54.3191 78.1679L55.1908 78.2224L54.537 77.6776C54.4281 78.0044 54.2646 78.2768 54.0467 78.5492C53.6653 79.094 53.1206 79.5299 52.4668 79.8567L52.2489 79.9112C52.1944 79.9112 51.922 80.0202 52.1399 79.9657L51.9765 80.0202C51.922 80.0202 51.7041 80.0747 51.8675 80.0202C51.4862 80.0202 52.031 79.9657 51.8675 80.0202C51.6496 80.0202 51.813 80.0202 51.8675 80.0202H51.7041H51.5407C51.5407 80.0202 51.7041 80.0747 51.5951 80.0202C51.4862 80.0202 51.3772 79.9657 51.2683 79.9112C51.2683 79.9112 51.1048 79.8567 51.2138 79.9112L51.1048 79.8567C50.4511 79.5299 49.9063 79.0396 49.5249 78.4948C49.3615 78.2768 49.198 78.0045 49.0346 77.7321C48.9801 77.6776 48.9256 77.5686 48.8712 77.4597C48.7622 77.1873 48.8167 77.3507 48.8712 77.4597C48.4353 76.7514 45.8203 77.2962 46.0927 77.7865Z" fill="#000005"/>
<path id="Vector_4" d="M48.2719 56.6485C48.2719 56.6485 46.5286 52.5081 33.9439 53.7066C21.3591 54.9052 5.77804 65.3652 8.55648 70.9766C11.3349 76.588 31.2744 74.5177 40.4269 68.7429C49.5794 62.9681 48.7078 58.9911 48.2719 56.6485Z" fill="#518C3C"/>
<path id="Vector_5" d="M58.3993 33.4588C58.3993 33.4588 61.7397 34.8835 68.5326 27.052C75.3256 19.2204 78.7347 4.29323 73.961 2.59799C69.1874 0.902759 58.5199 13.411 56.3115 21.9641C54.103 30.5171 56.8357 32.3407 58.3993 33.4588Z" fill="#518C3C"/>
<path id="Vector_6" d="M50.0698 49.1304C50.0698 49.1304 41.9524 51.7999 37.1037 36.1644C32.2551 20.5288 38.3023 20.2564 43.9136 22.599C49.525 24.9416 55.2453 44.6631 50.0698 49.1304Z" fill="#518C3C"/>
<path id="Vector_7" d="M50.1169 50.7574C50.1169 50.7574 50.3893 38.0638 57.1993 37.4645C64.0092 36.8652 58.3433 52.1194 50.1169 50.7574Z" fill="#518C3C"/>
<path id="Vector_8" d="M53.6654 80.2926C53.6654 78.7672 53.6654 77.2417 53.6109 75.6618C53.502 71.9028 53.3386 68.0892 53.0662 64.3301C52.6848 59.427 52.14 54.5238 51.3228 49.7297C50.5601 44.881 49.416 40.0868 47.7817 35.4561C46.4197 31.697 44.6219 27.829 41.7345 24.996C41.4076 24.7236 41.1352 24.4512 40.8083 24.1789C39.9366 23.4706 37.6485 24.8871 38.5747 25.6498C41.5165 28.1014 43.3688 31.6425 44.7308 35.1292C46.4197 39.5965 47.6727 44.2272 48.4354 48.9125C49.3071 53.7611 49.9064 58.6098 50.2877 63.5129C50.6146 67.4354 50.8325 71.4124 50.9415 75.335C50.9959 77.1873 50.887 79.0395 50.9959 80.8918V80.9463C51.1049 82.1993 53.6654 81.3822 53.6654 80.2926Z" fill="#000005"/>
<path id="Vector_9" d="M14.6581 67.8713C17.3821 66.3458 20.1606 65.0383 22.9935 63.7853C28.7138 61.2793 34.6521 59.2091 40.8627 58.2284C44.1315 57.7381 47.5637 57.5747 50.7235 58.2284C51.3227 58.3374 52.1944 58.1739 52.4123 57.5202C52.5758 56.9209 52.2489 56.3216 51.6496 56.1582C51.5951 56.1582 51.5407 56.1582 51.4862 56.1037C45.0031 54.6873 38.1932 56.1037 31.9281 57.956C26.5891 59.5904 21.3591 61.7151 16.347 64.2212C15.3119 64.7115 14.3313 65.2563 13.3506 65.8011C12.8058 66.1279 12.4245 66.6727 12.8058 67.272C13.2417 67.9257 14.0044 68.1437 14.6581 67.8713Z" fill="#000005"/>
<path id="Vector_10" d="M70.0381 7.85289C68.8366 10.7344 67.4577 13.4782 66.0024 16.2127C63.0488 21.7153 59.6547 27.0095 55.3738 31.6146C53.1047 34.0181 50.5053 36.2653 47.6158 37.7014C47.0771 37.9856 46.4922 38.6522 46.7243 39.3011C46.9656 39.8734 47.5927 40.1431 48.165 39.9018C48.2079 39.8682 48.2508 39.8345 48.3272 39.8438C54.3021 36.9564 58.7855 31.6385 62.5713 26.3139C65.7629 21.7325 68.5661 16.8325 70.9625 11.7671C71.4742 10.7424 71.9094 9.70848 72.3447 8.67455C72.5715 8.0811 72.5353 7.41709 71.8653 7.18101C71.1189 6.93569 70.3843 7.23504 70.0381 7.85289Z" fill="#000005"/>
</g>
<g id="Group 627078">
<path id="Vector_11" d="M42.9789 60.4994C42.9789 60.4994 46.13 53.6721 34.8386 45.3349C23.5472 36.9976 2.73696 34.0435 0.898823 40.8052C-0.939309 47.5669 17.1794 60.6964 29.0616 62.6658C40.9439 64.6353 41.5347 62.7971 42.9789 60.4994Z" fill="#518C3C"/>
<path id="Vector_12" d="M54.9268 75.3357C54.9268 75.3357 69.8288 78.3555 78.7569 60.565C87.685 42.7745 76.5905 42.4463 66.2839 45.1378C55.9772 47.8294 45.4079 70.3465 54.9268 75.3357Z" fill="#518C3C"/>
<path id="Vector_13" d="M13.5689 45.0067C15.1444 45.0067 16.8513 45.7288 18.2955 46.254C21.5779 47.37 24.729 48.8142 27.7488 50.521C36.4799 55.5103 43.8324 62.8628 48.0339 72.1191C48.9529 74.1542 49.7407 76.2549 50.3315 78.3556C50.3972 78.6839 50.5285 79.0121 50.5941 79.406L50.6598 79.6029C50.5941 79.4716 50.6598 79.4716 50.6598 79.6029C50.6598 79.7342 50.7254 79.7999 50.7254 79.9312C50.7911 80.1937 50.7911 80.3907 50.8567 80.6533C50.988 81.4411 51.3819 82.1632 51.9071 82.6884C52.301 83.0822 52.6292 83.0166 52.5636 82.3601C52.0384 79.6029 51.185 76.977 50.069 74.3511C47.7713 68.7054 44.6202 63.5193 40.6157 58.9896C34.5761 52.2279 27.0267 46.9761 18.4925 43.825C17.1795 43.2998 15.8009 42.8403 14.4223 42.512C13.7658 42.3151 13.0437 42.1181 12.3216 42.1181C11.6651 42.0525 12.7811 45.0067 13.5689 45.0067Z" fill="#000005"/>
<path id="Vector_14" d="M76.4592 46.3196C73.7676 47.8952 71.2074 49.6676 68.7784 51.5714C63.3953 55.6416 58.8 60.6308 55.1237 66.2765C52.7604 69.8871 51.0536 73.8916 50.0689 78.093C50.0032 78.4869 53.1543 79.2747 53.2856 78.8152C54.9268 71.5283 59.0626 65.0292 64.0518 59.5804C67.8594 55.5103 72.1265 51.834 76.8531 48.8142C77.7722 48.2234 78.6256 47.6326 79.6103 47.1074C79.9385 46.9104 78.6256 46.5166 78.5599 46.5166C77.9691 46.4509 76.9187 46.057 76.4592 46.3196Z" fill="#000005"/>
</g>
</g>
</svg>
