<svg width="53" height="46" viewBox="0 0 53 46" fill="none" xmlns="http://www.w3.org/2000/svg">
<g id="Group 627078">
<path id="Vector" d="M42.975 23.4994C42.975 23.4994 46.1261 16.6721 34.8347 8.33487C23.5433 -0.00237205 2.73305 -2.95653 0.894917 3.80517C-0.943215 10.5669 17.1755 23.6964 29.0577 25.6658C40.94 27.6353 41.5308 25.7971 42.975 23.4994Z" fill="#518C3C"/>
<path id="Vector_2" d="M13.565 8.00665C15.1406 8.00665 16.8474 8.72877 18.2917 9.25395C21.574 10.37 24.7251 11.8142 27.7449 13.521C36.4761 18.5103 43.8286 25.8628 48.03 35.1191C48.9491 37.1542 49.7369 39.2549 50.3277 41.3556C50.3934 41.6839 50.5246 42.0121 50.5903 42.406L50.6559 42.6029C50.5903 42.4716 50.6559 42.4716 50.6559 42.6029C50.6559 42.7342 50.7216 42.7999 50.7216 42.9312C50.7872 43.1937 50.7872 43.3907 50.8529 43.6533C50.9842 44.4411 51.3781 45.1632 51.9032 45.6884C52.2971 46.0822 52.6254 46.0166 52.5597 45.3601C52.0345 42.6029 51.1811 39.977 50.0651 37.3511C47.7675 31.7054 44.6164 26.5193 40.6118 21.9896C34.5723 15.2279 27.0228 9.97607 18.4886 6.82498C17.1757 6.2998 15.7971 5.84027 14.4185 5.51203C13.762 5.31509 13.0399 5.11814 12.3177 5.11814C11.6613 5.0525 12.7773 8.00665 13.565 8.00665Z" fill="#000005"/>
</g>
</svg>
