<svg width="160" height="160" viewBox="0 0 160 160" fill="none" xmlns="http://www.w3.org/2000/svg">
<g id="Learn Programming 1">
<g id="book">
<path id="Vector" d="M93.1404 131.819L20.9633 128.543C20.9633 128.543 13.8965 111.097 24.3863 102.926H94.5022L93.1404 131.819Z" fill="#518C3C"/>
<path id="Vector_2" d="M92.8459 130.972L90.932 130.899L85.7055 130.678L77.9026 130.31L68.4434 129.868L58.064 129.427L47.611 128.948L37.8574 128.506L29.5759 128.138L23.6501 127.881C22.73 127.844 21.773 127.733 20.8529 127.77H20.7424L21.6258 128.543C21.3313 127.844 21.1105 127.071 20.8897 126.335C20.8529 126.261 20.8529 126.188 20.8161 126.114C20.7424 125.856 20.8529 126.188 20.7793 126.004C20.7056 125.82 20.6688 125.599 20.5952 125.378C20.4848 124.936 20.3744 124.494 20.264 124.053C20.0431 123.022 19.8223 122.028 19.6751 120.998C19.0126 116.323 19.2334 111.134 21.8834 107.048C22.6196 105.944 23.5029 104.914 24.5335 104.067C24.5703 104.03 24.8647 103.773 24.7543 103.809H24.7911C24.8279 103.809 24.9016 103.809 24.9384 103.809C25.4168 103.773 25.9321 103.809 26.4474 103.809H94.9071L93.9501 102.595L93.5084 112.348L92.7723 127.917L92.5883 131.524C92.5883 132.003 92.8459 132.408 93.2508 132.665C93.6188 132.849 93.8765 132.702 93.9133 132.297L94.3918 122.507L95.1279 106.938L95.2751 103.368C95.3119 102.889 94.8702 102.153 94.3181 102.153H24.7543C24.6071 102.153 24.4599 102.153 24.3127 102.153H24.239C24.0918 102.19 23.9446 102.3 23.8342 102.411C23.5397 102.668 23.2453 102.926 22.9876 103.184C19.1598 106.827 17.982 112.201 18.2028 117.317C18.3868 120.998 19.123 124.642 20.3744 128.101C20.448 128.286 20.5216 128.47 20.5952 128.654C20.7056 129.058 21.0369 129.39 21.4786 129.463L23.3925 129.537L28.619 129.758L36.4219 130.126L45.8811 130.568L56.2605 131.046L66.7135 131.524L76.4671 131.966L84.7485 132.334L90.6743 132.592C91.5945 132.629 92.5515 132.739 93.4716 132.739C93.5084 132.739 93.5452 132.739 93.582 132.739C93.9869 132.739 93.9133 132.077 93.8397 131.856C93.582 131.377 93.2508 131.046 92.8459 130.972Z" fill="#518C3C"/>
<path id="Vector_3" d="M150.337 130.494L94.5022 131.819C94.5022 131.819 84.6014 128.543 85.2639 116.544C85.9264 104.546 94.5022 102.926 94.5022 102.926L148.976 103.331C148.976 103.331 142.608 107.6 143.565 116.949C144.522 126.298 150.337 130.494 150.337 130.494Z" fill="white"/>
<path id="Vector_4" d="M149.932 129.758L144.375 129.905L131.014 130.236L114.856 130.604L100.98 130.936C98.7348 130.972 96.4528 131.009 94.1709 131.083H94.0604L95.4591 131.34L95.2014 131.267C95.091 131.23 95.0174 131.193 94.907 131.156C95.5327 131.414 95.0174 131.193 94.8334 131.12C94.5021 130.936 94.1341 130.788 93.8028 130.568C93.6188 130.457 93.4347 130.347 93.2507 130.236C92.9194 130.015 93.3979 130.347 93.1403 130.163L92.7722 129.905C92.3306 129.574 91.8889 129.242 91.484 128.874C91.2632 128.654 91.0423 128.433 90.7847 128.212C90.6743 128.102 90.5638 127.991 90.4902 127.881L90.343 127.733C90.2694 127.66 90.2694 127.66 90.343 127.733C90.3062 127.697 90.2694 127.66 90.2326 127.586C89.2756 126.408 88.5027 125.12 87.9506 123.722C86.5152 120.078 86.6624 115.808 87.7298 112.091C88.5027 109.367 90.1222 106.938 92.3674 105.208L92.5146 105.098C92.2937 105.282 92.5146 105.098 92.5882 105.061L92.9194 104.84C93.1403 104.693 93.3979 104.545 93.6188 104.435C93.9868 104.251 94.3549 104.067 94.7598 103.92C94.8334 103.883 94.9438 103.883 95.0174 103.846C94.5757 104.03 94.8334 103.92 94.9806 103.846C95.1278 103.773 95.2014 103.773 95.3119 103.736C95.4223 103.699 95.4959 103.699 95.6063 103.662L94.7966 103.736L100.244 103.773L113.2 103.883L128.99 103.993L142.534 104.104C144.743 104.104 146.951 104.214 149.159 104.141H149.233L147.282 102.852C144.559 104.693 142.718 107.932 141.945 111.06C141.136 114.336 141.504 117.759 142.387 120.961C143.086 123.501 144.264 125.856 145.884 127.954C146.657 128.985 147.54 129.942 148.534 130.715C149.27 131.193 150.153 131.377 151 131.267C151.368 131.23 152.472 130.899 151.773 130.383C151.552 130.236 151.368 130.052 151.184 129.905C150.963 129.684 150.742 129.5 150.521 129.242C150.411 129.132 150.3 128.985 150.153 128.874L149.969 128.654L149.896 128.58L149.822 128.506C148.276 126.629 147.098 124.531 146.325 122.249C144.485 116.986 144.559 110.839 148.018 106.239C148.534 105.576 149.086 104.95 149.712 104.398C149.896 104.214 150.08 104.067 150.264 103.92C150.3 103.883 150.374 103.846 150.411 103.809C150.448 103.773 150.153 103.993 150.264 103.92C150.632 103.662 150.595 103.405 150.227 103.11C149.675 102.779 149.012 102.595 148.35 102.632H145.957L139.627 102.595L130.719 102.521L120.561 102.448L110.476 102.374L101.753 102.3L95.8271 102.227C94.907 102.227 93.9132 102.116 93.0299 102.3C91.2264 102.742 89.5701 103.625 88.2083 104.84C85.2269 107.38 83.7547 111.207 83.3498 115.035C82.8713 119.305 83.6443 123.758 86.3311 127.181C87.9138 129.206 89.9381 130.825 92.2937 131.893C93.0667 132.297 93.8764 132.518 94.7598 132.555C95.0542 132.555 95.3118 132.555 95.6063 132.555L100.465 132.445L108.378 132.261L118.095 132.04L128.364 131.782L137.933 131.561L145.589 131.377L149.969 131.267H150.558C150.889 131.267 152.251 131.23 151.957 130.568C151.662 129.905 150.484 129.758 149.932 129.758Z" fill="#518C3C"/>
<path id="Vector_5" d="M107.532 120.63C108.857 120.63 110.145 120.593 111.47 120.556C114.194 120.519 116.917 120.483 119.678 120.409L129.468 120.262L138.044 120.114C139.59 120.078 141.136 120.114 142.645 120.041H142.829C143.307 120.041 143.491 119.415 143.381 119.047C143.27 118.569 142.866 118.274 142.387 118.274C141.062 118.274 139.774 118.311 138.449 118.311L130.241 118.458L120.451 118.605L111.875 118.753C110.329 118.789 108.783 118.753 107.274 118.826H107.09C106.611 118.826 106.464 119.452 106.538 119.82C106.648 120.299 107.053 120.63 107.532 120.63Z" fill="#518C3C"/>
<path id="Vector_6" d="M99.1766 112.348H108.893C108.82 112.054 108.673 111.76 108.562 111.502C108.489 111.355 108.231 110.729 108.047 110.729H98.3301C98.4037 111.023 98.5141 111.318 98.6613 111.576C98.7349 111.686 98.9558 112.348 99.1766 112.348Z" fill="#518C3C"/>
<path id="Vector_7" d="M121.297 111.87H126.34C126.781 111.87 127.223 111.76 127.591 111.539C127.665 111.502 127.849 111.392 127.812 111.318C127.775 111.244 127.554 111.244 127.517 111.244H122.475C122.033 111.244 121.592 111.355 121.224 111.576C121.15 111.612 120.966 111.723 121.003 111.796C121.04 111.87 121.224 111.87 121.297 111.87Z" fill="#518C3C"/>
<path id="Vector_8" d="M104.771 129.022H107.016C107.2 129.058 107.421 128.985 107.568 128.838C107.716 128.69 107.752 128.47 107.752 128.249C107.716 127.991 107.642 127.77 107.458 127.586C107.311 127.402 107.127 127.292 106.906 127.255H104.661C104.477 127.218 104.256 127.292 104.109 127.439C103.961 127.586 103.925 127.807 103.925 128.028C103.925 128.286 104.035 128.506 104.219 128.69C104.329 128.838 104.55 128.985 104.771 129.022Z" fill="#518C3C"/>
<path id="Vector_9" d="M44.5192 112.385C41.5379 113.195 38.6302 116.029 38.5198 119.231C38.483 120.004 38.7039 120.777 39.1455 121.366C39.7712 122.065 40.6914 122.507 41.6484 122.581C43.3783 122.765 45.1082 122.36 46.5804 121.403C47.9422 120.519 49.3777 118.937 49.3777 117.244C49.3777 115.551 47.4637 114.152 45.8075 114.925C44.1512 115.698 44.2984 117.943 45.145 119.231C46.1019 120.74 47.8686 121.403 49.5985 121.292C53.2055 121.071 56.0764 117.943 56.6653 114.52C56.9598 112.827 56.4813 110.987 54.6778 110.434C53.8312 110.14 52.9111 110.324 52.2118 110.876C51.6229 111.428 51.402 112.385 51.2548 113.158C50.9235 114.888 51.2916 116.655 52.2118 118.164C53.1319 119.562 54.5674 120.593 56.1868 120.998C59.4258 121.844 63.0696 120.004 63.7689 116.581C63.9161 116.176 63.8425 115.735 63.6585 115.403C63.3641 115.035 62.9224 114.814 62.4439 114.778C61.5237 114.667 60.6404 114.962 60.0147 115.624C58.7265 116.949 59.2049 119.047 60.1251 120.409C61.0821 121.844 62.6647 122.728 64.3578 122.912C66.0141 123.022 67.5968 122.323 68.6273 121.035C69.1058 120.409 69.4003 119.673 69.4739 118.9C69.5475 118.017 67.7072 117.906 67.6336 118.826C67.5232 119.894 66.8607 120.814 65.9037 121.256C64.9835 121.697 63.9161 121.624 63.0696 121.071C62.039 120.446 61.3397 119.452 61.0821 118.274C60.9348 117.685 61.0453 117.06 61.3765 116.544C61.5237 116.36 61.7078 116.25 61.9286 116.176C61.9654 116.176 62.1494 116.103 62.1494 116.139C62.039 116.213 62.1126 115.955 62.0022 116.103C61.9654 116.176 61.9654 116.397 61.9654 116.507C61.9286 116.618 61.8918 116.765 61.855 116.876C61.7814 117.133 61.671 117.391 61.5237 117.648C61.2661 118.127 60.898 118.532 60.4932 118.9C59.6834 119.599 58.616 119.967 57.5487 119.894C55.1194 119.746 53.3528 117.648 53.0215 115.33C52.9479 114.704 52.9479 114.041 53.0583 113.416C53.1319 112.937 53.2791 112.054 53.7208 111.723C53.9048 111.575 54.1993 111.686 54.3833 111.907C54.7514 112.348 54.9354 112.9 54.8986 113.453C54.825 115.955 53.4264 118.274 51.218 119.452C50.1874 119.967 48.936 120.225 47.8686 119.673C46.9117 119.194 46.3228 118.201 46.3228 117.133C46.3596 116.802 46.5068 116.103 46.838 116.066C47.0957 116.066 47.4269 116.618 47.4637 116.876C47.6846 118.09 46.654 119.305 45.7707 120.004C44.8873 120.74 43.7831 121.145 42.6421 121.256C42.09 121.329 41.5011 121.219 40.9858 120.961C40.6178 120.667 40.3601 120.225 40.3233 119.746C40.1761 118.642 40.6546 117.464 41.2435 116.544C41.8692 115.551 42.7525 114.741 43.7831 114.152C44.2616 113.894 44.7769 113.673 45.329 113.526C45.6602 113.453 45.8443 113.121 45.7707 112.79C45.7707 112.716 45.7339 112.68 45.697 112.606C45.4394 112.312 44.9241 112.201 44.5192 112.385Z" fill="white"/>
<path id="Vector_10" d="M69.6211 116.287V115.477C69.6211 115.367 69.6211 115.256 69.5843 115.183C69.5475 115.072 69.5107 114.962 69.4371 114.888C69.3635 114.778 69.2531 114.741 69.1426 114.667C69.0322 114.594 68.9218 114.557 68.8114 114.52H68.5906C68.4433 114.52 68.2961 114.594 68.1857 114.667L68.0385 114.814C67.928 114.925 67.8912 115.072 67.8912 115.183V115.992C67.8912 116.103 67.8912 116.213 67.928 116.287C67.9649 116.397 68.0017 116.508 68.0753 116.581C68.1489 116.692 68.2593 116.728 68.3697 116.802C68.4801 116.876 68.5906 116.912 68.701 116.912H68.9218C69.069 116.912 69.2163 116.839 69.3267 116.765L69.4739 116.618C69.5475 116.581 69.6211 116.434 69.6211 116.287Z" fill="white"/>
<path id="Vector_11" d="M80.1846 102.337C78.8228 104.288 77.6818 106.386 76.872 108.631C75.1421 113.084 74.4428 118.09 75.6206 122.801C76.504 126.151 78.2339 129.242 80.6263 131.745C80.9575 132.003 81.3992 132.077 81.8041 131.929C82.0249 131.856 82.6506 131.524 82.3562 131.23C80.2582 129.022 78.6387 126.372 77.7186 123.464C76.9825 120.998 76.688 118.421 76.9457 115.882C77.2769 111.98 78.6755 108.042 80.5527 104.693C80.9207 103.993 81.3624 103.294 81.8409 102.668C82.0985 102.337 81.7305 102.079 81.3992 102.043C80.9575 101.895 80.4791 102.043 80.1846 102.337Z" fill="white"/>
</g>
<g id="character">
<path id="Vector_12" d="M39.5873 126.629L35.6122 128.028C35.6122 128.028 25.5273 134.174 27.2572 135.978C28.9871 137.781 32.3733 138.554 40.1762 135.904C47.9791 133.254 53.0216 128.359 48.4944 123.869L39.5873 126.629Z" fill="#000005"/>
<path id="Vector_13" d="M38.8511 126.114L35.2809 127.365C34.7288 127.586 34.1767 127.88 33.6982 128.249C32.4468 129.058 31.2322 129.905 30.0544 130.788C28.8766 131.672 27.662 132.628 26.7787 133.769C26.4474 134.138 26.2634 134.579 26.2266 135.021C26.2266 135.536 26.6682 135.904 27.0363 136.235C28.2141 137.192 29.6127 137.818 31.1218 138.002C33.1093 138.297 35.1705 137.929 37.1212 137.45C39.9553 136.824 42.7158 135.794 45.2922 134.432C47.2061 133.401 49.1937 132.04 50.2979 130.126C51.218 128.58 51.1812 126.666 50.1506 125.194C49.8562 124.752 49.5249 124.347 49.1201 123.942C48.8624 123.685 48.1263 123.169 47.7214 123.28L39.9185 125.709L38.8511 126.114C38.5935 126.224 39.2192 126.666 39.256 126.703C39.5136 126.85 39.9921 127.218 40.3234 127.108L48.1263 124.678L49.2673 124.347L47.8686 123.685C49.1201 124.936 49.7826 126.592 49.1937 128.322C48.5312 130.162 46.9117 131.598 45.2922 132.628C43.047 134.027 40.581 135.131 38.0046 135.867C35.8698 136.53 33.6246 137.119 31.3426 137.119C30.6433 137.119 29.944 137.045 29.2447 136.898C29.1711 136.898 29.0975 136.861 29.0238 136.861C28.987 136.861 28.9502 136.824 28.9134 136.824L28.7294 136.751C28.5822 136.714 28.8398 136.788 28.6558 136.714C28.619 136.714 28.4349 136.604 28.5822 136.677C28.7294 136.751 28.5085 136.64 28.4717 136.604C28.3245 136.53 28.619 136.714 28.4717 136.604L28.2877 136.493C28.2509 136.456 28.3981 136.604 28.2877 136.493L28.1405 136.383C28.0301 136.309 28.2141 136.456 28.1037 136.346C27.9933 136.235 27.9933 136.272 27.9565 136.199C27.9196 136.125 27.9197 136.199 27.8828 136.125C27.846 136.051 27.846 135.978 27.846 135.904C27.8828 135.499 28.0301 135.095 28.3245 134.8C29.1343 133.696 30.2384 132.813 31.3058 131.966C32.4468 131.083 33.6246 130.273 34.8392 129.463C35.3177 129.095 35.8698 128.764 36.4219 128.469C36.9372 128.249 37.4893 128.101 37.9678 127.917L39.9553 127.218L40.3234 127.071C40.6178 126.96 39.9921 126.519 39.9185 126.482C39.6977 126.371 39.1824 126.003 38.8511 126.114Z" fill="#000005"/>
<path id="Vector_14" d="M40.2498 116.986C40.2498 116.986 39.9554 122.838 39.8081 124.053C39.6609 125.267 31.1955 131.598 32.2628 132.15C33.3302 132.702 35.3546 133.438 41.9797 130.236C48.6048 127.034 48.4944 125.893 48.5312 124.421C48.568 122.948 47.6479 114.704 47.6479 114.704L40.2498 116.986Z" fill="white"/>
<path id="Vector_15" d="M39.3296 116.802C39.256 118.384 39.1824 119.93 39.072 121.476C39.072 122.286 38.9984 123.059 38.8879 123.869C38.7775 124.31 38.3727 124.678 38.0414 125.01C36.7532 126.335 35.3177 127.549 33.9559 128.801C33.3302 129.389 32.7045 129.942 32.1156 130.567C31.8211 130.862 31.269 131.34 31.2322 131.782C31.1954 132.15 31.7843 132.297 32.042 132.408C32.7781 132.702 33.551 132.849 34.324 132.886C36.4219 133.033 38.4831 132.334 40.3602 131.524C41.9797 130.862 43.5255 130.089 45.0714 129.242C46.0652 128.727 47.0221 128.101 47.9055 127.402C48.7152 126.739 49.3041 125.967 49.3409 124.899C49.3409 123.39 49.2673 121.918 49.0465 120.409C48.8992 118.679 48.7152 116.949 48.5312 115.219L48.4944 114.888C48.4576 114.704 47.8687 114.593 47.7583 114.557C47.427 114.446 47.0957 114.446 46.7277 114.483L39.3296 116.728C39.1088 116.802 39.8817 117.059 39.9185 117.059C40.2866 117.17 40.6915 117.207 41.0595 117.133L48.4576 114.888L46.6909 114.52C47.0221 117.575 47.3902 120.63 47.5374 123.685C47.5742 124.494 47.5742 125.341 47.0957 126.04C46.6541 126.592 46.1388 127.071 45.5499 127.476C44.4825 128.212 43.3415 128.874 42.1637 129.426C39.8081 130.641 37.2317 131.929 34.5816 132.297C34.2504 132.334 33.9191 132.371 33.5878 132.371C33.4406 132.371 33.6983 132.371 33.5142 132.371C33.4038 132.371 33.3302 132.371 33.4774 132.371C33.1462 132.334 33.4038 132.371 33.4774 132.371C33.3302 132.334 33.3302 132.334 33.4774 132.371C33.2198 132.334 33.5878 132.444 33.367 132.334C33.551 132.408 33.3302 132.297 33.2198 132.26C33.1094 132.224 33.3302 132.297 33.183 132.26L33.0726 132.224C32.9989 132.187 32.9989 132.15 33.0357 132.224C33.0357 132.187 32.9989 132.187 32.9989 132.187C32.9621 131.819 33.3302 131.451 33.5878 131.193C34.1031 130.604 34.6552 130.052 35.2441 129.537C36.606 128.285 38.0046 127.108 39.2928 125.819C39.7345 125.414 40.1394 124.973 40.5074 124.494C40.7651 124.089 40.7283 123.464 40.7651 122.985C40.9123 121.145 40.9859 119.341 41.0963 117.501C41.0963 117.354 41.0963 117.243 41.0963 117.133C41.1699 116.802 39.3664 116.618 39.3296 116.802Z" fill="#000005"/>
<path id="Vector_16" d="M24.4967 124.163L20.5216 125.562C20.5216 125.562 10.4367 131.708 12.1666 133.512C13.8965 135.315 17.2827 136.088 25.0856 133.438C32.8885 130.788 37.931 125.893 33.4038 121.403L24.4967 124.163Z" fill="#000005"/>
<path id="Vector_17" d="M23.7605 123.685L20.1903 124.936C19.6382 125.157 19.0861 125.451 18.6077 125.819C17.3562 126.629 16.1416 127.476 14.9638 128.359C13.786 129.242 12.5714 130.199 11.6881 131.34C11.3568 131.708 11.1728 132.15 11.136 132.592C11.136 133.107 11.5777 133.475 11.9457 133.806C13.1235 134.763 14.5222 135.389 16.0312 135.573C18.0188 135.867 20.0799 135.499 22.0306 135.021C24.8647 134.395 27.6252 133.365 30.2016 132.003C32.1156 130.972 34.1031 129.61 35.2073 127.696C36.1274 126.151 36.0906 124.237 35.0601 122.764C34.7656 122.323 34.3975 121.918 34.0295 121.513C33.7718 121.255 33.0357 120.74 32.6308 120.85L24.8279 123.28L23.7605 123.685C23.4661 123.758 24.0918 124.237 24.1654 124.273C24.423 124.458 24.9015 124.789 25.2328 124.678L33.0357 122.249L34.1767 121.881L32.7781 121.219C34.0295 122.47 34.692 124.126 34.1031 125.856C33.4406 127.696 31.8211 129.132 30.2016 130.162C27.9564 131.561 25.4904 132.665 22.914 133.365C20.7792 134.027 18.534 134.616 16.2521 134.616C15.5527 134.616 14.8534 134.542 14.1541 134.395L13.9333 134.322L13.786 134.285L13.602 134.211C13.4548 134.174 13.7124 134.248 13.5284 134.174C13.4916 134.174 13.3076 134.064 13.4548 134.138C13.602 134.211 13.3812 134.101 13.3444 134.064C13.1971 133.99 13.4916 134.174 13.3444 134.064L13.1603 133.954C13.1235 133.917 13.2708 134.064 13.1603 133.954L13.0131 133.806C12.9027 133.733 13.0867 133.88 12.9763 133.769L12.8291 133.622C12.7555 133.585 12.7923 133.622 12.7555 133.549C12.7187 133.475 12.7187 133.401 12.7187 133.328C12.7555 132.923 12.9027 132.518 13.1971 132.224C14.0069 131.119 15.1111 130.236 16.1784 129.39C17.3194 128.506 18.4972 127.696 19.7118 126.887C20.2271 126.519 20.7424 126.187 21.2945 125.893C21.773 125.672 22.3251 125.525 22.8404 125.341L24.8279 124.642L25.196 124.494C25.4904 124.384 24.8647 123.942 24.7911 123.905C24.6071 123.905 24.0918 123.574 23.7605 123.685Z" fill="#000005"/>
<path id="Vector_18" d="M25.1592 114.52C25.1592 114.52 24.8648 120.372 24.7176 121.587C24.5703 122.801 16.1049 129.132 17.1723 129.684C18.2396 130.236 20.264 130.972 26.8891 127.77C33.5142 124.568 33.4038 123.427 33.4406 121.955C33.4774 120.482 32.5941 112.275 32.5941 112.275L25.1592 114.52Z" fill="white"/>
<path id="Vector_19" d="M24.3126 114.189C24.239 115.771 24.1654 117.317 24.0549 118.863C24.0549 119.673 23.9813 120.446 23.8709 121.255C23.7605 121.697 23.3556 122.065 23.0244 122.396C21.7361 123.721 20.3007 124.936 18.9389 126.187C18.3132 126.776 17.6875 127.328 17.0986 127.954C16.8041 128.285 16.2888 128.69 16.252 129.169C16.1784 129.721 17.0617 130.052 17.5034 130.199C18.0923 130.457 18.7548 130.604 19.4174 130.641C21.4785 130.788 23.6133 129.978 25.4536 129.206C27.0731 128.543 28.6189 127.77 30.1648 126.924C31.1585 126.408 32.0787 125.819 32.9621 125.12C33.7718 124.421 34.3239 123.685 34.3607 122.58C34.3607 121.071 34.2871 119.562 34.0662 118.053C33.919 116.323 33.735 114.593 33.551 112.864L33.5141 112.532C33.4773 112.091 32.3363 111.759 31.9683 111.87L24.5702 114.115C24.2022 114.225 24.5334 114.52 24.7175 114.63C25.0119 114.814 25.564 115.072 25.9321 114.962L33.3301 112.716L31.7843 112.054C32.1155 115.072 32.4836 118.127 32.6308 121.182C32.6676 121.992 32.6308 122.838 32.1523 123.537C31.7106 124.089 31.1954 124.568 30.6065 124.936C29.5023 125.672 28.3613 126.335 27.1835 126.924C24.8279 128.138 22.2882 129.39 19.6382 129.758C19.3069 129.794 18.9757 129.831 18.6444 129.831H18.4236C18.3868 129.831 18.1659 129.794 18.35 129.831C18.2396 129.831 18.0923 129.794 17.9819 129.758C18.2396 129.794 17.9451 129.721 17.8715 129.721C17.7979 129.721 18.0923 129.831 17.9083 129.721L17.7611 129.684C17.577 129.61 17.9083 129.758 17.8347 129.721C17.7979 129.684 17.7611 129.684 17.7243 129.684C17.6875 129.684 17.6507 129.647 17.6138 129.647C17.5034 129.61 17.8715 129.831 17.8715 129.831C17.9083 129.868 17.9451 129.942 17.9819 129.978C17.9451 129.978 17.9451 129.978 17.9819 129.905C18.0187 129.831 18.0555 129.758 18.0923 129.684C18.2395 129.463 18.3868 129.279 18.534 129.095C19.0493 128.506 19.6014 127.991 20.1903 127.476C21.5521 126.224 22.9139 125.046 24.239 123.758C24.7175 123.353 25.1223 122.875 25.4536 122.396C25.7112 121.992 25.6744 121.366 25.7112 120.887C25.8584 119.047 25.9321 117.244 26.0425 115.403C26.0425 115.256 26.0425 115.146 26.0425 115.035C26.0425 114.299 24.3126 113.894 24.3126 114.189Z" fill="#000005"/>
<path id="Vector_20" d="M56.5181 80.6951C56.5181 80.6951 53.316 63.2489 59.573 54.4154C65.8301 45.5819 84.8589 60.194 83.7548 96.0433L56.5181 80.6951Z" fill="#000005"/>
<path id="Vector_21" d="M57.4014 80.4742C57.1438 79.0755 56.9966 77.6769 56.8493 76.2415C56.5181 73.0393 56.4813 69.8372 56.7021 66.635C56.9598 63.1016 57.5855 59.4946 59.2049 56.2925C59.6834 55.2251 60.3459 54.2313 61.1557 53.3848C61.3765 53.1639 61.6341 52.9431 61.8918 52.7591C62.039 52.6486 62.1862 52.575 62.3335 52.5014L62.4071 52.4646C62.5543 52.391 62.2967 52.5014 62.4439 52.4646L62.7015 52.3542C62.8856 52.2806 62.5543 52.391 62.7751 52.3174L62.8856 52.2806C63.0328 52.207 62.6647 52.3174 62.8488 52.2806C63.0328 52.2438 63.0328 52.2438 62.8856 52.2806C63.18 52.207 62.7383 52.3174 62.9592 52.2806C63.2168 52.2438 62.8119 52.2806 63.0328 52.2438L63.2536 52.207C63.0328 52.2438 63.3272 52.207 63.364 52.207H63.6217H63.8057H64.0266C64.2106 52.207 64.4314 52.2438 64.6155 52.2806C64.9835 52.3542 65.3516 52.4278 65.6828 52.5382C67.4127 53.1271 68.9954 54.0473 70.3572 55.2987C74.4059 58.8321 77.0928 63.8378 78.9331 68.7698C81.7672 76.3519 82.8346 84.5597 82.9082 92.6202C82.9082 93.8349 82.9082 95.0495 82.8714 96.2641L84.6013 95.7856L75.3997 90.5959L60.7508 82.3145L57.4014 80.4006C57.1438 80.2533 56.5549 80.4742 56.2604 80.5478C56.1868 80.5846 55.5243 80.8054 55.6715 80.9159L64.8731 86.1055L79.522 94.3869L82.8714 96.3009C83.0922 96.4481 84.6013 96.1536 84.6381 95.8224C84.8957 87.2097 84.086 78.413 81.3623 70.1684C79.5956 64.7947 76.9456 59.3842 72.7864 55.4091C70.0996 52.8695 66.7134 50.9924 62.9224 51.8389C61.3029 52.1702 59.8674 53.0167 58.8369 54.3049C56.7389 57.0286 55.782 60.5988 55.2667 63.9114C54.4201 69.3587 54.641 75.1005 55.5611 80.5478C55.5979 80.6582 55.5979 80.7318 55.5979 80.8422C55.6715 81.1367 57.4382 80.7686 57.4014 80.4742Z" fill="#000005"/>
<path id="Vector_22" d="M66.787 70.2049C66.787 70.2049 57.7327 65.7514 52.1013 65.3833C46.47 65.0152 42.4581 68.1438 42.2005 70.0209C41.9428 71.898 43.8567 72.5973 45.513 71.3459C47.1693 70.0945 50.077 69.8001 50.077 69.8001C50.077 69.8001 49.2305 70.9042 49.9666 73.1494C50.7027 75.3946 53.3528 78.2287 55.1195 76.278C56.1132 76.9405 57.3646 77.0877 58.4688 76.6828C60.3459 76.0203 60.3091 75.2106 60.3091 75.2106L64.2474 78.0078L66.787 70.2049Z" fill="white"/>
<path id="Vector_23" d="M67.4496 69.8739C65.9773 69.1377 64.4683 68.4752 62.9224 67.8863C60.1251 66.6717 57.2174 65.7884 54.2361 65.1627C50.9604 64.5738 47.427 64.8682 44.4825 66.4877C43.3783 67.0398 42.4581 67.8495 41.722 68.8433C41.1331 69.7634 40.9859 71.0885 41.906 71.8614C42.6422 72.4135 43.5991 72.5975 44.4825 72.4135C45.4763 72.2295 46.1388 71.6406 47.0221 71.1989C48.0527 70.6836 49.1937 70.3891 50.3347 70.2787L49.2305 69.6162C48.8992 70.1315 48.752 70.7572 48.7888 71.3829C48.8256 72.6343 49.2305 73.8489 49.9666 74.8795C50.5923 75.8733 51.5125 76.683 52.5799 77.1615C53.7209 77.64 55.0459 77.3823 55.9292 76.499L54.4938 76.5726C55.6716 77.4191 57.4015 77.5664 58.7265 77.1615C59.5362 76.9775 60.2724 76.5726 60.8613 75.9837C61.0821 75.7629 61.2293 75.5052 61.2661 75.2108L59.6835 75.542L63.6217 78.3393C63.953 78.5601 65.0204 78.6338 65.1676 78.1553L67.4128 71.3093L67.744 70.3155C68.0017 69.5794 66.1982 69.3954 65.9773 70.0211L63.7322 76.8671L63.4009 77.8608L64.9468 77.6768L61.0085 74.8795C60.6772 74.6587 59.4258 74.5851 59.4258 75.2108C59.4258 75.358 59.4626 75.174 59.4258 75.2108C59.389 75.3212 59.3522 75.3948 59.2786 75.5052C58.9105 75.8733 58.4689 76.1309 57.9536 76.2782C57.2174 76.5358 56.4077 76.3886 55.782 75.9469C55.4508 75.6893 54.641 75.6893 54.3466 76.0205C54.1993 76.1677 54.0521 76.2782 53.9049 76.3886C53.7945 76.4254 53.8313 76.4254 53.7209 76.4254C53.6104 76.3886 53.8681 76.4254 53.7209 76.4254C53.6472 76.3886 53.5736 76.3886 53.5368 76.3518C53.3528 76.2782 53.2056 76.1677 53.0583 76.0573C52.3222 75.5052 51.6965 74.7691 51.2916 73.9226C50.7395 72.8552 50.1875 71.0149 50.9972 69.9107C51.4021 69.3954 50.1138 69.2482 49.893 69.2482C48.9728 69.3586 48.0527 69.5426 47.1693 69.8371C46.47 70.0579 45.8075 70.3523 45.1818 70.7572C44.8874 70.9781 44.5561 71.1621 44.2248 71.3461C44.1512 71.3829 44.0408 71.4197 43.9304 71.4197C43.8568 71.4197 43.7832 71.4197 43.7464 71.4197C43.4151 71.3829 43.1207 70.8308 43.1207 70.3523C43.1207 69.9475 43.2311 69.5794 43.4519 69.2482C44.004 68.4384 44.7401 67.7391 45.6235 67.2606C50.7027 64.2793 56.5917 66.4877 61.6342 68.4752C62.2599 68.7329 62.8856 68.9905 63.4745 69.2482C63.7322 69.3586 63.9898 69.469 64.2843 69.5794L64.6523 69.7634L64.7995 69.8371L64.8363 69.8739C65.278 70.0947 65.7565 70.2787 66.1982 70.4996C66.603 70.7204 67.0815 70.7204 67.4864 70.5364C67.744 70.3892 67.8177 70.0211 67.4496 69.8739Z" fill="#000005"/>
<path id="Vector_24" d="M52.7271 72.303C52.8743 73.9225 53.7208 75.3579 55.0826 76.2781L52.7271 72.303Z" fill="white"/>
<path id="Vector_25" d="M52.0646 71.8247C52.0646 72.1927 52.1382 72.5608 52.2486 72.9288C52.5063 73.849 52.9479 74.6955 53.5368 75.4317C53.9785 75.9838 54.4938 76.499 55.0827 76.9039C55.2667 77.0511 55.7452 77.2352 55.7452 76.8303C55.6716 76.3886 55.4508 75.9838 55.0827 75.7261C54.9355 75.6157 54.7882 75.5053 54.6778 75.3949C54.5674 75.2844 54.7882 75.5053 54.641 75.3581C54.6042 75.3213 54.5306 75.2476 54.4938 75.2108C54.4202 75.174 54.3834 75.1004 54.3466 75.0268L54.3834 75.0636L54.3098 74.99C54.2361 74.8796 54.1625 74.806 54.0889 74.6955C53.9417 74.4747 54.1625 74.806 54.0889 74.6955L54.0153 74.5483C53.9417 74.4379 53.9049 74.3275 53.8313 74.2171C53.9785 74.4379 53.8681 74.3275 53.8681 74.2539C53.8681 74.1803 53.8313 74.1435 53.7945 74.1066C53.7577 74.0698 53.7209 73.9226 53.684 73.8122C53.6472 73.7018 53.684 73.6282 53.684 73.849C53.684 73.8122 53.6472 73.7386 53.6472 73.7018C53.6104 73.6282 53.6104 73.5545 53.5736 73.4809C53.5368 73.3337 53.5 73.2233 53.5 73.0761C53.5 73.0393 53.5 73.0025 53.5 73.0025C53.5368 73.2233 53.5368 73.1497 53.5 73.0761C53.4632 73.0025 53.5 73.0025 53.5 72.9657C53.5 72.9288 53.5 72.892 53.5 72.8552C53.4632 72.4136 53.2056 72.0087 52.8375 71.751C52.5431 71.6038 52.1014 71.383 52.0646 71.8247Z" fill="#000005"/>
<path id="Vector_26" d="M60.2723 75.2108C60.2723 75.2108 62.223 72.5975 59.6098 71.6406C57.7695 70.9781 57.4382 73.9226 57.4382 73.9226" fill="white"/>
<path id="Vector_27" d="M61.0452 75.7627C61.5973 75.0265 62.039 73.8487 61.5237 72.9654C61.082 72.3397 60.4931 71.8244 59.8306 71.4931C59.3889 71.1987 58.8737 71.0146 58.3584 71.0146C57.6959 71.0515 57.291 71.5667 57.0702 72.1188C56.8861 72.5237 56.7757 72.9654 56.7389 73.4071C56.7389 73.5175 56.8493 73.5911 56.8861 73.6647C57.0333 73.8119 57.2174 73.9592 57.4014 74.0696C57.5854 74.18 57.7695 74.3272 57.9535 74.4008C57.9903 74.4008 58.248 74.5113 58.248 74.4744C58.2848 74.1432 58.3584 73.8487 58.4688 73.5175C58.616 72.9654 58.9473 72.5237 59.3889 72.1925C59.4994 72.1188 59.6466 72.082 59.757 72.082C59.8306 72.082 59.9042 72.082 59.9778 72.082C60.0147 72.082 60.0883 72.082 60.0515 72.082L60.1619 72.1188L60.3091 72.1556C60.2355 72.1188 60.3459 72.1556 60.3459 72.1925C60.3827 72.1925 60.4195 72.2293 60.4195 72.2293L60.3459 72.1925L60.2723 72.1556C60.4195 72.2293 60.1251 72.0452 60.1987 72.1188L60.0883 72.0452C59.9042 71.898 59.9778 71.9348 60.0147 71.9716C60.0515 72.0084 59.9042 71.8612 59.941 71.898L59.9778 71.9348C59.9042 71.8612 60.0147 71.9716 59.9778 71.9348L60.0515 72.0084C60.0146 71.9716 60.0883 72.0452 60.0883 72.082L60.1251 72.1925C60.1619 72.2661 60.1987 72.3397 60.1987 72.4133C60.2355 72.5605 60.2355 72.6709 60.2355 72.8182C60.2355 73.1126 60.1619 73.3703 60.0883 73.6279C59.9778 73.996 59.7938 74.3272 59.5362 74.6585C59.4994 74.7321 59.6834 74.8793 59.6834 74.9161C59.8306 75.0633 60.0147 75.2106 60.1987 75.321C60.3827 75.4682 60.5667 75.5786 60.7508 75.6522C60.8244 75.689 61.0084 75.7995 61.0452 75.7627Z" fill="#000005"/>
<path id="Vector_28" d="M68.6274 89.5651C68.6274 90.0804 72.3816 97.2945 64.1739 98.7667C55.9661 100.239 40.7651 95.5646 40.7651 95.5646C40.7651 95.5646 44.2985 119.525 35.9803 122.36C27.662 125.194 17.7244 120.041 19.123 106.054C20.5216 92.068 27.4412 76.7934 35.7962 75.91C44.1512 75.0267 68.6274 89.5651 68.6274 89.5651Z" fill="white"/>
<path id="Vector_29" d="M67.8176 89.97C67.8912 90.4117 68.0384 90.8901 68.2225 91.295C68.4801 92.1416 68.6273 92.9881 68.6642 93.8715C68.6642 94.3499 68.6273 94.7916 68.4801 95.2333C68.3697 95.675 68.1857 96.0798 67.928 96.4111C67.8544 96.5215 67.7808 96.6319 67.6704 96.7055C67.7808 96.5951 67.5232 96.8528 67.4495 96.8896L67.3023 97C67.0815 97.184 67.4495 96.8896 67.2287 97.0736L67.0815 97.184C67.0447 97.184 66.7502 97.368 66.8974 97.3312C66.2349 97.6993 65.4988 97.9569 64.7259 98.1042C61.7446 98.7299 58.5424 98.4354 55.5611 98.0674C52.4326 97.6625 49.3041 97.0368 46.2123 96.2639C44.5561 95.859 42.9366 95.4541 41.2803 94.9388C40.8018 94.7916 39.8817 95.4541 39.9553 95.9694C40.2865 98.1042 40.4338 100.239 40.581 102.374C40.8018 106.459 40.8386 110.618 40.1025 114.63C39.8448 116.434 39.256 118.164 38.3726 119.746L38.2254 119.967C38.1518 120.078 38.2622 119.93 38.1518 120.078C38.0413 120.225 37.9309 120.409 37.7837 120.556L37.5997 120.74C37.4524 120.924 37.6365 120.703 37.5261 120.814C37.4156 120.924 37.2316 121.108 37.0844 121.219C36.9372 121.329 37.2316 121.145 37.0476 121.255C36.974 121.292 36.9004 121.366 36.8267 121.403C36.7531 121.439 36.5323 121.587 36.7899 121.439C36.7163 121.476 36.6059 121.55 36.4955 121.587L36.2746 121.697C36.1642 121.771 36.4219 121.66 36.201 121.734C35.9802 121.807 35.6489 121.918 35.3913 121.991C31.453 123.096 26.9627 122.212 23.9445 119.305C19.8222 115.33 19.5278 109.367 20.2271 104.03C21.1105 97.4049 23.0244 90.6693 26.337 84.8171C27.6252 82.4983 29.2078 80.2899 31.2322 78.56C32.0051 77.8975 32.9253 77.3454 33.8822 76.9406C34.6552 76.6461 35.4649 76.4989 36.2746 76.4989C36.4219 76.4989 36.5323 76.4989 36.6795 76.4989C36.8635 76.4989 37.0844 76.5357 37.2684 76.5357C37.6733 76.5725 38.0413 76.6461 38.4462 76.7197C39.3664 76.9038 40.2865 77.0878 41.1699 77.3823C43.2678 78.008 45.2922 78.7441 47.2797 79.5906C51.6229 81.3941 55.8188 83.4921 59.9779 85.6637C62.5543 87.0255 65.1307 88.4609 67.6704 89.9332L68.0384 90.154C68.5905 90.4853 69.9892 89.3443 69.3635 88.9394C67.4495 87.7984 65.5356 86.731 63.5849 85.6637C59.4626 83.4185 55.2667 81.2837 50.9972 79.3698C48.8256 78.4128 46.6172 77.4927 44.372 76.7565C42.5317 76.094 40.581 75.5787 38.6302 75.2843C36.7163 75.0266 34.7656 75.3211 33.0357 76.2044C30.6433 77.3822 28.6926 79.3698 27.1099 81.5045C25.2328 84.081 23.7237 86.8415 22.5459 89.786C21.1841 93.0985 20.1535 96.5215 19.4174 100.018C18.166 105.907 17.2458 112.716 20.632 118.053C23.0612 121.918 27.4411 123.942 31.9683 123.721C34.0663 123.611 36.3114 123.132 37.9677 121.807C39.4032 120.703 40.2865 119.047 40.9122 117.391C41.5747 115.44 41.9796 113.452 42.1636 111.391C42.3845 109.22 42.4581 107.048 42.4213 104.84C42.3845 101.748 42.1636 98.6931 41.7588 95.6382L41.6852 95.1597L40.3601 96.1903C44.8873 97.5889 49.5617 98.6195 54.2729 99.2452C57.4751 99.6868 60.8612 99.9813 64.1002 99.3556C66.9343 98.8035 69.9156 97.184 70.3572 94.0923C70.5045 92.9881 70.394 91.8839 70.0996 90.8165C69.9892 90.4485 69.8788 90.0804 69.7683 89.7124C69.6947 89.5283 69.6211 89.3443 69.5843 89.1234C69.4371 88.4977 67.8176 89.3075 67.8176 89.97Z" fill="#000005"/>
<path id="Vector_30" d="M70.7621 43.263C68.3697 31.1537 59.9779 30.4176 54.641 31.7058C49.3041 32.9941 46.5068 36.1226 46.2491 38.6254C46.0283 40.4657 53.0215 48.7471 53.0215 48.7471L64.6155 53.8632C64.6155 53.8632 72.5656 52.5014 70.7621 43.263Z" fill="#000005"/>
<path id="Vector_31" d="M49.5985 55.2617C45.2185 52.5748 47.1325 40.4656 47.1325 40.4656C48.9728 39.5822 51.6596 36.969 51.6596 36.969C52.2117 43.0788 59.4994 42.9316 59.4994 42.9316C60.0883 39.3982 64.0633 39.5822 64.6522 42.7108C65.2411 45.8393 62.3703 46.9803 62.3703 46.9803C62.3703 46.9803 65.9037 54.1943 65.9405 55.5193C65.9405 55.5193 61.855 60.341 57.5118 56.734C57.5486 56.6971 52.5798 57.0652 49.5985 55.2617Z" fill="white"/>
<path id="Vector_32" d="M50.0401 54.5993C49.9297 54.5257 49.8193 54.4521 49.7457 54.3785C49.9297 54.5257 49.6353 54.3049 49.5984 54.2312C49.5616 54.1576 49.4144 54.0472 49.3408 53.9736C49.304 53.9368 49.2672 53.9 49.2304 53.8632C49.3776 54.0104 49.2304 53.8264 49.1936 53.7896C48.8991 53.3847 48.6783 52.943 48.4943 52.4645C48.0894 51.3236 47.8317 50.1458 47.7213 48.9311C47.5373 46.6124 47.5741 44.2936 47.8317 42.0116C47.8317 41.9748 47.8686 41.8643 47.8317 42.0484C47.8317 42.0116 47.8317 41.938 47.8686 41.8643C47.9054 41.7907 47.9054 41.6435 47.9054 41.5699L47.9422 41.1282C47.9422 40.981 47.979 40.8706 48.0158 40.7234L47.6109 41.2018C49.3776 40.3553 50.9235 38.9567 52.3221 37.5948L50.8131 36.8587C50.9971 39.0303 52.1749 41.0178 54.0152 42.1956C55.4138 43.0421 56.9597 43.5206 58.5792 43.6679C58.9104 43.7047 59.2417 43.7047 59.5729 43.7047C59.9042 43.7047 60.3459 43.5574 60.4195 43.1894C60.4931 42.7109 60.6403 42.2692 60.898 41.8643C61.082 41.6067 61.3028 41.3859 61.5973 41.2386L61.8549 41.1282C61.8549 41.1282 62.0022 41.0914 61.8917 41.1282C61.7813 41.165 61.9653 41.1282 61.9653 41.1282L62.1862 41.0914C62.0758 41.0914 62.3334 41.0914 62.1862 41.0914C62.223 41.0914 62.2966 41.0914 62.3334 41.0914C62.3702 41.0914 62.6279 41.1282 62.4438 41.0914C62.5174 41.1282 62.5911 41.1282 62.6647 41.165C62.7015 41.165 62.7751 41.2018 62.8119 41.2386C62.8119 41.2386 62.6647 41.165 62.7751 41.2018C62.8855 41.2386 62.9591 41.3123 63.0695 41.3859C63.1431 41.4595 63.0695 41.3859 63.0327 41.3491L63.1063 41.4227C63.18 41.4963 63.2536 41.5699 63.3272 41.6435C63.2536 41.5331 63.364 41.7171 63.4008 41.7539C63.4744 41.8643 63.548 41.9748 63.5848 42.0852C63.732 42.5269 63.8425 42.9685 63.8057 43.447C63.8057 43.8519 63.6952 44.2568 63.5112 44.6248C63.364 44.9193 63.18 45.2137 62.9223 45.4346C62.7751 45.5818 62.6279 45.6922 62.4806 45.8026L62.2966 45.913C62.1862 45.9867 62.407 45.8394 62.2598 45.9498C62.1494 46.0235 62.0022 46.0971 61.8917 46.1339C61.4133 46.3179 61.4133 46.8332 61.5973 47.2013C62.7015 49.4464 63.732 51.5812 64.5786 53.8632C64.689 54.1944 64.7994 54.5257 64.9098 54.8202C64.9467 54.9306 64.9835 55.041 65.0203 55.1882C65.0571 55.4091 65.0203 55.041 65.0203 55.2986L65.1307 54.8938C65.2043 54.7833 65.2779 54.7097 65.1675 54.857L64.873 55.1514C64.5786 55.4459 64.2473 55.7035 63.9161 55.9611C63.0327 56.6237 62.0022 57.0285 60.898 57.1021C60.2355 57.1021 59.6097 56.9549 59.0208 56.6605C58.616 56.4396 58.3215 56.1452 57.9167 55.9243C57.6958 55.8139 57.4382 55.7403 57.1805 55.7771H56.8493H56.6652H56.3708C55.7819 55.7771 55.1562 55.7403 54.5673 55.7035C53.0582 55.7035 51.402 55.4459 50.0401 54.5993C49.7089 54.3049 49.1936 54.3417 48.8991 54.6729C48.6047 55.0042 48.6415 55.5195 48.9727 55.8139C49.0464 55.8875 49.12 55.9243 49.1936 55.9611C51.6964 57.4702 54.9354 57.7647 57.8062 57.5438L56.9229 57.2494C58.6896 58.6848 60.7875 59.3105 62.9959 58.5744C64.2841 58.1327 65.4251 57.3966 66.3821 56.4396L66.6029 56.182C66.8238 55.9243 66.8974 55.5195 66.787 55.1882C66.6765 54.7097 66.5293 54.1944 66.3453 53.7528C65.7932 52.3173 65.1307 50.8819 64.505 49.4832C64.0633 48.5263 63.6216 47.6061 63.18 46.686L62.8855 47.7902C64.5418 47.1276 65.646 45.5082 65.6828 43.7415C65.7196 42.4164 65.1675 41.165 64.1737 40.3185C63.2904 39.5824 62.1126 39.3615 61.0084 39.6928C59.6834 40.0976 58.9104 41.3859 58.6896 42.6741L59.5361 42.1588C59.3153 42.1588 59.0945 42.1588 58.8736 42.122C58.6528 42.0852 58.3583 42.0852 58.1007 42.0484C57.9535 42.0484 57.8062 42.0116 57.6958 41.9748L57.475 41.938L57.3646 41.9012C57.1805 41.8643 57.475 41.938 57.3646 41.9012C57.0333 41.8275 56.6652 41.7171 56.334 41.6067C56.15 41.5331 56.0027 41.4963 55.8187 41.4227C55.7451 41.3859 55.6347 41.3491 55.5611 41.3123C55.3402 41.2386 55.5979 41.3491 55.4138 41.2386C55.0458 41.0546 54.7145 40.8338 54.3833 40.6129C54.236 40.5025 54.3465 40.5761 54.3833 40.6129C54.3465 40.5761 54.3096 40.5393 54.236 40.5025C54.1624 40.4657 54.0888 40.3921 54.052 40.3185C53.868 40.1713 53.7207 39.9872 53.5735 39.8032L53.5367 39.7664C53.5735 39.84 53.4631 39.656 53.4631 39.656C53.3895 39.5456 53.3159 39.4351 53.2791 39.3615C53.1687 39.1775 53.0582 38.9935 52.9846 38.8094C52.7638 38.2941 52.6534 37.7052 52.5798 37.1531C52.5061 36.5274 51.6228 35.8649 51.0707 36.417C49.9297 37.5948 48.6415 38.6254 47.2797 39.5087C46.9484 39.7296 46.4331 39.84 46.3227 40.2817C46.3227 40.3553 46.2859 40.4289 46.2859 40.5025C46.2123 40.9442 46.1755 41.3859 46.1387 41.8275C45.8074 45.0297 45.697 48.3791 46.4699 51.5076C46.8748 53.2375 47.6845 55.0042 49.2672 55.998C49.5984 56.2924 50.1137 56.2556 50.3714 55.8875C50.629 55.5195 50.629 55.041 50.261 54.7833C50.1873 54.7465 50.1505 54.7097 50.0769 54.6729L50.0401 54.5993Z" fill="#000005"/>
<path id="Vector_33" d="M57.5856 51.8387C57.9536 51.8019 58.2849 51.6547 58.5793 51.4339C58.7266 51.2866 58.837 51.1026 58.9106 50.9186C58.9842 50.7345 58.9842 50.5137 58.9474 50.2929C58.9106 49.9984 58.8738 49.7408 58.7634 49.4831C58.7266 49.3359 58.6161 49.2255 58.5057 49.1151C58.3585 49.0047 58.2113 48.8942 58.0272 48.8574C57.88 48.8206 57.7328 48.8206 57.6224 48.8942C57.512 48.9678 57.4752 49.0783 57.512 49.1887C57.6224 49.4463 57.6592 49.7408 57.696 50.0352V49.9248C57.696 50.072 57.696 50.2561 57.6224 50.4033L57.6592 50.2929C57.6224 50.4033 57.5488 50.5137 57.4383 50.6241L57.512 50.5505C57.4015 50.6609 57.2911 50.7345 57.1439 50.7714L57.2543 50.7345C57.0703 50.8082 56.9231 50.845 56.739 50.8818C56.6286 50.9186 56.5182 50.9922 56.5182 51.1026C56.5182 51.2498 56.555 51.3603 56.6654 51.4707C56.9231 51.7283 57.2543 51.8387 57.5856 51.8387Z" fill="#000005"/>
<path id="Vector_34" d="M53.2791 44.6983C52.9479 44.8088 52.7638 45.2136 52.911 45.5449C52.911 45.5817 52.9479 45.6185 52.9479 45.6553C53.3159 46.281 54.0888 45.8761 53.9784 45.2136C53.9784 44.9192 53.684 44.6615 53.3895 44.6983C53.3527 44.6983 53.3159 44.6983 53.2791 44.6983Z" fill="#000005"/>
<path id="Vector_35" d="M48.4943 45.545C48.1631 45.6922 47.979 46.0602 48.1263 46.3915C48.1263 46.4283 48.1631 46.4651 48.1631 46.4651C48.5311 47.0908 49.3041 46.686 49.1936 46.0234C49.1568 45.729 48.8992 45.4713 48.6047 45.5082C48.5679 45.5082 48.5311 45.545 48.4943 45.545Z" fill="#000005"/>
<path id="Vector_36" d="M67.7073 47.5692C69.0323 49.3359 72.6761 53.3478 74.8477 50.6609C76.1359 49.0782 76.3199 46.4282 74.8109 44.9191C73.8539 43.999 72.1608 43.7413 71.2407 44.8455C70.799 45.4712 70.6518 46.3178 70.8726 47.0539C71.2039 48.2685 71.8296 49.3727 72.7129 50.2929C74.2588 52.0227 76.2831 53.2005 78.5651 53.679C79.3748 53.8263 80.295 53.8999 81.0311 53.495C81.6936 53.1269 82.0617 52.3908 81.9881 51.6179C81.9513 49.7776 80.6263 48.2317 78.8227 47.8636C77.5345 47.6428 75.8046 47.8636 74.9949 49.0414C73.8171 50.7345 75.5102 52.8693 76.7616 53.8999C77.3505 54.3783 77.9762 54.82 78.6387 55.2249C78.8227 55.3721 79.0804 55.3353 79.1908 55.1881C79.2644 55.1145 79.3012 55.0041 79.2644 54.8936C79.2644 54.4152 79.0436 54.0103 78.6387 53.7526C77.7186 53.2005 76.7248 52.538 76.1359 51.7283C76.0991 51.6547 76.0255 51.5811 75.9887 51.5075C76.0991 51.6547 75.9519 51.4707 75.9519 51.4338C75.9519 51.397 75.8414 51.1394 75.9151 51.3602C75.9151 51.3234 75.8414 51.1026 75.8782 51.213C75.9151 51.3234 75.8782 51.1026 75.8414 51.0658C75.8046 50.9186 75.8414 51.1762 75.8414 51.029C75.8414 50.9554 75.8414 50.8818 75.8414 50.8449C75.8414 50.8081 75.8414 50.8818 75.8414 50.8818C75.8414 50.8818 75.8414 50.8081 75.8782 50.7345C75.9151 50.6609 75.915 50.6241 75.9519 50.5505C75.9887 50.4769 75.9151 50.6241 75.9887 50.5137C76.0623 50.4033 76.1359 50.2928 76.2095 50.1824C76.2463 50.1088 76.3199 50.0352 76.3935 49.9984C76.504 49.9248 76.6144 49.8512 76.7248 49.7776C77.2033 49.5199 77.7554 49.3727 78.3075 49.3727C78.8596 49.3359 79.3748 49.4463 79.8901 49.6671L80.1846 49.8512C80.2214 49.888 80.2582 49.888 80.295 49.9248L80.2582 49.888C80.3318 49.9248 80.3686 49.9984 80.4422 50.0352C80.5894 50.1824 80.4054 49.9616 80.479 50.072L80.5894 50.2192C80.479 50.072 80.5526 50.1824 80.5894 50.256C80.6263 50.3297 80.5526 50.1824 80.5526 50.1824C80.5526 50.1824 80.5894 50.2929 80.6263 50.3297C80.6999 50.4769 80.6263 50.3297 80.6263 50.3665C80.6263 50.4033 80.6631 50.5505 80.6631 50.6609C80.6631 50.7713 80.6631 50.6241 80.6631 50.7713C80.6631 50.8449 80.6631 50.9554 80.6631 51.0658C80.6631 50.9554 80.6631 51.1394 80.6263 51.1762C80.6263 51.2498 80.5894 51.3234 80.5526 51.3602C80.5894 51.3234 80.4422 51.5443 80.3686 51.5811C80.1846 51.7283 79.9637 51.8387 79.7429 51.9123C79.4485 51.9859 79.1908 51.9859 78.8964 51.9859C77.2401 51.9491 75.5102 51.0658 74.222 50.072C73.4858 49.5199 72.8601 48.8206 72.3816 48.0477C72.3448 47.9741 72.2712 47.8636 72.2344 47.79C72.1976 47.7164 72.1608 47.6796 72.1608 47.606C72.1608 47.6428 72.1976 47.7164 72.1608 47.606C72.124 47.4956 72.0872 47.422 72.0504 47.3115C72.0136 47.2011 72.0504 47.3852 72.0136 47.2011C72.0136 47.1275 71.9768 47.0539 71.9768 46.9435C71.9768 47.0907 71.9768 46.9067 71.9768 46.8699C71.9768 46.7594 71.9768 46.6858 72.0136 46.5754C72.0872 46.3546 72.1976 46.1705 72.3448 46.0601C72.3817 46.0233 72.308 46.0969 72.3816 46.0233C72.4185 45.9865 72.4921 45.9497 72.5289 45.9129C72.6393 45.8393 72.7497 45.8025 72.8601 45.7657C72.9337 45.7289 73.0442 45.7289 73.1178 45.7289C73.2282 45.7289 73.3754 45.7289 73.4858 45.7289H73.5594C73.6331 45.7289 73.6699 45.7657 73.7435 45.7657C73.8171 45.8025 74.1115 45.9129 73.9643 45.8393C74.0379 45.8761 74.2588 46.0233 74.222 45.9865C74.1852 45.9497 74.2956 46.0601 74.2956 46.0601C74.222 45.9865 74.3324 46.0969 74.3324 46.0969C74.406 46.0969 74.406 46.281 74.3324 46.0969C74.3324 46.1337 74.4428 46.3178 74.406 46.2074C74.3692 46.0969 74.4428 46.3178 74.4428 46.3546C74.406 46.1705 74.4428 46.3546 74.4428 46.4282C74.4428 46.5018 74.4796 46.6858 74.4796 46.5754C74.4796 46.649 74.4796 46.7594 74.4796 46.8699C74.4796 47.0539 74.4428 47.2379 74.406 47.3852C74.2956 47.8636 74.1483 48.3053 73.9275 48.7102C73.5963 49.2991 73.1178 49.7408 72.4921 49.7776C71.8664 49.7408 71.3143 49.5199 70.8358 49.1519C70.5781 48.9678 70.3205 48.7838 70.0997 48.563C69.842 48.3421 69.5844 48.0845 69.3267 47.8268C69.2163 47.7164 69.1059 47.606 69.0323 47.4956C68.9219 47.3852 69.1059 47.606 68.9955 47.4588L68.8483 47.2747C68.701 47.1275 68.5906 46.9803 68.4434 46.7963L68.2962 46.6122C68.1121 46.3546 67.7073 46.0233 67.4128 46.3546C67.1184 46.6858 67.4864 47.3115 67.7073 47.5692Z" fill="#000005"/>
<path id="Vector_37" d="M50.6659 45.9128C49.7825 47.0538 48.7519 48.0108 47.6109 48.8573C43.7463 51.7282 44.0039 53.4581 45.7338 53.6053C47.4637 53.7526 52.911 50.1824 52.911 50.1824" fill="white"/>
<path id="Vector_38" d="M49.8561 45.6185C48.8991 46.9803 47.5373 47.9741 46.249 48.9679C45.4393 49.5568 44.74 50.2929 44.1511 51.1026C43.783 51.5443 43.599 52.1332 43.6726 52.6853C43.783 53.2006 44.2615 53.5687 44.74 53.7527C45.4025 54.0471 46.1386 54.1208 46.838 53.9735C48.2734 53.7159 49.5984 52.943 50.8498 52.2436C51.8436 51.6915 52.8006 51.1026 53.7575 50.4769C54.0888 50.2561 53.3527 49.9248 53.2422 49.888C52.8742 49.7408 52.4325 49.7408 52.0644 49.9248C50.2977 51.1026 48.3838 52.2804 46.3595 53.0166C46.1386 53.0902 45.9178 53.1638 45.697 53.2006L45.5497 53.2374C45.4393 53.2742 45.4761 53.2374 45.5865 53.2374C45.5129 53.2374 45.3289 53.1638 45.6233 53.2374C45.5129 53.2006 45.5497 53.2006 45.6602 53.2374C45.5497 53.2006 45.6233 53.2006 45.6602 53.2374C45.5865 53.1638 45.6233 53.2374 45.6233 53.2374C45.5865 53.2006 45.5497 53.1638 45.5497 53.1638C45.5129 53.0902 45.4761 53.0166 45.4761 52.9061C45.4761 52.4645 45.6233 51.986 45.881 51.6547C46.3963 50.9186 47.022 50.2929 47.7213 49.7408C49.0463 48.6366 50.5186 47.6428 51.5492 46.2074C51.8804 45.6921 50.1505 45.1768 49.8561 45.6185Z" fill="#000005"/>
<path id="Vector_39" d="M82.1721 92.8776C82.1721 93.4296 85.9264 100.607 77.7554 102.079C69.5844 103.551 54.3466 98.877 54.3466 98.877C54.3466 98.877 57.88 122.838 49.5618 125.672C41.2436 128.506 31.3059 123.353 32.7045 109.367C34.1032 95.3804 41.0227 80.1426 49.341 79.2592C57.6592 78.3759 82.1721 92.8776 82.1721 92.8776Z" fill="white"/>
<path id="Vector_40" d="M81.2887 93.1352C81.2887 93.5769 81.5832 94.0553 81.6936 94.4602C81.9512 95.3067 82.0985 96.1533 82.1353 97.0366C82.1721 97.9936 81.8776 98.9506 81.3623 99.7603C80.6262 100.791 79.5588 101.269 78.381 101.564C75.4365 102.226 72.1608 101.932 69.1059 101.564C66.0141 101.159 62.9224 100.57 59.9043 99.7971C58.248 99.3922 56.5917 98.9874 54.9722 98.4721C54.6042 98.3617 53.316 98.6193 53.3896 99.1714C53.7208 101.306 53.8681 103.441 54.0153 105.576C54.2361 109.661 54.2729 113.82 53.5368 117.832C53.2055 119.599 52.7271 121.439 51.8069 122.985C51.4389 123.611 50.9604 124.2 50.4083 124.678C50.3347 124.715 50.261 124.789 50.2242 124.825L50.0402 124.973L49.893 125.083C49.8562 125.12 49.5985 125.267 49.6721 125.193C49.7458 125.12 49.5249 125.267 49.5249 125.267C49.5249 125.267 49.1569 125.414 49.4513 125.304C49.1937 125.377 48.936 125.488 48.6784 125.561C48.4944 125.598 48.3839 125.635 48.0895 125.709C47.795 125.782 47.5374 125.819 47.2797 125.856C47.1693 125.856 46.9117 125.893 46.6908 125.93C46.47 125.966 46.1387 125.966 45.8811 125.966C44.8873 126.003 43.8936 125.893 42.8998 125.672C40.8755 125.23 38.9983 124.2 37.4893 122.764C35.7962 121.071 34.6184 118.973 34.0295 116.691C33.2198 113.636 33.3302 110.471 33.7718 107.379C34.6552 100.754 36.5691 94.0921 39.8081 88.2399C41.1331 85.8843 42.7158 83.5287 44.8137 81.762C45.2186 81.394 45.6971 81.0627 46.1387 80.7683C46.5436 80.5106 46.9853 80.253 47.4638 80.069C47.6478 79.9953 47.8318 79.9217 48.0527 79.8481L48.2367 79.8113C48.3839 79.7745 48.1263 79.8481 48.2735 79.8113C48.4207 79.7745 48.568 79.7377 48.7152 79.7009C48.8992 79.6641 49.0464 79.6273 49.2305 79.6273H49.4513C49.4881 79.6273 49.7826 79.6273 49.5985 79.6273C51.2548 79.6641 52.9111 79.9585 54.4938 80.4738C56.5917 81.0995 58.6529 81.8357 60.6772 82.6822C65.0204 84.4857 69.2531 86.5837 73.3754 88.7552C75.9518 90.1171 78.4914 91.5157 81.0311 92.988L81.3991 93.2088C81.7304 93.3928 82.2457 93.2456 82.5401 93.0984C82.6506 93.0616 83.3131 92.6567 83.0186 92.4727C81.1047 91.3317 79.1908 90.2643 77.24 89.1969C73.1177 86.9517 68.9218 84.817 64.6155 82.903C62.4439 81.9461 60.1987 81.0259 57.9536 80.253C56.1132 79.5905 54.1993 79.112 52.2486 78.8175C50.261 78.5231 48.2367 78.8175 46.4332 79.6641C44.0776 80.8051 42.1637 82.6454 40.6178 84.7065C38.7407 87.2462 37.1948 90.0435 36.017 92.988C34.692 96.2269 33.6614 99.6131 32.9253 103.036C31.6739 108.888 30.6801 115.771 34.1031 121.108C36.5691 125.009 40.9491 126.96 45.4762 126.739C47.5742 126.629 50.0034 126.187 51.7333 124.899C53.0951 123.868 53.9785 122.323 54.5306 120.74C55.966 116.802 56.1132 112.385 56.0396 108.226C56.0028 105.134 55.782 102.079 55.3771 99.0242C55.3403 98.877 55.3403 98.6929 55.3035 98.5457L53.7208 99.245C58.2848 100.644 62.9224 101.674 67.6704 102.337C70.9462 102.778 74.3323 103.073 77.6081 102.484C80.3686 102.005 83.5339 100.57 83.9388 97.4783C84.0492 96.4109 83.9756 95.3067 83.6443 94.2762C83.5339 93.9081 83.4235 93.54 83.3131 93.172C83.2395 92.988 83.1658 92.8039 83.129 92.5831C83.0186 92.1782 81.2519 92.5463 81.2887 93.1352Z" fill="#000005"/>
<path id="Vector_41" d="M27.1835 78.4128C27.1835 78.4128 12.1298 58.1326 13.0499 57.8749C13.9701 57.6173 30.2385 55.8506 30.9378 56.145C31.6371 56.4395 44.7033 77.8976 44.7033 77.8976L65.3148 78.2288C65.3148 78.2288 66.4926 79.6642 65.6093 80.0691C64.7259 80.474 28.7662 78.9281 27.1835 78.4128Z" fill="#518C3C"/>
<path id="Vector_42" d="M28.0301 78.0446C26.7051 76.2779 25.4169 74.4744 24.0918 72.7077C21.6994 69.4319 19.3438 66.1562 17.0619 62.8068C16.2153 61.5554 15.332 60.2672 14.559 58.979C14.3382 58.6109 14.1173 58.2428 13.9701 57.8748C13.9333 57.8012 13.9333 57.7644 13.8965 57.6908C13.8229 57.5435 13.9333 57.6171 13.8965 57.6539V57.6171C13.7493 57.9484 13.5653 58.1324 13.0132 58.2797C13.1604 58.2428 12.7555 58.3165 12.9764 58.2797C16.3993 57.7644 19.8591 57.4331 23.2821 57.1019C24.3127 56.9914 25.3433 56.9178 26.3738 56.8074C26.8155 56.7706 27.294 56.7338 27.7357 56.697L28.2878 56.6602H28.3982L28.6926 56.6234C29.2079 56.5866 29.6864 56.5866 30.2017 56.5866C30.1649 56.5866 30.3857 56.5866 30.2017 56.5866C30.2385 56.5866 30.1281 56.4761 30.1649 56.5866C30.1649 56.6234 30.2385 56.6234 30.2385 56.6602C30.3121 56.7706 30.2017 56.5866 30.3121 56.7338C30.9746 57.6171 31.5635 58.5373 32.1892 59.4575C33.183 61.0033 34.1768 62.5492 35.1705 64.1319C37.3053 67.5548 39.4401 71.0146 41.5748 74.4744L43.5256 77.6397C43.636 77.8238 43.7464 78.0078 43.8568 78.1918C44.0408 78.4127 44.3353 78.3759 44.5929 78.3759L54.1626 78.5231L64.2475 78.6703H64.8364L64.4683 78.4863C64.6523 78.7071 64.7996 78.9648 64.91 79.2224C64.9836 79.3696 64.9836 79.5905 65.0572 79.7377C65.1308 79.8849 64.9468 79.8849 65.2412 79.7009C65.2412 79.7009 65.7197 79.4801 65.6093 79.5169C65.9038 79.4433 65.7933 79.4801 65.6461 79.4801C65.4989 79.4801 65.867 79.4801 65.6829 79.4801H65.4989C64.6892 79.5169 63.8794 79.4801 63.0697 79.4801C60.162 79.4432 57.2543 79.3328 54.3466 79.2592C50.666 79.112 46.9853 78.9648 43.3047 78.8175C39.9922 78.6703 36.6428 78.4863 33.3302 78.3023C32.1524 78.2286 30.9746 78.155 29.7968 78.0814C29.3919 78.0446 28.9871 78.0078 28.619 77.971L28.3982 77.9342H28.251H28.1773L28.0301 77.8974L27.8461 77.8606C27.478 77.7134 26.9259 77.971 26.6315 78.2286C26.4106 78.4127 26.1898 78.7807 26.5579 78.8912C26.9259 79.0016 27.3308 79.0384 27.7357 79.0752C28.435 79.1488 29.1343 79.1856 29.8336 79.2592C32.0788 79.4065 34.2872 79.5537 36.5324 79.6641C42.3109 79.9585 48.0895 80.2162 53.9049 80.4002C56.2605 80.4738 58.6529 80.5474 61.0453 80.5842C62.4072 80.6579 63.7322 80.6579 65.094 80.5842C65.3517 80.5842 65.5725 80.5106 65.7933 80.4002C66.6767 80.0322 67.0448 79.3328 66.6031 78.4495C66.419 78.1182 66.1982 77.6765 65.7933 77.6397C65.6461 77.6397 65.4989 77.6397 65.3517 77.6397L59.4627 77.5293L45.4763 77.3085H45.1818L45.5499 77.4925C44.8138 76.2779 44.0776 75.0633 43.3047 73.8487C41.6852 71.1987 40.0658 68.5486 38.4463 65.9354C36.8636 63.3957 35.3178 60.8929 33.6983 58.3901C33.2198 57.6539 32.7413 56.9178 32.226 56.2185C31.8948 55.7768 31.7107 55.556 31.1218 55.5192C30.0913 55.4824 29.0607 55.5928 28.0669 55.7032C26.4843 55.8504 24.9016 55.9609 23.3189 56.1449C20.3744 56.4393 17.4299 56.7338 14.4854 57.1387C13.8229 57.2123 12.277 57.3227 12.2034 58.1692C12.1666 58.6477 12.6451 59.2734 12.8659 59.6415C14.1542 61.8499 15.6632 63.911 17.1355 66.0458C18.9758 68.6222 20.8161 71.1987 22.6564 73.7383C23.8342 75.3578 25.012 76.9404 26.1898 78.5599C26.2634 78.6335 26.3002 78.7071 26.3738 78.7807C26.7419 79.296 28.3614 78.4495 28.0301 78.0446Z" fill="#518C3C"/>
<path id="Vector_43" d="M27.441 67.4077L27.5883 67.2237C27.6251 67.1869 27.6987 67.0396 27.6251 67.1868C27.6987 67.0764 27.8091 66.966 27.9195 66.8924C27.9563 66.8556 27.9931 66.8188 28.0668 66.782C27.8459 66.8924 28.0668 66.782 28.1036 66.782C28.2876 66.7084 27.9931 66.782 28.1404 66.782C27.9563 66.782 28.2876 66.782 28.1404 66.782H28.2508C28.1036 66.782 28.1036 66.782 28.1772 66.782L28.2508 66.8188H28.1772L28.3612 66.8924C28.2508 66.8188 28.2508 66.8188 28.3244 66.8556L28.398 66.9292C28.5452 67.0764 28.3244 66.8188 28.4348 66.966L28.5452 67.1132L28.6188 67.2237C28.582 67.15 28.5452 67.1132 28.582 67.1868C28.6188 67.2605 28.6557 67.3341 28.6557 67.4077C28.6557 67.4813 28.6925 67.5181 28.7293 67.5917C28.7293 67.6285 28.7661 67.6653 28.7661 67.7021C28.7293 67.5917 28.7293 67.5917 28.7661 67.7021C28.8029 67.8494 28.8029 67.9598 28.8029 68.107C28.8029 68.1806 28.8029 68.291 28.8029 68.3647C28.8029 68.5487 28.8397 68.2542 28.8029 68.4015C28.8029 68.4751 28.7661 68.5487 28.7661 68.5855C28.7661 68.6223 28.6925 68.9167 28.7293 68.6959C28.6925 68.7695 28.6188 68.9904 28.5452 69.0272C28.6188 68.9535 28.6188 68.9167 28.582 68.9904L28.5084 69.064L28.4348 69.1008C28.398 69.1376 28.398 69.1376 28.5084 69.064C28.5084 69.1008 28.3612 69.1376 28.3244 69.1376C28.2876 69.1376 28.2876 69.1376 28.398 69.1008L28.2876 69.1376C28.1404 69.1744 28.4716 69.1376 28.2876 69.1376C28.1772 69.1376 28.214 69.1376 28.3612 69.1376L28.2508 69.1008C27.8459 68.9904 27.257 69.1744 27.1834 69.6529C27.1098 70.1314 27.441 70.5362 27.8827 70.6466C28.6188 70.8307 29.4286 70.573 29.9439 70.0209C30.4592 69.4688 30.68 68.6959 30.6064 67.9598C30.5696 67.2605 30.3119 66.5611 29.8703 66.0091C29.3182 65.3097 28.4348 64.9785 27.5515 65.1257C26.7417 65.2729 26.1896 65.8986 25.7112 66.5243C25.4167 66.8924 25.748 67.4445 26.116 67.6285C26.5209 67.8494 27.073 67.7389 27.3306 67.3341L27.441 67.4077Z" fill="white"/>
</g>
</g>
</svg>
