<svg width="232" height="232" viewBox="0 0 232 232" fill="none" xmlns="http://www.w3.org/2000/svg">
<g id="Like 2 1">
<g id="thumbs-up">
<g id="thumb-up">
<path id="Vector" d="M42.4561 127.368C42.4561 127.368 45.1473 128.435 47.6065 123.331C50.0193 118.413 49.8801 111.546 51.9681 111.87C54.0561 112.195 55.1697 117.717 54.3809 121.986C54.3809 121.986 62.2225 121.243 63.1505 123.238C64.0785 125.234 62.3153 126.022 62.3153 126.022C62.3153 126.022 67.6977 127.878 64.7281 131.034C64.7281 131.034 68.0689 133.539 65.2385 136.045C62.4081 138.55 55.5873 139.757 55.6801 137.158C55.6801 137.158 52.8033 141.288 48.9985 139.2C45.1937 137.112 42.4561 127.368 42.4561 127.368Z" fill="#518C3C"/>
<path id="Vector_2" d="M51.1328 140.035C50.344 140.035 49.5552 139.803 48.8592 139.432C45.0544 137.344 42.3168 127.832 42.224 127.461L42.0848 126.997L42.5024 127.182C42.5952 127.229 45.008 128.064 47.3744 123.238C48.3952 121.104 48.952 118.645 49.416 116.51C50.0656 113.587 50.576 111.453 51.9216 111.638C52.4784 111.778 52.9888 112.102 53.2672 112.613C54.52 114.422 55.0768 118.413 54.5664 121.754C56.1904 121.614 62.408 121.243 63.2432 123.192C63.8928 124.723 63.1968 125.605 62.7328 126.022C63.568 126.394 65.3776 127.275 65.7024 128.714C65.888 129.456 65.656 130.245 64.96 131.034C65.424 131.405 66.4448 132.472 66.5376 133.818C66.5376 134.792 66.0736 135.674 65.3312 136.277C63.0576 138.272 58.232 139.525 56.2832 138.597C55.912 138.458 55.6336 138.179 55.4944 137.808C54.8448 138.504 53.2208 140.035 51.1328 140.035ZM42.7808 127.693C43.3376 129.502 45.8432 137.251 49.0912 139.014C52.664 140.963 55.3552 137.205 55.4944 137.066L55.9584 136.416L55.912 137.205C55.8656 137.622 56.144 137.994 56.5152 138.133C58.3248 138.968 62.9648 137.762 65.0992 135.906C65.7488 135.395 66.1664 134.653 66.1664 133.818C66.12 132.379 64.6352 131.266 64.5888 131.219L64.4032 131.08L64.5888 130.894C65.2848 130.198 65.5168 129.456 65.3776 128.806C64.96 127.229 62.2688 126.254 62.2688 126.254L61.712 126.069L62.2224 125.837C62.2688 125.79 63.7072 125.141 62.9184 123.331C62.2688 121.8 56.5616 121.986 54.4272 122.218L54.1024 122.264L54.1488 121.986C54.752 118.738 54.2416 114.654 52.9888 112.938C52.7568 112.566 52.3856 112.288 51.968 112.149C51.04 112.01 50.5296 114.144 49.9728 116.65C49.4624 118.83 48.9056 121.29 47.8848 123.47C45.7968 127.554 43.6624 127.786 42.7808 127.693Z" fill="#518C3C"/>
<path id="Vector_3" d="M43.848 142.773C43.848 142.773 50.6688 141.613 50.6688 140.824C50.6688 140.035 45.6112 127.6 45.008 125.93C44.4048 124.259 38.0944 127.09 38.0944 127.09C38.0944 127.09 39.5792 140.221 43.848 142.773Z" fill="#518C3C"/>
<path id="Vector_4" d="M43.8016 143.005L43.7088 142.958C39.3936 140.406 37.9088 127.693 37.8624 127.136V126.95L38.0016 126.904C38.1872 126.811 43.0592 124.63 44.6832 125.326C44.9152 125.419 45.1472 125.605 45.24 125.883C45.4256 126.44 46.168 128.25 47.0032 130.338C49.2304 135.952 50.9008 140.267 50.9472 140.778C50.9472 141.566 47.1424 142.402 43.9408 142.958L43.8016 143.005ZM38.3728 127.229C38.5584 128.76 40.0896 140.082 43.9408 142.494C46.9104 141.984 50.2512 141.195 50.4832 140.778C50.4368 140.314 48.1168 134.421 46.5856 130.523C45.704 128.342 45.008 126.579 44.8224 126.022C44.776 125.883 44.6832 125.79 44.544 125.744C43.3376 125.234 39.8112 126.626 38.3728 127.229Z" fill="#518C3C"/>
</g>
<g id="thumb-up-2">
<path id="Vector_5" d="M169.917 132.611C169.917 132.611 172.608 133.678 175.067 128.528C177.48 123.563 177.341 116.742 179.429 117.021C181.517 117.299 182.63 122.914 181.842 127.182C181.842 127.182 189.73 126.44 190.611 128.435C191.493 130.43 189.776 131.219 189.776 131.219C189.776 131.219 195.158 133.075 192.235 136.23C192.235 136.23 195.622 138.736 192.746 141.288C189.869 143.84 183.048 145 183.141 142.402C183.141 142.402 180.218 146.531 176.459 144.443C172.701 142.355 169.917 132.611 169.917 132.611Z" fill="#518C3C"/>
<path id="Vector_6" d="M178.594 145.325C177.805 145.325 177.016 145.093 176.32 144.722C172.469 142.634 169.778 133.122 169.638 132.704L169.499 132.24L169.917 132.426C170.01 132.472 172.469 133.354 174.789 128.482C175.81 126.347 176.366 123.888 176.877 121.754C177.526 118.784 178.037 116.65 179.429 116.882C179.986 117.021 180.496 117.346 180.774 117.856C182.074 119.666 182.63 123.702 182.074 126.997C183.698 126.858 189.915 126.486 190.797 128.435C191.493 129.966 190.75 130.894 190.286 131.266C191.122 131.637 192.931 132.565 193.302 133.957C193.488 134.792 193.21 135.674 192.606 136.277C193.07 136.648 194.091 137.715 194.184 139.061C194.184 140.035 193.72 140.917 192.978 141.52C190.704 143.515 185.832 144.768 183.883 143.84C183.512 143.701 183.234 143.376 183.094 143.051C182.352 143.794 180.728 145.325 178.594 145.325ZM170.242 132.936C170.798 134.746 173.304 142.494 176.552 144.304C180.125 146.253 182.816 142.494 182.955 142.355L183.419 141.706L183.373 142.494C183.326 142.912 183.605 143.283 183.976 143.422C185.786 144.304 190.426 143.051 192.56 141.195C193.21 140.685 193.627 139.942 193.627 139.107C193.581 137.669 192.05 136.509 192.05 136.509L191.818 136.37L192.003 136.184C192.699 135.442 192.931 134.746 192.792 134.096C192.374 132.472 189.683 131.544 189.683 131.544L189.126 131.358L189.637 131.126C189.683 131.08 191.122 130.43 190.333 128.621C189.637 127.09 183.93 127.275 181.795 127.507L181.47 127.554L181.517 127.229C182.12 123.981 181.61 119.898 180.357 118.134C180.125 117.763 179.754 117.485 179.29 117.346C178.315 117.206 177.851 119.341 177.294 121.846C176.784 124.027 176.227 126.533 175.206 128.714C173.258 132.797 171.123 133.075 170.242 132.936Z" fill="#518C3C"/>
<path id="Vector_7" d="M171.309 148.062C171.309 148.062 178.176 146.902 178.176 146.114C178.176 145.325 173.072 132.89 172.469 131.219C171.866 129.549 165.555 132.379 165.555 132.379C165.555 132.379 167.04 145.51 171.309 148.062Z" fill="#518C3C"/>
<path id="Vector_8" d="M171.262 148.294L171.17 148.248C166.808 145.65 165.37 132.936 165.277 132.379V132.24L165.416 132.194C165.648 132.101 170.474 129.92 172.098 130.616C172.33 130.709 172.562 130.894 172.654 131.173C172.84 131.73 173.582 133.539 174.418 135.674C176.645 141.288 178.362 145.65 178.362 146.16C178.362 146.949 174.557 147.784 171.355 148.341L171.262 148.294ZM165.787 132.518C165.973 134.05 167.504 145.418 171.355 147.83C174.371 147.32 177.666 146.485 177.898 146.114C177.851 145.65 175.531 139.71 174 135.813C173.118 133.586 172.422 131.869 172.237 131.312C172.19 131.173 172.098 131.08 171.958 131.034C170.798 130.523 167.272 131.869 165.787 132.518Z" fill="#518C3C"/>
</g>
<g id="thumb-up-3">
<path id="Vector_9" d="M186.342 31.9232C186.342 31.9232 184.394 32.712 182.63 29C180.914 25.4272 181.006 20.5088 179.475 20.7408C177.944 20.9728 177.155 24.9632 177.758 28.0256C177.758 28.0256 172.098 27.4688 171.448 28.9536C170.798 30.4384 172.051 30.9952 172.051 30.9952C172.051 30.9952 168.154 32.3408 170.288 34.6144C170.288 34.6144 167.875 36.424 169.917 38.2336C171.958 40.0432 176.877 40.8784 176.83 39.0224C176.83 39.0224 178.918 41.992 181.656 40.5072C184.394 39.0224 186.342 31.9232 186.342 31.9232Z" fill="#518C3C"/>
<path id="Vector_10" d="M180.078 41.1104C178.594 41.1104 177.48 40.0896 176.923 39.4864C176.784 39.7184 176.598 39.904 176.366 39.9968C174.928 40.6928 171.402 39.8112 169.731 38.3264C169.174 37.9088 168.803 37.2128 168.803 36.5168C168.896 35.728 169.267 35.032 169.917 34.5216C169.499 34.0576 169.314 33.4544 169.406 32.8512C169.638 31.8304 170.845 31.1808 171.494 30.9024C170.938 30.392 170.798 29.5104 171.17 28.8608C171.773 27.4688 176.134 27.7008 177.434 27.7936C177.062 25.4272 177.48 22.5504 178.362 21.2512C178.594 20.88 178.965 20.6016 179.382 20.5088C180.45 20.3696 180.774 21.9008 181.285 24.0816C181.61 25.752 182.12 27.376 182.77 28.9072C184.44 32.3408 186.11 31.7376 186.203 31.6912L186.621 31.552L186.482 32.016C186.389 32.2944 184.44 39.1616 181.656 40.6928C181.238 40.9712 180.635 41.1104 180.078 41.1104ZM176.552 38.2336L177.016 38.8832C177.109 38.976 179.011 41.6672 181.563 40.2752C183.837 39.0224 185.6 33.6864 186.064 32.248C185.368 32.2944 183.837 32.016 182.445 29.1392C181.749 27.5616 181.238 25.8912 180.914 24.1744C180.496 22.4112 180.171 20.88 179.522 20.9728C179.243 21.0656 178.965 21.2512 178.826 21.5296C177.944 22.7824 177.573 25.7056 177.99 28.0256L178.037 28.3504L177.712 28.304C175.578 28.072 172.051 28.1184 171.634 29.0928C171.123 30.2992 172.005 30.7632 172.098 30.8096L172.608 31.0416L172.051 31.2272C172.051 31.2272 170.102 31.8768 169.824 33.0368C169.731 33.5936 169.963 34.104 170.381 34.4752L170.566 34.6608L170.334 34.8C170.334 34.8 169.267 35.6352 169.221 36.6096C169.221 37.1664 169.499 37.7232 169.963 38.048C171.634 39.4864 174.928 40.1824 176.088 39.6256C176.366 39.5328 176.506 39.3008 176.506 39.0224L176.552 38.2336Z" fill="#518C3C"/>
<path id="Vector_11" d="M185.322 43.0128C185.322 43.0128 180.403 42.1776 180.403 41.6208C180.403 41.064 184.069 32.1088 184.486 30.9024C184.904 29.696 189.451 31.7376 189.451 31.7376C189.451 31.7376 188.384 41.2032 185.322 43.0128Z" fill="#518C3C"/>
<path id="Vector_12" d="M185.368 43.2448H185.275C180.171 42.3632 180.171 41.8064 180.171 41.6208C180.171 41.2496 181.099 38.8832 183.002 34.0576C183.605 32.5264 184.115 31.2272 184.254 30.8096C184.347 30.624 184.486 30.4384 184.672 30.392C185.832 29.8816 189.173 31.3664 189.544 31.552L189.683 31.6448V31.8304C189.637 32.2016 188.57 41.4352 185.414 43.2912L185.368 43.2448ZM180.635 41.5744C180.96 41.8992 183.234 42.4096 185.275 42.7808C187.966 41.064 189.08 33.1296 189.219 31.8768C188.152 31.4128 185.693 30.4848 184.858 30.8096C184.765 30.856 184.718 30.9024 184.672 30.9488C184.533 31.3664 184.022 32.6192 183.419 34.1968C182.445 36.7488 180.774 40.9712 180.635 41.5744Z" fill="#518C3C"/>
</g>
<g id="thumb-up-4">
<path id="Vector_13" d="M69.4608 28.8608C69.4608 28.8608 67.512 29.6496 65.7488 25.9376C64.032 22.3648 64.1248 17.4464 62.5936 17.6784C61.0624 17.9104 60.2736 21.9008 60.8768 24.9632C60.8768 24.9632 55.216 24.4064 54.5664 25.8912C53.9168 27.376 55.1696 27.9328 55.1696 27.9328C55.1696 27.9328 51.272 29.232 53.4064 31.5056C53.4064 31.5056 50.9936 33.3152 53.0352 35.1248C55.0768 36.9344 59.9952 37.7696 59.9488 35.9136C59.9488 35.9136 62.0368 38.8832 64.7744 37.3984C67.512 35.9136 69.4608 28.8608 69.4608 28.8608Z" fill="#518C3C"/>
<path id="Vector_14" d="M63.1968 38.0944C61.712 38.0944 60.5984 37.0736 60.0416 36.4704C59.9024 36.7024 59.7168 36.888 59.4848 36.9808C58.0464 37.6768 54.52 36.7952 52.896 35.3104C52.3392 34.8928 51.968 34.1968 51.968 33.5008C52.0608 32.712 52.4784 32.016 53.0816 31.5056C52.664 31.0416 52.4784 30.4384 52.5712 29.8352C52.8032 28.8144 54.0096 28.1648 54.6592 27.8864C54.288 27.5616 53.8704 26.912 54.3344 25.8448C54.9376 24.4528 59.2992 24.6848 60.5984 24.7776C60.2272 22.4112 60.6448 19.5344 61.5728 18.2352C61.8048 17.864 62.176 17.5856 62.5936 17.4928C63.6608 17.3072 63.9856 18.8848 64.496 21.0656C64.8208 22.736 65.2848 24.36 65.9808 25.8912C67.6512 29.3248 69.3216 28.7216 69.4144 28.6752L69.832 28.536L69.6928 29C69.6464 29.2784 67.6512 36.1456 64.8672 37.6768C64.3568 37.9088 63.7536 38.0944 63.1968 38.0944ZM59.6704 35.1712L60.1344 35.8208C60.2272 35.9136 62.1296 38.6048 64.6352 37.2128C66.9088 35.96 68.672 30.624 69.136 29.1856C68.44 29.232 66.9088 28.9536 65.5168 26.0768C64.8208 24.4992 64.3104 22.8288 63.9856 21.1584C63.568 19.3952 63.2432 17.864 62.5936 17.9568C62.3152 18.0496 62.0368 18.2352 61.8976 18.5136C61.016 19.7664 60.6448 22.6896 61.0624 25.0096L61.1088 25.3344L60.784 25.288C58.6496 25.1024 55.1232 25.1488 54.7056 26.0768C54.1952 27.2832 55.0768 27.7472 55.1696 27.7936L55.68 28.0256L55.1232 28.2112C55.1232 28.2112 53.1744 28.9072 52.896 30.0208C52.8032 30.5776 53.0352 31.088 53.4528 31.4592L53.6384 31.6448L53.4528 31.784C53.4528 31.784 52.3856 32.6192 52.3856 33.5936C52.3856 34.1504 52.664 34.7072 53.128 35.032C54.7984 36.4704 58.0928 37.2128 59.2528 36.6096C59.5312 36.5168 59.6704 36.2848 59.6704 36.0064V35.1712Z" fill="#518C3C"/>
<path id="Vector_15" d="M68.44 39.9968C68.44 39.9968 63.5216 39.1616 63.5216 38.6048C63.5216 38.048 67.1872 29.0928 67.6048 27.8864C68.0224 26.68 72.5696 28.7216 72.5696 28.7216C72.5696 28.7216 71.5024 38.1408 68.44 39.9968Z" fill="#518C3C"/>
<path id="Vector_16" d="M68.4864 40.2288H68.3936C63.2896 39.3472 63.2896 38.7904 63.2896 38.6048C63.2896 38.2336 64.2176 35.8672 66.12 31.0416C66.7232 29.5104 67.2336 28.2112 67.3728 27.7936C67.4656 27.608 67.6048 27.4224 67.7904 27.376C68.9504 26.8656 72.2912 28.3504 72.6624 28.536L72.8016 28.6288V28.8144C72.7552 29.1856 71.688 38.4192 68.5328 40.2752L68.4864 40.2288ZM63.7536 38.5584C64.0784 38.8832 66.352 39.3936 68.3936 39.7648C71.0848 38.048 72.1984 30.1136 72.3376 28.8608C71.2704 28.3968 68.8112 27.4688 67.976 27.7936C67.8832 27.84 67.8368 27.8864 67.7904 27.9328C67.6512 28.3504 67.1408 29.6032 66.5376 31.1808C65.5168 33.7328 63.8464 37.9552 63.7536 38.5584Z" fill="#518C3C"/>
</g>
</g>
<g id="character">
<path id="Vector_17" d="M113.634 201.33C113.634 201.33 113.077 213.718 113.402 213.718C113.726 213.718 118.691 213.533 118.691 213.533V208.568L121.104 213.997L137.576 213.022C137.576 213.022 138.086 211.213 134.374 209.264C130.662 207.315 124.723 204.485 124.723 204.485L124.584 197.107L113.634 201.33Z" fill="#000005"/>
<path id="Vector_18" d="M113.355 201.283C113.262 203.742 113.17 206.248 113.077 208.707C113.03 210.099 112.984 211.491 113.03 212.883C113.03 213.069 112.984 213.486 113.123 213.626C113.309 213.904 114.005 213.765 114.237 213.765L118.877 213.626C118.877 213.626 118.97 213.626 118.97 213.579V208.661L118.413 208.568L120.826 213.997C120.872 214.136 121.197 214.136 121.29 214.136L135.72 213.254L137.762 213.115C137.762 213.115 137.854 213.115 137.854 213.069C137.901 212.698 137.854 212.28 137.669 211.955C137.158 210.795 135.952 210.006 134.885 209.403C132.333 207.965 129.595 206.712 126.904 205.413L124.862 204.438L125.002 204.531L124.862 197.2C124.862 197.061 124.445 197.014 124.352 197.014L114.747 200.68L113.402 201.19C113.262 201.237 113.726 201.422 113.866 201.376L123.47 197.71L124.816 197.154L124.306 196.968L124.445 204.346C124.445 204.392 124.538 204.438 124.584 204.438C127.043 205.598 129.456 206.758 131.869 207.965C133.539 208.8 135.488 209.589 136.694 211.074C137.019 211.445 137.205 211.909 137.298 212.373C137.298 212.466 137.298 212.883 137.344 212.837C137.39 212.79 137.39 212.79 137.298 212.837C137.205 212.837 137.158 212.837 137.066 212.837L136.23 212.883L133.354 213.069L125.79 213.533L120.918 213.811L121.382 213.95L118.97 208.522C118.923 208.429 118.413 208.29 118.413 208.429V213.115C118.413 213.208 118.413 213.254 118.413 213.347C118.413 213.301 118.552 213.347 118.366 213.347C118.042 213.347 117.67 213.347 117.346 213.394L114.19 213.486C113.912 213.44 113.587 213.486 113.309 213.486C113.17 213.533 113.634 213.718 113.68 213.579C113.68 213.486 113.68 213.44 113.634 213.347C113.587 212.744 113.587 212.094 113.587 211.491C113.587 209.45 113.68 207.454 113.726 205.459C113.773 204.067 113.819 202.675 113.912 201.33C113.912 201.237 113.355 201.144 113.355 201.283Z" fill="#000005"/>
<path id="Vector_19" d="M102.126 201.051C102.126 201.051 102.73 213.997 102.358 213.997C101.987 213.997 96.4656 213.811 96.4656 213.811V208.661L93.7744 214.368L75.4 213.347C75.4 213.347 74.7968 211.491 78.9264 209.403C83.056 207.315 89.6912 204.392 89.6912 204.392L89.8304 196.69L102.126 201.051Z" fill="#000005"/>
<path id="Vector_20" d="M101.848 201.098C101.987 203.557 102.08 205.97 102.126 208.429C102.173 209.914 102.219 211.398 102.173 212.883C102.173 213.115 102.173 213.301 102.126 213.533C102.08 213.672 102.08 213.811 102.08 213.95C102.034 213.904 102.405 213.904 102.312 213.811C102.266 213.765 102.08 213.811 102.034 213.811L101.059 213.765L96.512 213.626L96.744 213.765V208.568C96.744 208.336 96.28 208.429 96.1872 208.568L93.496 214.275L93.8208 214.136L77.72 213.208L75.4928 213.069L75.7248 213.208C75.6784 212.79 75.7248 212.373 75.9568 212.048C76.6528 210.702 78.184 209.914 79.4832 209.31C82.2208 207.965 85.0048 206.666 87.7888 205.413L89.8304 204.485C89.8768 204.438 90.016 204.392 90.016 204.299L90.1552 196.597L89.6912 196.782L100.41 200.634L101.941 201.19C102.173 201.283 102.637 200.958 102.312 200.819L91.5936 196.968L90.0624 196.411C89.9232 196.365 89.5984 196.411 89.5984 196.597L89.4592 204.299L89.6448 204.114C87.6032 204.995 85.608 205.923 83.6128 206.851C82.0816 207.547 80.5504 208.29 79.0192 209.032C77.72 209.682 76.328 210.47 75.5392 211.77C75.2144 212.234 75.0752 212.744 75.168 213.301C75.2144 213.394 75.3072 213.486 75.4 213.44L91.5008 214.368L93.728 214.507C93.8672 214.507 93.96 214.461 94.0528 214.368L96.744 208.707H96.1872V213.858C96.1872 213.95 96.3728 213.997 96.4192 213.997L100.642 214.136C101.198 214.229 101.802 214.229 102.358 214.182C102.683 214.09 102.683 213.811 102.683 213.533C102.776 212.187 102.73 210.842 102.683 209.542C102.637 207.733 102.59 205.97 102.498 204.206C102.451 203.139 102.405 202.118 102.358 201.051C102.405 200.726 101.848 200.819 101.848 201.098Z" fill="#000005"/>
<path id="Vector_21" d="M92.7536 102.962C92.7536 102.962 81.5712 198.035 84.8656 200.587C88.16 203.139 106.581 199.102 106.581 199.102L108.762 178.13L109.875 200.958C109.875 200.958 124.213 204.624 129.363 202.814C129.363 202.814 134.606 114.237 134.606 100.27C134.606 86.304 92.7536 102.962 92.7536 102.962Z" fill="#000005"/>
<path id="Vector_22" d="M91.64 103.008C91.5008 104.214 91.3616 105.421 91.2224 106.627C90.8512 109.875 90.48 113.077 90.1088 116.325C89.5984 120.965 89.088 125.558 88.5776 130.198C87.9744 135.627 87.4176 141.056 86.8608 146.485C86.304 152.099 85.7472 157.714 85.2368 163.374C84.7728 168.571 84.3088 173.768 83.9376 178.965C83.6128 183.141 83.3344 187.317 83.1952 191.539C83.1024 194.138 82.9632 196.829 83.288 199.381C83.288 199.984 83.4736 200.587 83.8448 201.098C84.4016 201.701 85.4224 201.933 86.2112 202.072C87.4176 202.258 88.624 202.35 89.8304 202.304C95.12 202.211 100.456 201.237 105.653 200.17L106.72 199.938C107.091 199.845 107.648 199.566 107.694 199.149L108.437 192.05L109.643 180.728L109.922 178.13L107.648 178.408L108.019 186.11L108.622 198.406L108.762 201.237C108.762 201.562 109.226 201.701 109.458 201.794C111.221 202.258 112.984 202.629 114.747 202.954C118.088 203.65 121.522 204.067 124.909 204.16C126.579 204.253 128.25 204.021 129.827 203.51C130.106 203.418 130.477 203.139 130.523 202.814C130.616 201.051 130.755 199.288 130.848 197.525C131.126 192.931 131.405 188.338 131.637 183.744C132.008 177.387 132.379 171.03 132.704 164.674C133.075 157.621 133.493 150.568 133.864 143.469C134.235 136.787 134.56 130.106 134.885 123.424C135.117 118.134 135.395 112.845 135.581 107.555C135.627 105.746 135.72 103.982 135.766 102.173C135.813 100.549 135.952 98.9248 135.163 97.44C134.235 95.6768 132.286 94.7952 130.43 94.3312C128.018 93.728 125.419 93.8208 122.914 94.0528C116.789 94.6096 110.803 96.1872 104.91 97.9504C100.827 99.2032 96.8368 100.549 92.8464 102.08L92.2432 102.312C91.8256 102.498 91.3616 102.962 91.64 103.426C91.9184 103.89 92.7072 103.843 93.1712 103.658C95.9552 102.544 98.7856 101.57 101.662 100.595L103.565 99.992C103.611 99.992 103.797 99.9456 103.565 99.992L103.843 99.8992L104.307 99.76C104.678 99.6672 105.05 99.528 105.374 99.4352C106.813 99.0176 108.251 98.6 109.69 98.1824C112.659 97.3936 115.629 96.6976 118.691 96.1408C119.434 96.0016 120.13 95.9088 120.872 95.816H121.011H121.15L121.661 95.7696C122.032 95.7232 122.403 95.6768 122.774 95.6768C124.074 95.5376 125.373 95.5376 126.626 95.584H127.043C126.765 95.584 127.182 95.584 127.275 95.584C127.554 95.6304 127.878 95.6304 128.157 95.6768C128.667 95.7696 129.178 95.8624 129.688 95.9552C129.456 95.9088 129.92 96.0016 129.688 95.9552L129.827 96.0016L130.152 96.0944C130.384 96.1872 130.616 96.28 130.848 96.3728L131.126 96.512L131.312 96.6048C131.312 96.6048 131.126 96.512 131.266 96.6048C131.451 96.6976 131.637 96.8368 131.822 96.976C131.962 97.1152 132.147 97.208 132.286 97.3472C132.426 97.4864 132.24 97.2544 132.379 97.44C132.472 97.5328 132.518 97.6256 132.611 97.7184C132.704 97.8576 132.843 98.0432 132.936 98.1824C132.982 98.2752 133.029 98.368 133.075 98.4608C133.122 98.5536 133.168 98.6928 133.075 98.4608C133.075 98.5072 133.122 98.5536 133.122 98.6464C133.261 99.064 133.354 99.4816 133.4 99.9456C133.4 100.038 133.4 100.178 133.446 100.27C133.446 100.502 133.446 100.085 133.446 100.317V100.41C133.446 100.549 133.446 100.688 133.446 100.827C133.446 102.358 133.4 103.89 133.354 105.421C133.214 110.293 132.982 115.165 132.75 120.037C132.426 126.486 132.101 132.936 131.776 139.339C131.405 146.346 131.034 153.306 130.616 160.312C130.245 166.854 129.874 173.397 129.502 179.939C129.224 184.997 128.946 190.008 128.621 195.066C128.482 197.571 128.342 200.077 128.157 202.536V202.861L128.853 202.165C128.574 202.258 129.038 202.118 128.853 202.165L128.621 202.211C128.482 202.258 128.389 202.258 128.25 202.304C128.11 202.35 127.971 202.35 127.786 202.397L127.554 202.443C127.322 202.49 127.646 202.443 127.507 202.443C126.811 202.536 126.069 202.536 125.373 202.536C123.795 202.536 122.218 202.397 120.64 202.165C117.763 201.794 114.886 201.237 112.056 200.634C111.453 200.494 110.85 200.355 110.246 200.216L110.942 200.773L110.571 193.07L109.968 180.774L109.829 177.944C109.829 177.434 109.04 177.341 108.669 177.387C108.251 177.434 107.602 177.712 107.555 178.222L106.813 185.322L105.606 196.597L105.328 199.195L106.302 198.406C105.003 198.685 103.658 198.963 102.358 199.195C101.059 199.427 99.7136 199.659 98.4144 199.845C96.8832 200.077 95.6304 200.262 94.1456 200.402C92.7536 200.541 91.3152 200.634 89.9232 200.68C89.5984 200.68 89.2736 200.68 88.9952 200.68H88.5776H88.2992C87.7888 200.634 87.2784 200.587 86.768 200.494C86.7216 200.494 86.3968 200.402 86.536 200.448C86.6752 200.494 86.3968 200.402 86.3504 200.402C86.1648 200.355 85.9792 200.262 85.84 200.17C86.1184 200.309 85.7472 200.077 85.7008 200.077C85.6544 200.077 85.9328 200.309 85.7936 200.123C85.7472 200.077 85.7472 200.03 85.7472 200.03C85.7472 199.984 85.84 200.262 85.7472 200.077C85.7008 199.938 85.6544 199.845 85.6544 199.706C85.5152 198.87 85.4224 198.035 85.4224 197.2C85.4224 197.061 85.4224 196.922 85.4224 196.782C85.4224 196.736 85.4224 196.643 85.4224 196.597C85.4224 196.458 85.4224 196.643 85.4224 196.643C85.4224 196.597 85.4224 196.55 85.4224 196.504C85.4224 196.179 85.4224 195.854 85.4224 195.53C85.4224 194.787 85.4224 194.045 85.4688 193.349C85.5616 189.451 85.7936 185.554 86.072 181.656C86.4432 176.645 86.8144 171.634 87.2784 166.622C87.7888 161.101 88.2992 155.533 88.856 150.011C89.4128 144.536 89.9696 139.061 90.5264 133.586C91.0368 128.76 91.5472 123.981 92.104 119.155C92.5216 115.582 92.8928 112.056 93.3104 108.483C93.496 106.766 93.728 105.05 93.9136 103.333L93.96 103.101C94.0064 101.802 91.7328 101.987 91.64 103.008Z" fill="#000005"/>
<path id="Vector_23" d="M111.174 131.637L110.71 138.411L109.55 154.651L108.158 174.278L106.952 191.261C106.766 193.998 106.488 196.736 106.349 199.52C106.349 199.566 106.349 199.613 106.349 199.613C106.256 200.819 108.576 201.19 108.622 199.938L109.086 193.163L110.246 176.923L111.638 157.296L112.845 140.314C113.03 137.576 113.309 134.838 113.448 132.054C113.448 132.008 113.448 131.962 113.448 131.962C113.541 130.709 111.267 130.384 111.174 131.637Z" fill="white"/>
<path id="Vector_24" d="M77.1168 88.0208C77.1168 88.0208 49.7408 86.1648 53.9632 67.5584C58.1856 48.952 99.992 55.4016 114.376 58.5104C114.376 58.5104 162.91 51.1792 169.685 67.5584C176.459 83.9376 161.797 90.1088 149.64 90.944L136.973 88.5776L136.648 110.664C136.648 110.664 92.1968 109.736 90.5264 107.787C88.856 105.838 94.3776 87.928 94.3776 87.928L77.1168 88.0208Z" fill="white"/>
<path id="Vector_25" d="M76.7456 87.1392C75.4464 87.0464 74.1472 86.8608 72.848 86.6288L71.92 86.4432C71.8272 86.4432 71.688 86.3968 71.8736 86.4432L71.6416 86.3968L71.0848 86.304C70.3888 86.1648 69.6928 85.9792 68.9968 85.7936C68.3008 85.608 67.512 85.376 66.7232 85.0976C66.352 84.9584 65.9344 84.8192 65.5632 84.68L65.0528 84.4944L64.7744 84.4016C64.728 84.4016 64.6816 84.3552 64.6352 84.3552C63.8464 84.0304 63.104 83.6592 62.3616 83.288C61.9904 83.1024 61.6192 82.8704 61.248 82.6848L61.016 82.5456C60.9232 82.4992 60.784 82.4064 60.9696 82.4992C60.784 82.36 60.5984 82.2672 60.4128 82.128C60.088 81.896 59.7632 81.664 59.4384 81.432C59.2528 81.2928 59.1136 81.1536 58.928 81.0608L58.696 80.8752L58.6032 80.7824C58.464 80.6896 58.7424 80.9216 58.6032 80.7824C58.2784 80.504 58 80.2256 57.7216 79.9008C57.5824 79.7616 57.4432 79.6224 57.3504 79.4832L57.1648 79.2512L57.072 79.1584C56.8864 78.9264 57.1648 79.2512 57.0256 79.112C56.0512 77.9056 55.3088 76.4672 54.8912 74.936C54.4272 73.08 54.3808 71.1312 54.752 69.2752C55.2624 66.0736 56.9328 63.1968 59.5312 61.248C62.3616 59.1136 65.7952 57.9072 69.2288 57.1648C73.3584 56.3296 77.5808 55.8656 81.8032 55.8656C86.304 55.8192 90.8048 56.0512 95.3056 56.5152C99.3888 56.9328 103.426 57.4432 107.416 58.1392C109.086 58.4176 110.71 58.7424 112.334 59.0672L112.845 59.16H112.938L113.216 59.2064L114.19 59.392C114.469 59.4848 114.747 59.4848 115.026 59.4848C116.464 59.2992 117.949 59.1136 119.387 58.928C122.357 58.6032 125.326 58.3248 128.342 58.1392C132.147 57.9072 135.952 57.8144 139.803 57.8608C143.84 57.9072 147.83 58.232 151.821 58.7888C153.63 59.0208 155.44 59.392 157.25 59.856C158.085 60.088 158.92 60.32 159.755 60.5984C160.173 60.7376 160.59 60.8768 160.962 61.016L161.24 61.1088C161.286 61.1088 161.333 61.1552 161.379 61.1552L161.936 61.3872C162.678 61.712 163.374 62.0832 164.07 62.5008L164.302 62.64C164.488 62.7792 164.302 62.64 164.349 62.6864L164.813 63.0112C165.138 63.2432 165.416 63.4288 165.694 63.6608L166.112 63.9856L166.251 64.0784C166.251 64.0784 166.066 63.9392 166.158 64.032L166.39 64.2176C166.669 64.4496 166.901 64.728 167.133 64.96C167.226 65.0992 167.365 65.192 167.458 65.3312C167.272 65.0992 167.597 65.5168 167.643 65.6096C167.829 65.888 168.014 66.1664 168.2 66.4912L168.293 66.6768C168.386 66.8624 168.246 66.584 168.339 66.7696C168.432 66.9552 168.478 67.0944 168.571 67.2336C168.85 67.8368 169.082 68.4864 169.267 69.0896C169.731 70.3424 170.01 71.6416 170.195 72.9872C170.52 75.168 170.242 77.3952 169.453 79.4832C167.875 83.4272 164.21 85.9792 160.451 87.5568C158.363 88.392 156.229 89.0416 154.002 89.4592C152.888 89.6912 151.774 89.8304 150.661 89.9696L149.826 90.0624L149.454 90.1088C149.362 90.1088 148.99 90.1088 149.222 90.1552C149.13 90.1552 149.037 90.1088 148.99 90.1088L139.293 88.2992L136.555 87.7888C136.277 87.7424 135.952 87.928 135.906 88.2064C135.906 88.2528 135.906 88.2992 135.906 88.392L135.813 95.8624L135.627 107.741L135.581 110.478L136.23 109.922C133.493 109.875 130.709 109.782 127.971 109.69C122.125 109.504 116.278 109.318 110.386 109.04C105.096 108.808 99.76 108.576 94.4704 107.926C93.6352 107.834 92.8 107.741 92.0112 107.602C91.9184 107.602 91.3616 107.462 91.7792 107.555L91.3616 107.462C91.2688 107.416 91.1296 107.416 90.9904 107.37C90.8512 107.323 90.48 107.184 90.944 107.37C90.8048 107.323 90.5728 107.138 90.9904 107.416C90.8048 107.277 91.2688 107.741 91.2224 107.694C91.176 107.648 91.3616 107.973 91.2224 107.741C91.1296 107.555 91.2224 107.648 91.2224 107.741C91.176 107.555 91.176 107.37 91.1296 107.184C91.0832 106.163 91.176 105.142 91.3616 104.122C92.1504 98.9712 93.6352 93.9136 95.1664 88.9488C95.2128 88.856 95.2128 88.7168 95.2592 88.624C95.4448 87.9744 94.4704 87.232 93.9136 87.232L78.7408 87.3248L76.7456 87.1392C75.3536 87.1856 76.5136 88.9488 77.4416 88.9488L92.6144 88.856H94.7488L93.4032 87.464C91.9648 92.0112 90.7584 96.6048 89.784 101.291C89.5056 102.544 89.32 103.843 89.2272 105.142C89.1808 106.024 89.1344 107.091 89.6448 107.88C90.3872 109.086 92.104 109.226 93.4032 109.458C98.3216 110.2 103.333 110.386 108.251 110.664C114.376 110.989 120.501 111.221 126.579 111.406C130.013 111.499 133.446 111.638 136.88 111.685H137.019C137.437 111.685 137.669 111.499 137.669 111.128L137.762 103.658L137.947 91.7792L137.994 89.0416L137.344 89.5984L146.578 91.2688C147.691 91.5472 148.851 91.7328 150.011 91.9184C150.568 91.9184 151.125 91.872 151.682 91.7792C152.285 91.7328 152.888 91.64 153.491 91.5472C154.651 91.3616 155.858 91.1296 157.018 90.8512C161.518 89.784 166.112 87.8352 169.267 84.3088C170.752 82.6384 171.726 80.6432 172.19 78.4624C172.654 75.8176 172.469 73.1264 171.68 70.5744C171.17 68.5328 170.288 66.6304 169.082 64.96C168.014 63.6608 166.762 62.5008 165.37 61.6192C162.168 59.5776 158.549 58.3712 154.883 57.6288C150.661 56.7936 146.392 56.2832 142.123 56.144C137.901 55.9584 133.678 56.0512 129.41 56.2368C126.022 56.4224 122.635 56.6544 119.294 57.0256C117.578 57.2112 115.814 57.3968 114.098 57.6752L113.866 57.7216L114.376 57.768C111.174 57.072 108.019 56.4688 104.818 56.0048C100.734 55.3552 96.6512 54.8448 92.568 54.52C88.16 54.1488 83.7056 54.0096 79.2512 54.1488C75.168 54.2416 71.0848 54.752 67.0944 55.68C63.7536 56.5152 60.3664 57.768 57.6752 59.9952C55.1232 62.0832 53.4064 65.0064 52.896 68.2544C52.2 71.92 52.9888 75.7248 55.0768 78.8336C57.072 81.664 59.9952 83.752 63.0576 85.2368C65.888 86.5824 68.8112 87.5568 71.8736 88.16C73.6832 88.5776 75.4928 88.856 77.3488 89.0416H77.6272C77.9056 89.088 78.2304 88.9024 78.2768 88.624C78.3232 88.4848 78.2768 88.392 78.2304 88.2528C77.8592 87.5568 77.3488 87.1856 76.7456 87.1392Z" fill="#000005"/>
<path id="Vector_26" d="M148.805 71.2704C148.805 71.2704 142.448 71.3632 140.174 68.4864C137.901 65.6096 138.69 58.1856 134.792 57.9536C130.894 57.7216 130.894 65.3776 131.498 68.4864C131.498 68.4864 118.134 64.6816 120.037 72.9408C120.037 72.9408 115.397 73.8224 118.738 79.344C118.738 79.344 116.603 80.8288 118.784 85.0048C120.965 89.1808 133.446 95.6304 149.733 90.8976C149.686 90.944 154.512 74.2864 148.805 71.2704Z" fill="white"/>
<path id="Vector_27" d="M148.202 70.5744C146.438 70.6208 144.722 70.3424 143.051 69.7856C142.541 69.6 142.077 69.368 141.659 69.0432C141.288 68.7184 140.963 68.3472 140.731 67.9296C140.221 66.816 139.803 65.6096 139.571 64.3568C139.014 62.0368 138.597 59.16 136.323 57.9072C135.21 57.304 133.771 57.0256 132.565 57.5824C131.637 58.0464 131.08 59.0672 130.709 60.0416C129.827 62.5472 129.874 65.5632 130.338 68.1616L131.312 67.9296C129.734 67.512 128.157 67.1872 126.533 67.048C124.306 66.8624 121.243 66.7696 119.619 68.5328C118.598 69.6464 118.598 71.224 118.923 72.616L119.202 72.2912C118.366 72.4768 117.578 72.9408 117.067 73.5904C115.722 75.2608 116.789 77.5808 117.717 79.1584L117.763 78.7408C116.603 79.576 116.557 81.432 116.882 82.6384C117.392 84.4944 118.459 86.1648 119.944 87.3248C123.61 90.3872 128.482 91.9648 133.122 92.7072C136.23 93.2176 139.432 93.3104 142.587 92.9856C144.35 92.8 146.114 92.568 147.877 92.1504C148.341 92.0576 148.805 91.9648 149.269 91.8256C149.733 91.7328 150.197 91.64 150.614 91.4544C150.8 91.3616 150.754 91.3152 150.8 91.176C151.125 90.1552 151.403 89.1344 151.542 88.0672C151.96 86.1648 152.285 84.2624 152.47 82.3136C152.702 80.272 152.702 78.2304 152.47 76.2352C152.238 74.5648 151.682 72.848 150.429 71.6416C150.058 71.3168 149.686 71.0384 149.269 70.8064C148.944 70.6208 148.155 70.2496 147.83 70.5744C147.506 70.8992 148.109 71.3632 148.341 71.456L148.573 71.5952C148.805 71.7344 148.387 71.456 148.619 71.6416L148.758 71.7344C148.99 71.92 148.619 71.5952 148.805 71.7808C148.99 71.9664 149.176 72.1984 149.315 72.4304C149.686 72.9872 149.918 73.6368 150.104 74.2864C150.475 75.864 150.614 77.4416 150.522 79.0656C150.382 82.2208 149.918 85.3296 149.176 88.392C148.99 89.0416 148.851 89.7376 148.666 90.3872L148.898 90.2016C142.541 92.0112 135.674 92.4752 129.224 90.712C128.064 90.3872 126.904 90.016 125.744 89.5056C124.77 89.088 123.842 88.624 122.96 88.0672C122.589 87.8352 122.264 87.6032 121.939 87.3712C121.754 87.232 121.614 87.0928 121.429 86.9536C121.336 86.9072 121.29 86.8608 121.197 86.768L121.058 86.6288C121.104 86.6752 121.15 86.6752 121.058 86.6288C120.594 86.2112 120.176 85.7008 119.805 85.1904C119.109 84.0304 118.552 82.4528 118.877 81.0608C118.97 80.5504 119.248 80.0864 119.619 79.7616C119.758 79.6688 119.758 79.4832 119.666 79.344C118.83 77.952 117.856 75.8176 119.109 74.3328C119.434 74.008 119.805 73.7296 120.222 73.544C120.222 73.544 120.222 73.544 120.408 73.4976L120.594 73.4512C120.64 73.4512 120.733 73.4048 120.779 73.4048C120.918 73.3584 121.058 73.2656 121.058 73.08C120.779 71.92 120.733 70.6208 121.475 69.6464C122.078 68.904 122.96 68.44 123.888 68.3008C125.002 68.0688 126.115 68.0224 127.275 68.1616H127.461C127.275 68.1616 127.507 68.1616 127.507 68.1616L127.925 68.208C128.203 68.2544 128.482 68.2544 128.76 68.3008C129.224 68.3472 129.688 68.44 130.152 68.5328L130.802 68.672C131.08 68.7184 130.57 68.6256 130.848 68.672L131.08 68.7184L131.498 68.8112C131.73 68.8576 132.565 69.0432 132.472 68.5792C132.008 66.2592 132.054 63.8464 132.565 61.5264C132.797 60.552 133.168 59.4384 134.003 58.7888C134.328 58.5568 134.699 58.3712 135.117 58.3712C135.21 58.3712 135.256 58.3712 135.349 58.3712C135.581 58.3712 135.349 58.3712 135.488 58.4176C135.256 58.3248 135.442 58.4176 135.488 58.4176C135.488 58.4176 135.302 58.3248 135.442 58.3712C135.349 58.2784 135.581 58.464 135.488 58.4176C136.23 59.1136 136.555 60.2736 136.834 61.248C137.158 62.4544 137.39 63.7536 137.762 64.96C138.04 66.12 138.504 67.2336 139.2 68.208C140.128 69.2752 141.334 70.064 142.68 70.528C144.814 71.3168 147.088 71.7344 149.408 71.7344C149.872 71.7344 149.965 71.4096 149.686 71.0848C149.315 70.8528 148.758 70.6208 148.202 70.5744Z" fill="#000005"/>
<path id="Vector_28" d="M128.714 78.7408C128.482 78.6944 128.25 78.6016 128.018 78.4624C127.507 78.2304 126.997 77.9984 126.533 77.72C125.141 76.9776 123.842 76.0032 122.728 74.8432C122.078 74.1472 121.522 73.3584 121.104 72.5232C120.965 72.2448 118.877 73.2192 119.016 73.4976C120.315 76.2816 123.192 78.184 125.883 79.4368C126.162 79.576 126.44 79.7152 126.765 79.808C126.95 79.808 127.136 79.7616 127.275 79.7152C127.554 79.6224 127.832 79.4832 128.11 79.344C128.157 79.2512 128.899 78.7872 128.714 78.7408Z" fill="#000005"/>
<path id="Vector_29" d="M127.739 84.0768C126.672 83.7984 125.651 83.4272 124.677 82.9632C122.821 82.128 120.965 80.968 119.898 79.2512C119.712 78.9728 118.97 79.112 118.691 79.1584C118.598 79.1584 117.485 79.3904 117.578 79.5296C119.155 82.0816 122.218 83.4736 125.002 84.3552C125.28 84.448 125.512 84.4944 125.79 84.5872C126.301 84.68 126.858 84.6336 127.368 84.4944C127.507 84.448 128.203 84.216 127.739 84.0768Z" fill="#000005"/>
<path id="Vector_30" d="M127.229 71.8736C127.971 72.1984 128.714 72.4768 129.502 72.7088C130.059 72.8944 130.662 73.0336 131.266 73.1264C131.822 73.2192 132.426 73.2192 132.982 73.08C133.632 72.8944 133.4 72.0592 133.122 71.6416C133.075 71.5488 132.982 71.456 132.936 71.3632C132.89 71.2704 132.89 71.2704 132.89 71.2704C133.122 71.6416 132.982 71.4096 132.936 71.3168C132.89 71.224 132.797 71.0384 132.75 70.8992L132.658 70.6672C132.658 70.6208 132.518 70.3424 132.658 70.6208C132.565 70.4352 132.518 70.2496 132.518 70.064C132.518 69.9712 132.472 69.832 132.472 69.7392C132.518 69.9712 132.472 69.6928 132.472 69.6464C132.472 69.6 132.472 69.4144 132.472 69.3216C132.472 69.2752 132.472 68.9504 132.472 69.136C132.518 68.5792 132.286 68.0224 131.822 67.6976C131.637 67.5584 131.405 67.4656 131.173 67.512C130.987 67.5584 130.802 67.6976 130.755 67.9296C130.662 69.5536 131.126 71.1776 132.054 72.5232L132.194 71.0848C131.962 71.1312 131.73 71.1776 131.498 71.1776H131.312H131.126C130.987 71.1776 130.848 71.1312 130.709 71.1312C130.43 71.0848 130.152 71.0384 129.827 70.9456C129.549 70.8992 129.27 70.8064 128.992 70.7136C129.038 70.7136 129.224 70.8064 128.992 70.7136L128.76 70.6208L128.389 70.4816L127.739 70.2496C127.554 70.1568 127.368 70.1104 127.182 70.0176C126.904 69.8784 126.579 69.9712 126.394 70.2032C126.347 70.296 126.301 70.4352 126.301 70.5744C126.347 71.1776 126.718 71.688 127.229 71.92V71.8736Z" fill="#000005"/>
<path id="Vector_31" d="M70.5744 64.4496C71.456 65.4704 72.4768 66.3984 73.5904 67.1872C75.7248 68.8112 78.3696 69.6464 81.0608 69.6C81.6176 69.6 82.0352 69.1824 82.0352 68.6256C82.0352 68.5792 82.0352 68.5792 82.0352 68.5328C81.8496 67.976 81.2928 67.6048 80.6896 67.6512C79.6224 67.6976 78.5088 67.4656 77.5344 67.048C76.56 66.6768 75.632 66.12 74.7968 65.4704C74.6112 65.3312 74.4256 65.192 74.24 65.0064L73.9616 64.7744L73.8688 64.6816C73.5904 64.4496 73.312 64.1712 73.08 63.9392C72.848 63.7072 72.616 63.4288 72.384 63.1968C71.5952 62.3152 69.6464 63.2432 70.5744 64.4496Z" fill="#000005"/>
<path id="Vector_32" d="M155.208 65.656C154.93 66.1664 154.605 66.6768 154.234 67.1408L154.002 67.4656L153.862 67.6048C153.77 67.6976 153.955 67.512 153.816 67.6512C153.584 67.8832 153.352 68.1152 153.12 68.3008C152.981 68.3936 152.888 68.5328 152.749 68.6256L152.563 68.7648C152.517 68.8112 152.285 68.9504 152.378 68.904C152.47 68.8576 152.285 68.9504 152.238 68.9968L152.053 69.136C151.867 69.2288 151.728 69.3216 151.542 69.4144L151.45 69.4608C151.45 69.4608 151.218 69.5536 151.357 69.5072L151.171 69.6C150.986 69.6928 150.754 69.7392 150.568 69.832C150.429 69.8784 150.661 69.832 150.661 69.832L150.429 69.8784L150.104 69.9248L149.733 69.9712C150.011 69.9248 149.686 69.9712 149.594 69.9712C149.13 70.0176 148.387 70.2032 148.294 70.7136C148.202 71.224 148.898 71.4096 149.269 71.3632C152.47 71.1776 155.208 69.2288 156.925 66.584C157.064 66.3984 157.157 66.1664 157.296 65.9808C157.853 64.9136 155.579 64.9136 155.208 65.656Z" fill="#000005"/>
<path id="Vector_33" d="M117.438 28.536C117.438 28.536 122.728 33.0368 127.6 32.1088C132.472 31.1808 141.659 28.0256 143.469 32.712C145.278 37.3984 139.014 40.136 134.699 39.9968C134.699 39.9968 137.762 52.664 130.755 57.304C123.749 61.944 119.898 60.3664 120.176 65.7024C120.176 65.7024 110.2 70.4352 107.694 60.7376C107.323 59.2528 102.683 46.4928 113.355 38.6512C113.355 38.6512 119.526 34.6144 117.438 28.536Z" fill="white"/>
<path id="Vector_34" d="M116.51 28.9072C118.227 30.3456 120.222 31.5056 122.357 32.248C124.074 32.8976 125.883 33.1296 127.739 32.944C129.085 32.7584 130.384 32.3872 131.73 32.1088C133.214 31.784 134.699 31.4592 136.184 31.2272C136.834 31.1344 137.53 31.0416 138.179 31.0416C138.504 31.0416 138.829 31.0416 139.154 31.0416C139.339 31.0416 139.478 31.0416 139.664 31.088H139.757L139.942 31.1344C140.082 31.1344 140.267 31.1808 140.406 31.2272L140.685 31.32L140.963 31.4128C141.01 31.4592 141.102 31.4592 141.149 31.5056C141.427 31.6448 141.056 31.4592 141.195 31.552C141.566 31.7376 141.891 32.0624 142.123 32.4336C142.726 33.4544 142.819 34.7536 142.262 35.8208C140.87 38.4192 137.205 39.44 134.514 39.3472C134.096 39.3472 133.4 39.5328 133.539 40.0896C134.328 43.2912 134.421 46.5856 133.91 49.8336C133.493 52.1536 132.565 54.5664 130.755 56.144C128.435 58.1856 125.373 59.2064 122.589 60.4128C121.568 60.8304 120.501 61.3408 119.805 62.2688C119.062 63.2432 118.97 64.5424 119.016 65.7488L119.434 65.0992C118.83 65.3776 118.227 65.6096 117.578 65.7488C117.346 65.7952 117.81 65.7024 117.531 65.7488L117.299 65.7952C117.16 65.8416 116.974 65.888 116.835 65.888C116.51 65.9344 116.186 66.0272 115.814 66.0736L115.304 66.12C115.536 66.12 115.026 66.12 114.933 66.12C114.747 66.12 114.562 66.12 114.376 66.12H114.144C114.098 66.12 113.68 66.0736 113.958 66.12C113.587 66.0736 113.262 66.0272 112.938 65.9344C113.216 65.9808 112.659 65.8416 112.566 65.7952L112.288 65.7024L112.102 65.6096C112.195 65.656 112.195 65.656 112.102 65.6096C111.406 65.2384 110.803 64.728 110.339 64.1248C109.411 62.9184 109.04 61.48 108.622 59.9952C107.694 56.9792 107.37 53.824 107.694 50.7152C108.205 46.1216 110.618 41.9456 114.376 39.2544C117.717 36.8416 119.99 32.8048 118.598 28.6752C118.366 28.1648 117.856 27.84 117.299 27.8864C116.928 27.8864 116.139 28.072 116.325 28.6288C117.067 30.8096 116.742 33.2688 115.443 35.1712C114.701 36.3312 113.726 37.3056 112.613 38.0944C108.715 40.832 106.163 45.0544 105.467 49.7408C105.05 53.128 105.328 56.5616 106.302 59.8096C106.72 61.2944 107.138 62.7792 107.973 64.0784C109.133 65.7952 110.85 66.9552 112.845 67.4192C115.397 68.0224 118.366 67.5584 120.733 66.4912L120.872 66.4448C121.15 66.352 121.336 66.0736 121.29 65.7952C121.15 64.8672 121.382 63.8928 121.893 63.0576C122.496 62.4544 123.192 61.9904 123.981 61.712C126.858 60.5056 129.92 59.392 132.333 57.3968C136.184 54.1952 136.694 48.6272 136.323 43.9408C136.23 42.6416 136.045 41.3888 135.766 40.0896L134.792 40.832C137.715 40.9248 141.149 40.0432 143.283 37.9088C144.35 36.9344 144.907 35.5424 144.814 34.1504C144.722 32.7584 144.026 31.5056 142.912 30.7168C140.499 29.0464 137.019 29.464 134.282 29.9744C132.75 30.2528 131.219 30.5776 129.688 30.9488C128.296 31.2736 126.858 31.6912 125.373 31.552C123.656 31.32 121.986 30.7168 120.501 29.7888C119.944 29.464 119.341 29.0928 118.83 28.6752C118.738 28.5824 118.645 28.536 118.506 28.4432C118.366 28.3504 118.691 28.5824 118.459 28.3968C118.413 28.3504 118.366 28.304 118.274 28.2576C117.856 27.8864 117.206 27.7472 116.65 27.9328C116.325 28.0256 116.139 28.3504 116.232 28.6752C116.371 28.7216 116.418 28.8144 116.51 28.9072Z" fill="#000005"/>
<path id="Vector_35" d="M103.658 56.84C103.658 56.84 97.9968 60.9696 95.6304 57.9536C93.264 54.9376 97.6256 54.1488 97.6256 54.1488C97.6256 54.1488 90.2016 48.9984 96.1408 45.1936C96.1408 45.1936 88.7168 41.992 91.0368 35.4032C93.3568 28.8144 103.008 28.7216 103.008 28.7216C103.008 28.7216 99.8064 21.2048 106.72 19.5808C113.634 17.9568 113.866 23.2 113.866 23.2C113.866 23.2 118.274 22.1328 119.434 24.6848C120.594 27.2368 117.81 29.5104 117.81 29.5104C117.81 29.5104 119.573 37.4448 113.402 38.6048L111.546 50.1584C111.546 50.1584 114.84 52.8032 114.098 57.1648C113.355 61.5264 105.282 61.8048 103.658 56.84Z" fill="#000005"/>
<path id="Vector_36" d="M102.637 56.9328C102.219 57.2576 101.755 57.536 101.291 57.768C100.92 58 100.502 58.1856 100.085 58.3712C99.8992 58.464 99.5744 58.5568 99.4816 58.6032C99.3888 58.6496 99.1104 58.696 99.2496 58.6496C99.2032 58.6496 99.1568 58.696 99.1104 58.696C98.0896 58.7888 97.0688 58.2784 96.5584 57.3968C96.048 56.608 95.8624 55.6336 96.6512 54.9376C96.7904 54.8448 96.9296 54.752 97.0688 54.6592C97.1616 54.6128 97.2544 54.5664 97.3472 54.52C97.1616 54.6128 97.44 54.52 97.4864 54.4736C97.672 54.4272 97.2544 54.52 97.5328 54.4736C97.8112 54.4272 97.44 54.4736 97.4864 54.4736C97.7648 54.4272 97.672 54.4272 97.3936 54.4736C97.4864 54.4736 99.0176 54.056 98.7392 53.8704C97.5792 53.0816 96.6048 52.0608 95.8624 50.9472C95.3056 50.1584 94.9808 49.184 95.0272 48.2096C95.12 46.864 96.1408 45.8896 97.208 45.1936C97.2544 45.1472 97.3936 45.0544 97.2544 44.9616C94.6096 43.8016 92.104 41.3424 91.7792 38.3728C91.5936 35.96 92.568 33.5936 94.3776 31.9696C95.1664 31.2736 96.048 30.7168 96.976 30.2992C97.3936 30.1136 97.8112 29.928 98.2752 29.7888L98.4608 29.7424L98.7856 29.6496L99.0176 29.6032L99.3424 29.5104L99.6672 29.4176L99.8992 29.3712L100.178 29.3248L100.502 29.2784L100.827 29.232H101.013H101.152H101.43C101.662 29.232 101.941 29.1856 102.173 29.1856C101.848 29.1856 102.126 29.1856 102.266 29.1856C102.451 29.1856 104.307 28.9072 104.168 28.5824C103.379 26.68 103.054 24.1744 103.982 22.272C105.421 19.4416 110.107 18.6992 112.01 21.4368C112.427 22.04 112.706 22.7824 112.752 23.5248C112.752 23.7568 113.866 23.5248 113.958 23.5248L114.098 23.4784H114.005L114.283 23.432L114.515 23.3856C114.237 23.432 114.562 23.3856 114.654 23.3856C114.84 23.3856 115.026 23.3392 115.165 23.3392C116.139 23.3392 117.206 23.5248 117.902 24.2208C118.83 25.1952 118.83 26.7264 118.274 27.84C118.042 28.304 117.763 28.7216 117.392 29.1392C117.253 29.2784 117.114 29.4176 117.021 29.5568C116.974 29.6032 116.742 29.7888 116.928 29.6496C116.882 29.696 116.789 29.7424 116.789 29.8352C117.067 31.088 117.114 32.3872 116.928 33.6864C116.835 34.7536 116.464 35.7744 115.907 36.656C115.35 37.5376 114.469 38.1872 113.448 38.4656C113.216 38.512 112.427 38.6512 112.381 38.976L110.618 49.9264C110.571 50.112 110.525 50.2976 110.525 50.5296C110.571 50.6224 110.664 50.7152 110.757 50.808C111.499 51.5504 112.102 52.3856 112.566 53.36C113.216 54.7984 113.494 56.6544 112.984 58.1392C112.613 59.1136 111.87 59.856 110.896 60.2272C110.71 60.2736 111.035 60.1808 110.85 60.2272C110.664 60.2736 110.989 60.1808 110.803 60.2272C110.618 60.2736 110.757 60.2272 110.803 60.2272C110.85 60.2272 110.478 60.2736 110.618 60.2736C110.339 60.32 110.061 60.32 109.829 60.2736C109.133 60.2272 108.483 60.088 107.88 59.8096C106.534 59.2528 105.467 58.1392 105.003 56.7008C104.864 56.2832 102.637 56.8864 102.73 57.2112C103.658 59.9952 106.627 61.1552 109.365 60.9696C110.942 60.9232 112.474 60.4128 113.773 59.5776C114.84 58.7888 115.49 57.536 115.49 56.1904C115.536 54.52 115.072 52.896 114.098 51.504C113.819 51.0864 113.494 50.7152 113.123 50.344C113.03 50.2512 112.938 50.1584 112.845 50.0656C112.752 49.9264 112.845 50.0656 112.845 50.0192C112.845 49.8336 112.891 49.648 112.938 49.416L113.123 48.1632L113.68 44.5904L114.654 38.4656L113.587 38.976C115.814 38.5584 117.856 37.4448 118.691 35.2176C119.248 33.6864 119.434 32.0624 119.202 30.4848C119.155 30.1136 119.109 29.7424 119.016 29.3712L118.877 29.5104C120.547 28.1184 121.893 25.1952 119.851 23.5248C118.32 22.272 115.675 22.5968 113.866 23.0144H115.072C115.026 22.272 114.794 21.576 114.376 20.9728C113.402 19.5344 111.731 19.024 110.061 19.024C108.53 19.024 107.045 19.256 105.606 19.7664C104.493 20.0912 103.472 20.6944 102.683 21.4832C101.523 22.6896 101.152 24.4064 101.291 25.984C101.384 27.0512 101.616 28.072 101.987 29.0928L103.89 28.4896C102.683 28.536 101.523 28.6288 100.363 28.8608C98.0432 29.232 95.7696 30.0672 93.728 31.2736C91.5936 32.5728 90.1088 34.7072 89.6912 37.12C89.32 39.44 90.2016 41.6208 91.8256 43.2448C92.8 44.2656 93.96 45.0544 95.2592 45.6112L95.3056 45.3792C94.192 46.1216 93.1712 47.0496 92.9392 48.3952C92.8 49.4624 93.0784 50.4832 93.6816 51.3648C94.4704 52.6176 95.5376 53.6848 96.744 54.52L98.0896 53.9168C96.4656 54.1952 93.2176 55.1696 94.192 57.4432C95.584 60.6912 99.992 59.392 102.405 58.2784C103.286 57.8608 104.122 57.3968 104.864 56.84C105.282 56.5616 104.539 56.5616 104.4 56.5616C103.658 56.5152 103.147 56.6544 102.637 56.9328Z" fill="#000005"/>
<path id="Vector_37" d="M114.886 39.7184C114.886 39.7184 112.01 34.9392 108.715 37.3984C105.421 39.8576 108.576 51.9216 114.979 48.9984" fill="white"/>
<path id="Vector_38" d="M115.768 39.44C114.886 37.9552 113.587 36.7952 112.01 36.0992C110.014 35.2176 107.648 36.1456 106.766 38.1408C106.766 38.1872 106.72 38.2336 106.72 38.2336C106.117 39.8576 106.256 41.76 106.627 43.4304C107.045 45.3792 107.973 47.2352 109.365 48.6736C110.989 50.344 113.448 50.8544 115.582 49.9264C116.789 49.3696 115.304 47.7456 114.33 48.1632C113.958 48.3488 113.587 48.4416 113.17 48.5344C113.17 48.5344 112.845 48.5808 112.706 48.5808H112.474C112.381 48.5808 112.427 48.5808 112.52 48.5808H112.334L112.056 48.5344C111.778 48.488 112.242 48.6272 111.963 48.5344C111.824 48.488 111.685 48.4416 111.546 48.3488C111.267 48.2096 111.731 48.488 111.499 48.3024L111.267 48.1632L111.128 48.0704C110.85 47.8848 111.128 48.1168 110.989 47.9776C110.85 47.8384 110.757 47.7456 110.618 47.6528L110.432 47.4208C110.618 47.6064 110.386 47.3744 110.386 47.328C110.154 47.0032 109.922 46.6784 109.69 46.3072C109.597 46.168 109.411 45.704 109.272 45.3792C109.133 45.008 108.994 44.5904 108.854 44.2192C108.437 42.8272 108.344 41.3424 108.622 39.9504C108.715 39.3936 108.947 38.8832 109.318 38.4656C109.226 38.5584 109.458 38.28 109.318 38.4656L109.458 38.3728C109.643 38.2336 109.875 38.0944 110.107 37.9552C110.478 37.7696 110.85 37.7232 111.267 37.7696C111.453 37.7696 111.638 37.8624 111.824 37.9552C112.149 38.0944 111.638 37.8624 111.963 38.048L112.242 38.2336C112.334 38.28 112.427 38.3728 112.52 38.4192C112.334 38.28 112.659 38.5584 112.706 38.6048C112.845 38.744 113.03 38.8832 113.17 39.0688L113.355 39.3008C113.216 39.1152 113.355 39.3008 113.402 39.3472C113.494 39.4864 113.634 39.6256 113.726 39.7648C113.819 39.904 113.912 39.9968 113.958 40.136C114.283 40.6464 114.886 40.8784 115.443 40.7392C116 40.5536 115.954 39.9968 115.722 39.5792L115.768 39.44Z" fill="#000005"/>
<path id="Vector_39" d="M127.414 44.6368C127.786 45.24 128.25 45.7968 128.76 46.3072C129.781 47.3744 131.126 48.0704 132.565 48.3024C133.586 48.4416 134.606 48.3024 135.581 47.8848C136.509 47.5136 135.395 46.2608 134.653 46.5392C134.282 46.6784 133.91 46.7712 133.539 46.864C133.214 46.9104 132.936 46.9104 132.611 46.9104C132.426 46.9104 132.286 46.864 132.101 46.8176C131.962 46.7712 132.147 46.864 132.008 46.8176L131.776 46.7248C131.637 46.6784 131.498 46.632 131.358 46.5856C131.219 46.5392 131.405 46.632 131.266 46.5392L131.034 46.4C130.894 46.3536 130.802 46.2608 130.662 46.168L130.477 46.0752C130.291 45.9824 130.523 46.1216 130.43 46.0288C130.198 45.8432 130.013 45.6576 129.827 45.472L129.595 45.24C129.549 45.1936 129.41 45.0544 129.502 45.1472C129.595 45.24 129.456 45.1008 129.456 45.0544C129.317 44.9152 129.224 44.776 129.085 44.5904C128.946 44.4048 128.853 44.2656 128.714 44.08C128.482 43.7088 128.018 43.5232 127.554 43.6624C127.182 43.8944 127.229 44.312 127.414 44.6368Z" fill="#000005"/>
<path id="Vector_40" d="M123.099 36.7488C123.663 36.7488 124.12 36.2918 124.12 35.728C124.12 35.1642 123.663 34.7072 123.099 34.7072C122.535 34.7072 122.078 35.1642 122.078 35.728C122.078 36.2918 122.535 36.7488 123.099 36.7488Z" fill="#000005"/>
<path id="Vector_41" d="M80.9216 68.672C80.9216 68.672 87.1856 69.6927 89.8768 67.2336C92.568 64.7743 92.8928 57.2576 96.744 57.5824C100.595 57.9072 99.4816 65.4704 98.4608 68.4864C98.4608 68.4864 112.242 66.6768 109.133 74.6112C109.133 74.6112 113.587 76.1424 109.458 81.1536C109.458 81.1536 111.36 82.9632 108.576 86.7216C105.792 90.48 92.4752 95.0736 77.1168 88.0208C77.1168 88.0208 74.7968 70.8064 80.9216 68.672Z" fill="white"/>
<path id="Vector_42" d="M79.9472 68.8576C81.9424 69.1824 83.984 69.1824 85.9792 68.904C87.464 68.7648 88.9024 68.3472 90.2016 67.6512C91.176 67.048 91.9184 66.12 92.336 65.0992C92.8928 63.9392 93.3568 62.7328 93.8208 61.5264C94.192 60.4128 94.7952 59.3456 95.4912 58.4176C95.6304 58.232 95.816 58.0928 96.0016 57.9536C96.1408 57.8144 96.4656 57.768 96.5584 57.6288C96.4656 57.7216 95.816 57.7216 95.816 57.7216L96.0944 57.768C96.3264 57.8144 96.512 57.9072 96.744 58.0464C97.6256 58.6032 97.9968 59.6704 98.136 60.6448C98.6 63.1968 98.136 66.12 97.3008 68.5328C97.2544 68.672 98.4608 68.5792 98.4608 68.5792H98.5536L99.4816 68.4864C99.76 68.4864 99.296 68.4864 99.5744 68.4864C99.6672 68.4864 99.76 68.4864 99.8992 68.4864C100.178 68.4864 100.41 68.4864 100.688 68.44H101.291C101.57 68.44 101.848 68.44 102.173 68.4864C104.075 68.5792 106.766 68.9968 107.926 70.8064C108.669 72.0128 108.437 73.4048 107.973 74.6576L108.019 74.704C108.715 74.936 109.318 75.4464 109.69 76.0496C110.71 77.7664 109.458 79.808 108.344 81.1072L108.298 81.1536C109.226 82.0816 108.994 83.752 108.53 84.8192C107.834 86.4896 106.627 87.8816 105.05 88.7168C101.291 90.8976 96.744 91.5008 92.4752 91.3152C89.2272 91.1296 86.072 90.5728 83.0096 89.552C82.2672 89.32 81.4784 89.0416 80.736 88.7632C80.3184 88.5776 79.9008 88.4384 79.4832 88.2528L78.8336 87.9744C78.648 87.928 78.416 87.8352 78.2304 87.7424C78.184 87.5568 78.1376 87.3248 78.184 87.1392C77.8128 84.1696 77.72 81.1536 77.9056 78.1376C77.952 76.096 78.3232 74.0544 78.9728 72.1056C79.4832 70.6208 80.3648 69.0896 81.9424 68.4864C82.4064 68.3008 81.5712 68.3008 81.4784 68.3008C80.9216 68.3008 80.4112 68.3936 79.9008 68.5792C77.4416 69.4608 76.5136 72.3376 76.0496 74.6576C75.5392 77.6272 75.3536 80.6896 75.5856 83.7056C75.632 84.7728 75.7248 85.8864 75.8176 86.9536C75.864 87.232 75.864 87.5104 75.9104 87.7888C75.9568 88.2064 76.1888 88.16 76.6064 88.3456C81.5248 90.5264 86.8608 91.7328 92.2432 91.7792C96.4656 91.8256 100.827 91.2688 104.725 89.6912C107.509 88.5776 110.154 86.9072 110.989 83.8448C111.221 83.1488 111.221 82.4064 111.035 81.7104C110.989 81.5248 110.896 81.3392 110.803 81.1536C110.757 81.0608 110.618 80.9216 110.571 80.8288C110.525 80.6432 111.128 80.0864 111.267 79.8544C111.592 79.3904 111.824 78.88 112.056 78.3696C112.334 77.6736 112.381 76.9312 112.195 76.2352C111.917 75.2608 111.174 74.8432 110.386 74.2864C110.339 74.2864 110.2 74.24 110.2 74.1936C110.2 74.24 110.386 73.8224 110.386 73.776C110.432 73.5904 110.525 73.3584 110.571 73.1264C110.71 72.5232 110.71 71.92 110.618 71.3168C110.107 68.9968 107.37 68.3008 105.374 68.0224C103.286 67.744 101.152 67.744 99.064 67.976L98.4144 68.0224L99.5744 68.0688C100.363 65.7952 100.688 63.336 100.502 60.9232C100.41 59.9024 100.178 58.7424 99.4816 57.9536C98.6464 57.0256 97.4864 56.9792 96.3264 57.1184C95.0736 57.2576 93.9136 57.5824 93.1248 58.6032C92.4288 59.5776 91.872 60.6448 91.4544 61.7584C90.5728 63.8928 89.8768 66.7696 87.5568 67.8368C86.3504 68.3936 85.376 68.44 84.0304 68.3936C83.288 68.3936 82.592 68.3008 81.8496 68.208C81.3392 68.1616 80.7824 68.208 80.272 68.3472C80.1792 68.5792 79.4832 68.8112 79.9472 68.8576Z" fill="#000005"/>
<path id="Vector_43" d="M101.43 79.808C101.894 79.7616 102.358 79.6688 102.822 79.5296C103.611 79.2976 104.4 78.9728 105.189 78.648C107.138 77.7664 109.086 76.5136 110.293 74.704C109.643 74.5184 108.994 74.472 108.344 74.472C108.251 74.472 108.066 74.472 107.973 74.5184C106.813 76.2816 104.91 77.488 103.054 78.3696C102.312 78.6944 101.523 79.0192 100.734 79.2512C100.456 79.344 100.224 79.3904 99.9456 79.4832L99.7136 79.5296C99.4816 79.576 99.76 79.5296 99.8528 79.5296C99.8528 79.5296 99.528 79.5296 99.4816 79.576C99.4352 79.6224 99.8528 79.6688 99.8064 79.6688C100.363 79.7616 100.874 79.808 101.43 79.808Z" fill="#000005"/>
<path id="Vector_44" d="M100.595 85.7936C101.848 85.6544 103.101 85.4224 104.307 85.0512C106.534 84.4016 108.762 83.3808 110.339 81.5712C110.664 81.2464 110.664 80.736 110.339 80.4112C110.293 80.3648 110.246 80.3184 110.2 80.272C109.643 80.04 108.994 80.2256 108.622 80.6896C108.53 80.7824 108.437 80.8752 108.344 81.0144L108.205 81.1536C108.298 81.0608 108.298 81.1072 108.205 81.1536C108.019 81.3392 107.834 81.4784 107.648 81.6176L107.323 81.8496C107.277 81.8496 106.906 82.128 107.138 81.9888C106.906 82.128 106.72 82.2208 106.488 82.36C106.024 82.592 105.606 82.7776 105.142 82.9632C105.05 83.0096 104.864 83.056 105.05 83.0096L104.678 83.1488C104.446 83.1952 104.261 83.288 104.029 83.3344C103.286 83.52 102.544 83.7056 101.802 83.8448L101.384 83.8912C101.106 83.9376 101.662 83.8448 101.338 83.8912C101.245 83.8912 101.152 83.9376 101.059 83.9376C100.456 83.9376 99.9456 84.3552 99.76 84.912C99.7136 85.376 99.992 85.7472 100.456 85.84C100.41 85.7936 100.502 85.7936 100.595 85.7936Z" fill="#000005"/>
<path id="Vector_45" d="M101.894 70.6672C101.848 70.6672 101.802 70.7136 101.709 70.7136L101.894 70.6672L101.802 70.7136L101.57 70.76C101.106 70.8528 100.595 70.9456 100.131 71.0384C99.8528 71.0848 99.5744 71.1312 99.296 71.1312L98.832 71.1776C98.6 71.1776 99.1104 71.1776 98.8784 71.1776H98.6464C98.368 71.1776 98.136 71.1776 97.8576 71.1312C97.672 71.0848 98.136 71.1776 97.904 71.1312L97.7184 71.0848L97.5792 71.0384C97.3936 70.992 97.8576 71.1776 97.6256 71.0384L97.8112 72.2912C98.832 71.2704 99.4352 69.9248 99.5744 68.4864C99.6208 67.976 99.2032 67.5584 98.6928 67.512C98.6464 67.512 98.6464 67.512 98.6 67.512C98.136 67.512 97.3008 67.744 97.3008 68.3472C97.3008 68.5792 97.2544 68.7648 97.208 68.9968C97.208 69.0896 97.1616 69.1824 97.1152 69.3216C97.0688 69.4608 97.0688 69.4144 97.0688 69.4608C97.1152 69.368 97.1152 69.368 97.0688 69.4608C96.9296 69.832 96.744 70.1568 96.5584 70.4816C96.4656 70.6208 96.3728 70.76 96.28 70.8528C96.1872 70.9456 96.4192 70.6672 96.28 70.8528L96.1872 70.992C96.0944 71.0848 96.048 71.1776 95.9552 71.2704C95.6304 71.5952 95.6304 72.0592 95.9552 72.384C96.0016 72.4304 96.0944 72.4768 96.1872 72.5232C97.44 73.1264 98.9248 72.9872 100.27 72.8016C101.106 72.6624 101.941 72.4768 102.776 72.2448C103.24 72.1056 103.704 71.5024 103.426 71.0384C103.054 70.6208 102.405 70.4352 101.894 70.6672Z" fill="#000005"/>
<path id="Vector_46" d="M55.9584 93.0784L58.1392 89.552C58.232 89.3664 58.232 89.1344 58.0928 88.9488C57.9072 88.7632 57.7216 88.6704 57.4432 88.6704C56.8864 88.624 56.2832 88.856 55.9584 89.32L53.7776 92.8464C53.6848 93.032 53.6848 93.264 53.824 93.4496C54.0096 93.6352 54.1952 93.728 54.4736 93.728C55.0768 93.8208 55.6336 93.5424 55.9584 93.0784Z" fill="#518C3C"/>
<path id="Vector_47" d="M62.0832 89.9232V96.1872C62.0832 96.744 62.3616 97.3008 62.8256 97.672C63.1968 97.904 63.7072 97.7648 63.7072 97.2544V90.9904C63.7072 90.4336 63.4752 89.8768 62.9648 89.5056C62.5936 89.2736 62.0832 89.4128 62.0832 89.9232Z" fill="#518C3C"/>
<path id="Vector_48" d="M151.914 96.9296C151.96 99.3888 152.424 101.848 153.259 104.168C153.445 104.725 153.909 105.096 154.466 105.235C155.022 105.282 155.022 104.725 154.883 104.307C154.187 102.266 153.77 100.178 153.723 98.0432C153.677 97.4864 153.352 96.976 152.888 96.6976C152.563 96.4656 151.914 96.3264 151.914 96.9296Z" fill="#518C3C"/>
<path id="Vector_49" d="M158.781 96.0016C161.054 98.4144 163.56 100.549 166.251 102.451C166.622 102.73 167.272 102.869 167.504 102.358C167.736 101.848 167.318 101.245 166.901 100.966C164.349 99.2032 162.029 97.1616 159.894 94.888C159.57 94.5632 158.92 94.2384 158.502 94.6096C158.085 94.9808 158.456 95.6768 158.781 96.0016Z" fill="#518C3C"/>
</g>
</g>
</svg>
