<svg width="160" height="160" viewBox="0 0 160 160" fill="none" xmlns="http://www.w3.org/2000/svg">
<g id="Message Sent 1 1">
<g id="character">
<path id="Vector" d="M126.592 128.704C126.592 128.704 133.248 137.056 133.472 136.832C133.696 136.608 137.024 133.536 137.024 133.536L134.208 130.336L138.976 132.384L149.792 121.76C149.792 121.76 149.152 120.288 145.44 121.248C141.728 122.208 136.032 124.032 136.032 124.032L131.776 119.36L126.592 128.704Z" fill="#000005"/>
<path id="Vector_2" d="M126.432 128.8C127.776 130.496 129.152 132.16 130.528 133.824C131.296 134.752 132.064 135.68 132.896 136.544C133.024 136.704 133.248 136.992 133.472 136.992C133.76 137.024 134.144 136.512 134.336 136.352C135.296 135.456 136.288 134.528 137.248 133.632C137.28 133.6 137.312 133.536 137.28 133.472L134.464 130.272L134.144 130.464L138.912 132.512C139.008 132.544 139.104 132.544 139.2 132.448L142.848 128.864L148.672 123.104L150.016 121.792C150.048 121.76 150.08 121.696 150.048 121.632C149.856 121.344 149.6 121.12 149.28 120.992C148.288 120.544 147.104 120.704 146.08 120.928C144.704 121.216 143.328 121.664 141.952 122.048C140.672 122.432 139.392 122.816 138.112 123.2C137.44 123.424 136.736 123.616 136.064 123.84L136.288 123.872L132 119.2C131.872 119.136 131.744 119.168 131.648 119.264L127.04 127.52L126.4 128.672C126.304 128.864 126.688 128.896 126.752 128.736L131.296 120.512L131.936 119.36L131.584 119.424L135.872 124.096C135.936 124.16 136.032 124.128 136.096 124.128C137.696 123.616 139.328 123.104 140.928 122.656C142.24 122.272 143.552 121.888 144.896 121.536C146.08 121.216 147.392 120.864 148.608 121.184C148.96 121.28 149.44 121.472 149.6 121.824L149.632 121.696L145.984 125.28L140.16 131.04L138.816 132.352L139.104 132.288L134.336 130.24C134.24 130.208 133.888 130.272 134.048 130.432L136.864 133.632L136.896 133.472L134.528 135.68L133.824 136.32C133.696 136.448 133.472 136.576 133.376 136.736C133.28 136.896 133.568 136.704 133.568 136.736C133.568 136.768 133.504 136.704 133.472 136.672C133.376 136.576 133.28 136.48 133.184 136.384C131.424 134.528 129.888 132.512 128.288 130.528C127.776 129.92 127.296 129.28 126.784 128.672C126.688 128.512 126.304 128.64 126.432 128.8Z" fill="#000005"/>
<path id="Vector_3" d="M51.2 117.664C51.2 117.664 40.576 116.48 40.576 116.768C40.576 117.056 40.416 121.6 40.416 121.6L44.672 121.888L39.84 123.808L39.712 138.976C39.712 138.976 41.216 139.552 43.168 136.256C45.12 132.96 47.84 127.648 47.84 127.648L54.176 127.936L51.2 117.664Z" fill="#000005"/>
<path id="Vector_4" d="M51.296 117.504C49.152 117.28 47.04 117.056 44.928 116.832C43.712 116.704 42.496 116.576 41.28 116.544C41.024 116.512 40.768 116.512 40.512 116.608C40.256 116.768 40.384 117.376 40.384 117.632C40.352 118.944 40.288 120.288 40.256 121.6C40.256 121.696 40.32 121.728 40.416 121.76L44.672 122.048L44.64 121.792L39.808 123.712C39.776 123.712 39.68 123.776 39.68 123.84L39.616 128.96L39.552 137.152V139.008C39.552 139.072 39.584 139.104 39.616 139.136C39.968 139.232 40.352 139.2 40.672 139.072C41.696 138.688 42.464 137.76 43.04 136.864C43.808 135.68 44.48 134.368 45.184 133.12C45.824 131.936 46.464 130.752 47.104 129.568C47.424 128.96 47.744 128.352 48.064 127.744L47.872 127.84L54.208 128.128C54.272 128.128 54.464 128.064 54.432 127.936L51.84 118.912L51.488 117.632C51.424 117.44 51.04 117.536 51.104 117.696L53.664 126.72L54.016 128L54.24 127.808L47.904 127.52C47.808 127.52 47.744 127.552 47.68 127.616C46.944 129.056 46.176 130.496 45.376 131.936C44.736 133.088 44.096 134.24 43.456 135.392C42.816 136.512 42.144 137.76 41.056 138.496C40.8 138.688 40.48 138.816 40.16 138.848C40.096 138.848 39.968 138.816 39.904 138.848C39.84 138.88 39.808 138.816 39.84 138.848L39.904 138.976L39.968 133.856L40.032 125.664V123.808L39.904 123.936L44.736 122.016C44.928 121.952 44.864 121.76 44.704 121.76L40.448 121.472L40.608 121.632C40.64 120.544 40.672 119.456 40.704 118.4C40.704 118.08 40.736 117.76 40.736 117.472C40.768 117.28 40.768 117.088 40.768 116.864V116.8L40.672 116.896C40.672 116.896 40.704 116.896 40.736 116.896C40.864 116.896 41.024 116.896 41.152 116.896C43.68 116.96 46.24 117.312 48.768 117.568C49.568 117.664 50.336 117.728 51.136 117.824C51.328 117.824 51.552 117.536 51.296 117.504Z" fill="#000005"/>
<path id="Vector_5" d="M105.568 113.952L126.944 132.032L136.288 121.44L110.848 97.6001L105.568 113.952Z" fill="white"/>
<path id="Vector_6" d="M105.184 114.592L107.296 116.384L112.416 120.704L118.592 125.92L123.936 130.432C124.8 131.168 125.632 131.936 126.528 132.608L126.56 132.64C126.816 132.864 127.2 132.832 127.456 132.608L130.624 129.024L135.648 123.328L136.8 122.016C137.12 121.664 137.088 121.12 136.736 120.8C136.704 120.8 136.704 120.768 136.672 120.768L134.144 118.4L128.064 112.704L120.736 105.824L114.4 99.872L112.288 97.92C111.968 97.6 111.648 97.28 111.296 96.992L111.264 96.96C110.976 96.736 110.528 96.768 110.304 97.056C110.24 97.12 110.208 97.216 110.176 97.28L108.384 102.816L105.536 111.616L104.896 113.632C104.608 114.528 105.984 115.168 106.304 114.208L108.096 108.672L110.944 99.872L111.584 97.856L110.496 98.208L113.024 100.576L119.104 106.272L126.432 113.152L132.768 119.104L134.88 121.056C135.2 121.376 135.52 121.696 135.872 121.984L135.904 122.016L135.776 120.768L132.608 124.352L127.584 130.016L126.432 131.328L127.328 131.296L125.184 129.504L120.064 125.184L113.92 120.064L108.576 115.552C107.712 114.816 106.88 114.048 105.984 113.376L105.952 113.344C105.664 113.12 105.216 113.152 104.992 113.44C104.992 113.472 104.96 113.472 104.96 113.504C104.736 113.888 104.864 114.336 105.184 114.592Z" fill="#000005"/>
<path id="Vector_7" d="M86.656 116.672C86.656 116.672 86.912 127.744 80.704 129.92C74.496 132.096 51.328 129.696 51.328 129.696L47.2 116.672H86.656Z" fill="white"/>
<path id="Vector_8" d="M85.856 116.832V116.864C85.856 116.992 85.856 116.768 85.856 116.832C85.856 116.992 85.856 117.152 85.856 117.28C85.856 117.792 85.824 118.304 85.792 118.816C85.664 120.384 85.408 121.92 84.992 123.456C84.544 125.056 83.808 126.688 82.688 127.904C82.176 128.48 81.536 128.96 80.8 129.28C80.64 129.344 80.448 129.408 80.288 129.472L80.096 129.536L80.192 129.504L80.032 129.536C79.744 129.6 79.456 129.664 79.2 129.728C78.496 129.856 77.792 129.952 77.12 130.016L76.832 130.048H76.704C76.736 130.048 76.864 130.048 76.704 130.048L76.096 130.08C75.68 130.112 75.232 130.144 74.816 130.144C72.928 130.24 71.04 130.24 69.152 130.208C65.344 130.144 61.568 129.92 57.792 129.632C56.384 129.536 55.008 129.408 53.6 129.28C52.928 129.216 52.224 129.12 51.552 129.088H51.456L52.128 129.536L50.72 125.152L48.48 118.112L47.968 116.512L47.072 117.248H81.664C83.264 117.248 84.864 117.28 86.464 117.248H86.528C86.88 117.248 87.36 117.056 87.424 116.672C87.488 116.288 87.072 116.064 86.752 116.064H52.128C50.528 116.064 48.928 116.032 47.328 116.064H47.264C46.944 116.064 46.24 116.352 46.368 116.8L47.776 121.184L50.016 128.224L50.528 129.824C50.624 130.112 50.912 130.304 51.2 130.272C52.992 130.464 54.752 130.592 56.544 130.752C60.352 131.04 64.16 131.264 68 131.36C71.584 131.456 75.264 131.52 78.816 130.944C80.32 130.688 81.792 130.272 83.008 129.312C84.416 128.128 85.472 126.56 86.08 124.832C87.008 122.272 87.456 119.552 87.424 116.8V116.512C87.424 116.128 86.816 116.032 86.528 116.064C86.144 116.128 85.856 116.448 85.856 116.832Z" fill="#000005"/>
<path id="Vector_9" d="M103.04 122.336L12.608 122.144L35.104 73.792L125.536 73.984L103.04 122.336Z" fill="#518C3C"/>
<path id="Vector_10" d="M103.04 122.208H100.608H94.016L84.32 122.176L72.448 122.144L59.424 122.112L46.336 122.08L34.08 122.048L23.776 122.016H16.32C15.136 122.016 13.952 121.984 12.8 122.016H12.64L13.44 122.144L15.68 117.344L21.024 105.76L27.52 91.84L33.152 79.744L35.008 75.744L35.584 74.528C35.712 74.304 35.808 74.08 35.904 73.856C35.904 73.824 35.936 73.792 35.936 73.792L35.136 73.92H37.568L44.16 73.952L53.856 73.984L65.728 74.016L78.752 74.048L91.84 74.08L104.096 74.112L114.4 74.144L121.856 74.176C123.04 74.176 124.224 74.208 125.376 74.176H125.536L124.736 74.048L122.496 78.848L117.12 90.368L110.624 104.32L104.992 116.416L103.136 120.416L102.56 121.6C102.432 121.792 102.304 122.016 102.24 122.272C102.24 122.304 102.208 122.336 102.208 122.368C102.208 122.336 103.648 122.688 103.808 122.336L106.048 117.536L111.424 105.984L117.92 92.064L123.552 79.968L125.408 75.968L125.984 74.752C126.112 74.56 126.24 74.336 126.304 74.08C126.304 74.048 126.336 74.016 126.336 73.984C126.368 73.888 125.536 73.856 125.536 73.856H123.104H116.512L106.816 73.824L94.944 73.792L81.92 73.76L68.832 73.728L56.576 73.696L46.272 73.664L38.816 73.632C37.632 73.632 36.48 73.632 35.296 73.632H35.136C34.976 73.632 34.432 73.6 34.336 73.76L32.096 78.56L26.72 90.08L20.224 104L14.592 116.096L12.736 120.096L12.16 121.312C12.032 121.504 11.904 121.728 11.84 121.984C11.84 122.016 11.808 122.048 11.808 122.08C11.776 122.176 12.608 122.208 12.608 122.208H15.04H21.632L31.328 122.24L43.232 122.272L56.256 122.304L69.344 122.336L81.6 122.368L91.904 122.4H99.36C100.544 122.4 101.728 122.4 102.88 122.4H103.04C103.136 122.4 103.84 122.4 103.84 122.272C103.84 122.144 103.072 122.208 103.04 122.208Z" fill="#518C3C"/>
<path id="Vector_11" d="M36.672 75.8399L39.904 78.5279L47.648 84.9599L56.992 92.7039L65.056 99.3919C66.368 100.48 67.648 101.632 68.992 102.656L69.056 102.688C69.184 102.816 69.408 102.848 69.568 102.784L71.008 102.08L74.944 100.16L80.736 97.2799L87.808 93.8239L95.552 90.0159L103.392 86.1759L110.688 82.5919L116.832 79.5839L121.28 77.4079C121.952 77.0559 122.72 76.7679 123.392 76.3839C123.424 76.3519 123.456 76.3519 123.488 76.3519C123.936 76.1279 123.04 74.8159 122.496 75.1039L121.056 75.8079L117.12 77.7279L111.36 80.5759L104.288 84.0319L96.512 87.8719L88.672 91.7119L81.376 95.2959L75.232 98.3039L70.784 100.48C70.048 100.8 69.376 101.12 68.672 101.504C68.64 101.536 68.608 101.536 68.576 101.536L69.088 101.632L65.856 98.9439L58.112 92.5439L48.736 84.7999L40.672 78.1119C39.36 77.0239 38.08 75.8719 36.736 74.8479L36.672 74.8159C36.448 74.6239 36.096 74.5919 36.064 74.9439C36.032 75.2959 36.448 75.6159 36.672 75.8399Z" fill="#000005"/>
<path id="Vector_12" d="M20.192 118.336L24 115.904L33.088 110.144L44.16 103.104L53.664 97.0562L56.8 95.0722C57.312 94.7522 57.824 94.4642 58.304 94.1122L58.368 94.0802C58.88 93.7602 58.048 92.3842 57.568 92.7042L53.76 95.1362L44.672 100.896L33.6 107.936L24.096 113.984L20.96 115.968C20.48 116.288 19.936 116.576 19.456 116.928C19.424 116.928 19.424 116.96 19.392 116.96C18.88 117.312 19.712 118.688 20.192 118.336Z" fill="#000005"/>
<path id="Vector_13" d="M82.72 94.08L84.448 96.448L88.576 102.112L93.568 108.96L97.92 114.912C98.624 115.872 99.296 116.864 100.032 117.792L100.064 117.824C100.288 118.112 100.608 118.368 100.96 118.496C101.216 118.592 101.28 118.528 101.12 118.272L99.392 115.904L95.264 110.24L90.24 103.424L85.888 97.472C85.184 96.512 84.512 95.52 83.776 94.592L83.744 94.56C83.52 94.272 83.2 94.016 82.848 93.888C82.592 93.76 82.528 93.824 82.72 94.08Z" fill="#000005"/>
<path id="Vector_14" d="M75.584 67.7119C75.584 67.7119 67.776 73.6639 67.264 76.5439C66.24 82.3359 81.632 95.3279 84.48 97.9199C87.328 100.512 92.224 103.456 92.096 100.672C92.096 100.672 95.552 102.784 95.104 99.9039C95.104 99.9039 98.656 100.896 96.736 98.3039C94.88 95.8399 90.656 92.0639 90.656 92.0639C90.656 92.0639 91.392 91.2959 93.12 90.7199C94.848 90.1439 95.616 88.6719 93.408 87.8719C91.2 87.0719 89.76 87.1999 85.12 87.9039L77.92 77.2799L82.304 73.9839L75.584 67.7119Z" fill="white"/>
<path id="Vector_15" d="M75.072 67.104C72.704 68.864 70.496 70.848 68.512 73.056C67.584 74.112 66.592 75.328 66.624 76.8C66.656 78.272 67.36 79.68 68.064 80.928C70.016 84.384 72.864 87.392 75.616 90.176C78.048 92.64 80.64 94.976 83.232 97.312C84.48 98.496 85.824 99.584 87.232 100.576C88.192 101.248 89.248 101.824 90.368 102.24C90.944 102.432 91.904 102.72 92.384 102.144C92.608 101.856 92.704 101.504 92.64 101.12L92.256 101.28C92.832 101.632 93.472 101.92 94.144 102.048C94.528 102.176 94.976 102.112 95.328 101.856C95.744 101.504 95.744 100.832 95.648 100.32L95.392 100.544C95.872 100.672 96.384 100.736 96.864 100.736C97.152 100.736 97.44 100.64 97.664 100.48C97.984 100.16 97.824 99.648 97.696 99.296C97.216 98.08 96.128 97.056 95.264 96.096C94.4 95.136 93.408 94.176 92.448 93.248C91.904 92.736 91.328 92.192 90.752 91.68L91.136 92.672C91.808 91.968 92.768 91.616 93.664 91.296C94.592 90.944 95.648 90.176 95.2 89.024C94.72 87.744 93.376 87.232 92.16 86.912C91.264 86.688 90.368 86.592 89.44 86.656C87.84 86.752 86.24 86.944 84.672 87.232L85.472 87.84L79.168 78.528L78.272 77.216L78.4 77.888L82.784 74.592C83.072 74.368 82.528 73.728 82.4 73.6L76.512 68.096L75.68 67.328C75.552 67.2 75.168 66.88 75.008 67.168C74.848 67.456 75.296 67.936 75.456 68.096L81.344 73.6L82.176 74.368L81.792 73.376L77.408 76.64C77.216 76.768 77.44 77.184 77.536 77.312L83.84 86.624L84.736 87.936C84.896 88.16 85.216 88.608 85.536 88.544C86.848 88.352 88.16 88.128 89.504 88.032C90.336 87.936 91.2 87.968 92.032 88.064C92.288 88.096 94.432 88.608 94.336 88.832C94.336 88.832 94.144 88.608 94.176 88.608C94.176 88.672 94.176 88.736 94.176 88.8C94.144 88.992 94.048 89.184 93.888 89.312C93.504 89.696 93.056 89.952 92.544 90.112C91.712 90.4 90.784 90.816 90.144 91.456C89.888 91.712 90.368 92.288 90.528 92.448C91.776 93.568 92.992 94.72 94.144 95.904C94.976 96.704 95.744 97.6 96.448 98.528C96.544 98.656 96.64 98.816 96.704 98.976C96.672 98.912 96.704 99.104 96.704 99.04C96.704 99.104 96.736 99.072 96.672 99.168C96.544 99.328 96.352 99.424 96.16 99.424C95.68 99.456 95.2 99.424 94.752 99.264C94.592 99.232 94.464 99.296 94.496 99.488C94.56 99.872 94.624 100.416 94.24 100.64C93.952 100.8 93.632 100.8 93.344 100.704C92.832 100.576 92.352 100.384 91.904 100.096C91.712 100 91.488 100 91.52 100.256C91.584 102.24 88.48 100.384 87.808 99.968C86.368 99.04 85.024 97.984 83.808 96.832C81.408 94.688 79.04 92.544 76.736 90.304C75.328 88.896 73.984 87.52 72.704 86.08C71.52 84.736 70.4 83.328 69.44 81.824C69.344 81.664 69.216 81.472 69.12 81.312L68.96 81.056L68.896 80.928C68.832 80.8 68.896 80.928 68.864 80.864C68.672 80.544 68.512 80.224 68.352 79.872C68.224 79.616 68.128 79.328 68.032 79.04C68 78.912 67.936 78.752 67.904 78.624C67.872 78.496 67.84 78.336 67.84 78.24C67.744 77.728 67.776 77.216 67.936 76.736C68.192 76.064 68.576 75.456 69.024 74.912C70.208 73.472 71.52 72.16 72.928 70.944C73.888 70.08 74.912 69.248 75.936 68.448L76.096 68.32C76.448 68.032 75.456 66.784 75.072 67.104Z" fill="#000005"/>
<path id="Vector_16" d="M87.264 96.832C88.16 97.92 89.12 98.976 90.176 99.904C90.592 100.288 91.008 100.608 91.456 100.928C91.712 101.088 92.192 100.992 92.448 100.896C92.512 100.864 93.152 100.672 92.96 100.512C92.16 99.936 91.392 99.296 90.72 98.592C90.144 98.016 89.6 97.408 89.056 96.8C88.96 96.672 88.864 96.544 88.736 96.448C88.608 96.352 88.416 96.384 88.352 96.384C88.16 96.384 87.936 96.416 87.744 96.48C87.648 96.48 87.104 96.608 87.264 96.832Z" fill="#000005"/>
<path id="Vector_17" d="M89.312 95.008C90.624 96.512 92.032 97.92 93.504 99.264C94.048 99.776 94.656 100.224 95.264 100.64C95.488 100.8 95.808 100.768 95.968 100.544C96 100.512 96.032 100.448 96.064 100.384C96.128 99.968 95.936 99.584 95.584 99.392L95.264 99.168C95.2 99.104 95.296 99.2 95.296 99.2L95.232 99.136L95.04 98.976C94.784 98.784 94.56 98.56 94.304 98.368C93.824 97.952 93.344 97.504 92.864 97.056C92.064 96.288 91.328 95.488 90.592 94.688L90.4 94.464C90.304 94.368 90.208 94.24 90.368 94.432L90.24 94.304C90.016 94.048 89.632 93.76 89.312 94.016C88.992 94.272 89.12 94.784 89.312 95.008Z" fill="#000005"/>
<path id="Vector_18" d="M82.272 73.984L74.528 66.24C74.528 66.24 90.336 56.928 97.824 60.864C105.312 64.8 103.488 74.048 103.488 74.048" fill="white"/>
<path id="Vector_19" d="M82.912 73.888L76.096 67.072L75.136 66.112L75.072 66.656C76.352 65.888 77.696 65.216 79.04 64.576C81.888 63.168 84.832 62.048 87.872 61.184C89.472 60.736 91.104 60.48 92.736 60.352C93.472 60.32 94.176 60.32 94.912 60.416C95.52 60.48 96.128 60.608 96.704 60.832C96.864 60.896 97.024 60.96 97.152 61.024C97.248 61.056 97.152 61.024 97.12 61.024L97.248 61.088L97.504 61.216C97.92 61.44 98.304 61.664 98.688 61.952C99.392 62.464 100.032 63.072 100.576 63.776C101.504 64.992 102.176 66.4 102.496 67.904C102.784 69.152 102.944 70.4 102.912 71.68C102.912 72.352 102.848 73.024 102.752 73.664L102.72 73.76C102.592 74.368 104.128 74.848 104.224 74.304C104.544 72.576 104.544 70.816 104.224 69.088C103.68 65.568 101.568 62.464 98.464 60.704C95.552 59.04 92 59.2 88.8 59.84C85.472 60.576 82.24 61.664 79.168 63.136C77.408 63.904 75.712 64.8 74.048 65.76L73.984 65.792C73.824 65.856 73.76 66.048 73.824 66.208C73.856 66.24 73.888 66.304 73.92 66.336L80.736 73.152L81.696 74.112C81.984 74.4 82.368 74.528 82.752 74.496C83.072 74.432 83.2 74.176 82.944 73.92L82.912 73.888Z" fill="#000005"/>
<path id="Vector_20" d="M104.832 48.5759C104.832 48.5759 106.56 51.8719 109.184 52.4159C111.808 52.9599 117.024 53.2159 116.96 55.9039C116.896 58.5919 113.216 58.6879 111.136 57.7599C111.136 57.7599 110.112 64.6719 105.664 65.5679C101.216 66.4639 99.616 64.8959 98.688 67.6159C98.688 67.6159 92.768 67.9679 93.472 62.6239C93.6 61.7919 93.856 54.5279 100.768 52.7679C100.768 52.7679 104.64 51.9999 104.832 48.5759Z" fill="white"/>
<path id="Vector_21" d="M104.16 48.96C104.704 49.952 105.376 50.816 106.208 51.584C106.848 52.192 107.616 52.672 108.48 52.928C109.216 53.12 109.952 53.248 110.72 53.344C112.224 53.6 113.856 53.792 115.168 54.528C115.392 54.656 115.584 54.816 115.776 54.976C115.968 55.136 116.096 55.36 116.16 55.616C116.192 55.712 116.224 55.84 116.192 55.936C116.192 56.096 116.16 56.288 116.128 56.448C116.064 56.704 115.936 56.928 115.744 57.12C115.712 57.152 115.552 57.28 115.648 57.216C115.584 57.28 115.488 57.312 115.424 57.344L115.328 57.408C115.104 57.504 115.392 57.376 115.264 57.44C115.168 57.472 115.072 57.504 115.008 57.536C114.656 57.632 114.272 57.696 113.888 57.664C113.088 57.664 112.32 57.504 111.584 57.184C111.136 56.992 110.624 57.216 110.432 57.664C110.4 57.728 110.4 57.76 110.4 57.824L110.368 57.952C110.368 57.984 110.336 58.048 110.336 58.08C110.336 58.112 110.272 58.4 110.304 58.176C110.208 58.592 110.112 59.008 109.984 59.424C109.664 60.576 109.152 61.696 108.512 62.72C108.192 63.232 107.776 63.712 107.296 64.128C106.848 64.512 106.272 64.8 105.696 64.96C104.16 65.344 102.592 65.216 101.024 65.312C100.416 65.312 99.808 65.472 99.264 65.792C98.656 66.208 98.208 66.848 98.016 67.552L98.816 67.008C98.72 67.008 98.624 67.008 98.496 67.008H98.24C98.528 67.008 98.272 67.008 98.208 67.008C98.048 67.008 97.888 66.976 97.76 66.976C97.632 66.976 97.408 66.912 97.248 66.88L96.992 66.816L96.864 66.784C97.024 66.816 96.864 66.784 96.832 66.784C96.64 66.72 96.448 66.656 96.256 66.56C96.16 66.528 96.064 66.496 95.968 66.432L95.84 66.368C95.712 66.304 95.904 66.4 95.776 66.336C95.008 65.888 94.464 65.12 94.304 64.224C94.208 63.488 94.24 62.752 94.368 62.016C94.4 61.696 94.432 61.408 94.496 61.088L94.528 60.832C94.528 60.768 94.56 60.736 94.56 60.672C94.528 60.8 94.56 60.672 94.56 60.64C94.592 60.448 94.656 60.224 94.72 60C94.976 59.072 95.328 58.144 95.808 57.312C96.928 55.328 98.848 53.92 101.056 53.408C103.392 52.832 105.504 51.104 105.664 48.576C105.728 47.68 104.128 47.872 104.096 48.672C104.064 49.28 103.872 49.888 103.52 50.4C103.392 50.592 103.232 50.784 103.072 50.944C102.976 51.04 102.848 51.136 102.752 51.232L102.592 51.36C102.464 51.456 102.624 51.328 102.496 51.424C102.304 51.552 102.08 51.68 101.856 51.776C101.76 51.808 101.664 51.872 101.568 51.904L101.408 51.968C101.152 52.064 100.928 52.128 100.672 52.192C98.144 52.8 95.936 54.4 94.56 56.608C93.6 58.24 92.992 60.064 92.8 61.952C92.672 62.72 92.64 63.52 92.704 64.32C92.832 65.408 93.376 66.4 94.24 67.072C95.456 68 97.152 68.384 98.688 68.288C99.04 68.288 99.328 68.064 99.488 67.744C99.552 67.488 99.68 67.264 99.808 67.04C99.84 66.976 99.872 66.944 99.904 66.88C100.032 66.72 99.776 66.976 99.936 66.848L100.064 66.752C100.16 66.688 99.936 66.784 100.128 66.72L100.256 66.656C100.064 66.752 100.192 66.688 100.256 66.656L100.416 66.624C100.224 66.656 100.608 66.56 100.416 66.624C100.704 66.592 100.992 66.56 101.248 66.56C102.912 66.528 104.64 66.592 106.272 66.08C109.024 65.248 110.592 62.496 111.392 59.904C111.616 59.168 111.808 58.432 111.904 57.696L110.688 58.336C112.288 59.04 114.272 59.2 115.872 58.496C117.376 57.856 118.272 56 117.376 54.528C116.544 53.152 114.56 52.704 113.12 52.416C112.288 52.256 111.456 52.128 110.592 51.968C109.824 51.84 109.056 51.744 108.352 51.328C107.136 50.56 106.176 49.472 105.504 48.16C105.152 47.488 103.712 48.16 104.16 48.96Z" fill="#000005"/>
<path id="Vector_22" d="M92.256 59.8722C92.256 59.8722 88.608 60.8001 88.032 58.8161C87.456 56.8321 89.792 57.3441 89.792 57.3441C89.792 57.3441 87.136 53.2801 90.88 52.5761C90.88 52.5761 87.84 49.5041 90.304 46.6561C92.768 43.8081 97.6 45.7281 97.6 45.7281C97.6 45.7281 97.536 41.3441 101.312 41.9521C105.088 42.5601 104.128 45.1841 104.128 45.1841C104.128 45.1841 106.528 45.5361 106.592 47.0401C106.656 48.5441 104.8 49.1201 104.8 49.1201C104.8 49.1201 104.064 53.4401 100.768 52.7681L97.504 58.1441C98.144 59.4241 98.08 60.9281 97.344 62.1441C96.128 64.1921 92.064 62.6882 92.256 59.8722Z" fill="#000005"/>
<path id="Vector_23" d="M91.968 59.168C91.84 59.2 91.712 59.232 91.552 59.264C91.296 59.296 90.88 59.36 90.752 59.36C90.368 59.392 89.984 59.36 89.632 59.328C89.504 59.296 89.376 59.264 89.248 59.232C89.216 59.232 89.152 59.2 89.12 59.2C89.184 59.232 89.184 59.232 89.12 59.2C89.088 59.168 88.864 59.008 88.992 59.136C88.96 59.104 88.736 58.912 88.896 59.04C88.864 59.008 88.832 58.976 88.832 58.912C88.864 58.976 88.864 58.976 88.832 58.912C88.768 58.752 88.736 58.592 88.704 58.432C88.704 58.272 88.8 58.144 88.928 58.112C88.992 58.08 88.992 58.08 88.928 58.112C88.96 58.112 88.992 58.08 89.024 58.08L89.248 58.048C89.376 58.016 89.152 58.048 89.344 58.048H89.504C89.6 58.048 89.728 58.08 89.824 58.08C90.016 58.112 89.792 58.08 89.792 58.08C90.432 58.208 90.784 57.632 90.432 57.088C90.4 57.056 90.368 56.992 90.336 56.928L90.304 56.864C90.24 56.736 90.4 57.024 90.336 56.896C90.272 56.768 90.24 56.736 90.208 56.64C90.112 56.448 90.016 56.256 89.952 56.032C89.92 55.904 89.856 55.808 89.824 55.68C89.76 55.52 89.856 55.776 89.824 55.616C89.792 55.552 89.792 55.488 89.76 55.392C89.728 55.264 89.728 55.136 89.696 55.008C89.664 54.912 89.664 54.816 89.696 54.752C89.696 54.528 89.76 54.336 89.856 54.144C89.888 54.048 89.952 53.984 90.016 53.92C90.08 53.824 90.176 53.76 90.272 53.696C90.56 53.504 90.912 53.376 91.264 53.344C91.904 53.216 91.712 52.512 91.392 52.16C91.36 52.128 91.264 52 91.36 52.128L91.328 52.096L91.168 51.904C91.04 51.744 90.944 51.616 90.848 51.456C90.752 51.296 90.656 51.136 90.56 50.976C90.048 50.048 90.016 48.928 90.496 47.968C91.072 46.976 92.032 46.272 93.152 46.048C93.664 45.952 94.176 45.888 94.656 45.92C94.88 45.92 95.104 45.952 95.36 45.984L95.68 46.016L95.968 46.048C96.512 46.144 97.056 46.304 97.6 46.496C97.92 46.624 98.4 46.432 98.4 46.048C98.4 45.664 98.432 45.312 98.528 44.96C98.528 44.896 98.56 44.832 98.56 44.736C98.528 44.864 98.592 44.64 98.592 44.608C98.656 44.448 98.72 44.256 98.784 44.096C98.912 43.776 99.104 43.488 99.36 43.264C99.456 43.136 99.584 43.072 99.712 42.976C99.872 42.88 100.032 42.816 100.224 42.784C100.736 42.688 101.28 42.688 101.76 42.816C102.048 42.88 102.304 42.976 102.56 43.072C102.752 43.136 102.912 43.264 103.072 43.392C103.136 43.456 103.2 43.52 103.264 43.584C103.136 43.456 103.296 43.648 103.328 43.712C103.456 43.84 103.296 43.648 103.36 43.776C103.392 43.872 103.424 43.936 103.456 44.032C103.424 43.872 103.488 44.128 103.456 44.032C103.456 44.064 103.456 44.128 103.488 44.16C103.52 44.192 103.52 44.32 103.52 44.384C103.52 44.32 103.52 44.352 103.52 44.448C103.52 44.512 103.52 44.576 103.52 44.64C103.52 44.704 103.52 44.736 103.488 44.8C103.456 44.864 103.456 44.992 103.488 44.864C103.52 44.736 103.488 44.864 103.488 44.896C103.296 45.44 103.776 45.92 104.288 46.016C104.32 46.016 104.416 46.048 104.288 46.016C104.16 45.984 104.384 46.048 104.416 46.048C104.64 46.112 104.832 46.176 105.056 46.24C105.056 46.24 105.28 46.336 105.152 46.272L105.312 46.336C105.376 46.368 105.664 46.56 105.568 46.464C105.632 46.496 105.664 46.528 105.728 46.592C105.76 46.624 105.792 46.656 105.824 46.656V46.624C105.952 46.784 105.92 46.688 105.952 46.88C105.952 46.816 105.952 47.04 105.952 47.104C105.952 47.264 105.888 47.392 105.824 47.552C105.696 47.744 105.504 47.904 105.312 48C105.12 48.128 104.928 48.256 104.704 48.352C104.64 48.384 104.544 48.416 104.48 48.448C104.416 48.48 104.64 48.384 104.512 48.448C104.288 48.512 104.096 48.704 104.064 48.928C104.064 48.992 104.032 49.024 104.032 49.088C104.032 49.152 103.968 49.344 104.032 49.152C104 49.248 104 49.312 103.968 49.408C103.84 49.856 103.648 50.304 103.424 50.72C102.912 51.616 102.016 52.32 100.864 52.128C100.576 52.032 100.256 52.16 100.096 52.416L97.12 57.28C96.96 57.536 96.736 57.792 96.8 58.112C96.832 58.272 96.896 58.4 96.96 58.56C97.056 58.816 97.152 59.104 97.184 59.392C97.312 60.224 97.12 61.28 96.544 61.92C96.192 62.272 95.712 62.432 95.232 62.368C94.624 62.336 94.08 62.08 93.632 61.696C93.44 61.504 93.28 61.312 93.152 61.056C93.024 60.768 92.96 60.416 92.96 60.096C92.96 59.68 92.704 59.296 92.32 59.2C92.032 59.072 91.68 59.232 91.552 59.52C91.52 59.552 91.52 59.616 91.52 59.648C91.392 61.568 92.864 63.2 94.656 63.68C95.488 63.936 96.352 63.84 97.12 63.456C98.08 62.912 98.56 61.696 98.656 60.64C98.752 59.744 98.56 58.816 98.176 58.016V58.56L101.44 53.184L100.672 53.472C101.504 53.664 102.368 53.568 103.136 53.216C103.744 52.864 104.256 52.352 104.608 51.744C105.056 51.008 105.376 50.24 105.504 49.376L105.056 49.856C106.432 49.408 107.648 48.128 107.168 46.624C106.752 45.312 105.216 44.672 103.968 44.512L104.768 45.632C104.928 45.152 104.96 44.608 104.864 44.128C104.64 42.944 103.712 42.144 102.624 41.696C101.44 41.216 99.904 41.024 98.752 41.632C97.92 42.112 97.344 42.912 97.088 43.84C96.896 44.416 96.8 44.992 96.8 45.6L97.6 45.152C95.968 44.512 94.208 44.32 92.48 44.64C91.104 44.896 89.92 45.696 89.152 46.88C88.448 48.096 88.352 49.568 88.896 50.88C89.216 51.744 89.728 52.512 90.368 53.152L90.496 51.968C89.664 52.128 88.864 52.512 88.416 53.248C88.096 53.824 88 54.528 88.128 55.168C88.288 56.096 88.64 56.96 89.152 57.728L89.792 56.736C88.64 56.48 87.104 56.736 87.136 58.208C87.136 59.168 87.68 60.032 88.544 60.448C89.28 60.8 90.112 60.928 90.912 60.864C91.424 60.832 91.968 60.768 92.48 60.64C93.472 60.352 92.768 58.976 91.968 59.168Z" fill="#000005"/>
<path id="Vector_24" d="M101.312 53.6C101.312 53.6 100.832 50.624 98.72 51.2C96.608 51.776 95.712 58.4 99.488 58.272" fill="white"/>
<path id="Vector_25" d="M102.048 53.312C101.952 52.576 101.632 51.904 101.12 51.328C100.224 50.368 98.624 50.56 97.664 51.328C96.864 51.968 96.448 52.992 96.224 53.952C95.968 54.976 96.032 56.032 96.384 57.024C96.864 58.24 97.952 58.752 99.2 58.72C99.584 58.688 99.936 58.496 100.16 58.176C100.32 57.824 99.936 57.792 99.68 57.792C99.808 57.792 99.584 57.792 99.584 57.792C99.52 57.792 99.456 57.792 99.392 57.76C99.328 57.76 99.264 57.728 99.168 57.728C98.976 57.696 98.816 57.6 98.688 57.504C98.368 57.28 98.112 56.992 97.952 56.64C97.6 55.84 97.504 54.944 97.632 54.08C97.696 53.664 97.792 53.216 97.92 52.832C97.984 52.64 98.048 52.48 98.144 52.32C98.208 52.224 98.24 52.128 98.304 52.032C98.336 52 98.336 51.968 98.368 51.936C98.304 52.032 98.432 51.872 98.432 51.872C98.432 51.872 98.528 51.744 98.592 51.68C98.496 51.776 98.72 51.552 98.592 51.68C98.624 51.648 98.624 51.648 98.656 51.616C98.816 51.584 98.496 51.712 98.624 51.616C98.656 51.584 98.784 51.552 98.624 51.616C98.464 51.68 98.624 51.616 98.656 51.616C98.304 51.744 98.72 51.616 98.624 51.648C99.008 51.616 99.392 51.776 99.648 52.064C100.128 52.576 100.416 53.248 100.512 53.952C100.64 54.4 102.144 53.92 102.048 53.312Z" fill="#000005"/>
<path id="Vector_26" d="M106.368 58.624C106.432 59.008 106.528 59.392 106.688 59.744C107.008 60.512 107.552 61.152 108.256 61.568C108.768 61.856 109.344 61.984 109.952 61.984C110.208 62.016 110.432 61.792 110.432 61.568C110.432 61.536 110.432 61.5041 110.432 61.4721C110.368 61.1841 110.08 60.96 109.76 60.96H109.568H109.504C109.408 60.96 109.536 60.96 109.536 60.96C109.44 60.928 109.312 60.9281 109.184 60.896L109.056 60.864L108.992 60.8321C108.928 60.8001 109.152 60.8961 109.024 60.8321C108.896 60.7681 108.832 60.768 108.768 60.704C108.704 60.64 108.704 60.672 108.64 60.64C108.576 60.608 108.768 60.736 108.64 60.64C108.512 60.544 108.48 60.512 108.416 60.48L108.32 60.384C108.224 60.288 108.416 60.48 108.32 60.384C108.224 60.288 108.192 60.2561 108.16 60.1921C108.128 60.1281 108.064 60.064 108.032 60C108 59.968 108 59.936 107.968 59.904C108 59.968 108.096 60.032 107.968 59.904C107.904 59.776 107.84 59.648 107.776 59.488C107.712 59.36 107.68 59.2641 107.648 59.1361C107.616 59.0721 107.68 59.296 107.648 59.168L107.616 59.104C107.616 59.04 107.584 59.008 107.584 58.944C107.552 58.848 107.52 58.72 107.52 58.624C107.424 57.984 106.24 57.888 106.368 58.624Z" fill="#000005"/>
<path id="Vector_27" d="M106.208 53.8241C106.508 53.8241 106.752 53.5805 106.752 53.2801C106.752 52.9796 106.508 52.7361 106.208 52.7361C105.908 52.7361 105.664 52.9796 105.664 53.2801C105.664 53.5805 105.908 53.8241 106.208 53.8241Z" fill="#000005"/>
<path id="Vector_28" d="M16.384 94.7841H21.248C21.568 94.7841 21.76 94.5601 21.6 94.2401C21.408 93.8881 21.056 93.6641 20.64 93.6321H15.808C15.488 93.6321 15.296 93.8561 15.456 94.1761C15.648 94.5281 16 94.7521 16.384 94.7841Z" fill="#000005"/>
<path id="Vector_29" d="M9.952 89.2482H17.632C17.984 89.2482 18.464 89.1202 18.624 88.7682C18.784 88.4162 18.464 88.1602 18.144 88.1602H10.464C10.112 88.1602 9.632 88.2882 9.472 88.6402C9.312 88.9922 9.632 89.2482 9.952 89.2482Z" fill="#000005"/>
<path id="Vector_30" d="M16.544 83.8721H24.64C24.864 83.8721 25.472 83.8081 25.6 83.5521C25.728 83.2961 25.12 83.2961 24.992 83.2961H16.928C16.704 83.2961 16.096 83.3601 15.968 83.6161C15.84 83.8721 16.448 83.8721 16.544 83.8721Z" fill="#000005"/>
<path id="Vector_31" d="M85.664 63.0401C85.728 66.1121 87.808 68.8961 90.272 70.5281C92.832 72.2241 95.904 73.1201 98.944 72.5121C100.736 72.1281 102.432 71.3921 103.936 70.3041C104.032 70.2401 103.328 69.8561 103.264 69.8241C103.104 69.7601 102.656 69.5041 102.464 69.6321C100.16 71.2321 97.312 72.2561 94.464 71.9041C92.032 71.6161 90.048 70.1121 88.672 68.1281C87.712 66.8481 87.168 65.2801 87.104 63.6801C87.104 63.4881 86.592 63.2961 86.432 63.2001C86.4 63.2321 85.664 62.9121 85.664 63.0401Z" fill="#000005"/>
<path id="Vector_32" d="M79.968 63.5519C79.744 65.9519 80.928 68.1279 82.464 69.8879C83.232 70.7519 84.064 71.5839 84.928 72.3199C85.76 73.0559 86.784 73.6639 87.904 73.7919C88.288 73.8879 88.704 73.6319 88.8 73.2479C88.832 72.8319 88.544 72.4799 88.128 72.4159C87.2 72.3199 86.496 71.7759 85.824 71.1679C85.088 70.5279 84.416 69.8239 83.744 69.0879C82.464 67.6479 81.344 65.8239 81.536 63.8079C81.632 62.9119 80.064 62.6559 79.968 63.5519Z" fill="#000005"/>
</g>
<g id="cloud">
<path id="Vector_33" d="M27.488 49.4079C27.488 49.4079 24.928 46.5599 21.344 47.4559C20.544 47.6479 19.84 48.0959 19.328 48.7359C17.792 50.6879 19.584 53.2479 22.336 53.2479L53.728 53.1839C56 53.1839 56.992 50.7519 55.168 49.5999C52.992 48.2559 50.176 49.3759 50.176 49.3759C50.176 49.3759 55.072 43.4559 49.28 37.3759C43.488 31.2959 35.04 37.1199 35.936 43.4559C35.968 43.4879 26.752 38.7839 27.488 49.4079Z" fill="white"/>
<path id="Vector_34" d="M28.096 48.8958C26.4 47.0718 23.872 46.3038 21.44 46.8478C19.808 47.2318 18.08 48.5758 18.016 50.3998C17.984 51.9358 19.136 53.1518 20.512 53.6638C21.472 54.0158 22.464 53.9198 23.456 53.9198H28.064L41.664 53.8878L52.384 53.8558C53.664 53.8558 54.912 53.8878 55.936 52.9598C57.024 51.9998 57.248 50.3358 56.096 49.3438C54.816 48.2238 52.8 48.1918 51.232 48.5118C50.848 48.5758 50.496 48.7038 50.144 48.8318L50.848 49.6318C51.616 48.6398 52.16 47.5198 52.512 46.3038C53.248 43.8398 52.928 41.1518 51.552 38.9438C50.048 36.4798 47.616 34.4638 44.672 34.2078C42.24 34.0478 39.84 34.9118 38.08 36.5758C36.096 38.3998 34.912 41.0238 35.264 43.7438L36.448 42.8798C35.392 42.3678 34.24 42.0158 33.088 41.8878C30.88 41.5998 28.704 42.3358 27.584 44.3838C26.688 45.9838 26.688 47.9358 26.784 49.6958C26.816 50.0798 27.36 50.1118 27.616 50.0158C28 49.9198 28.256 49.5678 28.256 49.1838C28.16 47.7438 28.192 46.1438 28.768 44.8638C28.864 44.6718 28.96 44.4798 29.088 44.3198C29.152 44.2238 29.216 44.1278 29.312 44.0318C29.44 43.8718 29.184 44.1598 29.312 43.9998C29.376 43.9358 29.408 43.9038 29.472 43.8398C29.536 43.7758 29.632 43.7118 29.728 43.6478C29.536 43.8078 29.792 43.6158 29.856 43.5838C29.92 43.5518 30.048 43.4878 30.112 43.4238C29.888 43.5518 30.208 43.3918 30.304 43.3598C30.4 43.3278 30.496 43.2958 30.592 43.2638C30.656 43.2318 30.72 43.2318 30.784 43.2318C31.008 43.1998 31.2 43.1678 31.424 43.1358H31.552C31.36 43.1358 31.648 43.1358 31.552 43.1358H31.872C32.096 43.1358 32.288 43.1678 32.512 43.1678C32.736 43.1678 32.896 43.2318 33.088 43.2638L33.216 43.2958C33.056 43.2638 33.216 43.2958 33.248 43.2958C33.344 43.3278 33.472 43.3278 33.568 43.3598C33.888 43.4558 34.24 43.5518 34.56 43.6478C34.912 43.7758 35.264 43.9358 35.616 44.0958C36.096 44.3518 36.864 43.7438 36.8 43.2318C36.256 39.1678 39.808 35.3918 43.744 35.4878C46.304 35.5518 48.448 37.1838 49.856 39.1998C51.296 41.1518 51.808 43.6158 51.232 45.9838C51.008 46.8158 50.688 47.6158 50.24 48.3838C50.336 48.2238 50.208 48.4478 50.176 48.5118L50.048 48.7038C49.984 48.7998 49.92 48.8958 49.856 48.9918C49.792 49.0878 49.728 49.1518 49.664 49.2478C49.216 49.7598 49.824 50.2718 50.368 50.0478C51.296 49.6958 52.32 49.5678 53.312 49.7278C54.4 49.8878 55.968 50.7518 55.296 51.9998C55.264 52.0638 55.2 52.1278 55.168 52.1918C55.136 52.2238 55.104 52.2558 55.04 52.3198C54.976 52.3838 54.816 52.4798 54.944 52.3838C54.72 52.5438 54.464 52.6398 54.176 52.6398C54.112 52.6398 54.016 52.6398 53.952 52.6398C53.664 52.6398 53.376 52.6398 53.12 52.6398H43.52L30.464 52.6718C27.904 52.6718 25.376 52.6718 22.816 52.6718C22.112 52.7038 21.44 52.5758 20.832 52.2238C19.84 51.6158 19.136 50.3678 19.776 49.2798C20.512 47.9998 22.304 47.8398 23.616 48.0958C24.704 48.3518 25.696 48.8638 26.528 49.5998C26.688 49.7278 26.816 49.8558 26.944 50.0158C27.2 50.3038 27.776 50.0478 28 49.8558C28.288 49.6638 28.352 49.3118 28.16 49.0238C28.128 48.9278 28.096 48.8958 28.096 48.8958Z" fill="#518C3C"/>
<path id="Vector_35" d="M130.912 37.536C130.912 37.536 111.008 37.696 108.992 37.248C106.976 36.8 104.608 33.344 106.848 29.28C109.088 25.216 112.448 26.4 112.448 26.4C112.448 26.4 112.16 20.704 119.104 21.024C126.048 21.344 125.76 27.808 125.76 27.808C125.76 27.808 130.976 28.032 130.336 32.224C130.336 32.224 132.768 31.328 134.048 34.432C135.328 37.536 130.912 37.536 130.912 37.536Z" fill="white"/>
<path id="Vector_36" d="M130.752 36.7679C129.408 36.7679 128.096 36.7679 126.752 36.7999C123.936 36.7999 121.12 36.7999 118.272 36.7999C116.864 36.7999 115.424 36.7679 114.016 36.7359L112.192 36.7039C112.16 36.7039 111.968 36.7039 112.032 36.7039H111.904H111.488L110.752 36.6719C110.368 36.6719 109.984 36.6399 109.632 36.6079C109.408 36.5759 109.184 36.5759 108.96 36.5119C108.704 36.4479 108.448 36.3199 108.256 36.1279C108.192 36.0639 108.096 35.9999 108.032 35.9359C108 35.9039 107.968 35.8719 107.936 35.8399C107.168 35.0719 106.752 34.0479 106.688 32.9919C106.56 30.9759 107.648 28.6719 109.408 27.5839C109.92 27.2639 110.496 27.0719 111.104 27.0399C111.232 27.0399 111.36 27.0399 111.488 27.0399C111.52 27.0399 111.36 27.0399 111.52 27.0399H111.712C111.872 27.0719 112.032 27.1039 112.192 27.1039C112.096 27.0719 112.448 27.1679 112.192 27.1039C112.608 27.2319 113.184 27.0399 113.152 26.5279C113.152 26.3359 113.152 26.1439 113.184 25.9519C113.184 25.8559 113.216 25.7599 113.216 25.6639C113.216 25.5679 113.248 25.4399 113.216 25.6639C113.216 25.5999 113.248 25.5679 113.248 25.5039C113.312 25.2479 113.376 24.9919 113.44 24.7679C113.472 24.6399 113.536 24.5119 113.6 24.3839C113.664 24.2559 113.536 24.4799 113.632 24.3199C113.664 24.2559 113.696 24.1599 113.76 24.0959C113.824 23.9679 113.92 23.8399 114.016 23.7119L114.176 23.5199C114.208 23.4879 114.336 23.3279 114.304 23.3599C114.784 22.8479 115.392 22.4319 116.064 22.2079C118.048 21.5039 120.224 21.6319 122.144 22.5279C122.784 22.8479 123.36 23.3279 123.808 23.9039C123.904 24.0319 124 24.1599 124.096 24.3199C124 24.1599 124.128 24.3839 124.16 24.4159C124.224 24.5119 124.256 24.6079 124.32 24.7039C124.48 24.9919 124.576 25.2799 124.704 25.5999C124.64 25.4079 124.736 25.6639 124.736 25.7279C124.736 25.7919 124.768 25.8559 124.8 25.9519C124.832 26.1119 124.864 26.2719 124.896 26.4319C124.96 26.6879 124.992 26.9439 125.024 27.1999C125.024 27.0399 125.056 27.3919 125.024 27.1999V27.3279C125.024 27.3919 125.024 27.4879 125.024 27.5519C125.024 27.6159 125.024 27.6799 125.024 27.7439C125.024 28.1599 125.312 28.5439 125.728 28.6079C125.984 28.6079 126.208 28.6399 126.464 28.7039C126.72 28.7359 126.976 28.7999 127.232 28.8639C127.36 28.8959 127.136 28.8319 127.328 28.8959C127.392 28.9279 127.456 28.9279 127.52 28.9599C127.68 29.0239 127.808 29.0559 127.968 29.1519C128.128 29.2479 128.256 29.2799 128.384 29.3439C128.224 29.2479 128.448 29.4079 128.48 29.4079C128.512 29.4079 128.64 29.5039 128.704 29.5679L128.896 29.7279C128.928 29.7599 129.056 29.8879 128.928 29.7599C129.056 29.8879 129.184 29.9839 129.312 30.1439C129.44 30.3039 129.248 30.0479 129.344 30.2079C129.376 30.3039 129.44 30.3679 129.472 30.4639C129.472 30.4959 129.6 30.7519 129.536 30.6239C129.568 30.7199 129.6 30.8159 129.6 30.9119C129.664 31.3279 129.664 31.7119 129.6 32.1279C129.568 32.6079 129.952 32.9919 130.4 32.9919C130.496 32.9919 130.592 32.9919 130.688 32.9599L130.752 32.9279C130.88 32.8959 130.624 32.9599 130.688 32.9279C130.752 32.9279 130.784 32.9279 130.848 32.8959C130.944 32.8639 131.072 32.8639 131.168 32.8639H131.264C131.36 32.8639 131.136 32.8639 131.232 32.8639C131.328 32.8639 131.392 32.8639 131.488 32.8959C131.776 32.9279 132.064 33.0559 132.288 33.2159C132.64 33.4719 132.928 33.8239 133.12 34.2079C133.248 34.4319 133.344 34.6559 133.44 34.8799C133.472 34.9759 133.504 35.1039 133.504 35.1999C133.504 35.2639 133.504 35.2959 133.536 35.3599C133.536 35.2639 133.536 35.3599 133.536 35.4239C133.536 35.4879 133.504 35.6799 133.536 35.5199C133.504 35.6159 133.504 35.6799 133.472 35.7439C133.408 35.8719 133.472 35.7759 133.472 35.7439C133.44 35.7759 133.44 35.8079 133.408 35.8399C133.376 35.9039 133.312 35.9679 133.28 36.0319C133.376 35.9039 133.248 36.0639 133.216 36.0959C133.152 36.1599 133.088 36.1919 133.024 36.2239C132.992 36.2559 132.96 36.2559 132.928 36.2879C132.96 36.2879 133.056 36.2239 132.928 36.2879C132.864 36.3199 132.8 36.3519 132.704 36.3839C132.544 36.4479 132.416 36.5119 132.256 36.5439C132.192 36.5759 132.128 36.5759 132.064 36.6079C132 36.6399 132.192 36.5759 132.064 36.6079L131.936 36.6399C131.552 36.7359 131.136 36.7679 130.752 36.7679C130.304 36.7999 130.08 37.2799 130.176 37.6319C130.272 38.0479 130.656 38.3359 131.072 38.3039C132.288 38.3039 133.792 37.9519 134.56 36.9599C135.264 36.0959 135.072 34.9119 134.624 33.9839C134.08 32.7999 133.184 31.8079 131.904 31.4559C131.264 31.2639 130.592 31.2959 129.952 31.5199L131.04 32.3519C131.296 30.8479 130.72 29.3119 129.504 28.3839C128.608 27.7119 127.552 27.2959 126.464 27.1359C126.24 27.1039 125.984 27.0719 125.76 27.0399L126.464 27.9039C126.56 25.4719 125.344 22.8159 123.264 21.5039C121.248 20.2239 118.56 19.9359 116.256 20.4799C114.56 20.8959 113.056 21.8879 112.288 23.4879C111.84 24.3519 111.616 25.3119 111.648 26.2719L112.608 25.6959C111.712 25.4079 110.752 25.4079 109.856 25.6639C107.776 26.2079 106.368 28.0639 105.632 29.9839C104.8 32.0959 105.12 34.5279 106.464 36.3519C107.2 37.3439 108.288 37.9519 109.504 38.0799C111.808 38.3039 114.176 38.2719 116.48 38.3039C119.52 38.3359 122.592 38.3359 125.632 38.3359C126.816 38.3359 128 38.3359 129.152 38.3359C129.728 38.3359 130.336 38.3679 130.912 38.3359H131.008C131.392 38.2719 131.648 37.9519 131.584 37.5679C131.584 37.5359 131.584 37.5039 131.584 37.5039C131.52 37.0879 131.168 36.7679 130.752 36.7679Z" fill="#518C3C"/>
<path id="Vector_37" d="M115.808 27.8719C115.136 26.3999 113.44 25.5359 111.872 25.5039C110.912 25.5039 109.952 25.7279 109.088 26.1119C108.704 26.2399 108.512 26.6559 108.64 27.0399V27.0719C108.832 27.4559 109.28 27.5839 109.664 27.4239C109.856 27.3599 110.048 27.2639 110.24 27.1999L110.496 27.1359C110.528 27.1359 110.784 27.0719 110.656 27.1039C110.976 27.0399 111.296 26.9759 111.616 26.9759C111.68 26.9759 111.808 26.9759 111.68 26.9759H111.904C112.032 26.9759 112.16 27.0079 112.288 27.0079L112.448 27.0399C112.576 27.0719 112.32 27.0079 112.48 27.0399C112.608 27.0719 112.704 27.1039 112.8 27.1359L113.088 27.2639C112.96 27.1999 113.12 27.2959 113.088 27.2639L113.216 27.3599C113.376 27.4559 113.504 27.5839 113.664 27.6799C113.472 27.5519 113.664 27.7119 113.728 27.7439C113.792 27.7759 113.856 27.8719 113.888 27.9359C113.92 27.9999 114.048 28.1279 114.144 28.2559L114.176 28.3199C114.24 28.3839 114.08 28.1279 114.144 28.2559C114.176 28.2879 114.176 28.3199 114.208 28.3839C114.24 28.4159 114.24 28.4479 114.272 28.4799C114.688 29.2799 116.192 28.7359 115.808 27.8719Z" fill="#518C3C"/>
</g>
</g>
</svg>
