<svg width="22" height="14" viewBox="0 0 22 14" fill="none" xmlns="http://www.w3.org/2000/svg">
<path id="Vector" d="M0 13.6752V12.4529H11.6817V13.6752H0ZM0 7.82256V6.60033H5.45294V7.82256H0ZM0 1.96995V0.747723H5.45294V1.96995H0ZM21.135 13.7222L16.3824 9.04019C15.9405 9.3708 15.4607 9.62656 14.9429 9.80744C14.4251 9.98854 13.8942 10.0791 13.3503 10.0791C11.9784 10.0791 10.8088 9.60466 9.84164 8.65581C8.87466 7.70716 8.39117 6.54798 8.39117 5.17828C8.39117 3.80878 8.87517 2.6497 9.84317 1.70106C10.8114 0.752205 11.9824 0.277779 13.3561 0.277779C14.7297 0.277779 15.8987 0.752205 16.863 1.70106C17.8275 2.6497 18.3098 3.80491 18.3098 5.16667C18.3098 5.71035 18.2194 6.2412 18.0385 6.75922C17.8574 7.27704 17.5937 7.74902 17.2474 8.17517L22 12.8572L21.135 13.7222ZM13.3503 8.85686C14.3884 8.85686 15.2709 8.50038 15.9977 7.78742C16.7243 7.07445 17.0876 6.20474 17.0876 5.17828C17.0876 4.15202 16.7243 3.28241 15.9977 2.56945C15.2709 1.85648 14.3884 1.5 13.3503 1.5C12.3123 1.5 11.4299 1.85648 10.7033 2.56945C9.9767 3.28241 9.61339 4.15202 9.61339 5.17828C9.61339 6.20474 9.9767 7.07445 10.7033 7.78742C11.4299 8.50038 12.3123 8.85686 13.3503 8.85686Z" fill="#E8EAED"/>
</svg>
