<svg width="22" height="23" viewBox="0 0 22 23" fill="none" xmlns="http://www.w3.org/2000/svg">
<path id="Vector" d="M11.004 22.5C9.48292 22.5 8.05281 22.2114 6.71367 21.6341C5.37472 21.0568 4.20994 20.2733 3.21933 19.2837C2.22872 18.2941 1.44456 17.1304 0.866861 15.7924C0.288954 14.4547 0 13.0252 0 11.504C0 9.98292 0.28875 8.55281 0.86625 7.21367C1.44375 5.87472 2.2275 4.70994 3.2175 3.71933C4.2075 2.72872 5.37167 1.94456 6.71 1.36686C8.04833 0.788954 9.47833 0.5 11 0.5C12.2509 0.5 13.4345 0.693519 14.5506 1.08056C15.6669 1.46759 16.6849 2.00741 17.6046 2.7L16.7255 3.60964C15.9203 3.01095 15.0344 2.54671 14.0678 2.21692C13.1014 1.88712 12.0788 1.72222 11 1.72222C8.29074 1.72222 5.9838 2.67454 4.07917 4.57917C2.17454 6.4838 1.22222 8.79074 1.22222 11.5C1.22222 14.2093 2.17454 16.5162 4.07917 18.4208C5.9838 20.3255 8.29074 21.2778 11 21.2778C13.7093 21.2778 16.0162 20.3255 17.9208 18.4208C19.8255 16.5162 20.7778 14.2093 20.7778 11.5C20.7778 11.0081 20.7417 10.5255 20.6696 10.0523C20.5975 9.57928 20.4894 9.11932 20.3454 8.67239L21.3208 7.67353C21.5448 8.27832 21.714 8.89891 21.8283 9.53528C21.9428 10.1714 22 10.8264 22 11.5C22 13.0217 21.7114 14.4517 21.1341 15.79C20.5568 17.1283 19.7733 18.2925 18.7837 19.2825C17.7941 20.2725 16.6304 21.0563 15.2924 21.6338C13.9547 22.2113 12.5252 22.5 11.004 22.5ZM9.24183 16.2761L4.89347 11.9278L5.7585 11.0627L9.24183 14.5461L21.135 2.64592L22 3.51094L9.24183 16.2761Z" fill="#518C3C"/>
</svg>
